M48
METRIC,LZ,000.000
;FILE_FORMAT=3:3
;TYPE=PLATED
;Layer: PTH_Through
;EasyEDA v6.5.32, 2023-07-27 18:43:02
;c15d88bf44794416bd69d8e6bd355938,5a6b42c53f6a479593ecc07194224c93,10
;Gerber Generator version 0.2
;Holesize 1 = 0.305 mm
T01C0.305
;Holesize 2 = 0.901 mm
T02C0.901
;Holesize 3 = 1.091 mm
T03C1.091
;Holesize 4 = 1.200 mm
T04C1.200
;Holesize 5 = 2.120 mm
T05C2.120
;Holesize 6 = 3.200 mm
T06C3.200
%
G05
G90
T01
X448564Y020701
X451104Y024003
X442595Y025273
X441381Y020630
X447040Y021844
X448310Y027432
X450088Y018923
X437896Y019431
X450088Y024003
X437515Y029718
X444246Y029845
X446024Y024384
X443738Y024384
X443738Y022987
X446024Y022987
X447421Y024384
X439293Y022225
X438150Y025781
X440690Y027778
X443230Y026543
X442341Y026543
X439293Y027559
X440563Y028956
X444246Y028956
X443484Y029337
X439293Y028321
X439293Y029083
X445008Y022098
X445262Y026543
X447421Y030734
X446278Y019628
X446024Y021590
X447802Y018923
X439801Y017145
X447421Y026543
X444246Y022098
X444119Y026543
X445262Y016891
X442341Y023114
X442849Y022479
X437007Y018923
X437134Y021717
X427609Y003937
X428244Y006096
X428244Y016764
X427609Y018288
X442087Y004445
X442849Y005715
X447802Y013273
X439801Y024638
X440055Y023876
X429641Y009271
X429641Y023876
X430276Y007874
X430276Y024638
X447040Y016129
X437515Y031750
X424815Y030734
X424815Y027432
X440182Y035814
X433324Y017018
X433324Y028382
X432689Y016383
X432689Y026482
X446278Y015494
X424815Y008382
X423926Y022225
X425958Y022225
X423926Y012827
X426085Y012827
T02
X418510Y043092G85X420610Y043092
X416609Y037341G85X416609Y039542
X422609Y039542G85X422609Y037341
T03
X417680Y017526
X417680Y011986
X417680Y014755
X417680Y020296
X417680Y023066
X420520Y013371
X420520Y016141
X420520Y018910
X420520Y021681
T04
X454660Y013335
X454660Y015875
X454660Y018415
X454660Y020955
X454660Y023495
X454660Y026035
X454660Y028575
X454660Y031115
T05
X454660Y006350
X454660Y038100
T06
X419100Y005026
X419100Y030026
M30
