G04 Layer: BottomSilkscreenLayer*
G04 EasyEDA v6.5.32, 2023-07-27 18:43:02*
G04 c15d88bf44794416bd69d8e6bd355938,5a6b42c53f6a479593ecc07194224c93,10*
G04 Gerber Generator version 0.2*
G04 Scale: 100 percent, Rotated: No, Reflected: No *
G04 Dimensions in millimeters *
G04 leading zeros omitted , absolute positions ,4 integer and 5 decimal *
%FSLAX45Y45*%
%MOMM*%

%ADD10C,0.2032*%
%ADD11C,0.1520*%
%ADD12C,0.1524*%
%ADD13C,0.2540*%

%LPD*%
D10*
X46044586Y195417D02*
G01*
X46050042Y206326D01*
X46060951Y217236D01*
X46071858Y222689D01*
X46093677Y222689D01*
X46104586Y217236D01*
X46115495Y206326D01*
X46120951Y195417D01*
X46126405Y179054D01*
X46126405Y151782D01*
X46120951Y135417D01*
X46115495Y124508D01*
X46104586Y113598D01*
X46093677Y108145D01*
X46071858Y108145D01*
X46060951Y113598D01*
X46050042Y124508D01*
X46044586Y135417D01*
X45975859Y222689D02*
G01*
X45986768Y217236D01*
X45997677Y206326D01*
X46003133Y195417D01*
X46008587Y179054D01*
X46008587Y151782D01*
X46003133Y135417D01*
X45997677Y124508D01*
X45986768Y113598D01*
X45975859Y108145D01*
X45954040Y108145D01*
X45943133Y113598D01*
X45932224Y124508D01*
X45926768Y135417D01*
X45921315Y151782D01*
X45921315Y179054D01*
X45926768Y195417D01*
X45932224Y206326D01*
X45943133Y217236D01*
X45954040Y222689D01*
X45975859Y222689D01*
X45885315Y222689D02*
G01*
X45885315Y108145D01*
X45885315Y222689D02*
G01*
X45836222Y222689D01*
X45819860Y217236D01*
X45814406Y211782D01*
X45808950Y200873D01*
X45808950Y184508D01*
X45814406Y173598D01*
X45819860Y168145D01*
X45836222Y162689D01*
X45885315Y162689D01*
X45772951Y222689D02*
G01*
X45729314Y168145D01*
X45729314Y108145D01*
X45685679Y222689D02*
G01*
X45729314Y168145D01*
X45649677Y222689D02*
G01*
X45649677Y108145D01*
X45649677Y222689D02*
G01*
X45600586Y222689D01*
X45584224Y217236D01*
X45578770Y211782D01*
X45573315Y200873D01*
X45573315Y189964D01*
X45578770Y179054D01*
X45584224Y173598D01*
X45600586Y168145D01*
X45649677Y168145D01*
X45611496Y168145D02*
G01*
X45573315Y108145D01*
X45537315Y222689D02*
G01*
X45537315Y108145D01*
X45419497Y195417D02*
G01*
X45424951Y206326D01*
X45435860Y217236D01*
X45446769Y222689D01*
X45468588Y222689D01*
X45479497Y217236D01*
X45490406Y206326D01*
X45495860Y195417D01*
X45501316Y179054D01*
X45501316Y151782D01*
X45495860Y135417D01*
X45490406Y124508D01*
X45479497Y113598D01*
X45468588Y108145D01*
X45446769Y108145D01*
X45435860Y113598D01*
X45424951Y124508D01*
X45419497Y135417D01*
X45419497Y151782D01*
X45446769Y151782D02*
G01*
X45419497Y151782D01*
X45383498Y222689D02*
G01*
X45383498Y108145D01*
X45307133Y222689D02*
G01*
X45307133Y108145D01*
X45383498Y168145D02*
G01*
X45307133Y168145D01*
X45232952Y222689D02*
G01*
X45232952Y108145D01*
X45271133Y222689D02*
G01*
X45194771Y222689D01*
X45069315Y195417D02*
G01*
X45069315Y200873D01*
X45063862Y211782D01*
X45058406Y217236D01*
X45047496Y222689D01*
X45025680Y222689D01*
X45014771Y217236D01*
X45009315Y211782D01*
X45003862Y200873D01*
X45003862Y189964D01*
X45009315Y179054D01*
X45020224Y162689D01*
X45074771Y108145D01*
X44998406Y108145D01*
X44929679Y222689D02*
G01*
X44946044Y217236D01*
X44956953Y200873D01*
X44962406Y173598D01*
X44962406Y157236D01*
X44956953Y129964D01*
X44946044Y113598D01*
X44929679Y108145D01*
X44918772Y108145D01*
X44902407Y113598D01*
X44891497Y129964D01*
X44886044Y157236D01*
X44886044Y173598D01*
X44891497Y200873D01*
X44902407Y217236D01*
X44918772Y222689D01*
X44929679Y222689D01*
X44844588Y195417D02*
G01*
X44844588Y200873D01*
X44839135Y211782D01*
X44833679Y217236D01*
X44822770Y222689D01*
X44800954Y222689D01*
X44790045Y217236D01*
X44784589Y211782D01*
X44779135Y200873D01*
X44779135Y189964D01*
X44784589Y179054D01*
X44795498Y162689D01*
X44850044Y108145D01*
X44773679Y108145D01*
X44726771Y222689D02*
G01*
X44666771Y222689D01*
X44699499Y179054D01*
X44683136Y179054D01*
X44672227Y173598D01*
X44666771Y168145D01*
X44661317Y151782D01*
X44661317Y140873D01*
X44666771Y124508D01*
X44677680Y113598D01*
X44694043Y108145D01*
X44710408Y108145D01*
X44726771Y113598D01*
X44732227Y119054D01*
X44737680Y129964D01*
X44541318Y222689D02*
G01*
X44497680Y108145D01*
X44454043Y222689D02*
G01*
X44497680Y108145D01*
X44418044Y222689D02*
G01*
X44418044Y108145D01*
X44418044Y222689D02*
G01*
X44347135Y222689D01*
X44418044Y168145D02*
G01*
X44374409Y168145D01*
X44418044Y108145D02*
G01*
X44347135Y108145D01*
X44234773Y222689D02*
G01*
X44289317Y108145D01*
X44311135Y222689D02*
G01*
X44234773Y222689D01*
X44198773Y222689D02*
G01*
X44198773Y108145D01*
X44198773Y222689D02*
G01*
X44127864Y222689D01*
X44198773Y168145D02*
G01*
X44155136Y168145D01*
X44091862Y222689D02*
G01*
X44091862Y108145D01*
X44055863Y222689D02*
G01*
X44055863Y108145D01*
X44055863Y222689D02*
G01*
X44012228Y108145D01*
X43968591Y222689D02*
G01*
X44012228Y108145D01*
X43968591Y222689D02*
G01*
X43968591Y108145D01*
X46088300Y4146989D02*
G01*
X46088300Y4032445D01*
X46088300Y4146989D02*
G01*
X46039209Y4146989D01*
X46022846Y4141536D01*
X46017390Y4136082D01*
X46011937Y4125173D01*
X46011937Y4108808D01*
X46017390Y4097899D01*
X46022846Y4092445D01*
X46039209Y4086989D01*
X46088300Y4086989D01*
X45932300Y4146989D02*
G01*
X45975935Y4032445D01*
X45932300Y4146989D02*
G01*
X45888663Y4032445D01*
X45959572Y4070626D02*
G01*
X45905028Y4070626D01*
X45852664Y4146989D02*
G01*
X45852664Y4032445D01*
X45852664Y4146989D02*
G01*
X45803573Y4146989D01*
X45787210Y4141536D01*
X45781755Y4136082D01*
X45776300Y4125173D01*
X45776300Y4114264D01*
X45781755Y4103354D01*
X45787210Y4097899D01*
X45803573Y4092445D01*
X45852664Y4092445D01*
X45814482Y4092445D02*
G01*
X45776300Y4032445D01*
X45702118Y4146989D02*
G01*
X45702118Y4032445D01*
X45740300Y4146989D02*
G01*
X45663937Y4146989D01*
X45543937Y4146989D02*
G01*
X45543937Y4032445D01*
X45543937Y4146989D02*
G01*
X45467574Y4032445D01*
X45467574Y4146989D02*
G01*
X45467574Y4032445D01*
X45431572Y4146989D02*
G01*
X45431572Y4065173D01*
X45426119Y4048808D01*
X45415210Y4037899D01*
X45398847Y4032445D01*
X45387938Y4032445D01*
X45371572Y4037899D01*
X45360666Y4048808D01*
X45355210Y4065173D01*
X45355210Y4146989D01*
X45319210Y4146989D02*
G01*
X45319210Y4032445D01*
X45319210Y4146989D02*
G01*
X45275573Y4032445D01*
X45231938Y4146989D02*
G01*
X45275573Y4032445D01*
X45231938Y4146989D02*
G01*
X45231938Y4032445D01*
X45195937Y4146989D02*
G01*
X45195937Y4032445D01*
X45195937Y4146989D02*
G01*
X45146846Y4146989D01*
X45130483Y4141536D01*
X45125030Y4136082D01*
X45119574Y4125173D01*
X45119574Y4114264D01*
X45125030Y4103354D01*
X45130483Y4097899D01*
X45146846Y4092445D01*
X45195937Y4092445D02*
G01*
X45146846Y4092445D01*
X45130483Y4086989D01*
X45125030Y4081536D01*
X45119574Y4070626D01*
X45119574Y4054264D01*
X45125030Y4043354D01*
X45130483Y4037899D01*
X45146846Y4032445D01*
X45195937Y4032445D01*
X45083575Y4146989D02*
G01*
X45083575Y4032445D01*
X45083575Y4146989D02*
G01*
X45012665Y4146989D01*
X45083575Y4092445D02*
G01*
X45039937Y4092445D01*
X45083575Y4032445D02*
G01*
X45012665Y4032445D01*
X44976666Y4146989D02*
G01*
X44976666Y4032445D01*
X44976666Y4146989D02*
G01*
X44927575Y4146989D01*
X44911210Y4141536D01*
X44905757Y4136082D01*
X44900301Y4125173D01*
X44900301Y4114264D01*
X44905757Y4103354D01*
X44911210Y4097899D01*
X44927575Y4092445D01*
X44976666Y4092445D01*
X44938485Y4092445D02*
G01*
X44900301Y4032445D01*
X44780301Y4125173D02*
G01*
X44769392Y4130626D01*
X44753029Y4146989D01*
X44753029Y4032445D01*
X44646121Y4108808D02*
G01*
X44651574Y4092445D01*
X44662483Y4081536D01*
X44678848Y4076082D01*
X44684302Y4076082D01*
X44700667Y4081536D01*
X44711574Y4092445D01*
X44717030Y4108808D01*
X44717030Y4114264D01*
X44711574Y4130626D01*
X44700667Y4141536D01*
X44684302Y4146989D01*
X44678848Y4146989D01*
X44662483Y4141536D01*
X44651574Y4130626D01*
X44646121Y4108808D01*
X44646121Y4081536D01*
X44651574Y4054264D01*
X44662483Y4037899D01*
X44678848Y4032445D01*
X44689758Y4032445D01*
X44706120Y4037899D01*
X44711574Y4048808D01*
X44610121Y4125173D02*
G01*
X44599212Y4130626D01*
X44582849Y4146989D01*
X44582849Y4032445D01*
X44514122Y4146989D02*
G01*
X44530484Y4141536D01*
X44541394Y4125173D01*
X44546847Y4097899D01*
X44546847Y4081536D01*
X44541394Y4054264D01*
X44530484Y4037899D01*
X44514122Y4032445D01*
X44503213Y4032445D01*
X44486847Y4037899D01*
X44475938Y4054264D01*
X44470485Y4081536D01*
X44470485Y4097899D01*
X44475938Y4125173D01*
X44486847Y4141536D01*
X44503213Y4146989D01*
X44514122Y4146989D01*
X44434485Y4081536D02*
G01*
X44336304Y4081536D01*
X44267577Y4146989D02*
G01*
X44283939Y4141536D01*
X44294849Y4125173D01*
X44300302Y4097899D01*
X44300302Y4081536D01*
X44294849Y4054264D01*
X44283939Y4037899D01*
X44267577Y4032445D01*
X44256667Y4032445D01*
X44240302Y4037899D01*
X44229393Y4054264D01*
X44223940Y4081536D01*
X44223940Y4097899D01*
X44229393Y4125173D01*
X44240302Y4141536D01*
X44256667Y4146989D01*
X44267577Y4146989D01*
X44122484Y4146989D02*
G01*
X44177031Y4146989D01*
X44182484Y4097899D01*
X44177031Y4103354D01*
X44160668Y4108808D01*
X44144303Y4108808D01*
X44127940Y4103354D01*
X44117031Y4092445D01*
X44111575Y4076082D01*
X44111575Y4065173D01*
X44117031Y4048808D01*
X44127940Y4037899D01*
X44144303Y4032445D01*
X44160668Y4032445D01*
X44177031Y4037899D01*
X44182484Y4043354D01*
X44187940Y4054264D01*
X44042850Y4146989D02*
G01*
X44059213Y4141536D01*
X44070122Y4125173D01*
X44075576Y4097899D01*
X44075576Y4081536D01*
X44070122Y4054264D01*
X44059213Y4037899D01*
X44042850Y4032445D01*
X44031941Y4032445D01*
X44015576Y4037899D01*
X44004666Y4054264D01*
X43999213Y4081536D01*
X43999213Y4097899D01*
X44004666Y4125173D01*
X44015576Y4141536D01*
X44031941Y4146989D01*
X44042850Y4146989D01*
X43963214Y4125173D02*
G01*
X43952304Y4130626D01*
X43935939Y4146989D01*
X43935939Y4032445D01*
X43815939Y4146989D02*
G01*
X43772305Y4032445D01*
X43728667Y4146989D02*
G01*
X43772305Y4032445D01*
X43659940Y4146989D02*
G01*
X43676305Y4141536D01*
X43687215Y4125173D01*
X43692668Y4097899D01*
X43692668Y4081536D01*
X43687215Y4054264D01*
X43676305Y4037899D01*
X43659940Y4032445D01*
X43649031Y4032445D01*
X43632668Y4037899D01*
X43621759Y4054264D01*
X43616305Y4081536D01*
X43616305Y4097899D01*
X43621759Y4125173D01*
X43632668Y4141536D01*
X43649031Y4146989D01*
X43659940Y4146989D01*
X43574850Y4059717D02*
G01*
X43580304Y4054264D01*
X43574850Y4048808D01*
X43569394Y4054264D01*
X43574850Y4059717D01*
X43527941Y4119717D02*
G01*
X43527941Y4125173D01*
X43522485Y4136082D01*
X43517032Y4141536D01*
X43506123Y4146989D01*
X43484304Y4146989D01*
X43473395Y4141536D01*
X43467942Y4136082D01*
X43462486Y4125173D01*
X43462486Y4114264D01*
X43467942Y4103354D01*
X43478851Y4086989D01*
X43533395Y4032445D01*
X43457032Y4032445D01*
X46113700Y4315673D02*
G01*
X46102790Y4321126D01*
X46086428Y4337489D01*
X46086428Y4222945D01*
X46050428Y4337489D02*
G01*
X46050428Y4255673D01*
X46044972Y4239308D01*
X46034063Y4228398D01*
X46017700Y4222945D01*
X46006791Y4222945D01*
X45990428Y4228398D01*
X45979519Y4239308D01*
X45974063Y4255673D01*
X45974063Y4337489D01*
X45854063Y4337489D02*
G01*
X45854063Y4222945D01*
X45854063Y4337489D02*
G01*
X45804973Y4337489D01*
X45788610Y4332036D01*
X45783154Y4326582D01*
X45777701Y4315673D01*
X45777701Y4304764D01*
X45783154Y4293854D01*
X45788610Y4288398D01*
X45804973Y4282945D01*
X45854063Y4282945D01*
X45815882Y4282945D02*
G01*
X45777701Y4222945D01*
X45698064Y4337489D02*
G01*
X45741701Y4222945D01*
X45698064Y4337489D02*
G01*
X45654427Y4222945D01*
X45725336Y4261126D02*
G01*
X45670792Y4261126D01*
X45536609Y4310217D02*
G01*
X45542065Y4321126D01*
X45552974Y4332036D01*
X45563883Y4337489D01*
X45585700Y4337489D01*
X45596609Y4332036D01*
X45607518Y4321126D01*
X45612974Y4310217D01*
X45618427Y4293854D01*
X45618427Y4266582D01*
X45612974Y4250217D01*
X45607518Y4239308D01*
X45596609Y4228398D01*
X45585700Y4222945D01*
X45563883Y4222945D01*
X45552974Y4228398D01*
X45542065Y4239308D01*
X45536609Y4250217D01*
X45500610Y4337489D02*
G01*
X45500610Y4222945D01*
X45424247Y4337489D02*
G01*
X45500610Y4261126D01*
X45473338Y4288398D02*
G01*
X45424247Y4222945D01*
X45304247Y4337489D02*
G01*
X45304247Y4222945D01*
X45304247Y4337489D02*
G01*
X45266066Y4337489D01*
X45249701Y4332036D01*
X45238791Y4321126D01*
X45233338Y4310217D01*
X45227882Y4293854D01*
X45227882Y4266582D01*
X45233338Y4250217D01*
X45238791Y4239308D01*
X45249701Y4228398D01*
X45266066Y4222945D01*
X45304247Y4222945D01*
X45191883Y4337489D02*
G01*
X45191883Y4222945D01*
X45079521Y4321126D02*
G01*
X45090430Y4332036D01*
X45106793Y4337489D01*
X45128611Y4337489D01*
X45144974Y4332036D01*
X45155883Y4321126D01*
X45155883Y4310217D01*
X45150430Y4299308D01*
X45144974Y4293854D01*
X45134065Y4288398D01*
X45101337Y4277489D01*
X45090430Y4272036D01*
X45084974Y4266582D01*
X45079521Y4255673D01*
X45079521Y4239308D01*
X45090430Y4228398D01*
X45106793Y4222945D01*
X45128611Y4222945D01*
X45144974Y4228398D01*
X45155883Y4239308D01*
X45043519Y4337489D02*
G01*
X45043519Y4222945D01*
X45043519Y4337489D02*
G01*
X44994428Y4337489D01*
X44978066Y4332036D01*
X44972612Y4326582D01*
X44967156Y4315673D01*
X44967156Y4299308D01*
X44972612Y4288398D01*
X44978066Y4282945D01*
X44994428Y4277489D01*
X45043519Y4277489D01*
X44931157Y4337489D02*
G01*
X44931157Y4222945D01*
X44931157Y4222945D02*
G01*
X44865701Y4222945D01*
X44786067Y4337489D02*
G01*
X44829702Y4222945D01*
X44786067Y4337489D02*
G01*
X44742430Y4222945D01*
X44813339Y4261126D02*
G01*
X44758792Y4261126D01*
X44706430Y4337489D02*
G01*
X44662793Y4282945D01*
X44662793Y4222945D01*
X44619156Y4337489D02*
G01*
X44662793Y4282945D01*
X44499156Y4337489D02*
G01*
X44499156Y4222945D01*
X44499156Y4337489D02*
G01*
X44450066Y4337489D01*
X44433703Y4332036D01*
X44428249Y4326582D01*
X44422794Y4315673D01*
X44422794Y4299308D01*
X44428249Y4288398D01*
X44433703Y4282945D01*
X44450066Y4277489D01*
X44499156Y4277489D01*
X44386794Y4337489D02*
G01*
X44386794Y4222945D01*
X44386794Y4337489D02*
G01*
X44337704Y4337489D01*
X44321338Y4332036D01*
X44315885Y4326582D01*
X44310432Y4315673D01*
X44310432Y4304764D01*
X44315885Y4293854D01*
X44321338Y4288398D01*
X44337704Y4282945D01*
X44386794Y4282945D01*
X44348613Y4282945D02*
G01*
X44310432Y4222945D01*
X44241704Y4337489D02*
G01*
X44252614Y4332036D01*
X44263520Y4321126D01*
X44268976Y4310217D01*
X44274430Y4293854D01*
X44274430Y4266582D01*
X44268976Y4250217D01*
X44263520Y4239308D01*
X44252614Y4228398D01*
X44241704Y4222945D01*
X44219886Y4222945D01*
X44208976Y4228398D01*
X44198067Y4239308D01*
X44192614Y4250217D01*
X44187158Y4266582D01*
X44187158Y4293854D01*
X44192614Y4310217D01*
X44198067Y4321126D01*
X44208976Y4332036D01*
X44219886Y4337489D01*
X44241704Y4337489D01*
X44069340Y4310217D02*
G01*
X44074793Y4321126D01*
X44085703Y4332036D01*
X44096612Y4337489D01*
X44118430Y4337489D01*
X44129340Y4332036D01*
X44140249Y4321126D01*
X44145702Y4310217D01*
X44151158Y4293854D01*
X44151158Y4266582D01*
X44145702Y4250217D01*
X44140249Y4239308D01*
X44129340Y4228398D01*
X44118430Y4222945D01*
X44096612Y4222945D01*
X44085703Y4228398D01*
X44074793Y4239308D01*
X44069340Y4250217D01*
X44033340Y4337489D02*
G01*
X44033340Y4222945D01*
X44033340Y4337489D02*
G01*
X43962431Y4337489D01*
X44033340Y4282945D02*
G01*
X43989703Y4282945D01*
X44033340Y4222945D02*
G01*
X43962431Y4222945D01*
X43850067Y4321126D02*
G01*
X43860976Y4332036D01*
X43877341Y4337489D01*
X43899157Y4337489D01*
X43915523Y4332036D01*
X43926432Y4321126D01*
X43926432Y4310217D01*
X43920976Y4299308D01*
X43915523Y4293854D01*
X43904613Y4288398D01*
X43871885Y4277489D01*
X43860976Y4272036D01*
X43855523Y4266582D01*
X43850067Y4255673D01*
X43850067Y4239308D01*
X43860976Y4228398D01*
X43877341Y4222945D01*
X43899157Y4222945D01*
X43915523Y4228398D01*
X43926432Y4239308D01*
X43737705Y4321126D02*
G01*
X43748614Y4332036D01*
X43764977Y4337489D01*
X43786795Y4337489D01*
X43803158Y4332036D01*
X43814067Y4321126D01*
X43814067Y4310217D01*
X43808614Y4299308D01*
X43803158Y4293854D01*
X43792249Y4288398D01*
X43759523Y4277489D01*
X43748614Y4272036D01*
X43743158Y4266582D01*
X43737705Y4255673D01*
X43737705Y4239308D01*
X43748614Y4228398D01*
X43764977Y4222945D01*
X43786795Y4222945D01*
X43803158Y4228398D01*
X43814067Y4239308D01*
X43668977Y4337489D02*
G01*
X43679887Y4332036D01*
X43690796Y4321126D01*
X43696249Y4310217D01*
X43701705Y4293854D01*
X43701705Y4266582D01*
X43696249Y4250217D01*
X43690796Y4239308D01*
X43679887Y4228398D01*
X43668977Y4222945D01*
X43647159Y4222945D01*
X43636250Y4228398D01*
X43625340Y4239308D01*
X43619887Y4250217D01*
X43614431Y4266582D01*
X43614431Y4293854D01*
X43619887Y4310217D01*
X43625340Y4321126D01*
X43636250Y4332036D01*
X43647159Y4337489D01*
X43668977Y4337489D01*
X43578432Y4337489D02*
G01*
X43578432Y4222945D01*
X43578432Y4337489D02*
G01*
X43529341Y4337489D01*
X43512978Y4332036D01*
X43507522Y4326582D01*
X43502069Y4315673D01*
X43502069Y4304764D01*
X43507522Y4293854D01*
X43512978Y4288398D01*
X43529341Y4282945D01*
X43578432Y4282945D01*
X43540250Y4282945D02*
G01*
X43502069Y4222945D01*
X43382069Y4272036D02*
G01*
X43283888Y4272036D01*
X43163888Y4337489D02*
G01*
X43163888Y4222945D01*
X43163888Y4337489D02*
G01*
X43114795Y4337489D01*
X43098432Y4332036D01*
X43092979Y4326582D01*
X43087523Y4315673D01*
X43087523Y4304764D01*
X43092979Y4293854D01*
X43098432Y4288398D01*
X43114795Y4282945D01*
X43163888Y4282945D02*
G01*
X43114795Y4282945D01*
X43098432Y4277489D01*
X43092979Y4272036D01*
X43087523Y4261126D01*
X43087523Y4244764D01*
X43092979Y4233854D01*
X43098432Y4228398D01*
X43114795Y4222945D01*
X43163888Y4222945D01*
X43018796Y4337489D02*
G01*
X43029705Y4332036D01*
X43040614Y4321126D01*
X43046070Y4310217D01*
X43051524Y4293854D01*
X43051524Y4266582D01*
X43046070Y4250217D01*
X43040614Y4239308D01*
X43029705Y4228398D01*
X43018796Y4222945D01*
X42996977Y4222945D01*
X42986071Y4228398D01*
X42975161Y4239308D01*
X42969705Y4250217D01*
X42964252Y4266582D01*
X42964252Y4293854D01*
X42969705Y4310217D01*
X42975161Y4321126D01*
X42986071Y4332036D01*
X42996977Y4337489D01*
X43018796Y4337489D01*
X42890069Y4337489D02*
G01*
X42890069Y4222945D01*
X42928252Y4337489D02*
G01*
X42851887Y4337489D01*
X42777707Y4337489D02*
G01*
X42777707Y4222945D01*
X42815888Y4337489D02*
G01*
X42739525Y4337489D01*
X42670798Y4337489D02*
G01*
X42681707Y4332036D01*
X42692617Y4321126D01*
X42698070Y4310217D01*
X42703523Y4293854D01*
X42703523Y4266582D01*
X42698070Y4250217D01*
X42692617Y4239308D01*
X42681707Y4228398D01*
X42670798Y4222945D01*
X42648979Y4222945D01*
X42638070Y4228398D01*
X42627161Y4239308D01*
X42621708Y4250217D01*
X42616252Y4266582D01*
X42616252Y4293854D01*
X42621708Y4310217D01*
X42627161Y4321126D01*
X42638070Y4332036D01*
X42648979Y4337489D01*
X42670798Y4337489D01*
X42580252Y4337489D02*
G01*
X42580252Y4222945D01*
X42580252Y4337489D02*
G01*
X42536615Y4222945D01*
X42492980Y4337489D02*
G01*
X42536615Y4222945D01*
X42492980Y4337489D02*
G01*
X42492980Y4222945D01*
D11*
X42429557Y166151D02*
G01*
X42429557Y83024D01*
X42434753Y67437D01*
X42439948Y62242D01*
X42450339Y57048D01*
X42460730Y57048D01*
X42471121Y62242D01*
X42476318Y67437D01*
X42481512Y83024D01*
X42481512Y93416D01*
X42395266Y166151D02*
G01*
X42395266Y57048D01*
X42395266Y57048D02*
G01*
X42332922Y57048D01*
X42220700Y140174D02*
G01*
X42225897Y150566D01*
X42236288Y160957D01*
X42246677Y166151D01*
X42267459Y166151D01*
X42277850Y160957D01*
X42288241Y150566D01*
X42293438Y140174D01*
X42298632Y124587D01*
X42298632Y98610D01*
X42293438Y83024D01*
X42288241Y72633D01*
X42277850Y62242D01*
X42267459Y57048D01*
X42246677Y57048D01*
X42236288Y62242D01*
X42225897Y72633D01*
X42220700Y83024D01*
X42134457Y166151D02*
G01*
X42134457Y83024D01*
X42139651Y67437D01*
X42144848Y62242D01*
X42155236Y57048D01*
X42165628Y57048D01*
X42176019Y62242D01*
X42181216Y67437D01*
X42186410Y83024D01*
X42186410Y93416D01*
X42100167Y166151D02*
G01*
X42100167Y57048D01*
X42100167Y57048D02*
G01*
X42037820Y57048D01*
X41925598Y140174D02*
G01*
X41930794Y150566D01*
X41941186Y160957D01*
X41951577Y166151D01*
X41972357Y166151D01*
X41982748Y160957D01*
X41993139Y150566D01*
X41998336Y140174D01*
X42003530Y124587D01*
X42003530Y98610D01*
X41998336Y83024D01*
X41993139Y72633D01*
X41982748Y62242D01*
X41972357Y57048D01*
X41951577Y57048D01*
X41941186Y62242D01*
X41930794Y72633D01*
X41925598Y83024D01*
X41839354Y166151D02*
G01*
X41839354Y83024D01*
X41844549Y67437D01*
X41849746Y62242D01*
X41860137Y57048D01*
X41870528Y57048D01*
X41880916Y62242D01*
X41886113Y67437D01*
X41891308Y83024D01*
X41891308Y93416D01*
X41805064Y166151D02*
G01*
X41805064Y57048D01*
X41805064Y57048D02*
G01*
X41742718Y57048D01*
X41630498Y140174D02*
G01*
X41635692Y150566D01*
X41646083Y160957D01*
X41656474Y166151D01*
X41677257Y166151D01*
X41687648Y160957D01*
X41698036Y150566D01*
X41703233Y140174D01*
X41708428Y124587D01*
X41708428Y98610D01*
X41703233Y83024D01*
X41698036Y72633D01*
X41687648Y62242D01*
X41677257Y57048D01*
X41656474Y57048D01*
X41646083Y62242D01*
X41635692Y72633D01*
X41630498Y83024D01*
X41544252Y166151D02*
G01*
X41544252Y83024D01*
X41549447Y67437D01*
X41554643Y62242D01*
X41565034Y57048D01*
X41575426Y57048D01*
X41585817Y62242D01*
X41591011Y67437D01*
X41596208Y83024D01*
X41596208Y93416D01*
X41509962Y166151D02*
G01*
X41509962Y57048D01*
X41509962Y57048D02*
G01*
X41447618Y57048D01*
X41335396Y140174D02*
G01*
X41340590Y150566D01*
X41350981Y160957D01*
X41361372Y166151D01*
X41382154Y166151D01*
X41392546Y160957D01*
X41402937Y150566D01*
X41408131Y140174D01*
X41413328Y124587D01*
X41413328Y98610D01*
X41408131Y83024D01*
X41402937Y72633D01*
X41392546Y62242D01*
X41382154Y57048D01*
X41361372Y57048D01*
X41350981Y62242D01*
X41340590Y72633D01*
X41335396Y83024D01*
D12*
X41083738Y381000D02*
G01*
X40988234Y381000D01*
X41083738Y381000D02*
G01*
X41083738Y412750D01*
X41079166Y426465D01*
X41070275Y435610D01*
X41061132Y440181D01*
X41047416Y444754D01*
X41024809Y444754D01*
X41011093Y440181D01*
X41001950Y435610D01*
X40992806Y426465D01*
X40988234Y412750D01*
X40988234Y381000D01*
X41083738Y474726D02*
G01*
X40988234Y474726D01*
X41083738Y474726D02*
G01*
X41083738Y533654D01*
X41038272Y474726D02*
G01*
X41038272Y511047D01*
X40988234Y474726D02*
G01*
X40988234Y533654D01*
X41083738Y563626D02*
G01*
X40988234Y563626D01*
X41083738Y563626D02*
G01*
X41083738Y604520D01*
X41079166Y618236D01*
X41074593Y622807D01*
X41065704Y627379D01*
X41056559Y627379D01*
X41047416Y622807D01*
X41042843Y618236D01*
X41038272Y604520D01*
X41038272Y563626D02*
G01*
X41038272Y604520D01*
X41033700Y618236D01*
X41029382Y622807D01*
X41020238Y627379D01*
X41006522Y627379D01*
X40997377Y622807D01*
X40992806Y618236D01*
X40988234Y604520D01*
X40988234Y563626D01*
X41083738Y657352D02*
G01*
X41015666Y657352D01*
X41001950Y661923D01*
X40992806Y671068D01*
X40988234Y684529D01*
X40988234Y693673D01*
X40992806Y707389D01*
X41001950Y716534D01*
X41015666Y721105D01*
X41083738Y721105D01*
X41061132Y819150D02*
G01*
X41070275Y814578D01*
X41079166Y805434D01*
X41083738Y796544D01*
X41083738Y778255D01*
X41079166Y769112D01*
X41070275Y759968D01*
X41061132Y755650D01*
X41047416Y751078D01*
X41024809Y751078D01*
X41011093Y755650D01*
X41001950Y759968D01*
X40992806Y769112D01*
X40988234Y778255D01*
X40988234Y796544D01*
X40992806Y805434D01*
X41001950Y814578D01*
X41011093Y819150D01*
X41024809Y819150D01*
X41024809Y796544D02*
G01*
X41024809Y819150D01*
X41083738Y919226D02*
G01*
X41015666Y919226D01*
X41001950Y923797D01*
X40992806Y932942D01*
X40988234Y946404D01*
X40988234Y955547D01*
X40992806Y969263D01*
X41001950Y978154D01*
X41015666Y982726D01*
X41083738Y982726D01*
X41083738Y1049273D02*
G01*
X40988234Y1012697D01*
X41083738Y1049273D02*
G01*
X40988234Y1085595D01*
X41020238Y1026413D02*
G01*
X41020238Y1071879D01*
X41083738Y1115568D02*
G01*
X40988234Y1115568D01*
X41083738Y1115568D02*
G01*
X41083738Y1156462D01*
X41079166Y1170178D01*
X41074593Y1174750D01*
X41065704Y1179068D01*
X41056559Y1179068D01*
X41047416Y1174750D01*
X41042843Y1170178D01*
X41038272Y1156462D01*
X41038272Y1115568D01*
X41038272Y1147318D02*
G01*
X40988234Y1179068D01*
X41083738Y1241044D02*
G01*
X40988234Y1241044D01*
X41083738Y1209294D02*
G01*
X41083738Y1272794D01*
X41070067Y2578356D02*
G01*
X41079211Y2569212D01*
X41083783Y2555496D01*
X41083783Y2537208D01*
X41079211Y2523746D01*
X41070067Y2514602D01*
X41061177Y2514602D01*
X41052033Y2519174D01*
X41047461Y2523746D01*
X41042889Y2532890D01*
X41033745Y2560068D01*
X41029173Y2569212D01*
X41024601Y2573784D01*
X41015711Y2578356D01*
X41001995Y2578356D01*
X40992851Y2569212D01*
X40988279Y2555496D01*
X40988279Y2537208D01*
X40992851Y2523746D01*
X41001995Y2514602D01*
X41083783Y2608328D02*
G01*
X40988279Y2630934D01*
X41083783Y2653794D02*
G01*
X40988279Y2630934D01*
X41083783Y2653794D02*
G01*
X40988279Y2676400D01*
X41083783Y2699260D02*
G01*
X40988279Y2676400D01*
X41083783Y2729232D02*
G01*
X40988279Y2729232D01*
X41083783Y2729232D02*
G01*
X41083783Y2760982D01*
X41079211Y2774698D01*
X41070067Y2783588D01*
X41061177Y2788160D01*
X41047461Y2792732D01*
X41024601Y2792732D01*
X41011139Y2788160D01*
X41001995Y2783588D01*
X40992851Y2774698D01*
X40988279Y2760982D01*
X40988279Y2729232D01*
X41108850Y3237344D02*
G01*
X41191977Y3237344D01*
X41207565Y3242541D01*
X41212759Y3247735D01*
X41217954Y3258126D01*
X41217954Y3268517D01*
X41212759Y3278908D01*
X41207565Y3284105D01*
X41191977Y3289300D01*
X41181586Y3289300D01*
X41124436Y3140710D02*
G01*
X41114045Y3145904D01*
X41108850Y3161492D01*
X41108850Y3171883D01*
X41114045Y3187468D01*
X41129633Y3197860D01*
X41155609Y3203054D01*
X41181586Y3203054D01*
X41202368Y3197860D01*
X41212759Y3187468D01*
X41217954Y3171883D01*
X41217954Y3166686D01*
X41212759Y3151101D01*
X41202368Y3140710D01*
X41186783Y3135515D01*
X41181586Y3135515D01*
X41166000Y3140710D01*
X41155609Y3151101D01*
X41150415Y3166686D01*
X41150415Y3171883D01*
X41155609Y3187468D01*
X41166000Y3197860D01*
X41181586Y3203054D01*
X42448761Y3491801D02*
G01*
X42448761Y3419073D01*
X42453306Y3405438D01*
X42457852Y3400892D01*
X42466943Y3396345D01*
X42476033Y3396345D01*
X42485124Y3400892D01*
X42489668Y3405438D01*
X42494215Y3419073D01*
X42494215Y3428164D01*
X42418761Y3473620D02*
G01*
X42409668Y3478164D01*
X42396034Y3491801D01*
X42396034Y3396345D01*
D13*
X41548055Y2533652D02*
G01*
X41548052Y2520942D01*
X41548052Y971542D01*
X42271952Y971542D01*
X42271952Y2533642D01*
X41548052Y2533642D01*
X42545002Y3301997D02*
G01*
X41287702Y3301997D01*
X41287702Y203197D01*
X42545002Y203197D01*
X42545002Y3301997D01*
X41242119Y3371705D02*
G01*
X41242119Y4296704D01*
X42160129Y3626703D02*
G01*
X42160129Y3371705D01*
X41605807Y4061703D02*
G01*
X42160129Y4061703D01*
X41605807Y3626703D02*
G01*
X42160129Y3626703D01*
X42160129Y3626703D02*
G01*
X42160129Y4211126D01*
X42325805Y3626703D02*
G01*
X42325805Y3634308D01*
X42325805Y3501707D02*
G01*
X42325805Y3626703D01*
X41605807Y3626703D02*
G01*
X41570808Y3626703D01*
X41570808Y4061703D01*
X41605807Y4061703D01*
X42258150Y4296704D02*
G01*
X42325805Y4296704D01*
X42325805Y4054027D01*
X42325805Y3501707D02*
G01*
X42325805Y3371705D01*
X40900807Y3371705D01*
X40900807Y4296704D01*
X41843535Y4296704D01*
G75*
G01*
X42325806Y3565309D02*
G02*
X42325813Y4108950I3J271821D01*
G75*
G01
X43756199Y3390900D02*
G03X43756199Y3390900I-499999J0D01*
M02*
