G04 Layer: BottomSilkscreenLayer*
G04 EasyEDA v6.5.29, 2023-07-18 11:26:45*
G04 37c48a0149624c7282f1fc13f04e5736,5a6b42c53f6a479593ecc07194224c93,10*
G04 Gerber Generator version 0.2*
G04 Scale: 100 percent, Rotated: No, Reflected: No *
G04 Dimensions in millimeters *
G04 leading zeros omitted , absolute positions ,4 integer and 5 decimal *
%FSLAX45Y45*%
%MOMM*%

%ADD10C,0.2032*%
%ADD11C,0.1520*%

%LPD*%
D10*
X5950686Y4335617D02*
G01*
X5956142Y4346526D01*
X5967051Y4357436D01*
X5977958Y4362889D01*
X5999777Y4362889D01*
X6010686Y4357436D01*
X6021595Y4346526D01*
X6027051Y4335617D01*
X6032505Y4319254D01*
X6032505Y4291982D01*
X6027051Y4275617D01*
X6021595Y4264708D01*
X6010686Y4253798D01*
X5999777Y4248345D01*
X5977958Y4248345D01*
X5967051Y4253798D01*
X5956142Y4264708D01*
X5950686Y4275617D01*
X5881959Y4362889D02*
G01*
X5892868Y4357436D01*
X5903777Y4346526D01*
X5909233Y4335617D01*
X5914687Y4319254D01*
X5914687Y4291982D01*
X5909233Y4275617D01*
X5903777Y4264708D01*
X5892868Y4253798D01*
X5881959Y4248345D01*
X5860140Y4248345D01*
X5849233Y4253798D01*
X5838324Y4264708D01*
X5832868Y4275617D01*
X5827415Y4291982D01*
X5827415Y4319254D01*
X5832868Y4335617D01*
X5838324Y4346526D01*
X5849233Y4357436D01*
X5860140Y4362889D01*
X5881959Y4362889D01*
X5791415Y4362889D02*
G01*
X5791415Y4248345D01*
X5791415Y4362889D02*
G01*
X5742322Y4362889D01*
X5725960Y4357436D01*
X5720506Y4351982D01*
X5715050Y4341073D01*
X5715050Y4324708D01*
X5720506Y4313798D01*
X5725960Y4308345D01*
X5742322Y4302889D01*
X5791415Y4302889D01*
X5679051Y4362889D02*
G01*
X5635414Y4308345D01*
X5635414Y4248345D01*
X5591779Y4362889D02*
G01*
X5635414Y4308345D01*
X5555777Y4362889D02*
G01*
X5555777Y4248345D01*
X5555777Y4362889D02*
G01*
X5506686Y4362889D01*
X5490324Y4357436D01*
X5484870Y4351982D01*
X5479415Y4341073D01*
X5479415Y4330164D01*
X5484870Y4319254D01*
X5490324Y4313798D01*
X5506686Y4308345D01*
X5555777Y4308345D01*
X5517596Y4308345D02*
G01*
X5479415Y4248345D01*
X5443415Y4362889D02*
G01*
X5443415Y4248345D01*
X5325597Y4335617D02*
G01*
X5331051Y4346526D01*
X5341960Y4357436D01*
X5352869Y4362889D01*
X5374688Y4362889D01*
X5385597Y4357436D01*
X5396506Y4346526D01*
X5401960Y4335617D01*
X5407416Y4319254D01*
X5407416Y4291982D01*
X5401960Y4275617D01*
X5396506Y4264708D01*
X5385597Y4253798D01*
X5374688Y4248345D01*
X5352869Y4248345D01*
X5341960Y4253798D01*
X5331051Y4264708D01*
X5325597Y4275617D01*
X5325597Y4291982D01*
X5352869Y4291982D02*
G01*
X5325597Y4291982D01*
X5289598Y4362889D02*
G01*
X5289598Y4248345D01*
X5213233Y4362889D02*
G01*
X5213233Y4248345D01*
X5289598Y4308345D02*
G01*
X5213233Y4308345D01*
X5139052Y4362889D02*
G01*
X5139052Y4248345D01*
X5177233Y4362889D02*
G01*
X5100871Y4362889D01*
X4975415Y4335617D02*
G01*
X4975415Y4341073D01*
X4969962Y4351982D01*
X4964506Y4357436D01*
X4953596Y4362889D01*
X4931780Y4362889D01*
X4920871Y4357436D01*
X4915415Y4351982D01*
X4909962Y4341073D01*
X4909962Y4330164D01*
X4915415Y4319254D01*
X4926324Y4302889D01*
X4980871Y4248345D01*
X4904506Y4248345D01*
X4835779Y4362889D02*
G01*
X4852144Y4357436D01*
X4863053Y4341073D01*
X4868506Y4313798D01*
X4868506Y4297436D01*
X4863053Y4270164D01*
X4852144Y4253798D01*
X4835779Y4248345D01*
X4824872Y4248345D01*
X4808507Y4253798D01*
X4797597Y4270164D01*
X4792144Y4297436D01*
X4792144Y4313798D01*
X4797597Y4341073D01*
X4808507Y4357436D01*
X4824872Y4362889D01*
X4835779Y4362889D01*
X4750688Y4335617D02*
G01*
X4750688Y4341073D01*
X4745235Y4351982D01*
X4739779Y4357436D01*
X4728870Y4362889D01*
X4707054Y4362889D01*
X4696145Y4357436D01*
X4690689Y4351982D01*
X4685235Y4341073D01*
X4685235Y4330164D01*
X4690689Y4319254D01*
X4701598Y4302889D01*
X4756144Y4248345D01*
X4679779Y4248345D01*
X4632871Y4362889D02*
G01*
X4572871Y4362889D01*
X4605599Y4319254D01*
X4589236Y4319254D01*
X4578327Y4313798D01*
X4572871Y4308345D01*
X4567417Y4291982D01*
X4567417Y4281073D01*
X4572871Y4264708D01*
X4583780Y4253798D01*
X4600143Y4248345D01*
X4616508Y4248345D01*
X4632871Y4253798D01*
X4638327Y4259254D01*
X4643780Y4270164D01*
X4447418Y4362889D02*
G01*
X4403780Y4248345D01*
X4360143Y4362889D02*
G01*
X4403780Y4248345D01*
X4324144Y4362889D02*
G01*
X4324144Y4248345D01*
X4324144Y4362889D02*
G01*
X4253235Y4362889D01*
X4324144Y4308345D02*
G01*
X4280509Y4308345D01*
X4324144Y4248345D02*
G01*
X4253235Y4248345D01*
X4140873Y4362889D02*
G01*
X4195417Y4248345D01*
X4217235Y4362889D02*
G01*
X4140873Y4362889D01*
X4104873Y4362889D02*
G01*
X4104873Y4248345D01*
X4104873Y4362889D02*
G01*
X4033964Y4362889D01*
X4104873Y4308345D02*
G01*
X4061236Y4308345D01*
X3997962Y4362889D02*
G01*
X3997962Y4248345D01*
X3961963Y4362889D02*
G01*
X3961963Y4248345D01*
X3961963Y4362889D02*
G01*
X3918328Y4248345D01*
X3874691Y4362889D02*
G01*
X3918328Y4248345D01*
X3874691Y4362889D02*
G01*
X3874691Y4248345D01*
X44386500Y4353773D02*
G01*
X44375590Y4359226D01*
X44359228Y4375589D01*
X44359228Y4261045D01*
X44323228Y4375589D02*
G01*
X44323228Y4293773D01*
X44317772Y4277408D01*
X44306863Y4266499D01*
X44290500Y4261045D01*
X44279591Y4261045D01*
X44263228Y4266499D01*
X44252319Y4277408D01*
X44246863Y4293773D01*
X44246863Y4375589D01*
X44126863Y4375589D02*
G01*
X44126863Y4261045D01*
X44126863Y4375589D02*
G01*
X44077773Y4375589D01*
X44061410Y4370136D01*
X44055954Y4364682D01*
X44050501Y4353773D01*
X44050501Y4342864D01*
X44055954Y4331954D01*
X44061410Y4326499D01*
X44077773Y4321045D01*
X44126863Y4321045D01*
X44088682Y4321045D02*
G01*
X44050501Y4261045D01*
X43970864Y4375589D02*
G01*
X44014501Y4261045D01*
X43970864Y4375589D02*
G01*
X43927227Y4261045D01*
X43998136Y4299226D02*
G01*
X43943592Y4299226D01*
X43809409Y4348317D02*
G01*
X43814865Y4359226D01*
X43825774Y4370136D01*
X43836683Y4375589D01*
X43858500Y4375589D01*
X43869409Y4370136D01*
X43880318Y4359226D01*
X43885774Y4348317D01*
X43891227Y4331954D01*
X43891227Y4304682D01*
X43885774Y4288317D01*
X43880318Y4277408D01*
X43869409Y4266499D01*
X43858500Y4261045D01*
X43836683Y4261045D01*
X43825774Y4266499D01*
X43814865Y4277408D01*
X43809409Y4288317D01*
X43773410Y4375589D02*
G01*
X43773410Y4261045D01*
X43697047Y4375589D02*
G01*
X43773410Y4299226D01*
X43746138Y4326499D02*
G01*
X43697047Y4261045D01*
X43577047Y4375589D02*
G01*
X43577047Y4261045D01*
X43577047Y4375589D02*
G01*
X43538866Y4375589D01*
X43522501Y4370136D01*
X43511591Y4359226D01*
X43506138Y4348317D01*
X43500682Y4331954D01*
X43500682Y4304682D01*
X43506138Y4288317D01*
X43511591Y4277408D01*
X43522501Y4266499D01*
X43538866Y4261045D01*
X43577047Y4261045D01*
X43464683Y4375589D02*
G01*
X43464683Y4261045D01*
X43352321Y4359226D02*
G01*
X43363230Y4370136D01*
X43379593Y4375589D01*
X43401411Y4375589D01*
X43417774Y4370136D01*
X43428683Y4359226D01*
X43428683Y4348317D01*
X43423230Y4337408D01*
X43417774Y4331954D01*
X43406865Y4326499D01*
X43374137Y4315589D01*
X43363230Y4310136D01*
X43357774Y4304682D01*
X43352321Y4293773D01*
X43352321Y4277408D01*
X43363230Y4266499D01*
X43379593Y4261045D01*
X43401411Y4261045D01*
X43417774Y4266499D01*
X43428683Y4277408D01*
X43316319Y4375589D02*
G01*
X43316319Y4261045D01*
X43316319Y4375589D02*
G01*
X43267228Y4375589D01*
X43250866Y4370136D01*
X43245412Y4364682D01*
X43239956Y4353773D01*
X43239956Y4337408D01*
X43245412Y4326499D01*
X43250866Y4321045D01*
X43267228Y4315589D01*
X43316319Y4315589D01*
X43203957Y4375589D02*
G01*
X43203957Y4261045D01*
X43203957Y4261045D02*
G01*
X43138501Y4261045D01*
X43058867Y4375589D02*
G01*
X43102502Y4261045D01*
X43058867Y4375589D02*
G01*
X43015230Y4261045D01*
X43086139Y4299226D02*
G01*
X43031592Y4299226D01*
X42979230Y4375589D02*
G01*
X42935593Y4321045D01*
X42935593Y4261045D01*
X42891956Y4375589D02*
G01*
X42935593Y4321045D01*
X42771956Y4310136D02*
G01*
X42673775Y4310136D01*
X42553775Y4375589D02*
G01*
X42553775Y4261045D01*
X42553775Y4375589D02*
G01*
X42482866Y4375589D01*
X42553775Y4321045D02*
G01*
X42510141Y4321045D01*
X42446867Y4375589D02*
G01*
X42446867Y4261045D01*
X42446867Y4375589D02*
G01*
X42397776Y4375589D01*
X42381413Y4370136D01*
X42375957Y4364682D01*
X42370504Y4353773D01*
X42370504Y4342864D01*
X42375957Y4331954D01*
X42381413Y4326499D01*
X42397776Y4321045D01*
X42446867Y4321045D01*
X42408685Y4321045D02*
G01*
X42370504Y4261045D01*
X42301777Y4375589D02*
G01*
X42312686Y4370136D01*
X42323595Y4359226D01*
X42329049Y4348317D01*
X42334505Y4331954D01*
X42334505Y4304682D01*
X42329049Y4288317D01*
X42323595Y4277408D01*
X42312686Y4266499D01*
X42301777Y4261045D01*
X42279958Y4261045D01*
X42269049Y4266499D01*
X42258140Y4277408D01*
X42252686Y4288317D01*
X42247230Y4304682D01*
X42247230Y4331954D01*
X42252686Y4348317D01*
X42258140Y4359226D01*
X42269049Y4370136D01*
X42279958Y4375589D01*
X42301777Y4375589D01*
X42211231Y4375589D02*
G01*
X42211231Y4261045D01*
X42211231Y4375589D02*
G01*
X42134868Y4261045D01*
X42134868Y4375589D02*
G01*
X42134868Y4261045D01*
X42060685Y4375589D02*
G01*
X42060685Y4261045D01*
X42098869Y4375589D02*
G01*
X42022504Y4375589D01*
X41902504Y4375589D02*
G01*
X41902504Y4261045D01*
X41902504Y4375589D02*
G01*
X41853413Y4375589D01*
X41837051Y4370136D01*
X41831595Y4364682D01*
X41826141Y4353773D01*
X41826141Y4337408D01*
X41831595Y4326499D01*
X41837051Y4321045D01*
X41853413Y4315589D01*
X41902504Y4315589D01*
X41746505Y4375589D02*
G01*
X41790142Y4261045D01*
X41746505Y4375589D02*
G01*
X41702868Y4261045D01*
X41773777Y4299226D02*
G01*
X41719233Y4299226D01*
X41666868Y4375589D02*
G01*
X41666868Y4261045D01*
X41666868Y4375589D02*
G01*
X41590506Y4261045D01*
X41590506Y4375589D02*
G01*
X41590506Y4261045D01*
X41554506Y4375589D02*
G01*
X41554506Y4261045D01*
X41554506Y4375589D02*
G01*
X41483597Y4375589D01*
X41554506Y4321045D02*
G01*
X41510869Y4321045D01*
X41554506Y4261045D02*
G01*
X41483597Y4261045D01*
X41447595Y4375589D02*
G01*
X41447595Y4261045D01*
X41447595Y4261045D02*
G01*
X41382142Y4261045D01*
X41059100Y4375589D02*
G01*
X41059100Y4261045D01*
X41059100Y4375589D02*
G01*
X41010009Y4375589D01*
X40993646Y4370136D01*
X40988190Y4364682D01*
X40982737Y4353773D01*
X40982737Y4337408D01*
X40988190Y4326499D01*
X40993646Y4321045D01*
X41010009Y4315589D01*
X41059100Y4315589D01*
X40903100Y4375589D02*
G01*
X40946735Y4261045D01*
X40903100Y4375589D02*
G01*
X40859463Y4261045D01*
X40930372Y4299226D02*
G01*
X40875828Y4299226D01*
X40823464Y4375589D02*
G01*
X40823464Y4261045D01*
X40823464Y4375589D02*
G01*
X40774373Y4375589D01*
X40758010Y4370136D01*
X40752555Y4364682D01*
X40747100Y4353773D01*
X40747100Y4342864D01*
X40752555Y4331954D01*
X40758010Y4326499D01*
X40774373Y4321045D01*
X40823464Y4321045D01*
X40785282Y4321045D02*
G01*
X40747100Y4261045D01*
X40672918Y4375589D02*
G01*
X40672918Y4261045D01*
X40711100Y4375589D02*
G01*
X40634737Y4375589D01*
X40514737Y4375589D02*
G01*
X40514737Y4261045D01*
X40514737Y4375589D02*
G01*
X40438374Y4261045D01*
X40438374Y4375589D02*
G01*
X40438374Y4261045D01*
X40402372Y4375589D02*
G01*
X40402372Y4293773D01*
X40396919Y4277408D01*
X40386010Y4266499D01*
X40369647Y4261045D01*
X40358738Y4261045D01*
X40342372Y4266499D01*
X40331466Y4277408D01*
X40326010Y4293773D01*
X40326010Y4375589D01*
X40290010Y4375589D02*
G01*
X40290010Y4261045D01*
X40290010Y4375589D02*
G01*
X40246373Y4261045D01*
X40202738Y4375589D02*
G01*
X40246373Y4261045D01*
X40202738Y4375589D02*
G01*
X40202738Y4261045D01*
X40166737Y4375589D02*
G01*
X40166737Y4261045D01*
X40166737Y4375589D02*
G01*
X40117646Y4375589D01*
X40101283Y4370136D01*
X40095830Y4364682D01*
X40090374Y4353773D01*
X40090374Y4342864D01*
X40095830Y4331954D01*
X40101283Y4326499D01*
X40117646Y4321045D01*
X40166737Y4321045D02*
G01*
X40117646Y4321045D01*
X40101283Y4315589D01*
X40095830Y4310136D01*
X40090374Y4299226D01*
X40090374Y4282864D01*
X40095830Y4271954D01*
X40101283Y4266499D01*
X40117646Y4261045D01*
X40166737Y4261045D01*
X40054375Y4375589D02*
G01*
X40054375Y4261045D01*
X40054375Y4375589D02*
G01*
X39983465Y4375589D01*
X40054375Y4321045D02*
G01*
X40010737Y4321045D01*
X40054375Y4261045D02*
G01*
X39983465Y4261045D01*
X39947466Y4375589D02*
G01*
X39947466Y4261045D01*
X39947466Y4375589D02*
G01*
X39898375Y4375589D01*
X39882010Y4370136D01*
X39876557Y4364682D01*
X39871101Y4353773D01*
X39871101Y4342864D01*
X39876557Y4331954D01*
X39882010Y4326499D01*
X39898375Y4321045D01*
X39947466Y4321045D01*
X39909285Y4321045D02*
G01*
X39871101Y4261045D01*
X39751101Y4353773D02*
G01*
X39740192Y4359226D01*
X39723829Y4375589D01*
X39723829Y4261045D01*
X39616921Y4337408D02*
G01*
X39622374Y4321045D01*
X39633283Y4310136D01*
X39649648Y4304682D01*
X39655102Y4304682D01*
X39671467Y4310136D01*
X39682374Y4321045D01*
X39687830Y4337408D01*
X39687830Y4342864D01*
X39682374Y4359226D01*
X39671467Y4370136D01*
X39655102Y4375589D01*
X39649648Y4375589D01*
X39633283Y4370136D01*
X39622374Y4359226D01*
X39616921Y4337408D01*
X39616921Y4310136D01*
X39622374Y4282864D01*
X39633283Y4266499D01*
X39649648Y4261045D01*
X39660558Y4261045D01*
X39676920Y4266499D01*
X39682374Y4277408D01*
X39580921Y4353773D02*
G01*
X39570012Y4359226D01*
X39553649Y4375589D01*
X39553649Y4261045D01*
X39484922Y4375589D02*
G01*
X39501284Y4370136D01*
X39512194Y4353773D01*
X39517647Y4326499D01*
X39517647Y4310136D01*
X39512194Y4282864D01*
X39501284Y4266499D01*
X39484922Y4261045D01*
X39474013Y4261045D01*
X39457647Y4266499D01*
X39446738Y4282864D01*
X39441285Y4310136D01*
X39441285Y4326499D01*
X39446738Y4353773D01*
X39457647Y4370136D01*
X39474013Y4375589D01*
X39484922Y4375589D01*
X39405285Y4310136D02*
G01*
X39307104Y4310136D01*
X39238377Y4375589D02*
G01*
X39254739Y4370136D01*
X39265649Y4353773D01*
X39271102Y4326499D01*
X39271102Y4310136D01*
X39265649Y4282864D01*
X39254739Y4266499D01*
X39238377Y4261045D01*
X39227467Y4261045D01*
X39211102Y4266499D01*
X39200193Y4282864D01*
X39194740Y4310136D01*
X39194740Y4326499D01*
X39200193Y4353773D01*
X39211102Y4370136D01*
X39227467Y4375589D01*
X39238377Y4375589D01*
X39158740Y4353773D02*
G01*
X39147831Y4359226D01*
X39131468Y4375589D01*
X39131468Y4261045D01*
X39062741Y4375589D02*
G01*
X39079103Y4370136D01*
X39090013Y4353773D01*
X39095466Y4326499D01*
X39095466Y4310136D01*
X39090013Y4282864D01*
X39079103Y4266499D01*
X39062741Y4261045D01*
X39051831Y4261045D01*
X39035466Y4266499D01*
X39024557Y4282864D01*
X39019104Y4310136D01*
X39019104Y4326499D01*
X39024557Y4353773D01*
X39035466Y4370136D01*
X39051831Y4375589D01*
X39062741Y4375589D01*
X38983104Y4353773D02*
G01*
X38972195Y4359226D01*
X38955832Y4375589D01*
X38955832Y4261045D01*
X38835832Y4375589D02*
G01*
X38792195Y4261045D01*
X38748558Y4375589D02*
G01*
X38792195Y4261045D01*
X38712559Y4353773D02*
G01*
X38701649Y4359226D01*
X38685287Y4375589D01*
X38685287Y4261045D01*
D11*
X37882951Y4369851D02*
G01*
X37882951Y4286724D01*
X37888148Y4271137D01*
X37893343Y4265942D01*
X37903734Y4260748D01*
X37914125Y4260748D01*
X37924516Y4265942D01*
X37929713Y4271137D01*
X37934907Y4286724D01*
X37934907Y4297116D01*
X37848661Y4369851D02*
G01*
X37848661Y4260748D01*
X37848661Y4260748D02*
G01*
X37786317Y4260748D01*
X37674095Y4343874D02*
G01*
X37679292Y4354266D01*
X37689683Y4364657D01*
X37700071Y4369851D01*
X37720854Y4369851D01*
X37731245Y4364657D01*
X37741636Y4354266D01*
X37746833Y4343874D01*
X37752027Y4328287D01*
X37752027Y4302310D01*
X37746833Y4286724D01*
X37741636Y4276333D01*
X37731245Y4265942D01*
X37720854Y4260748D01*
X37700071Y4260748D01*
X37689683Y4265942D01*
X37679292Y4276333D01*
X37674095Y4286724D01*
X37587852Y4369851D02*
G01*
X37587852Y4286724D01*
X37593046Y4271137D01*
X37598243Y4265942D01*
X37608631Y4260748D01*
X37619023Y4260748D01*
X37629414Y4265942D01*
X37634611Y4271137D01*
X37639805Y4286724D01*
X37639805Y4297116D01*
X37553562Y4369851D02*
G01*
X37553562Y4260748D01*
X37553562Y4260748D02*
G01*
X37491215Y4260748D01*
X37378993Y4343874D02*
G01*
X37384189Y4354266D01*
X37394581Y4364657D01*
X37404972Y4369851D01*
X37425751Y4369851D01*
X37436143Y4364657D01*
X37446534Y4354266D01*
X37451731Y4343874D01*
X37456925Y4328287D01*
X37456925Y4302310D01*
X37451731Y4286724D01*
X37446534Y4276333D01*
X37436143Y4265942D01*
X37425751Y4260748D01*
X37404972Y4260748D01*
X37394581Y4265942D01*
X37384189Y4276333D01*
X37378993Y4286724D01*
X37292749Y4369851D02*
G01*
X37292749Y4286724D01*
X37297944Y4271137D01*
X37303141Y4265942D01*
X37313532Y4260748D01*
X37323923Y4260748D01*
X37334311Y4265942D01*
X37339508Y4271137D01*
X37344703Y4286724D01*
X37344703Y4297116D01*
X37258459Y4369851D02*
G01*
X37258459Y4260748D01*
X37258459Y4260748D02*
G01*
X37196113Y4260748D01*
X37083893Y4343874D02*
G01*
X37089087Y4354266D01*
X37099478Y4364657D01*
X37109869Y4369851D01*
X37130652Y4369851D01*
X37141043Y4364657D01*
X37151431Y4354266D01*
X37156628Y4343874D01*
X37161823Y4328287D01*
X37161823Y4302310D01*
X37156628Y4286724D01*
X37151431Y4276333D01*
X37141043Y4265942D01*
X37130652Y4260748D01*
X37109869Y4260748D01*
X37099478Y4265942D01*
X37089087Y4276333D01*
X37083893Y4286724D01*
X36997647Y4369851D02*
G01*
X36997647Y4286724D01*
X37002841Y4271137D01*
X37008038Y4265942D01*
X37018429Y4260748D01*
X37028821Y4260748D01*
X37039212Y4265942D01*
X37044406Y4271137D01*
X37049603Y4286724D01*
X37049603Y4297116D01*
X36963357Y4369851D02*
G01*
X36963357Y4260748D01*
X36963357Y4260748D02*
G01*
X36901013Y4260748D01*
X36788791Y4343874D02*
G01*
X36793985Y4354266D01*
X36804376Y4364657D01*
X36814767Y4369851D01*
X36835549Y4369851D01*
X36845941Y4364657D01*
X36856332Y4354266D01*
X36861526Y4343874D01*
X36866723Y4328287D01*
X36866723Y4302310D01*
X36861526Y4286724D01*
X36856332Y4276333D01*
X36845941Y4265942D01*
X36835549Y4260748D01*
X36814767Y4260748D01*
X36804376Y4265942D01*
X36793985Y4276333D01*
X36788791Y4286724D01*
M02*
