G04 Layer: TopSilkscreenLayer*
G04 EasyEDA v6.5.32, 2023-07-27 18:43:02*
G04 c15d88bf44794416bd69d8e6bd355938,5a6b42c53f6a479593ecc07194224c93,10*
G04 Gerber Generator version 0.2*
G04 Scale: 100 percent, Rotated: No, Reflected: No *
G04 Dimensions in millimeters *
G04 leading zeros omitted , absolute positions ,4 integer and 5 decimal *
%FSLAX45Y45*%
%MOMM*%

%ADD10C,0.2032*%
%ADD11C,0.1524*%
%ADD12C,0.2540*%
%ADD13C,0.1270*%
%ADD14C,0.1520*%
%ADD15C,0.3000*%
%ADD16C,0.2000*%
%ADD17C,0.0198*%

%LPD*%
D10*
X42849800Y4315713D02*
G01*
X42860722Y4321047D01*
X42876977Y4337557D01*
X42876977Y4223004D01*
X42913046Y4337557D02*
G01*
X42913046Y4255770D01*
X42918634Y4239260D01*
X42929556Y4228337D01*
X42945811Y4223004D01*
X42956734Y4223004D01*
X42972990Y4228337D01*
X42983911Y4239260D01*
X42989500Y4255770D01*
X42989500Y4337557D01*
X43109388Y4337557D02*
G01*
X43109388Y4223004D01*
X43109388Y4337557D02*
G01*
X43158409Y4337557D01*
X43174920Y4331970D01*
X43180254Y4326636D01*
X43185841Y4315713D01*
X43185841Y4304792D01*
X43180254Y4293870D01*
X43174920Y4288281D01*
X43158409Y4282947D01*
X43109388Y4282947D01*
X43147741Y4282947D02*
G01*
X43185841Y4223004D01*
X43265343Y4337557D02*
G01*
X43221909Y4223004D01*
X43265343Y4337557D02*
G01*
X43309032Y4223004D01*
X43238166Y4261104D02*
G01*
X43292775Y4261104D01*
X43426888Y4310126D02*
G01*
X43421554Y4321047D01*
X43410632Y4331970D01*
X43399709Y4337557D01*
X43377866Y4337557D01*
X43366943Y4331970D01*
X43356022Y4321047D01*
X43350434Y4310126D01*
X43345100Y4293870D01*
X43345100Y4266692D01*
X43350434Y4250181D01*
X43356022Y4239260D01*
X43366943Y4228337D01*
X43377866Y4223004D01*
X43399709Y4223004D01*
X43410632Y4228337D01*
X43421554Y4239260D01*
X43426888Y4250181D01*
X43462956Y4337557D02*
G01*
X43462956Y4223004D01*
X43539156Y4337557D02*
G01*
X43462956Y4261104D01*
X43490134Y4288281D02*
G01*
X43539156Y4223004D01*
X43659298Y4337557D02*
G01*
X43659298Y4223004D01*
X43659298Y4337557D02*
G01*
X43697398Y4337557D01*
X43713908Y4331970D01*
X43724829Y4321047D01*
X43730163Y4310126D01*
X43735498Y4293870D01*
X43735498Y4266692D01*
X43730163Y4250181D01*
X43724829Y4239260D01*
X43713908Y4228337D01*
X43697398Y4223004D01*
X43659298Y4223004D01*
X43771566Y4337557D02*
G01*
X43771566Y4223004D01*
X43884088Y4321047D02*
G01*
X43873166Y4331970D01*
X43856656Y4337557D01*
X43834811Y4337557D01*
X43818556Y4331970D01*
X43807634Y4321047D01*
X43807634Y4310126D01*
X43812968Y4299204D01*
X43818556Y4293870D01*
X43829477Y4288281D01*
X43862243Y4277613D01*
X43873166Y4272026D01*
X43878500Y4266692D01*
X43884088Y4255770D01*
X43884088Y4239260D01*
X43873166Y4228337D01*
X43856656Y4223004D01*
X43834811Y4223004D01*
X43818556Y4228337D01*
X43807634Y4239260D01*
X43919902Y4337557D02*
G01*
X43919902Y4223004D01*
X43919902Y4337557D02*
G01*
X43969177Y4337557D01*
X43985434Y4331970D01*
X43990768Y4326636D01*
X43996356Y4315713D01*
X43996356Y4299204D01*
X43990768Y4288281D01*
X43985434Y4282947D01*
X43969177Y4277613D01*
X43919902Y4277613D01*
X44032424Y4337557D02*
G01*
X44032424Y4223004D01*
X44032424Y4223004D02*
G01*
X44097702Y4223004D01*
X44177458Y4337557D02*
G01*
X44133770Y4223004D01*
X44177458Y4337557D02*
G01*
X44221146Y4223004D01*
X44150279Y4261104D02*
G01*
X44204636Y4261104D01*
X44256959Y4337557D02*
G01*
X44300648Y4282947D01*
X44300648Y4223004D01*
X44344336Y4337557D02*
G01*
X44300648Y4282947D01*
X44464224Y4337557D02*
G01*
X44464224Y4223004D01*
X44464224Y4337557D02*
G01*
X44513500Y4337557D01*
X44529756Y4331970D01*
X44535343Y4326636D01*
X44540677Y4315713D01*
X44540677Y4299204D01*
X44535343Y4288281D01*
X44529756Y4282947D01*
X44513500Y4277613D01*
X44464224Y4277613D01*
X44576746Y4337557D02*
G01*
X44576746Y4223004D01*
X44576746Y4337557D02*
G01*
X44625768Y4337557D01*
X44642277Y4331970D01*
X44647611Y4326636D01*
X44652946Y4315713D01*
X44652946Y4304792D01*
X44647611Y4293870D01*
X44642277Y4288281D01*
X44625768Y4282947D01*
X44576746Y4282947D01*
X44614846Y4282947D02*
G01*
X44652946Y4223004D01*
X44721779Y4337557D02*
G01*
X44710858Y4331970D01*
X44699936Y4321047D01*
X44694602Y4310126D01*
X44689013Y4293870D01*
X44689013Y4266692D01*
X44694602Y4250181D01*
X44699936Y4239260D01*
X44710858Y4228337D01*
X44721779Y4223004D01*
X44743624Y4223004D01*
X44754546Y4228337D01*
X44765468Y4239260D01*
X44770802Y4250181D01*
X44776390Y4266692D01*
X44776390Y4293870D01*
X44770802Y4310126D01*
X44765468Y4321047D01*
X44754546Y4331970D01*
X44743624Y4337557D01*
X44721779Y4337557D01*
X44894246Y4310126D02*
G01*
X44888658Y4321047D01*
X44877736Y4331970D01*
X44866813Y4337557D01*
X44844970Y4337557D01*
X44834048Y4331970D01*
X44823125Y4321047D01*
X44817791Y4310126D01*
X44812458Y4293870D01*
X44812458Y4266692D01*
X44817791Y4250181D01*
X44823125Y4239260D01*
X44834048Y4228337D01*
X44844970Y4223004D01*
X44866813Y4223004D01*
X44877736Y4228337D01*
X44888658Y4239260D01*
X44894246Y4250181D01*
X44930059Y4337557D02*
G01*
X44930059Y4223004D01*
X44930059Y4337557D02*
G01*
X45001179Y4337557D01*
X44930059Y4282947D02*
G01*
X44973748Y4282947D01*
X44930059Y4223004D02*
G01*
X45001179Y4223004D01*
X45113448Y4321047D02*
G01*
X45102525Y4331970D01*
X45086270Y4337557D01*
X45064425Y4337557D01*
X45047916Y4331970D01*
X45036993Y4321047D01*
X45036993Y4310126D01*
X45042582Y4299204D01*
X45047916Y4293870D01*
X45058838Y4288281D01*
X45091604Y4277613D01*
X45102525Y4272026D01*
X45107859Y4266692D01*
X45113448Y4255770D01*
X45113448Y4239260D01*
X45102525Y4228337D01*
X45086270Y4223004D01*
X45064425Y4223004D01*
X45047916Y4228337D01*
X45036993Y4239260D01*
X45225716Y4321047D02*
G01*
X45214793Y4331970D01*
X45198538Y4337557D01*
X45176693Y4337557D01*
X45160438Y4331970D01*
X45149516Y4321047D01*
X45149516Y4310126D01*
X45154850Y4299204D01*
X45160438Y4293870D01*
X45171359Y4288281D01*
X45203872Y4277613D01*
X45214793Y4272026D01*
X45220382Y4266692D01*
X45225716Y4255770D01*
X45225716Y4239260D01*
X45214793Y4228337D01*
X45198538Y4223004D01*
X45176693Y4223004D01*
X45160438Y4228337D01*
X45149516Y4239260D01*
X45294550Y4337557D02*
G01*
X45283627Y4331970D01*
X45272706Y4321047D01*
X45267372Y4310126D01*
X45261784Y4293870D01*
X45261784Y4266692D01*
X45267372Y4250181D01*
X45272706Y4239260D01*
X45283627Y4228337D01*
X45294550Y4223004D01*
X45316393Y4223004D01*
X45327316Y4228337D01*
X45338238Y4239260D01*
X45343572Y4250181D01*
X45349159Y4266692D01*
X45349159Y4293870D01*
X45343572Y4310126D01*
X45338238Y4321047D01*
X45327316Y4331970D01*
X45316393Y4337557D01*
X45294550Y4337557D01*
X45384974Y4337557D02*
G01*
X45384974Y4223004D01*
X45384974Y4337557D02*
G01*
X45434250Y4337557D01*
X45450506Y4331970D01*
X45456093Y4326636D01*
X45461427Y4315713D01*
X45461427Y4304792D01*
X45456093Y4293870D01*
X45450506Y4288281D01*
X45434250Y4282947D01*
X45384974Y4282947D01*
X45423327Y4282947D02*
G01*
X45461427Y4223004D01*
X45581316Y4272026D02*
G01*
X45679613Y4272026D01*
X45837856Y4337557D02*
G01*
X45837856Y4223004D01*
X45799502Y4337557D02*
G01*
X45875956Y4337557D01*
X45944790Y4337557D02*
G01*
X45933868Y4331970D01*
X45922946Y4321047D01*
X45917358Y4310126D01*
X45912024Y4293870D01*
X45912024Y4266692D01*
X45917358Y4250181D01*
X45922946Y4239260D01*
X45933868Y4228337D01*
X45944790Y4223004D01*
X45966634Y4223004D01*
X45977556Y4228337D01*
X45988224Y4239260D01*
X45993811Y4250181D01*
X45999146Y4266692D01*
X45999146Y4293870D01*
X45993811Y4310126D01*
X45988224Y4321047D01*
X45977556Y4331970D01*
X45966634Y4337557D01*
X45944790Y4337557D01*
X46035213Y4337557D02*
G01*
X46035213Y4223004D01*
X46035213Y4337557D02*
G01*
X46084236Y4337557D01*
X46100746Y4331970D01*
X46106079Y4326636D01*
X46111668Y4315713D01*
X46111668Y4299204D01*
X46106079Y4288281D01*
X46100746Y4282947D01*
X46084236Y4277613D01*
X46035213Y4277613D01*
X43484800Y4147057D02*
G01*
X43484800Y4032504D01*
X43484800Y4147057D02*
G01*
X43533822Y4147057D01*
X43550332Y4141470D01*
X43555666Y4136136D01*
X43561254Y4125213D01*
X43561254Y4108704D01*
X43555666Y4097781D01*
X43550332Y4092447D01*
X43533822Y4087113D01*
X43484800Y4087113D01*
X43640756Y4147057D02*
G01*
X43597068Y4032504D01*
X43640756Y4147057D02*
G01*
X43684443Y4032504D01*
X43613577Y4070604D02*
G01*
X43668188Y4070604D01*
X43720511Y4147057D02*
G01*
X43720511Y4032504D01*
X43720511Y4147057D02*
G01*
X43769534Y4147057D01*
X43785790Y4141470D01*
X43791377Y4136136D01*
X43796711Y4125213D01*
X43796711Y4114292D01*
X43791377Y4103370D01*
X43785790Y4097781D01*
X43769534Y4092447D01*
X43720511Y4092447D01*
X43758611Y4092447D02*
G01*
X43796711Y4032504D01*
X43870879Y4147057D02*
G01*
X43870879Y4032504D01*
X43832779Y4147057D02*
G01*
X43909234Y4147057D01*
X44029122Y4147057D02*
G01*
X44029122Y4032504D01*
X44029122Y4147057D02*
G01*
X44105575Y4032504D01*
X44105575Y4147057D02*
G01*
X44105575Y4032504D01*
X44141643Y4147057D02*
G01*
X44141643Y4065270D01*
X44146977Y4048760D01*
X44157900Y4037837D01*
X44174156Y4032504D01*
X44185077Y4032504D01*
X44201588Y4037837D01*
X44212509Y4048760D01*
X44217843Y4065270D01*
X44217843Y4147057D01*
X44253911Y4147057D02*
G01*
X44253911Y4032504D01*
X44253911Y4147057D02*
G01*
X44297600Y4032504D01*
X44341288Y4147057D02*
G01*
X44297600Y4032504D01*
X44341288Y4147057D02*
G01*
X44341288Y4032504D01*
X44377102Y4147057D02*
G01*
X44377102Y4032504D01*
X44377102Y4147057D02*
G01*
X44426377Y4147057D01*
X44442634Y4141470D01*
X44447968Y4136136D01*
X44453556Y4125213D01*
X44453556Y4114292D01*
X44447968Y4103370D01*
X44442634Y4097781D01*
X44426377Y4092447D01*
X44377102Y4092447D02*
G01*
X44426377Y4092447D01*
X44442634Y4087113D01*
X44447968Y4081526D01*
X44453556Y4070604D01*
X44453556Y4054347D01*
X44447968Y4043426D01*
X44442634Y4037837D01*
X44426377Y4032504D01*
X44377102Y4032504D01*
X44489624Y4147057D02*
G01*
X44489624Y4032504D01*
X44489624Y4147057D02*
G01*
X44560490Y4147057D01*
X44489624Y4092447D02*
G01*
X44533058Y4092447D01*
X44489624Y4032504D02*
G01*
X44560490Y4032504D01*
X44596558Y4147057D02*
G01*
X44596558Y4032504D01*
X44596558Y4147057D02*
G01*
X44645579Y4147057D01*
X44661836Y4141470D01*
X44667424Y4136136D01*
X44672758Y4125213D01*
X44672758Y4114292D01*
X44667424Y4103370D01*
X44661836Y4097781D01*
X44645579Y4092447D01*
X44596558Y4092447D01*
X44634658Y4092447D02*
G01*
X44672758Y4032504D01*
X44792900Y4125213D02*
G01*
X44803822Y4130547D01*
X44820077Y4147057D01*
X44820077Y4032504D01*
X44927011Y4108704D02*
G01*
X44921424Y4092447D01*
X44910502Y4081526D01*
X44894246Y4076192D01*
X44888911Y4076192D01*
X44872402Y4081526D01*
X44861479Y4092447D01*
X44856146Y4108704D01*
X44856146Y4114292D01*
X44861479Y4130547D01*
X44872402Y4141470D01*
X44888911Y4147057D01*
X44894246Y4147057D01*
X44910502Y4141470D01*
X44921424Y4130547D01*
X44927011Y4108704D01*
X44927011Y4081526D01*
X44921424Y4054347D01*
X44910502Y4037837D01*
X44894246Y4032504D01*
X44883324Y4032504D01*
X44867068Y4037837D01*
X44861479Y4048760D01*
X44963079Y4125213D02*
G01*
X44974002Y4130547D01*
X44990258Y4147057D01*
X44990258Y4032504D01*
X45059091Y4147057D02*
G01*
X45042582Y4141470D01*
X45031659Y4125213D01*
X45026325Y4097781D01*
X45026325Y4081526D01*
X45031659Y4054347D01*
X45042582Y4037837D01*
X45059091Y4032504D01*
X45070013Y4032504D01*
X45086270Y4037837D01*
X45097191Y4054347D01*
X45102525Y4081526D01*
X45102525Y4097781D01*
X45097191Y4125213D01*
X45086270Y4141470D01*
X45070013Y4147057D01*
X45059091Y4147057D01*
X45138593Y4081526D02*
G01*
X45236891Y4081526D01*
X45305472Y4147057D02*
G01*
X45289216Y4141470D01*
X45278293Y4125213D01*
X45272706Y4097781D01*
X45272706Y4081526D01*
X45278293Y4054347D01*
X45289216Y4037837D01*
X45305472Y4032504D01*
X45316393Y4032504D01*
X45332904Y4037837D01*
X45343825Y4054347D01*
X45349159Y4081526D01*
X45349159Y4097781D01*
X45343825Y4125213D01*
X45332904Y4141470D01*
X45316393Y4147057D01*
X45305472Y4147057D01*
X45450506Y4147057D02*
G01*
X45396150Y4147057D01*
X45390561Y4097781D01*
X45396150Y4103370D01*
X45412406Y4108704D01*
X45428916Y4108704D01*
X45445172Y4103370D01*
X45456093Y4092447D01*
X45461427Y4076192D01*
X45461427Y4065270D01*
X45456093Y4048760D01*
X45445172Y4037837D01*
X45428916Y4032504D01*
X45412406Y4032504D01*
X45396150Y4037837D01*
X45390561Y4043426D01*
X45385227Y4054347D01*
X45530261Y4147057D02*
G01*
X45514006Y4141470D01*
X45503084Y4125213D01*
X45497496Y4097781D01*
X45497496Y4081526D01*
X45503084Y4054347D01*
X45514006Y4037837D01*
X45530261Y4032504D01*
X45541184Y4032504D01*
X45557440Y4037837D01*
X45568361Y4054347D01*
X45573950Y4081526D01*
X45573950Y4097781D01*
X45568361Y4125213D01*
X45557440Y4141470D01*
X45541184Y4147057D01*
X45530261Y4147057D01*
X45609763Y4125213D02*
G01*
X45620686Y4130547D01*
X45637196Y4147057D01*
X45637196Y4032504D01*
X45757084Y4147057D02*
G01*
X45800772Y4032504D01*
X45844459Y4147057D02*
G01*
X45800772Y4032504D01*
X45913040Y4147057D02*
G01*
X45896784Y4141470D01*
X45885861Y4125213D01*
X45880527Y4097781D01*
X45880527Y4081526D01*
X45885861Y4054347D01*
X45896784Y4037837D01*
X45913040Y4032504D01*
X45923961Y4032504D01*
X45940472Y4037837D01*
X45951393Y4054347D01*
X45956727Y4081526D01*
X45956727Y4097781D01*
X45951393Y4125213D01*
X45940472Y4141470D01*
X45923961Y4147057D01*
X45913040Y4147057D01*
X45998129Y4059681D02*
G01*
X45992796Y4054347D01*
X45998129Y4048760D01*
X46003718Y4054347D01*
X45998129Y4059681D01*
X46045120Y4119626D02*
G01*
X46045120Y4125213D01*
X46050708Y4136136D01*
X46056041Y4141470D01*
X46066963Y4147057D01*
X46088808Y4147057D01*
X46099729Y4141470D01*
X46105063Y4136136D01*
X46110652Y4125213D01*
X46110652Y4114292D01*
X46105063Y4103370D01*
X46094141Y4087113D01*
X46039786Y4032504D01*
X46115986Y4032504D01*
D11*
X40970200Y481837D02*
G01*
X40970200Y413765D01*
X40974772Y400050D01*
X40983916Y390905D01*
X40997377Y386334D01*
X41006522Y386334D01*
X41020238Y390905D01*
X41029382Y400050D01*
X41033954Y413765D01*
X41033954Y481837D01*
X41100248Y481837D02*
G01*
X41063925Y386334D01*
X41100248Y481837D02*
G01*
X41136570Y386334D01*
X41077388Y418337D02*
G01*
X41122854Y418337D01*
X41166541Y481837D02*
G01*
X41166541Y386334D01*
X41166541Y481837D02*
G01*
X41207436Y481837D01*
X41221152Y477265D01*
X41225724Y472694D01*
X41230296Y463804D01*
X41230296Y454660D01*
X41225724Y445515D01*
X41221152Y440944D01*
X41207436Y436371D01*
X41166541Y436371D01*
X41198291Y436371D02*
G01*
X41230296Y386334D01*
X41292018Y481837D02*
G01*
X41292018Y386334D01*
X41260268Y481837D02*
G01*
X41323768Y481837D01*
X41033956Y2284267D02*
G01*
X41024812Y2293411D01*
X41011096Y2297983D01*
X40992808Y2297983D01*
X40979346Y2293411D01*
X40970202Y2284267D01*
X40970202Y2275377D01*
X40974774Y2266233D01*
X40979346Y2261661D01*
X40988490Y2257089D01*
X41015668Y2247945D01*
X41024812Y2243373D01*
X41029384Y2238801D01*
X41033956Y2229911D01*
X41033956Y2216195D01*
X41024812Y2207051D01*
X41011096Y2202479D01*
X40992808Y2202479D01*
X40979346Y2207051D01*
X40970202Y2216195D01*
X41063928Y2297983D02*
G01*
X41086534Y2202479D01*
X41109394Y2297983D02*
G01*
X41086534Y2202479D01*
X41109394Y2297983D02*
G01*
X41132000Y2202479D01*
X41154860Y2297983D02*
G01*
X41132000Y2202479D01*
X41184832Y2297983D02*
G01*
X41184832Y2202479D01*
X41184832Y2297983D02*
G01*
X41216582Y2297983D01*
X41230298Y2293411D01*
X41239188Y2284267D01*
X41243760Y2275377D01*
X41248332Y2261661D01*
X41248332Y2238801D01*
X41243760Y2225339D01*
X41239188Y2216195D01*
X41230298Y2207051D01*
X41216582Y2202479D01*
X41184832Y2202479D01*
X43375072Y306730D02*
G01*
X43370754Y315874D01*
X43361609Y325018D01*
X43352466Y329590D01*
X43334177Y329590D01*
X43325288Y325018D01*
X43316143Y315874D01*
X43311572Y306730D01*
X43307000Y293268D01*
X43307000Y270408D01*
X43311572Y256692D01*
X43316143Y247802D01*
X43325288Y238658D01*
X43334177Y234086D01*
X43352466Y234086D01*
X43361609Y238658D01*
X43370754Y247802D01*
X43375072Y256692D01*
X43405298Y311302D02*
G01*
X43414188Y315874D01*
X43427904Y329590D01*
X43427904Y234086D01*
X43517058Y297586D02*
G01*
X43512486Y284124D01*
X43503341Y274980D01*
X43489625Y270408D01*
X43485308Y270408D01*
X43471591Y274980D01*
X43462448Y284124D01*
X43457875Y297586D01*
X43457875Y302158D01*
X43462448Y315874D01*
X43471591Y325018D01*
X43485308Y329590D01*
X43489625Y329590D01*
X43503341Y325018D01*
X43512486Y315874D01*
X43517058Y297586D01*
X43517058Y274980D01*
X43512486Y252120D01*
X43503341Y238658D01*
X43489625Y234086D01*
X43480736Y234086D01*
X43467020Y238658D01*
X43462448Y247802D01*
X42937125Y916431D02*
G01*
X42932553Y925576D01*
X42923663Y934465D01*
X42914519Y939037D01*
X42896231Y939037D01*
X42887087Y934465D01*
X42878197Y925576D01*
X42873625Y916431D01*
X42869053Y902715D01*
X42869053Y880110D01*
X42873625Y866394D01*
X42878197Y857250D01*
X42887087Y848105D01*
X42896231Y843534D01*
X42914519Y843534D01*
X42923663Y848105D01*
X42932553Y857250D01*
X42937125Y866394D01*
X42967097Y921004D02*
G01*
X42976241Y925576D01*
X42989957Y939037D01*
X42989957Y843534D01*
X43042535Y939037D02*
G01*
X43029073Y934465D01*
X43024501Y925576D01*
X43024501Y916431D01*
X43029073Y907287D01*
X43038217Y902715D01*
X43056251Y898144D01*
X43069967Y893571D01*
X43079111Y884681D01*
X43083429Y875537D01*
X43083429Y861821D01*
X43079111Y852678D01*
X43074539Y848105D01*
X43060823Y843534D01*
X43042535Y843534D01*
X43029073Y848105D01*
X43024501Y852678D01*
X43019929Y861821D01*
X43019929Y875537D01*
X43024501Y884681D01*
X43033645Y893571D01*
X43047107Y898144D01*
X43065395Y902715D01*
X43074539Y907287D01*
X43079111Y916431D01*
X43079111Y925576D01*
X43074539Y934465D01*
X43060823Y939037D01*
X43042535Y939037D01*
X42936972Y1233931D02*
G01*
X42932400Y1243076D01*
X42923256Y1251965D01*
X42914112Y1256537D01*
X42896078Y1256537D01*
X42886934Y1251965D01*
X42877790Y1243076D01*
X42873218Y1233931D01*
X42868646Y1220215D01*
X42868646Y1197610D01*
X42873218Y1183894D01*
X42877790Y1174750D01*
X42886934Y1165605D01*
X42896078Y1161034D01*
X42914112Y1161034D01*
X42923256Y1165605D01*
X42932400Y1174750D01*
X42936972Y1183894D01*
X42966944Y1238504D02*
G01*
X42976088Y1243076D01*
X42989550Y1256537D01*
X42989550Y1161034D01*
X43083276Y1256537D02*
G01*
X43037810Y1161034D01*
X43019522Y1256537D02*
G01*
X43083276Y1256537D01*
X44169025Y1513027D02*
G01*
X44164453Y1522171D01*
X44155563Y1531061D01*
X44146419Y1535633D01*
X44128131Y1535633D01*
X44118987Y1531061D01*
X44110097Y1522171D01*
X44105525Y1513027D01*
X44100953Y1499311D01*
X44100953Y1476705D01*
X44105525Y1462989D01*
X44110097Y1453845D01*
X44118987Y1444701D01*
X44128131Y1440129D01*
X44146419Y1440129D01*
X44155563Y1444701D01*
X44164453Y1453845D01*
X44169025Y1462989D01*
X44198997Y1517599D02*
G01*
X44208141Y1522171D01*
X44221857Y1535633D01*
X44221857Y1440129D01*
X44306439Y1535633D02*
G01*
X44260973Y1535633D01*
X44256401Y1494739D01*
X44260973Y1499311D01*
X44274435Y1503883D01*
X44288151Y1503883D01*
X44301867Y1499311D01*
X44311011Y1490167D01*
X44315329Y1476705D01*
X44315329Y1467561D01*
X44311011Y1453845D01*
X44301867Y1444701D01*
X44288151Y1440129D01*
X44274435Y1440129D01*
X44260973Y1444701D01*
X44256401Y1449273D01*
X44251829Y1458417D01*
X43375072Y1526031D02*
G01*
X43370754Y1535176D01*
X43361609Y1544065D01*
X43352466Y1548637D01*
X43334177Y1548637D01*
X43325288Y1544065D01*
X43316143Y1535176D01*
X43311572Y1526031D01*
X43307000Y1512315D01*
X43307000Y1489710D01*
X43311572Y1475994D01*
X43316143Y1466850D01*
X43325288Y1457705D01*
X43334177Y1453134D01*
X43352466Y1453134D01*
X43361609Y1457705D01*
X43370754Y1466850D01*
X43375072Y1475994D01*
X43405298Y1530604D02*
G01*
X43414188Y1535176D01*
X43427904Y1548637D01*
X43427904Y1453134D01*
X43512486Y1548637D02*
G01*
X43467020Y1548637D01*
X43462448Y1507744D01*
X43467020Y1512315D01*
X43480736Y1516887D01*
X43494198Y1516887D01*
X43507913Y1512315D01*
X43517058Y1503171D01*
X43521629Y1489710D01*
X43521629Y1480565D01*
X43517058Y1466850D01*
X43507913Y1457705D01*
X43494198Y1453134D01*
X43480736Y1453134D01*
X43467020Y1457705D01*
X43462448Y1462278D01*
X43457875Y1471421D01*
X42486224Y3418331D02*
G01*
X42481652Y3427476D01*
X42472508Y3436365D01*
X42463364Y3440937D01*
X42445330Y3440937D01*
X42436186Y3436365D01*
X42427042Y3427476D01*
X42422470Y3418331D01*
X42417898Y3404615D01*
X42417898Y3382010D01*
X42422470Y3368294D01*
X42427042Y3359150D01*
X42436186Y3350005D01*
X42445330Y3345434D01*
X42463364Y3345434D01*
X42472508Y3350005D01*
X42481652Y3359150D01*
X42486224Y3368294D01*
X42516196Y3422904D02*
G01*
X42525340Y3427476D01*
X42538802Y3440937D01*
X42538802Y3345434D01*
X42405300Y1129537D02*
G01*
X42405300Y1061465D01*
X42409872Y1047750D01*
X42419016Y1038605D01*
X42432477Y1034034D01*
X42441622Y1034034D01*
X42455338Y1038605D01*
X42464482Y1047750D01*
X42469054Y1061465D01*
X42469054Y1129537D01*
X42553382Y1116076D02*
G01*
X42548809Y1124965D01*
X42535348Y1129537D01*
X42526204Y1129537D01*
X42512488Y1124965D01*
X42503598Y1111504D01*
X42499025Y1088644D01*
X42499025Y1066037D01*
X42503598Y1047750D01*
X42512488Y1038605D01*
X42526204Y1034034D01*
X42530775Y1034034D01*
X42544491Y1038605D01*
X42553382Y1047750D01*
X42557954Y1061465D01*
X42557954Y1066037D01*
X42553382Y1079500D01*
X42544491Y1088644D01*
X42530775Y1093215D01*
X42526204Y1093215D01*
X42512488Y1088644D01*
X42503598Y1079500D01*
X42499025Y1066037D01*
X45429149Y3442715D02*
G01*
X45429149Y3359657D01*
X45423815Y3343910D01*
X45418735Y3338829D01*
X45408321Y3333750D01*
X45397907Y3333750D01*
X45387493Y3338829D01*
X45382413Y3343910D01*
X45377079Y3359657D01*
X45377079Y3370071D01*
X45473853Y3442715D02*
G01*
X45531003Y3442715D01*
X45499761Y3401060D01*
X45515255Y3401060D01*
X45525669Y3395979D01*
X45531003Y3390900D01*
X45536083Y3375152D01*
X45536083Y3364737D01*
X45531003Y3349244D01*
X45520589Y3338829D01*
X45504841Y3333750D01*
X45489347Y3333750D01*
X45473853Y3338829D01*
X45468519Y3343910D01*
X45463439Y3354323D01*
X42405300Y3034537D02*
G01*
X42405300Y2966465D01*
X42409872Y2952750D01*
X42419016Y2943605D01*
X42432477Y2939034D01*
X42441622Y2939034D01*
X42455338Y2943605D01*
X42464482Y2952750D01*
X42469054Y2966465D01*
X42469054Y3034537D01*
X42507916Y3034537D02*
G01*
X42557954Y3034537D01*
X42530775Y2998215D01*
X42544491Y2998215D01*
X42553382Y2993644D01*
X42557954Y2989071D01*
X42562525Y2975610D01*
X42562525Y2966465D01*
X42557954Y2952750D01*
X42548809Y2943605D01*
X42535348Y2939034D01*
X42521632Y2939034D01*
X42507916Y2943605D01*
X42503598Y2948178D01*
X42499025Y2957321D01*
X41015666Y3110737D02*
G01*
X41015666Y3038094D01*
X41011093Y3024378D01*
X41006522Y3019805D01*
X40997377Y3015234D01*
X40988488Y3015234D01*
X40979343Y3019805D01*
X40974772Y3024378D01*
X40970200Y3038094D01*
X40970200Y3047237D01*
X41091104Y3110737D02*
G01*
X41045638Y3047237D01*
X41113709Y3047237D01*
X41091104Y3110737D02*
G01*
X41091104Y3015234D01*
X44899072Y3151631D02*
G01*
X44894754Y3160776D01*
X44885609Y3169665D01*
X44876466Y3174237D01*
X44858177Y3174237D01*
X44849288Y3169665D01*
X44840143Y3160776D01*
X44835572Y3151631D01*
X44831000Y3137915D01*
X44831000Y3115310D01*
X44835572Y3101594D01*
X44840143Y3092450D01*
X44849288Y3083305D01*
X44858177Y3078734D01*
X44876466Y3078734D01*
X44885609Y3083305D01*
X44894754Y3092450D01*
X44899072Y3101594D01*
X44933616Y3151631D02*
G01*
X44933616Y3156204D01*
X44938188Y3165094D01*
X44942759Y3169665D01*
X44951904Y3174237D01*
X44970191Y3174237D01*
X44979082Y3169665D01*
X44983654Y3165094D01*
X44988225Y3156204D01*
X44988225Y3147060D01*
X44983654Y3137915D01*
X44974509Y3124200D01*
X44929298Y3078734D01*
X44992798Y3078734D01*
X44340272Y2923031D02*
G01*
X44335954Y2932176D01*
X44326809Y2941065D01*
X44317666Y2945637D01*
X44299377Y2945637D01*
X44290488Y2941065D01*
X44281343Y2932176D01*
X44276772Y2923031D01*
X44272200Y2909315D01*
X44272200Y2886710D01*
X44276772Y2872994D01*
X44281343Y2863850D01*
X44290488Y2854705D01*
X44299377Y2850134D01*
X44317666Y2850134D01*
X44326809Y2854705D01*
X44335954Y2863850D01*
X44340272Y2872994D01*
X44424854Y2945637D02*
G01*
X44379388Y2945637D01*
X44374816Y2904744D01*
X44379388Y2909315D01*
X44393104Y2913887D01*
X44406820Y2913887D01*
X44420282Y2909315D01*
X44429425Y2900171D01*
X44433998Y2886710D01*
X44433998Y2877565D01*
X44429425Y2863850D01*
X44420282Y2854705D01*
X44406820Y2850134D01*
X44393104Y2850134D01*
X44379388Y2854705D01*
X44374816Y2859278D01*
X44370498Y2868421D01*
X45076872Y2935731D02*
G01*
X45072554Y2944876D01*
X45063409Y2953765D01*
X45054266Y2958337D01*
X45035977Y2958337D01*
X45027088Y2953765D01*
X45017943Y2944876D01*
X45013372Y2935731D01*
X45008800Y2922015D01*
X45008800Y2899410D01*
X45013372Y2885694D01*
X45017943Y2876550D01*
X45027088Y2867405D01*
X45035977Y2862834D01*
X45054266Y2862834D01*
X45063409Y2867405D01*
X45072554Y2876550D01*
X45076872Y2885694D01*
X45152309Y2958337D02*
G01*
X45107098Y2894837D01*
X45175170Y2894837D01*
X45152309Y2958337D02*
G01*
X45152309Y2862834D01*
X44513446Y1695604D02*
G01*
X44577200Y1600100D01*
X44577200Y1695604D02*
G01*
X44513446Y1600100D01*
X44607172Y1677316D02*
G01*
X44616316Y1681888D01*
X44629778Y1695604D01*
X44629778Y1600100D01*
X43616372Y1818131D02*
G01*
X43612054Y1827276D01*
X43602909Y1836165D01*
X43593766Y1840737D01*
X43575477Y1840737D01*
X43566588Y1836165D01*
X43557443Y1827276D01*
X43552872Y1818131D01*
X43548300Y1804415D01*
X43548300Y1781810D01*
X43552872Y1768094D01*
X43557443Y1758950D01*
X43566588Y1749805D01*
X43575477Y1745234D01*
X43593766Y1745234D01*
X43602909Y1749805D01*
X43612054Y1758950D01*
X43616372Y1768094D01*
X43646598Y1822704D02*
G01*
X43655488Y1827276D01*
X43669204Y1840737D01*
X43669204Y1745234D01*
X43708320Y1840737D02*
G01*
X43758358Y1840737D01*
X43730925Y1804415D01*
X43744641Y1804415D01*
X43753786Y1799844D01*
X43758358Y1795271D01*
X43762929Y1781810D01*
X43762929Y1772665D01*
X43758358Y1758950D01*
X43749213Y1749805D01*
X43735498Y1745234D01*
X43722036Y1745234D01*
X43708320Y1749805D01*
X43703748Y1754378D01*
X43699175Y1763521D01*
X44860972Y1741931D02*
G01*
X44856654Y1751076D01*
X44847509Y1759965D01*
X44838366Y1764537D01*
X44820077Y1764537D01*
X44811188Y1759965D01*
X44802043Y1751076D01*
X44797472Y1741931D01*
X44792900Y1728215D01*
X44792900Y1705610D01*
X44797472Y1691894D01*
X44802043Y1682750D01*
X44811188Y1673605D01*
X44820077Y1669034D01*
X44838366Y1669034D01*
X44847509Y1673605D01*
X44856654Y1682750D01*
X44860972Y1691894D01*
X44891198Y1746504D02*
G01*
X44900088Y1751076D01*
X44913804Y1764537D01*
X44913804Y1669034D01*
X44989241Y1764537D02*
G01*
X44943775Y1701037D01*
X45012102Y1701037D01*
X44989241Y1764537D02*
G01*
X44989241Y1669034D01*
X44860972Y1868931D02*
G01*
X44856654Y1878076D01*
X44847509Y1886965D01*
X44838366Y1891537D01*
X44820077Y1891537D01*
X44811188Y1886965D01*
X44802043Y1878076D01*
X44797472Y1868931D01*
X44792900Y1855215D01*
X44792900Y1832610D01*
X44797472Y1818894D01*
X44802043Y1809750D01*
X44811188Y1800605D01*
X44820077Y1796034D01*
X44838366Y1796034D01*
X44847509Y1800605D01*
X44856654Y1809750D01*
X44860972Y1818894D01*
X44891198Y1873504D02*
G01*
X44900088Y1878076D01*
X44913804Y1891537D01*
X44913804Y1796034D01*
X44948348Y1868931D02*
G01*
X44948348Y1873504D01*
X44952920Y1882394D01*
X44957491Y1886965D01*
X44966636Y1891537D01*
X44984670Y1891537D01*
X44993813Y1886965D01*
X44998386Y1882394D01*
X45002958Y1873504D01*
X45002958Y1864360D01*
X44998386Y1855215D01*
X44989241Y1841500D01*
X44943775Y1796034D01*
X45007529Y1796034D01*
X44945300Y2678937D02*
G01*
X44945300Y2610865D01*
X44949872Y2597150D01*
X44959016Y2588005D01*
X44972477Y2583434D01*
X44981622Y2583434D01*
X44995338Y2588005D01*
X45004482Y2597150D01*
X45009054Y2610865D01*
X45009054Y2678937D01*
X45084491Y2678937D02*
G01*
X45039025Y2615437D01*
X45107098Y2615437D01*
X45084491Y2678937D02*
G01*
X45084491Y2583434D01*
X44340272Y3050031D02*
G01*
X44335954Y3059176D01*
X44326809Y3068065D01*
X44317666Y3072637D01*
X44299377Y3072637D01*
X44290488Y3068065D01*
X44281343Y3059176D01*
X44276772Y3050031D01*
X44272200Y3036315D01*
X44272200Y3013710D01*
X44276772Y2999994D01*
X44281343Y2990850D01*
X44290488Y2981705D01*
X44299377Y2977134D01*
X44317666Y2977134D01*
X44326809Y2981705D01*
X44335954Y2990850D01*
X44340272Y2999994D01*
X44379388Y3072637D02*
G01*
X44429425Y3072637D01*
X44402248Y3036315D01*
X44415709Y3036315D01*
X44424854Y3031744D01*
X44429425Y3027171D01*
X44433998Y3013710D01*
X44433998Y3004565D01*
X44429425Y2990850D01*
X44420282Y2981705D01*
X44406820Y2977134D01*
X44393104Y2977134D01*
X44379388Y2981705D01*
X44374816Y2986278D01*
X44370498Y2995421D01*
X44987972Y2135631D02*
G01*
X44983654Y2144776D01*
X44974509Y2153665D01*
X44965366Y2158237D01*
X44947077Y2158237D01*
X44938188Y2153665D01*
X44929043Y2144776D01*
X44924472Y2135631D01*
X44919900Y2121915D01*
X44919900Y2099310D01*
X44924472Y2085594D01*
X44929043Y2076450D01*
X44938188Y2067305D01*
X44947077Y2062734D01*
X44965366Y2062734D01*
X44974509Y2067305D01*
X44983654Y2076450D01*
X44987972Y2085594D01*
X45018198Y2140204D02*
G01*
X45027088Y2144776D01*
X45040804Y2158237D01*
X45040804Y2062734D01*
X45070775Y2140204D02*
G01*
X45079920Y2144776D01*
X45093636Y2158237D01*
X45093636Y2062734D01*
X45013372Y2465831D02*
G01*
X45009054Y2474976D01*
X44999909Y2483865D01*
X44990766Y2488437D01*
X44972477Y2488437D01*
X44963588Y2483865D01*
X44954443Y2474976D01*
X44949872Y2465831D01*
X44945300Y2452115D01*
X44945300Y2429510D01*
X44949872Y2415794D01*
X44954443Y2406650D01*
X44963588Y2397505D01*
X44972477Y2392934D01*
X44990766Y2392934D01*
X44999909Y2397505D01*
X45009054Y2406650D01*
X45013372Y2415794D01*
X45066204Y2488437D02*
G01*
X45052488Y2483865D01*
X45047916Y2474976D01*
X45047916Y2465831D01*
X45052488Y2456687D01*
X45061632Y2452115D01*
X45079920Y2447544D01*
X45093382Y2442971D01*
X45102525Y2434081D01*
X45107098Y2424937D01*
X45107098Y2411221D01*
X45102525Y2402078D01*
X45097954Y2397505D01*
X45084491Y2392934D01*
X45066204Y2392934D01*
X45052488Y2397505D01*
X45047916Y2402078D01*
X45043598Y2411221D01*
X45043598Y2424937D01*
X45047916Y2434081D01*
X45057059Y2442971D01*
X45070775Y2447544D01*
X45088809Y2452115D01*
X45097954Y2456687D01*
X45102525Y2465831D01*
X45102525Y2474976D01*
X45097954Y2483865D01*
X45084491Y2488437D01*
X45066204Y2488437D01*
X43916597Y3148840D02*
G01*
X43916597Y3080768D01*
X43921169Y3067052D01*
X43930313Y3057908D01*
X43943775Y3053336D01*
X43952919Y3053336D01*
X43966635Y3057908D01*
X43975779Y3067052D01*
X43980351Y3080768D01*
X43980351Y3148840D01*
X44014895Y3126234D02*
G01*
X44014895Y3130806D01*
X44019213Y3139696D01*
X44023785Y3144268D01*
X44032929Y3148840D01*
X44051217Y3148840D01*
X44060107Y3144268D01*
X44064679Y3139696D01*
X44069251Y3130806D01*
X44069251Y3121662D01*
X44064679Y3112518D01*
X44055789Y3098802D01*
X44010323Y3053336D01*
X44073823Y3053336D01*
X43717972Y2580131D02*
G01*
X43713654Y2589276D01*
X43704509Y2598165D01*
X43695366Y2602737D01*
X43677077Y2602737D01*
X43668188Y2598165D01*
X43659043Y2589276D01*
X43654472Y2580131D01*
X43649900Y2566415D01*
X43649900Y2543810D01*
X43654472Y2530094D01*
X43659043Y2520950D01*
X43668188Y2511805D01*
X43677077Y2507234D01*
X43695366Y2507234D01*
X43704509Y2511805D01*
X43713654Y2520950D01*
X43717972Y2530094D01*
X43811698Y2602737D02*
G01*
X43766232Y2507234D01*
X43748198Y2602737D02*
G01*
X43811698Y2602737D01*
X43717972Y2719831D02*
G01*
X43713654Y2728976D01*
X43704509Y2737865D01*
X43695366Y2742437D01*
X43677077Y2742437D01*
X43668188Y2737865D01*
X43659043Y2728976D01*
X43654472Y2719831D01*
X43649900Y2706115D01*
X43649900Y2683510D01*
X43654472Y2669794D01*
X43659043Y2660650D01*
X43668188Y2651505D01*
X43677077Y2646934D01*
X43695366Y2646934D01*
X43704509Y2651505D01*
X43713654Y2660650D01*
X43717972Y2669794D01*
X43802554Y2728976D02*
G01*
X43797982Y2737865D01*
X43784520Y2742437D01*
X43775375Y2742437D01*
X43761659Y2737865D01*
X43752516Y2724404D01*
X43748198Y2701544D01*
X43748198Y2678937D01*
X43752516Y2660650D01*
X43761659Y2651505D01*
X43775375Y2646934D01*
X43779948Y2646934D01*
X43793409Y2651505D01*
X43802554Y2660650D01*
X43807125Y2674365D01*
X43807125Y2678937D01*
X43802554Y2692400D01*
X43793409Y2701544D01*
X43779948Y2706115D01*
X43775375Y2706115D01*
X43761659Y2701544D01*
X43752516Y2692400D01*
X43748198Y2678937D01*
X43692572Y2326131D02*
G01*
X43688254Y2335276D01*
X43679109Y2344165D01*
X43669966Y2348737D01*
X43651677Y2348737D01*
X43642788Y2344165D01*
X43633643Y2335276D01*
X43629072Y2326131D01*
X43624500Y2312415D01*
X43624500Y2289810D01*
X43629072Y2276094D01*
X43633643Y2266950D01*
X43642788Y2257805D01*
X43651677Y2253234D01*
X43669966Y2253234D01*
X43679109Y2257805D01*
X43688254Y2266950D01*
X43692572Y2276094D01*
X43781725Y2316987D02*
G01*
X43777154Y2303271D01*
X43768009Y2294381D01*
X43754548Y2289810D01*
X43749975Y2289810D01*
X43736259Y2294381D01*
X43727116Y2303271D01*
X43722798Y2316987D01*
X43722798Y2321560D01*
X43727116Y2335276D01*
X43736259Y2344165D01*
X43749975Y2348737D01*
X43754548Y2348737D01*
X43768009Y2344165D01*
X43777154Y2335276D01*
X43781725Y2316987D01*
X43781725Y2294381D01*
X43777154Y2271521D01*
X43768009Y2257805D01*
X43754548Y2253234D01*
X43745404Y2253234D01*
X43731688Y2257805D01*
X43727116Y2266950D01*
X43679872Y2173731D02*
G01*
X43675554Y2182876D01*
X43666409Y2191765D01*
X43657266Y2196337D01*
X43638977Y2196337D01*
X43630088Y2191765D01*
X43620943Y2182876D01*
X43616372Y2173731D01*
X43611800Y2160015D01*
X43611800Y2137410D01*
X43616372Y2123694D01*
X43620943Y2114550D01*
X43630088Y2105405D01*
X43638977Y2100834D01*
X43657266Y2100834D01*
X43666409Y2105405D01*
X43675554Y2114550D01*
X43679872Y2123694D01*
X43710098Y2178304D02*
G01*
X43718988Y2182876D01*
X43732704Y2196337D01*
X43732704Y2100834D01*
X43790108Y2196337D02*
G01*
X43776391Y2191765D01*
X43767248Y2178304D01*
X43762675Y2155444D01*
X43762675Y2141981D01*
X43767248Y2119121D01*
X43776391Y2105405D01*
X43790108Y2100834D01*
X43798998Y2100834D01*
X43812713Y2105405D01*
X43821858Y2119121D01*
X43826429Y2141981D01*
X43826429Y2155444D01*
X43821858Y2178304D01*
X43812713Y2191765D01*
X43798998Y2196337D01*
X43790108Y2196337D01*
X43916597Y2196340D02*
G01*
X43916597Y2100836D01*
X43916597Y2196340D02*
G01*
X43948347Y2196340D01*
X43962063Y2191768D01*
X43971207Y2182878D01*
X43975779Y2173734D01*
X43980351Y2160018D01*
X43980351Y2137412D01*
X43975779Y2123696D01*
X43971207Y2114552D01*
X43962063Y2105408D01*
X43948347Y2100836D01*
X43916597Y2100836D01*
X44010323Y2178306D02*
G01*
X44019213Y2182878D01*
X44032929Y2196340D01*
X44032929Y2100836D01*
X43129200Y3707637D02*
G01*
X43129200Y3612134D01*
X43129200Y3612134D02*
G01*
X43183809Y3612134D01*
X43213782Y3689604D02*
G01*
X43222925Y3694176D01*
X43236388Y3707637D01*
X43236388Y3612134D01*
X42418000Y3606037D02*
G01*
X42418000Y3510534D01*
X42418000Y3606037D02*
G01*
X42477182Y3606037D01*
X42418000Y3560571D02*
G01*
X42454322Y3560571D01*
X42507154Y3588004D02*
G01*
X42516298Y3592576D01*
X42529759Y3606037D01*
X42529759Y3510534D01*
X43891200Y1535937D02*
G01*
X43891200Y1467865D01*
X43895772Y1454150D01*
X43904916Y1445005D01*
X43918377Y1440434D01*
X43927522Y1440434D01*
X43941238Y1445005D01*
X43950382Y1454150D01*
X43954954Y1467865D01*
X43954954Y1535937D01*
X44039282Y1535937D02*
G01*
X43993816Y1535937D01*
X43989498Y1495044D01*
X43993816Y1499615D01*
X44007532Y1504187D01*
X44021248Y1504187D01*
X44034709Y1499615D01*
X44043854Y1490471D01*
X44048425Y1477010D01*
X44048425Y1467865D01*
X44043854Y1454150D01*
X44034709Y1445005D01*
X44021248Y1440434D01*
X44007532Y1440434D01*
X43993816Y1445005D01*
X43989498Y1449578D01*
X43984925Y1458721D01*
X42520361Y2209800D02*
G01*
X42615866Y2209800D01*
X42520361Y2209800D02*
G01*
X42520361Y2241550D01*
X42524934Y2255265D01*
X42533824Y2264410D01*
X42542968Y2268981D01*
X42556684Y2273554D01*
X42579290Y2273554D01*
X42593006Y2268981D01*
X42602150Y2264410D01*
X42611293Y2255265D01*
X42615866Y2241550D01*
X42615866Y2209800D01*
X42520361Y2312415D02*
G01*
X42520361Y2362454D01*
X42556684Y2335276D01*
X42556684Y2348992D01*
X42561256Y2357881D01*
X42565827Y2362454D01*
X42579290Y2367026D01*
X42588434Y2367026D01*
X42602150Y2362454D01*
X42611293Y2353310D01*
X42615866Y2339847D01*
X42615866Y2326131D01*
X42611293Y2312415D01*
X42606722Y2308097D01*
X42597577Y2303526D01*
X42607738Y1282700D02*
G01*
X42512234Y1282700D01*
X42607738Y1282700D02*
G01*
X42607738Y1250950D01*
X42603166Y1237234D01*
X42594275Y1228089D01*
X42585132Y1223518D01*
X42571416Y1218945D01*
X42548809Y1218945D01*
X42535093Y1223518D01*
X42525950Y1228089D01*
X42516806Y1237234D01*
X42512234Y1250950D01*
X42512234Y1282700D01*
X42585132Y1184402D02*
G01*
X42589704Y1184402D01*
X42598593Y1180084D01*
X42603166Y1175512D01*
X42607738Y1166368D01*
X42607738Y1148079D01*
X42603166Y1139189D01*
X42598593Y1134618D01*
X42589704Y1130045D01*
X42580559Y1130045D01*
X42571416Y1134618D01*
X42557700Y1143507D01*
X42512234Y1188973D01*
X42512234Y1125473D01*
X42722800Y659637D02*
G01*
X42722800Y564134D01*
X42722800Y659637D02*
G01*
X42763693Y659637D01*
X42777409Y655065D01*
X42781982Y650494D01*
X42786554Y641604D01*
X42786554Y632460D01*
X42781982Y623315D01*
X42777409Y618744D01*
X42763693Y614171D01*
X42722800Y614171D01*
X42754550Y614171D02*
G01*
X42786554Y564134D01*
X42816525Y641604D02*
G01*
X42825416Y646176D01*
X42839132Y659637D01*
X42839132Y564134D01*
X42722800Y443737D02*
G01*
X42722800Y348234D01*
X42722800Y443737D02*
G01*
X42763693Y443737D01*
X42777409Y439165D01*
X42781982Y434594D01*
X42786554Y425704D01*
X42786554Y416560D01*
X42781982Y407415D01*
X42777409Y402844D01*
X42763693Y398271D01*
X42722800Y398271D01*
X42754550Y398271D02*
G01*
X42786554Y348234D01*
X42821098Y421131D02*
G01*
X42821098Y425704D01*
X42825416Y434594D01*
X42829988Y439165D01*
X42839132Y443737D01*
X42857420Y443737D01*
X42866309Y439165D01*
X42870882Y434594D01*
X42875454Y425704D01*
X42875454Y416560D01*
X42870882Y407415D01*
X42861991Y393700D01*
X42816525Y348234D01*
X42880025Y348234D01*
X41015666Y1294637D02*
G01*
X41015666Y1221994D01*
X41011093Y1208278D01*
X41006522Y1203705D01*
X40997377Y1199134D01*
X40988488Y1199134D01*
X40979343Y1203705D01*
X40974772Y1208278D01*
X40970200Y1221994D01*
X40970200Y1231137D01*
X41100248Y1294637D02*
G01*
X41054782Y1294637D01*
X41050209Y1253744D01*
X41054782Y1258315D01*
X41068498Y1262887D01*
X41081959Y1262887D01*
X41095675Y1258315D01*
X41104820Y1249171D01*
X41109391Y1235710D01*
X41109391Y1226565D01*
X41104820Y1212850D01*
X41095675Y1203705D01*
X41081959Y1199134D01*
X41068498Y1199134D01*
X41054782Y1203705D01*
X41050209Y1208278D01*
X41045638Y1217421D01*
X44348400Y3948937D02*
G01*
X44348400Y3880865D01*
X44352972Y3867150D01*
X44362116Y3858005D01*
X44375577Y3853434D01*
X44384722Y3853434D01*
X44398438Y3858005D01*
X44407582Y3867150D01*
X44412154Y3880865D01*
X44412154Y3948937D01*
X44442125Y3930904D02*
G01*
X44451016Y3935476D01*
X44464732Y3948937D01*
X44464732Y3853434D01*
G36*
X43443398Y3583025D02*
G01*
X43443398Y3497630D01*
X43489118Y3497630D01*
X43489118Y3583025D01*
G37*
G36*
X43443398Y3207969D02*
G01*
X43443398Y3122574D01*
X43489118Y3122574D01*
X43489118Y3207969D01*
G37*
G36*
X43907202Y1978507D02*
G01*
X43884697Y1956003D01*
X43929706Y1956003D01*
G37*
D12*
X43561698Y239422D02*
G01*
X43561698Y319425D01*
X43672673Y208437D02*
G01*
X43592676Y208437D01*
X43672673Y350403D02*
G01*
X43592676Y350403D01*
X43730263Y207855D02*
G01*
X43810262Y207855D01*
X43841245Y238838D02*
G01*
X43841245Y318836D01*
X43730263Y349816D02*
G01*
X43810262Y349816D01*
X43232677Y749998D02*
G01*
X43152674Y749998D01*
X43263662Y860973D02*
G01*
X43263662Y780976D01*
X43121696Y860973D02*
G01*
X43121696Y780976D01*
X43264244Y918563D02*
G01*
X43264244Y998562D01*
X43233261Y1029545D02*
G01*
X43153263Y1029545D01*
X43122283Y918563D02*
G01*
X43122283Y998562D01*
X43232677Y1067498D02*
G01*
X43152674Y1067498D01*
X43263662Y1178473D02*
G01*
X43263662Y1098476D01*
X43121696Y1178473D02*
G01*
X43121696Y1098476D01*
X43264244Y1236063D02*
G01*
X43264244Y1316062D01*
X43233261Y1347045D02*
G01*
X43153263Y1347045D01*
X43122283Y1236063D02*
G01*
X43122283Y1316062D01*
X44181422Y1396301D02*
G01*
X44261425Y1396301D01*
X44150437Y1285326D02*
G01*
X44150437Y1365323D01*
X44292403Y1285326D02*
G01*
X44292403Y1365323D01*
X44149855Y1227736D02*
G01*
X44149855Y1147737D01*
X44180838Y1116754D02*
G01*
X44260836Y1116754D01*
X44291816Y1227736D02*
G01*
X44291816Y1147737D01*
X43561698Y1458622D02*
G01*
X43561698Y1538625D01*
X43672673Y1427637D02*
G01*
X43592676Y1427637D01*
X43672673Y1569603D02*
G01*
X43592676Y1569603D01*
X43730263Y1427055D02*
G01*
X43810262Y1427055D01*
X43841245Y1458038D02*
G01*
X43841245Y1538036D01*
X43730263Y1569016D02*
G01*
X43810262Y1569016D01*
D11*
X42705776Y3575420D02*
G01*
X43451023Y3575420D01*
X42705776Y3130179D02*
G01*
X43451023Y3130179D01*
X43298826Y3575420D02*
G01*
X43298826Y3130179D01*
X42705776Y3575420D02*
G01*
X42705776Y3502718D01*
X42705776Y3130179D02*
G01*
X42705776Y3202881D01*
X42570420Y992118D02*
G01*
X42392579Y992118D01*
X42570420Y684281D02*
G01*
X42392579Y684281D01*
D12*
X45588006Y1181498D02*
G01*
X45344013Y1181496D01*
X45344013Y1181498D02*
G01*
X45344013Y3263493D01*
X45344013Y3263491D02*
G01*
X45588006Y3263493D01*
X45588006Y3263493D02*
G01*
X45588006Y1181498D01*
D11*
X42570420Y2897118D02*
G01*
X42392579Y2897118D01*
X42570420Y2589281D02*
G01*
X42392579Y2589281D01*
D12*
X41347351Y2904302D02*
G01*
X41347351Y2807413D01*
X41347351Y2501186D02*
G01*
X41347351Y2404308D01*
X41347351Y2404308D02*
G01*
X41115465Y2404308D01*
X41347351Y2891276D02*
G01*
X41347351Y2904302D01*
X41347351Y2904302D02*
G01*
X41115465Y2904302D01*
X40922354Y2786184D02*
G01*
X40922354Y2522413D01*
D11*
X44781137Y3022633D02*
G01*
X44781137Y2943623D01*
X44880857Y2943623D02*
G01*
X44880857Y3022633D01*
X44865617Y3037873D02*
G01*
X44796377Y3037873D01*
X44781137Y2819372D02*
G01*
X44781137Y2898381D01*
X44880857Y2898381D02*
G01*
X44880857Y2819372D01*
X44865617Y2804132D02*
G01*
X44796377Y2804132D01*
X44475366Y2833042D02*
G01*
X44554376Y2833042D01*
X44554376Y2932762D02*
G01*
X44475366Y2932762D01*
X44460126Y2917522D02*
G01*
X44460126Y2848282D01*
X44678627Y2833042D02*
G01*
X44599618Y2833042D01*
X44599618Y2932762D02*
G01*
X44678627Y2932762D01*
X44693867Y2917522D02*
G01*
X44693867Y2848282D01*
X44882737Y2898378D02*
G01*
X44882737Y2819372D01*
X44982457Y2819372D02*
G01*
X44982455Y2898381D01*
X44897979Y2804132D02*
G01*
X44967217Y2804134D01*
X44982457Y3022633D02*
G01*
X44982457Y2943626D01*
X44882739Y2943623D02*
G01*
X44882737Y3022633D01*
X44897977Y3037870D02*
G01*
X44967215Y3037873D01*
X44082040Y1648251D02*
G01*
X44082040Y1983973D01*
X44487759Y1983973D01*
X44487759Y1648251D01*
X44082040Y1648251D01*
X44059180Y1791111D02*
G01*
X44059180Y1625391D01*
X44244900Y1625391D01*
X43893978Y1840560D02*
G01*
X43814969Y1840560D01*
X43814969Y1740839D02*
G01*
X43893978Y1740842D01*
X43799729Y1825317D02*
G01*
X43799732Y1756079D01*
X44018230Y1740839D02*
G01*
X43939221Y1740839D01*
X43939221Y1840557D02*
G01*
X44018230Y1840560D01*
X44033467Y1825320D02*
G01*
X44033470Y1756082D01*
X44617873Y1827862D02*
G01*
X44538866Y1827862D01*
X44538866Y1728142D02*
G01*
X44617876Y1728144D01*
X44523626Y1812620D02*
G01*
X44523629Y1743382D01*
X44742127Y1728142D02*
G01*
X44663121Y1728142D01*
X44663118Y1827860D02*
G01*
X44742127Y1827862D01*
X44757365Y1812622D02*
G01*
X44757367Y1743384D01*
X44617873Y1929462D02*
G01*
X44538866Y1929462D01*
X44538866Y1829742D02*
G01*
X44617876Y1829744D01*
X44523626Y1914220D02*
G01*
X44523629Y1844982D01*
X44742127Y1829742D02*
G01*
X44663121Y1829742D01*
X44663118Y1929460D02*
G01*
X44742127Y1929462D01*
X44757365Y1914222D02*
G01*
X44757367Y1844984D01*
D12*
X44164001Y2763001D02*
G01*
X44164001Y2753316D01*
X44138093Y2727408D01*
X44138093Y2706118D02*
G01*
X44194981Y2763001D01*
X44138093Y2706118D02*
G01*
X44138093Y2763001D01*
X44194981Y2063008D02*
G01*
X44148095Y2063008D01*
X44138093Y2063008D01*
X44138093Y2119891D01*
X44838091Y2119891D02*
G01*
X44838091Y2063008D01*
X44781208Y2063008D01*
X44781208Y2763001D02*
G01*
X44838091Y2763001D01*
X44838091Y2706118D01*
X44138093Y2763001D02*
G01*
X44194981Y2763001D01*
D11*
X44599621Y2934642D02*
G01*
X44678627Y2934642D01*
X44678627Y3034362D02*
G01*
X44599618Y3034360D01*
X44693867Y2949884D02*
G01*
X44693865Y3019122D01*
X44475366Y3034362D02*
G01*
X44554373Y3034362D01*
X44554376Y2934644D02*
G01*
X44475366Y2934642D01*
X44460129Y2949882D02*
G01*
X44460126Y3019120D01*
X44859173Y2031062D02*
G01*
X44780166Y2031062D01*
X44780166Y1931342D02*
G01*
X44859176Y1931344D01*
X44764926Y2015820D02*
G01*
X44764929Y1946582D01*
X44983427Y1931342D02*
G01*
X44904421Y1931342D01*
X44904418Y2031060D02*
G01*
X44983427Y2031062D01*
X44998665Y2015822D02*
G01*
X44998667Y1946584D01*
X45036973Y2361262D02*
G01*
X44957966Y2361262D01*
X44957966Y2261542D02*
G01*
X45036976Y2261544D01*
X44942726Y2346020D02*
G01*
X44942729Y2276782D01*
X45161227Y2261542D02*
G01*
X45082221Y2261542D01*
X45082218Y2361260D02*
G01*
X45161227Y2361262D01*
X45176465Y2346022D02*
G01*
X45176467Y2276784D01*
X44150407Y3003232D02*
G01*
X43835170Y3003232D01*
X43835170Y2787985D02*
G01*
X44150407Y2787985D01*
X44042660Y2651521D02*
G01*
X44042660Y2730527D01*
X43942939Y2730527D02*
G01*
X43942942Y2651518D01*
X44027417Y2745767D02*
G01*
X43958179Y2745765D01*
X43942939Y2527266D02*
G01*
X43942939Y2606273D01*
X44042657Y2606276D02*
G01*
X44042660Y2527266D01*
X44027420Y2512029D02*
G01*
X43958182Y2512026D01*
X43941060Y2651521D02*
G01*
X43941060Y2730527D01*
X43841339Y2730527D02*
G01*
X43841342Y2651518D01*
X43925817Y2745767D02*
G01*
X43856579Y2745765D01*
X43841339Y2527266D02*
G01*
X43841339Y2606273D01*
X43941057Y2606276D02*
G01*
X43941060Y2527266D01*
X43925820Y2512029D02*
G01*
X43856582Y2512026D01*
X43951921Y2248842D02*
G01*
X44030927Y2248842D01*
X44030927Y2348562D02*
G01*
X43951918Y2348560D01*
X44046167Y2264084D02*
G01*
X44046165Y2333322D01*
X43827666Y2348562D02*
G01*
X43906673Y2348562D01*
X43906676Y2248844D02*
G01*
X43827666Y2248842D01*
X43812429Y2264082D02*
G01*
X43812426Y2333320D01*
X43748721Y1969442D02*
G01*
X43827727Y1969442D01*
X43827727Y2069162D02*
G01*
X43748718Y2069160D01*
X43842967Y1984684D02*
G01*
X43842965Y2053922D01*
X43624466Y2069162D02*
G01*
X43703473Y2069162D01*
X43703476Y1969444D02*
G01*
X43624466Y1969442D01*
X43609229Y1984682D02*
G01*
X43609226Y2053920D01*
D13*
X44064694Y2018550D02*
G01*
X44064694Y2078494D01*
X44009576Y2078494D01*
X44044679Y1878495D02*
G01*
X43864669Y1878495D01*
X43864669Y2058504D01*
X44044679Y2058504D01*
X44044679Y1878495D01*
D12*
X43150574Y3949694D02*
G01*
X43036274Y3949694D01*
X43023574Y3949694D01*
X42998174Y3924294D01*
X42998174Y3784594D01*
X42998174Y3771894D01*
X43023574Y3746494D01*
X43150574Y3746494D01*
X43226774Y3746494D02*
G01*
X43341074Y3746494D01*
X43353774Y3746494D01*
X43379174Y3771894D01*
X43379174Y3911594D01*
X43379174Y3924294D01*
X43353774Y3949694D01*
X43226774Y3949694D01*
D14*
X42379900Y4027876D02*
G01*
X42379900Y3672276D01*
X42938700Y4025900D02*
G01*
X42938700Y3670300D01*
D11*
X42532300Y3644900D02*
G01*
X42405300Y3644900D01*
X42786300Y3644900D02*
G01*
X42913300Y3644900D01*
X42405300Y4051300D02*
G01*
X42535805Y4051300D01*
X42913300Y4051300D02*
G01*
X42786300Y4051300D01*
X43548559Y1391620D02*
G01*
X43852840Y1391620D01*
X43852840Y386379D01*
X43548559Y386379D01*
X43548559Y1391620D01*
D13*
X42500699Y2007001D02*
G01*
X42557900Y2036899D01*
X42557900Y2036899D02*
G01*
X42557900Y1998799D01*
X42616699Y2007999D02*
G01*
X42557900Y2036899D01*
X42557900Y2036899D02*
G01*
X42557900Y2074999D01*
X42503699Y2067001D02*
G01*
X42557900Y2036899D01*
X42610699Y2067999D02*
G01*
X42557900Y2036899D01*
D12*
X42787699Y2171999D02*
G01*
X42327700Y2171999D01*
X42787699Y1892000D02*
G01*
X42327700Y1892000D01*
D13*
X42616699Y2007999D02*
G01*
X42616699Y2067999D01*
X42500699Y2007001D02*
G01*
X42500699Y2067001D01*
X42633699Y2037999D02*
G01*
X42484700Y2037999D01*
D12*
X42787699Y1892000D02*
G01*
X42787699Y1918886D01*
X42787699Y2145113D02*
G01*
X42787699Y2171999D01*
X42327700Y1892000D02*
G01*
X42327700Y1918886D01*
X42327700Y2145113D02*
G01*
X42327700Y2171999D01*
D13*
X42500699Y1448201D02*
G01*
X42557900Y1478099D01*
X42557900Y1478099D02*
G01*
X42557900Y1439999D01*
X42616699Y1449199D02*
G01*
X42557900Y1478099D01*
X42557900Y1478099D02*
G01*
X42557900Y1516199D01*
X42503699Y1508201D02*
G01*
X42557900Y1478099D01*
X42610699Y1509199D02*
G01*
X42557900Y1478099D01*
D12*
X42787699Y1613199D02*
G01*
X42327700Y1613199D01*
X42787699Y1333200D02*
G01*
X42327700Y1333200D01*
D13*
X42616699Y1449199D02*
G01*
X42616699Y1509199D01*
X42500699Y1448201D02*
G01*
X42500699Y1508201D01*
X42633699Y1479199D02*
G01*
X42484700Y1479199D01*
D12*
X42787699Y1333200D02*
G01*
X42787699Y1360086D01*
X42787699Y1586313D02*
G01*
X42787699Y1613199D01*
X42327700Y1333200D02*
G01*
X42327700Y1360086D01*
X42327700Y1586313D02*
G01*
X42327700Y1613199D01*
D11*
X43138719Y517890D02*
G01*
X43267213Y517890D01*
X43267213Y701309D01*
X43138719Y701309D01*
X43043480Y517890D02*
G01*
X42914986Y517890D01*
X42914986Y701309D01*
X43043480Y701309D01*
X43138719Y301990D02*
G01*
X43267213Y301990D01*
X43267213Y485409D01*
X43138719Y485409D01*
X43043480Y301990D02*
G01*
X42914986Y301990D01*
X42914986Y485409D01*
X43043480Y485409D01*
D12*
X41347351Y1088202D02*
G01*
X41347351Y991313D01*
X41347351Y685086D02*
G01*
X41347351Y588208D01*
X41347351Y588208D02*
G01*
X41115465Y588208D01*
X41347351Y1075176D02*
G01*
X41347351Y1088202D01*
X41347351Y1088202D02*
G01*
X41115465Y1088202D01*
X40922354Y970084D02*
G01*
X40922354Y706313D01*
D11*
X44259439Y3921521D02*
G01*
X44259439Y3241278D01*
X43980160Y3241278D01*
X43980160Y3921521D01*
X44259439Y3921521D01*
D12*
G75*
G01*
X43841251Y238839D02*
G02*
X43810268Y207856I-30983J0D01*
G75*
G01*
X43810268Y349822D02*
G02*
X43841251Y318836I0J-30983D01*
G75*
G01*
X43592681Y208437D02*
G02*
X43561699Y239423I0J30983D01*
G75*
G01*
X43561699Y319420D02*
G02*
X43592681Y350403I30982J0D01*
G75*
G01*
X43233261Y1029551D02*
G02*
X43264244Y998568I0J-30983D01*
G75*
G01*
X43122279Y998568D02*
G02*
X43153264Y1029551I30982J0D01*
G75*
G01*
X43263663Y780981D02*
G02*
X43232677Y749999I-30983J0D01*
G75*
G01*
X43152680Y749999D02*
G02*
X43121697Y780981I0J30982D01*
G75*
G01*
X43233261Y1347051D02*
G02*
X43264244Y1316068I0J-30983D01*
G75*
G01*
X43122279Y1316068D02*
G02*
X43153264Y1347051I30982J0D01*
G75*
G01*
X43263663Y1098481D02*
G02*
X43232677Y1067499I-30983J0D01*
G75*
G01*
X43152680Y1067499D02*
G02*
X43121697Y1098481I0J30982D01*
G75*
G01*
X44180839Y1116749D02*
G02*
X44149856Y1147732I0J30983D01*
G75*
G01*
X44291822Y1147732D02*
G02*
X44260836Y1116749I-30983J0D01*
G75*
G01*
X44150437Y1365319D02*
G02*
X44181423Y1396301I30983J0D01*
G75*
G01*
X44261420Y1396301D02*
G02*
X44292403Y1365319I0J-30982D01*
G75*
G01*
X43841251Y1458039D02*
G02*
X43810268Y1427056I-30983J0D01*
G75*
G01*
X43810268Y1569022D02*
G02*
X43841251Y1538036I0J-30983D01*
G75*
G01*
X43592681Y1427637D02*
G02*
X43561699Y1458623I0J30983D01*
G75*
G01*
X43561699Y1538620D02*
G02*
X43592681Y1569603I30982J0D01*
D11*
G75*
G01*
X44880858Y3022633D02*
G03*
X44865618Y3037873I-15240J0D01*
G75*
G01*
X44796377Y3037873D02*
G03*
X44781137Y3022633I0J-15240D01*
G75*
G01*
X44880858Y2819372D02*
G02*
X44865618Y2804132I-15240J0D01*
G75*
G01*
X44796377Y2804132D02*
G02*
X44781137Y2819372I0J15240D01*
G75*
G01*
X44475367Y2932763D02*
G03*
X44460127Y2917523I0J-15240D01*
G75*
G01*
X44460127Y2848282D02*
G03*
X44475367Y2833042I15240J0D01*
G75*
G01*
X44678628Y2932763D02*
G02*
X44693868Y2917523I0J-15240D01*
G75*
G01*
X44693868Y2848282D02*
G02*
X44678628Y2833042I-15240J0D01*
G75*
G01*
X44882737Y2819372D02*
G03*
X44897980Y2804132I15240J0D01*
G75*
G01*
X44967218Y2804135D02*
G03*
X44982458Y2819372I0J15240D01*
G75*
G01*
X44882737Y3022633D02*
G02*
X44897977Y3037870I15240J-3D01*
G75*
G01*
X44967215Y3037873D02*
G02*
X44982458Y3022633I3J-15240D01*
G75*
G01*
X43814970Y1840560D02*
G03*
X43799730Y1825318I0J-15240D01*
G75*
G01*
X43799732Y1756080D02*
G03*
X43814970Y1740840I15240J0D01*
G75*
G01*
X44018230Y1840560D02*
G02*
X44033468Y1825320I-2J-15240D01*
G75*
G01*
X44033470Y1756082D02*
G02*
X44018230Y1740840I-15240J-2D01*
G75*
G01*
X44538867Y1827863D02*
G03*
X44523627Y1812620I0J-15240D01*
G75*
G01*
X44523630Y1743382D02*
G03*
X44538867Y1728142I15240J0D01*
G75*
G01*
X44742128Y1827863D02*
G02*
X44757365Y1812623I-3J-15240D01*
G75*
G01*
X44757368Y1743385D02*
G02*
X44742128Y1728142I-15240J-3D01*
G75*
G01*
X44538867Y1929463D02*
G03*
X44523627Y1914220I0J-15240D01*
G75*
G01*
X44523630Y1844982D02*
G03*
X44538867Y1829742I15240J0D01*
G75*
G01*
X44742128Y1929463D02*
G02*
X44757365Y1914223I-3J-15240D01*
G75*
G01*
X44757368Y1844985D02*
G02*
X44742128Y1829742I-15240J-3D01*
G75*
G01*
X44678628Y2934642D02*
G03*
X44693868Y2949885I0J15240D01*
G75*
G01*
X44693865Y3019123D02*
G03*
X44678628Y3034363I-15240J0D01*
G75*
G01*
X44475367Y2934642D02*
G02*
X44460130Y2949882I3J15240D01*
G75*
G01*
X44460127Y3019120D02*
G02*
X44475367Y3034363I15240J3D01*
G75*
G01*
X44780167Y2031063D02*
G03*
X44764927Y2015820I0J-15240D01*
G75*
G01*
X44764930Y1946582D02*
G03*
X44780167Y1931342I15240J0D01*
G75*
G01*
X44983428Y2031063D02*
G02*
X44998665Y2015823I-3J-15240D01*
G75*
G01*
X44998668Y1946585D02*
G02*
X44983428Y1931342I-15240J-3D01*
G75*
G01*
X44957967Y2361263D02*
G03*
X44942727Y2346020I0J-15240D01*
G75*
G01*
X44942730Y2276782D02*
G03*
X44957967Y2261542I15240J0D01*
G75*
G01*
X45161228Y2361263D02*
G02*
X45176465Y2346023I-3J-15240D01*
G75*
G01*
X45176468Y2276785D02*
G02*
X45161228Y2261542I-15240J-3D01*
G75*
G01*
X44042660Y2730528D02*
G03*
X44027418Y2745768I-15240J0D01*
G75*
G01*
X43958180Y2745765D02*
G03*
X43942940Y2730528I0J-15240D01*
G75*
G01*
X44042660Y2527267D02*
G02*
X44027420Y2512030I-15240J3D01*
G75*
G01*
X43958182Y2512027D02*
G02*
X43942940Y2527267I-2J15240D01*
G75*
G01*
X43941060Y2730528D02*
G03*
X43925818Y2745768I-15240J0D01*
G75*
G01*
X43856580Y2745765D02*
G03*
X43841340Y2730528I0J-15240D01*
G75*
G01*
X43941060Y2527267D02*
G02*
X43925820Y2512030I-15240J3D01*
G75*
G01*
X43856582Y2512027D02*
G02*
X43841340Y2527267I-2J15240D01*
G75*
G01*
X44030928Y2248842D02*
G03*
X44046168Y2264085I0J15240D01*
G75*
G01*
X44046165Y2333323D02*
G03*
X44030928Y2348563I-15240J0D01*
G75*
G01*
X43827667Y2248842D02*
G02*
X43812430Y2264082I3J15240D01*
G75*
G01*
X43812427Y2333320D02*
G02*
X43827667Y2348563I15240J3D01*
G75*
G01*
X43827728Y1969442D02*
G03*
X43842968Y1984685I0J15240D01*
G75*
G01*
X43842965Y2053923D02*
G03*
X43827728Y2069163I-15240J0D01*
G75*
G01*
X43624467Y1969442D02*
G02*
X43609230Y1984682I3J15240D01*
G75*
G01*
X43609227Y2053920D02*
G02*
X43624467Y2069163I15240J3D01*
D14*
G75*
G01*
X42659300Y3848100D02*
G02*
X42659300Y3784600I0J-31750D01*
G75*
G01*
X42659300Y3848100D02*
G02*
X42659300Y3911600I0J31750D01*
D15*
G75*
G01
X42626661Y671373D02*
G03X42626661Y671373I-15011J0D01*
G75*
G01
X42626661Y2576373D02*
G03X42626661Y2576373I-15011J0D01*
D12*
G75*
G01
X41417723Y2854274D02*
G03X41417723Y2854274I-31623J0D01*
G75*
G01
X44100801Y2783002D02*
G03X44100801Y2783002I-12700J0D01*
D16*
G75*
G01
X44206008Y2819400D02*
G03X44206008Y2819400I-10008J0D01*
D15*
G75*
G01
X43638800Y1333500D02*
G03X43638800Y1333500I-15011J0D01*
G75*
G01
X43449011Y1409700D02*
G03X43449011Y1409700I-15011J0D01*
D12*
G75*
G01
X41417723Y1038174D02*
G03X41417723Y1038174I-31623J0D01*
M02*
