G04 Layer: TopSolderMaskLayer*
G04 EasyEDA v6.5.32, 2023-07-27 18:43:02*
G04 c15d88bf44794416bd69d8e6bd355938,5a6b42c53f6a479593ecc07194224c93,10*
G04 Gerber Generator version 0.2*
G04 Scale: 100 percent, Rotated: No, Reflected: No *
G04 Dimensions in millimeters *
G04 leading zeros omitted , absolute positions ,4 integer and 5 decimal *
%FSLAX45Y45*%
%MOMM*%

%AMMACRO1*1,1,$1,$2,$3*1,1,$1,$4,$5*1,1,$1,0-$2,0-$3*1,1,$1,0-$4,0-$5*20,1,$1,$2,$3,$4,$5,0*20,1,$1,$4,$5,0-$2,0-$3,0*20,1,$1,0-$2,0-$3,0-$4,0-$5,0*20,1,$1,0-$4,0-$5,$2,$3,0*4,1,4,$2,$3,$4,$5,0-$2,0-$3,0-$4,0-$5,$2,$3,0*%
%ADD10MACRO1,0.1016X0.4X-0.45X-0.4X-0.45*%
%ADD11MACRO1,0.1016X0.45X0.4X0.45X-0.4*%
%ADD12MACRO1,0.1016X-0.45X-0.4X-0.45X0.4*%
%ADD13MACRO1,0.1016X-1.1038X-1.296X-1.1038X1.296*%
%ADD14MACRO1,0.1016X1.1038X-1.296X1.1038X1.296*%
%ADD15MACRO1,0.1016X-0.536X-0.266X-0.536X0.266*%
%ADD16MACRO1,0.1016X-0.9X-0.9X-0.9X0.9*%
%ADD17C,1.9016*%
%ADD18MACRO1,0.1016X0.775X0.3X0.775X-0.3*%
%ADD19MACRO1,0.1016X1X0.75X1X-0.75*%
%ADD20MACRO1,0.1016X0.27X-0.395X-0.27X-0.395*%
%ADD21MACRO1,0.1016X0.27X0.395X-0.27X0.395*%
%ADD22MACRO1,0.1016X0.395X0.27X0.395X-0.27*%
%ADD23MACRO1,0.1016X-0.395X0.27X-0.395X-0.27*%
%ADD24MACRO1,0.1016X-0.27X0.395X0.27X0.395*%
%ADD25MACRO1,0.1016X-0.27X-0.395X0.27X-0.395*%
%ADD26MACRO1,0.1016X0.7X-0.6X0.7X0.6*%
%ADD27MACRO1,0.1016X-0.7X-0.6X-0.7X0.6*%
%ADD28MACRO1,0.1016X-0.7X0.6X-0.7X-0.6*%
%ADD29MACRO1,0.1016X0.7X0.6X0.7X-0.6*%
%ADD30MACRO1,0.1X-0.55X0.1X0.55X0.1*%
%ADD31MACRO1,0.1X-0.1X-0.55X-0.1X0.55*%
%ADD32MACRO1,0.1X0.55X-0.1X-0.55X-0.1*%
%ADD33MACRO1,0.1X0.1X0.55X0.1X-0.55*%
%ADD34MACRO1,0.1X-1.55X1.55X1.55X1.55*%
%ADD35MACRO1,0.1016X-0.395X-0.27X-0.395X0.27*%
%ADD36MACRO1,0.1016X0.395X-0.27X0.395X0.27*%
%ADD37MACRO1,0.1016X-0.3X0.14X0.3X0.14*%
%ADD38MACRO1,0.1016X0.15X-0.85X-0.15X-0.85*%
%ADD39MACRO1,0.1016X0.275X-0.275X-0.275X-0.275*%
%ADD40MACRO1,0.1016X0.5663X-0.6885X0.5663X0.6885*%
%ADD41MACRO1,0.1016X-0.5663X-0.6885X-0.5663X0.6885*%
%ADD42MACRO1,0.1016X-0.7033X-1.7496X-0.7033X1.7496*%
%ADD43MACRO1,0.1016X0.7033X-1.7496X0.7033X1.7496*%
%ADD44O,2.0725892000000004X0.7036053999999999*%
%ADD45MACRO1,0.1016X1X-0.9X-1X-0.9*%
%ADD46MACRO1,0.1016X-1.2325X0.525X-1.2325X-0.525*%
%ADD47MACRO1,0.1016X-1.2325X-1.77X-1.2325X1.77*%
%ADD48C,5.1016*%
%ADD49O,3.8015926X1.6015970000000002*%
%ADD50O,1.6015970000000002X3.9015924*%
%ADD51C,3.1016*%
%ADD52C,0.0167*%

%LPD*%
D10*
G01*
X43630700Y279400D03*
G01*
X43770699Y279400D03*
D11*
G01*
X43192700Y819000D03*
G01*
X43192700Y958999D03*
G01*
X43192700Y1136500D03*
G01*
X43192700Y1276499D03*
D12*
G01*
X44221400Y1327299D03*
G01*
X44221400Y1187300D03*
D10*
G01*
X43630700Y1498600D03*
G01*
X43770699Y1498600D03*
D13*
G01*
X43429524Y3352800D03*
D14*
G01*
X42727275Y3352800D03*
D15*
G01*
X42596409Y743203D03*
G01*
X42596409Y838200D03*
G01*
X42596409Y933196D03*
G01*
X42366590Y933196D03*
G01*
X42366590Y838200D03*
G01*
X42366590Y743203D03*
D16*
G01*
X45466010Y1333494D03*
D17*
G01*
X45466025Y1587500D03*
G01*
X45466025Y1841500D03*
G01*
X45466025Y2095500D03*
G01*
X45466025Y2349500D03*
G01*
X45466025Y2603500D03*
G01*
X45466025Y2857500D03*
G01*
X45466025Y3111500D03*
D15*
G01*
X42596409Y2648203D03*
G01*
X42596409Y2743200D03*
G01*
X42596409Y2838196D03*
G01*
X42366590Y2838196D03*
G01*
X42366590Y2743200D03*
G01*
X42366590Y2648203D03*
D18*
G01*
X41379851Y2754299D03*
G01*
X41379851Y2654300D03*
G01*
X41379851Y2554300D03*
D19*
G01*
X40992351Y2424299D03*
G01*
X40992351Y2884298D03*
D20*
G01*
X44830997Y2975508D03*
D21*
G01*
X44830997Y2866496D03*
D22*
G01*
X44522491Y2882902D03*
D23*
G01*
X44631503Y2882902D03*
D24*
G01*
X44932597Y2866496D03*
D25*
G01*
X44932597Y2975508D03*
D26*
G01*
X44174900Y1731111D03*
D27*
G01*
X44394899Y1731111D03*
D28*
G01*
X44394899Y1901113D03*
D29*
G01*
X44174900Y1901113D03*
D22*
G01*
X43862094Y1790700D03*
D23*
G01*
X43971105Y1790700D03*
D22*
G01*
X44585991Y1778002D03*
D23*
G01*
X44695003Y1778002D03*
D22*
G01*
X44585991Y1879602D03*
D23*
G01*
X44695003Y1879602D03*
D30*
G01*
X44133090Y2673007D03*
G01*
X44133090Y2633002D03*
G01*
X44133090Y2592997D03*
G01*
X44133090Y2552992D03*
G01*
X44133090Y2513012D03*
G01*
X44133090Y2473007D03*
G01*
X44133090Y2433002D03*
G01*
X44133090Y2392997D03*
G01*
X44133090Y2352992D03*
G01*
X44133090Y2313012D03*
G01*
X44133090Y2273007D03*
G01*
X44133090Y2233002D03*
G01*
X44133090Y2192997D03*
G01*
X44133090Y2152992D03*
D31*
G01*
X44228105Y2058004D03*
G01*
X44268085Y2058004D03*
G01*
X44308090Y2058004D03*
G01*
X44348095Y2058004D03*
G01*
X44388100Y2058004D03*
G01*
X44428105Y2058004D03*
G01*
X44468084Y2058004D03*
G01*
X44508089Y2058004D03*
G01*
X44548094Y2058004D03*
G01*
X44588099Y2058004D03*
G01*
X44628104Y2058004D03*
G01*
X44668084Y2058004D03*
G01*
X44708089Y2058004D03*
G01*
X44748094Y2058004D03*
D32*
G01*
X44843108Y2152992D03*
G01*
X44843108Y2192997D03*
G01*
X44843108Y2233002D03*
G01*
X44843108Y2273007D03*
G01*
X44843108Y2313012D03*
G01*
X44843108Y2352992D03*
G01*
X44843108Y2392997D03*
G01*
X44843108Y2433002D03*
G01*
X44843108Y2473007D03*
G01*
X44843108Y2513012D03*
G01*
X44843108Y2552992D03*
G01*
X44843108Y2592997D03*
G01*
X44843108Y2633002D03*
G01*
X44843108Y2673007D03*
D33*
G01*
X44748094Y2767995D03*
G01*
X44708089Y2767995D03*
G01*
X44668084Y2767995D03*
G01*
X44628104Y2767995D03*
G01*
X44588099Y2767995D03*
G01*
X44548094Y2767995D03*
G01*
X44508089Y2767995D03*
G01*
X44468084Y2767995D03*
G01*
X44428105Y2767995D03*
G01*
X44388100Y2767995D03*
G01*
X44348095Y2767995D03*
G01*
X44308090Y2767995D03*
G01*
X44268085Y2767995D03*
G01*
X44228105Y2767995D03*
D34*
G01*
X44488094Y2413005D03*
D35*
G01*
X44631503Y2984502D03*
D36*
G01*
X44522491Y2984502D03*
D22*
G01*
X44827291Y1981202D03*
D23*
G01*
X44936303Y1981202D03*
D22*
G01*
X45005091Y2311402D03*
D23*
G01*
X45114103Y2311402D03*
D37*
G01*
X44143538Y2820598D03*
G01*
X44143538Y2870611D03*
G01*
X44143538Y2920598D03*
G01*
X44143538Y2970611D03*
G01*
X43842056Y2820598D03*
G01*
X43842056Y2870611D03*
G01*
X43842056Y2920598D03*
G01*
X43842056Y2970611D03*
D38*
G01*
X43992794Y2895602D03*
D20*
G01*
X43992800Y2683403D03*
D21*
G01*
X43992800Y2574391D03*
D20*
G01*
X43891200Y2683403D03*
D21*
G01*
X43891200Y2574391D03*
D35*
G01*
X43983803Y2298702D03*
D36*
G01*
X43874791Y2298702D03*
D35*
G01*
X43780603Y2019302D03*
D36*
G01*
X43671591Y2019302D03*
D39*
G01*
X44002201Y1920976D03*
G01*
X44002201Y2015992D03*
G01*
X43907179Y2015997D03*
G01*
X43907180Y1920976D03*
D40*
G01*
X43096073Y3848103D03*
D41*
G01*
X43289326Y3848103D03*
D42*
G01*
X42844633Y3848100D03*
D43*
G01*
X42473966Y3848100D03*
D44*
G01*
X43427141Y1333500D03*
G01*
X43427141Y1206500D03*
G01*
X43427141Y1079500D03*
G01*
X43427141Y952500D03*
G01*
X43427141Y825500D03*
G01*
X43427141Y698500D03*
G01*
X43427141Y571500D03*
G01*
X43427141Y444500D03*
G01*
X43974258Y1333500D03*
G01*
X43974258Y1206500D03*
G01*
X43974258Y1079500D03*
G01*
X43974258Y952500D03*
G01*
X43974258Y825500D03*
G01*
X43974258Y698500D03*
G01*
X43974258Y571500D03*
G01*
X43974258Y444500D03*
D45*
G01*
X42757699Y2032000D03*
G01*
X42357700Y2032000D03*
G01*
X42757699Y1473200D03*
G01*
X42357700Y1473200D03*
D41*
G01*
X43191104Y609600D03*
D40*
G01*
X42991095Y609600D03*
D41*
G01*
X43191104Y393700D03*
D40*
G01*
X42991095Y393700D03*
D18*
G01*
X41379851Y938199D03*
G01*
X41379851Y838200D03*
G01*
X41379851Y738200D03*
D19*
G01*
X40992351Y608199D03*
G01*
X40992351Y1068198D03*
D46*
G01*
X43834050Y3811399D03*
G01*
X43834050Y3581400D03*
G01*
X43834050Y3351400D03*
D47*
G01*
X44405550Y3581400D03*
D17*
G01*
X41768003Y1752574D03*
D48*
G01*
X41909964Y502615D03*
D16*
G01*
X41768003Y1198575D03*
D17*
G01*
X41768003Y1475562D03*
G01*
X41768003Y2029561D03*
G01*
X41767978Y2306573D03*
G01*
X42052001Y1337081D03*
G01*
X42052001Y1614068D03*
G01*
X42052001Y1891080D03*
G01*
X42052001Y2168067D03*
D48*
G01*
X41909964Y3002610D03*
D49*
G01*
X41955999Y4309237D03*
D50*
G01*
X41660825Y3844162D03*
G01*
X42260774Y3844162D03*
D51*
G01*
X45466000Y635000D03*
G01*
X45466000Y3810000D03*
M02*
