G04 Layer: BottomSilkscreenLayer*
G04 EasyEDA v6.5.29, 2023-07-18 16:07:05*
G04 34ad17a1c163414bbb3f81527ef0a6a0,5a6b42c53f6a479593ecc07194224c93,10*
G04 Gerber Generator version 0.2*
G04 Scale: 100 percent, Rotated: No, Reflected: No *
G04 Dimensions in millimeters *
G04 leading zeros omitted , absolute positions ,4 integer and 5 decimal *
%FSLAX45Y45*%
%MOMM*%

%ADD10C,0.2032*%
%ADD11C,0.1520*%

%LPD*%
D10*
X5950686Y4335617D02*
G01*
X5956142Y4346526D01*
X5967051Y4357436D01*
X5977958Y4362889D01*
X5999777Y4362889D01*
X6010686Y4357436D01*
X6021595Y4346526D01*
X6027051Y4335617D01*
X6032505Y4319254D01*
X6032505Y4291982D01*
X6027051Y4275617D01*
X6021595Y4264708D01*
X6010686Y4253798D01*
X5999777Y4248345D01*
X5977958Y4248345D01*
X5967051Y4253798D01*
X5956142Y4264708D01*
X5950686Y4275617D01*
X5881959Y4362889D02*
G01*
X5892868Y4357436D01*
X5903777Y4346526D01*
X5909233Y4335617D01*
X5914687Y4319254D01*
X5914687Y4291982D01*
X5909233Y4275617D01*
X5903777Y4264708D01*
X5892868Y4253798D01*
X5881959Y4248345D01*
X5860140Y4248345D01*
X5849233Y4253798D01*
X5838324Y4264708D01*
X5832868Y4275617D01*
X5827415Y4291982D01*
X5827415Y4319254D01*
X5832868Y4335617D01*
X5838324Y4346526D01*
X5849233Y4357436D01*
X5860140Y4362889D01*
X5881959Y4362889D01*
X5791415Y4362889D02*
G01*
X5791415Y4248345D01*
X5791415Y4362889D02*
G01*
X5742322Y4362889D01*
X5725960Y4357436D01*
X5720506Y4351982D01*
X5715050Y4341073D01*
X5715050Y4324708D01*
X5720506Y4313798D01*
X5725960Y4308345D01*
X5742322Y4302889D01*
X5791415Y4302889D01*
X5679051Y4362889D02*
G01*
X5635414Y4308345D01*
X5635414Y4248345D01*
X5591779Y4362889D02*
G01*
X5635414Y4308345D01*
X5555777Y4362889D02*
G01*
X5555777Y4248345D01*
X5555777Y4362889D02*
G01*
X5506686Y4362889D01*
X5490324Y4357436D01*
X5484870Y4351982D01*
X5479415Y4341073D01*
X5479415Y4330164D01*
X5484870Y4319254D01*
X5490324Y4313798D01*
X5506686Y4308345D01*
X5555777Y4308345D01*
X5517596Y4308345D02*
G01*
X5479415Y4248345D01*
X5443415Y4362889D02*
G01*
X5443415Y4248345D01*
X5325597Y4335617D02*
G01*
X5331051Y4346526D01*
X5341960Y4357436D01*
X5352869Y4362889D01*
X5374688Y4362889D01*
X5385597Y4357436D01*
X5396506Y4346526D01*
X5401960Y4335617D01*
X5407416Y4319254D01*
X5407416Y4291982D01*
X5401960Y4275617D01*
X5396506Y4264708D01*
X5385597Y4253798D01*
X5374688Y4248345D01*
X5352869Y4248345D01*
X5341960Y4253798D01*
X5331051Y4264708D01*
X5325597Y4275617D01*
X5325597Y4291982D01*
X5352869Y4291982D02*
G01*
X5325597Y4291982D01*
X5289598Y4362889D02*
G01*
X5289598Y4248345D01*
X5213233Y4362889D02*
G01*
X5213233Y4248345D01*
X5289598Y4308345D02*
G01*
X5213233Y4308345D01*
X5139052Y4362889D02*
G01*
X5139052Y4248345D01*
X5177233Y4362889D02*
G01*
X5100871Y4362889D01*
X4975415Y4335617D02*
G01*
X4975415Y4341073D01*
X4969962Y4351982D01*
X4964506Y4357436D01*
X4953596Y4362889D01*
X4931780Y4362889D01*
X4920871Y4357436D01*
X4915415Y4351982D01*
X4909962Y4341073D01*
X4909962Y4330164D01*
X4915415Y4319254D01*
X4926324Y4302889D01*
X4980871Y4248345D01*
X4904506Y4248345D01*
X4835779Y4362889D02*
G01*
X4852144Y4357436D01*
X4863053Y4341073D01*
X4868506Y4313798D01*
X4868506Y4297436D01*
X4863053Y4270164D01*
X4852144Y4253798D01*
X4835779Y4248345D01*
X4824872Y4248345D01*
X4808507Y4253798D01*
X4797597Y4270164D01*
X4792144Y4297436D01*
X4792144Y4313798D01*
X4797597Y4341073D01*
X4808507Y4357436D01*
X4824872Y4362889D01*
X4835779Y4362889D01*
X4750688Y4335617D02*
G01*
X4750688Y4341073D01*
X4745235Y4351982D01*
X4739779Y4357436D01*
X4728870Y4362889D01*
X4707054Y4362889D01*
X4696145Y4357436D01*
X4690689Y4351982D01*
X4685235Y4341073D01*
X4685235Y4330164D01*
X4690689Y4319254D01*
X4701598Y4302889D01*
X4756144Y4248345D01*
X4679779Y4248345D01*
X4632871Y4362889D02*
G01*
X4572871Y4362889D01*
X4605599Y4319254D01*
X4589236Y4319254D01*
X4578327Y4313798D01*
X4572871Y4308345D01*
X4567417Y4291982D01*
X4567417Y4281073D01*
X4572871Y4264708D01*
X4583780Y4253798D01*
X4600143Y4248345D01*
X4616508Y4248345D01*
X4632871Y4253798D01*
X4638327Y4259254D01*
X4643780Y4270164D01*
X4447418Y4362889D02*
G01*
X4403780Y4248345D01*
X4360143Y4362889D02*
G01*
X4403780Y4248345D01*
X4324144Y4362889D02*
G01*
X4324144Y4248345D01*
X4324144Y4362889D02*
G01*
X4253235Y4362889D01*
X4324144Y4308345D02*
G01*
X4280509Y4308345D01*
X4324144Y4248345D02*
G01*
X4253235Y4248345D01*
X4140873Y4362889D02*
G01*
X4195417Y4248345D01*
X4217235Y4362889D02*
G01*
X4140873Y4362889D01*
X4104873Y4362889D02*
G01*
X4104873Y4248345D01*
X4104873Y4362889D02*
G01*
X4033964Y4362889D01*
X4104873Y4308345D02*
G01*
X4061236Y4308345D01*
X3997962Y4362889D02*
G01*
X3997962Y4248345D01*
X3961963Y4362889D02*
G01*
X3961963Y4248345D01*
X3961963Y4362889D02*
G01*
X3918328Y4248345D01*
X3874691Y4362889D02*
G01*
X3918328Y4248345D01*
X3874691Y4362889D02*
G01*
X3874691Y4248345D01*
X40035099Y4375589D02*
G01*
X40035099Y4261045D01*
X40035099Y4375589D02*
G01*
X39986008Y4375589D01*
X39969645Y4370136D01*
X39964189Y4364682D01*
X39958736Y4353773D01*
X39958736Y4337408D01*
X39964189Y4326499D01*
X39969645Y4321045D01*
X39986008Y4315589D01*
X40035099Y4315589D01*
X39879099Y4375589D02*
G01*
X39922734Y4261045D01*
X39879099Y4375589D02*
G01*
X39835462Y4261045D01*
X39906371Y4299226D02*
G01*
X39851827Y4299226D01*
X39799463Y4375589D02*
G01*
X39799463Y4261045D01*
X39799463Y4375589D02*
G01*
X39750372Y4375589D01*
X39734009Y4370136D01*
X39728554Y4364682D01*
X39723099Y4353773D01*
X39723099Y4342864D01*
X39728554Y4331954D01*
X39734009Y4326499D01*
X39750372Y4321045D01*
X39799463Y4321045D01*
X39761281Y4321045D02*
G01*
X39723099Y4261045D01*
X39648917Y4375589D02*
G01*
X39648917Y4261045D01*
X39687098Y4375589D02*
G01*
X39610736Y4375589D01*
X39490736Y4375589D02*
G01*
X39490736Y4261045D01*
X39490736Y4375589D02*
G01*
X39414373Y4261045D01*
X39414373Y4375589D02*
G01*
X39414373Y4261045D01*
X39378371Y4375589D02*
G01*
X39378371Y4293773D01*
X39372918Y4277408D01*
X39362009Y4266499D01*
X39345646Y4261045D01*
X39334737Y4261045D01*
X39318371Y4266499D01*
X39307465Y4277408D01*
X39302009Y4293773D01*
X39302009Y4375589D01*
X39266009Y4375589D02*
G01*
X39266009Y4261045D01*
X39266009Y4375589D02*
G01*
X39222372Y4261045D01*
X39178738Y4375589D02*
G01*
X39222372Y4261045D01*
X39178738Y4375589D02*
G01*
X39178738Y4261045D01*
X39142736Y4375589D02*
G01*
X39142736Y4261045D01*
X39142736Y4375589D02*
G01*
X39093645Y4375589D01*
X39077282Y4370136D01*
X39071829Y4364682D01*
X39066373Y4353773D01*
X39066373Y4342864D01*
X39071829Y4331954D01*
X39077282Y4326499D01*
X39093645Y4321045D01*
X39142736Y4321045D02*
G01*
X39093645Y4321045D01*
X39077282Y4315589D01*
X39071829Y4310136D01*
X39066373Y4299226D01*
X39066373Y4282864D01*
X39071829Y4271954D01*
X39077282Y4266499D01*
X39093645Y4261045D01*
X39142736Y4261045D01*
X39030374Y4375589D02*
G01*
X39030374Y4261045D01*
X39030374Y4375589D02*
G01*
X38959464Y4375589D01*
X39030374Y4321045D02*
G01*
X38986736Y4321045D01*
X39030374Y4261045D02*
G01*
X38959464Y4261045D01*
X38923465Y4375589D02*
G01*
X38923465Y4261045D01*
X38923465Y4375589D02*
G01*
X38874374Y4375589D01*
X38858009Y4370136D01*
X38852556Y4364682D01*
X38847100Y4353773D01*
X38847100Y4342864D01*
X38852556Y4331954D01*
X38858009Y4326499D01*
X38874374Y4321045D01*
X38923465Y4321045D01*
X38885284Y4321045D02*
G01*
X38847100Y4261045D01*
X38727100Y4353773D02*
G01*
X38716191Y4359226D01*
X38699828Y4375589D01*
X38699828Y4261045D01*
X38592920Y4337408D02*
G01*
X38598373Y4321045D01*
X38609282Y4310136D01*
X38625647Y4304682D01*
X38631101Y4304682D01*
X38647466Y4310136D01*
X38658373Y4321045D01*
X38663829Y4337408D01*
X38663829Y4342864D01*
X38658373Y4359226D01*
X38647466Y4370136D01*
X38631101Y4375589D01*
X38625647Y4375589D01*
X38609282Y4370136D01*
X38598373Y4359226D01*
X38592920Y4337408D01*
X38592920Y4310136D01*
X38598373Y4282864D01*
X38609282Y4266499D01*
X38625647Y4261045D01*
X38636557Y4261045D01*
X38652919Y4266499D01*
X38658373Y4277408D01*
X38556920Y4353773D02*
G01*
X38546011Y4359226D01*
X38529648Y4375589D01*
X38529648Y4261045D01*
X38460921Y4375589D02*
G01*
X38477283Y4370136D01*
X38488193Y4353773D01*
X38493646Y4326499D01*
X38493646Y4310136D01*
X38488193Y4282864D01*
X38477283Y4266499D01*
X38460921Y4261045D01*
X38450011Y4261045D01*
X38433646Y4266499D01*
X38422737Y4282864D01*
X38417284Y4310136D01*
X38417284Y4326499D01*
X38422737Y4353773D01*
X38433646Y4370136D01*
X38450011Y4375589D01*
X38460921Y4375589D01*
X38381284Y4310136D02*
G01*
X38283103Y4310136D01*
X38214376Y4375589D02*
G01*
X38230738Y4370136D01*
X38241648Y4353773D01*
X38247101Y4326499D01*
X38247101Y4310136D01*
X38241648Y4282864D01*
X38230738Y4266499D01*
X38214376Y4261045D01*
X38203466Y4261045D01*
X38187101Y4266499D01*
X38176192Y4282864D01*
X38170738Y4310136D01*
X38170738Y4326499D01*
X38176192Y4353773D01*
X38187101Y4370136D01*
X38203466Y4375589D01*
X38214376Y4375589D01*
X38129283Y4348317D02*
G01*
X38129283Y4353773D01*
X38123830Y4364682D01*
X38118374Y4370136D01*
X38107467Y4375589D01*
X38085649Y4375589D01*
X38074739Y4370136D01*
X38069283Y4364682D01*
X38063830Y4353773D01*
X38063830Y4342864D01*
X38069283Y4331954D01*
X38080193Y4315589D01*
X38134739Y4261045D01*
X38058374Y4261045D01*
X37989649Y4375589D02*
G01*
X38006012Y4370136D01*
X38016921Y4353773D01*
X38022375Y4326499D01*
X38022375Y4310136D01*
X38016921Y4282864D01*
X38006012Y4266499D01*
X37989649Y4261045D01*
X37978740Y4261045D01*
X37962375Y4266499D01*
X37951465Y4282864D01*
X37946012Y4310136D01*
X37946012Y4326499D01*
X37951465Y4353773D01*
X37962375Y4370136D01*
X37978740Y4375589D01*
X37989649Y4375589D01*
X37910013Y4353773D02*
G01*
X37899103Y4359226D01*
X37882738Y4375589D01*
X37882738Y4261045D01*
X37762738Y4375589D02*
G01*
X37719104Y4261045D01*
X37675466Y4375589D02*
G01*
X37719104Y4261045D01*
X37639467Y4353773D02*
G01*
X37628558Y4359226D01*
X37612195Y4375589D01*
X37612195Y4261045D01*
X44386500Y4353773D02*
G01*
X44375590Y4359226D01*
X44359228Y4375589D01*
X44359228Y4261045D01*
X44323228Y4375589D02*
G01*
X44323228Y4293773D01*
X44317772Y4277408D01*
X44306863Y4266499D01*
X44290500Y4261045D01*
X44279591Y4261045D01*
X44263228Y4266499D01*
X44252319Y4277408D01*
X44246863Y4293773D01*
X44246863Y4375589D01*
X44126863Y4375589D02*
G01*
X44126863Y4261045D01*
X44126863Y4375589D02*
G01*
X44077773Y4375589D01*
X44061410Y4370136D01*
X44055954Y4364682D01*
X44050501Y4353773D01*
X44050501Y4342864D01*
X44055954Y4331954D01*
X44061410Y4326499D01*
X44077773Y4321045D01*
X44126863Y4321045D01*
X44088682Y4321045D02*
G01*
X44050501Y4261045D01*
X43970864Y4375589D02*
G01*
X44014501Y4261045D01*
X43970864Y4375589D02*
G01*
X43927227Y4261045D01*
X43998136Y4299226D02*
G01*
X43943592Y4299226D01*
X43809409Y4348317D02*
G01*
X43814865Y4359226D01*
X43825774Y4370136D01*
X43836683Y4375589D01*
X43858500Y4375589D01*
X43869409Y4370136D01*
X43880318Y4359226D01*
X43885774Y4348317D01*
X43891227Y4331954D01*
X43891227Y4304682D01*
X43885774Y4288317D01*
X43880318Y4277408D01*
X43869409Y4266499D01*
X43858500Y4261045D01*
X43836683Y4261045D01*
X43825774Y4266499D01*
X43814865Y4277408D01*
X43809409Y4288317D01*
X43773410Y4375589D02*
G01*
X43773410Y4261045D01*
X43697047Y4375589D02*
G01*
X43773410Y4299226D01*
X43746138Y4326499D02*
G01*
X43697047Y4261045D01*
X43577047Y4375589D02*
G01*
X43577047Y4261045D01*
X43577047Y4375589D02*
G01*
X43538866Y4375589D01*
X43522501Y4370136D01*
X43511591Y4359226D01*
X43506138Y4348317D01*
X43500682Y4331954D01*
X43500682Y4304682D01*
X43506138Y4288317D01*
X43511591Y4277408D01*
X43522501Y4266499D01*
X43538866Y4261045D01*
X43577047Y4261045D01*
X43464683Y4375589D02*
G01*
X43464683Y4261045D01*
X43352321Y4359226D02*
G01*
X43363230Y4370136D01*
X43379593Y4375589D01*
X43401411Y4375589D01*
X43417774Y4370136D01*
X43428683Y4359226D01*
X43428683Y4348317D01*
X43423230Y4337408D01*
X43417774Y4331954D01*
X43406865Y4326499D01*
X43374137Y4315589D01*
X43363230Y4310136D01*
X43357774Y4304682D01*
X43352321Y4293773D01*
X43352321Y4277408D01*
X43363230Y4266499D01*
X43379593Y4261045D01*
X43401411Y4261045D01*
X43417774Y4266499D01*
X43428683Y4277408D01*
X43316319Y4375589D02*
G01*
X43316319Y4261045D01*
X43316319Y4375589D02*
G01*
X43267228Y4375589D01*
X43250866Y4370136D01*
X43245412Y4364682D01*
X43239956Y4353773D01*
X43239956Y4337408D01*
X43245412Y4326499D01*
X43250866Y4321045D01*
X43267228Y4315589D01*
X43316319Y4315589D01*
X43203957Y4375589D02*
G01*
X43203957Y4261045D01*
X43203957Y4261045D02*
G01*
X43138501Y4261045D01*
X43058867Y4375589D02*
G01*
X43102502Y4261045D01*
X43058867Y4375589D02*
G01*
X43015230Y4261045D01*
X43086139Y4299226D02*
G01*
X43031592Y4299226D01*
X42979230Y4375589D02*
G01*
X42935593Y4321045D01*
X42935593Y4261045D01*
X42891956Y4375589D02*
G01*
X42935593Y4321045D01*
X42771956Y4375589D02*
G01*
X42771956Y4261045D01*
X42771956Y4261045D02*
G01*
X42706503Y4261045D01*
X42670503Y4375589D02*
G01*
X42670503Y4261045D01*
X42670503Y4375589D02*
G01*
X42599594Y4375589D01*
X42670503Y4321045D02*
G01*
X42626866Y4321045D01*
X42670503Y4261045D02*
G01*
X42599594Y4261045D01*
X42563595Y4375589D02*
G01*
X42563595Y4261045D01*
X42563595Y4375589D02*
G01*
X42525414Y4375589D01*
X42509048Y4370136D01*
X42498139Y4359226D01*
X42492686Y4348317D01*
X42487230Y4331954D01*
X42487230Y4304682D01*
X42492686Y4288317D01*
X42498139Y4277408D01*
X42509048Y4266499D01*
X42525414Y4261045D01*
X42563595Y4261045D01*
X42290867Y4359226D02*
G01*
X42301777Y4370136D01*
X42318139Y4375589D01*
X42339958Y4375589D01*
X42356321Y4370136D01*
X42367230Y4359226D01*
X42367230Y4348317D01*
X42361777Y4337408D01*
X42356321Y4331954D01*
X42345414Y4326499D01*
X42312686Y4315589D01*
X42301777Y4310136D01*
X42296321Y4304682D01*
X42290867Y4293773D01*
X42290867Y4277408D01*
X42301777Y4266499D01*
X42318139Y4261045D01*
X42339958Y4261045D01*
X42356321Y4266499D01*
X42367230Y4277408D01*
X42254868Y4375589D02*
G01*
X42254868Y4261045D01*
X42254868Y4375589D02*
G01*
X42205777Y4375589D01*
X42189412Y4370136D01*
X42183959Y4364682D01*
X42178503Y4353773D01*
X42178503Y4337408D01*
X42183959Y4326499D01*
X42189412Y4321045D01*
X42205777Y4315589D01*
X42254868Y4315589D01*
X42098869Y4375589D02*
G01*
X42142503Y4261045D01*
X42098869Y4375589D02*
G01*
X42055232Y4261045D01*
X42126141Y4299226D02*
G01*
X42071594Y4299226D01*
X41937414Y4348317D02*
G01*
X41942867Y4359226D01*
X41953776Y4370136D01*
X41964686Y4375589D01*
X41986504Y4375589D01*
X41997414Y4370136D01*
X42008323Y4359226D01*
X42013776Y4348317D01*
X42019232Y4331954D01*
X42019232Y4304682D01*
X42013776Y4288317D01*
X42008323Y4277408D01*
X41997414Y4266499D01*
X41986504Y4261045D01*
X41964686Y4261045D01*
X41953776Y4266499D01*
X41942867Y4277408D01*
X41937414Y4288317D01*
X41901414Y4375589D02*
G01*
X41901414Y4261045D01*
X41901414Y4375589D02*
G01*
X41830505Y4375589D01*
X41901414Y4321045D02*
G01*
X41857777Y4321045D01*
X41901414Y4261045D02*
G01*
X41830505Y4261045D01*
X41794506Y4375589D02*
G01*
X41794506Y4261045D01*
X41794506Y4375589D02*
G01*
X41745415Y4375589D01*
X41729050Y4370136D01*
X41723597Y4364682D01*
X41718141Y4353773D01*
X41718141Y4342864D01*
X41723597Y4331954D01*
X41729050Y4326499D01*
X41745415Y4321045D01*
X41794506Y4321045D01*
X41756322Y4321045D02*
G01*
X41718141Y4261045D01*
X41598141Y4310136D02*
G01*
X41499960Y4310136D01*
X41379960Y4375589D02*
G01*
X41379960Y4261045D01*
X41379960Y4375589D02*
G01*
X41330869Y4375589D01*
X41314507Y4370136D01*
X41309051Y4364682D01*
X41303597Y4353773D01*
X41303597Y4342864D01*
X41309051Y4331954D01*
X41314507Y4326499D01*
X41330869Y4321045D01*
X41379960Y4321045D02*
G01*
X41330869Y4321045D01*
X41314507Y4315589D01*
X41309051Y4310136D01*
X41303597Y4299226D01*
X41303597Y4282864D01*
X41309051Y4271954D01*
X41314507Y4266499D01*
X41330869Y4261045D01*
X41379960Y4261045D01*
X41234870Y4375589D02*
G01*
X41245779Y4370136D01*
X41256689Y4359226D01*
X41262142Y4348317D01*
X41267595Y4331954D01*
X41267595Y4304682D01*
X41262142Y4288317D01*
X41256689Y4277408D01*
X41245779Y4266499D01*
X41234870Y4261045D01*
X41213051Y4261045D01*
X41202142Y4266499D01*
X41191233Y4277408D01*
X41185779Y4288317D01*
X41180324Y4304682D01*
X41180324Y4331954D01*
X41185779Y4348317D01*
X41191233Y4359226D01*
X41202142Y4370136D01*
X41213051Y4375589D01*
X41234870Y4375589D01*
X41106143Y4375589D02*
G01*
X41106143Y4261045D01*
X41144324Y4375589D02*
G01*
X41067962Y4375589D01*
X40993778Y4375589D02*
G01*
X40993778Y4261045D01*
X41031960Y4375589D02*
G01*
X40955597Y4375589D01*
X40886870Y4375589D02*
G01*
X40897779Y4370136D01*
X40908688Y4359226D01*
X40914142Y4348317D01*
X40919598Y4331954D01*
X40919598Y4304682D01*
X40914142Y4288317D01*
X40908688Y4277408D01*
X40897779Y4266499D01*
X40886870Y4261045D01*
X40865051Y4261045D01*
X40854142Y4266499D01*
X40843235Y4277408D01*
X40837779Y4288317D01*
X40832326Y4304682D01*
X40832326Y4331954D01*
X40837779Y4348317D01*
X40843235Y4359226D01*
X40854142Y4370136D01*
X40865051Y4375589D01*
X40886870Y4375589D01*
X40796324Y4375589D02*
G01*
X40796324Y4261045D01*
X40796324Y4375589D02*
G01*
X40752689Y4261045D01*
X40709052Y4375589D02*
G01*
X40752689Y4261045D01*
X40709052Y4375589D02*
G01*
X40709052Y4261045D01*
D11*
X36858956Y4369851D02*
G01*
X36858956Y4286724D01*
X36864152Y4271137D01*
X36869347Y4265942D01*
X36879738Y4260748D01*
X36890129Y4260748D01*
X36900520Y4265942D01*
X36905717Y4271137D01*
X36910911Y4286724D01*
X36910911Y4297116D01*
X36824666Y4369851D02*
G01*
X36824666Y4260748D01*
X36824666Y4260748D02*
G01*
X36762321Y4260748D01*
X36650099Y4343874D02*
G01*
X36655296Y4354266D01*
X36665687Y4364657D01*
X36676075Y4369851D01*
X36696858Y4369851D01*
X36707249Y4364657D01*
X36717640Y4354266D01*
X36722837Y4343874D01*
X36728031Y4328287D01*
X36728031Y4302310D01*
X36722837Y4286724D01*
X36717640Y4276333D01*
X36707249Y4265942D01*
X36696858Y4260748D01*
X36676075Y4260748D01*
X36665687Y4265942D01*
X36655296Y4276333D01*
X36650099Y4286724D01*
X36563856Y4369851D02*
G01*
X36563856Y4286724D01*
X36569050Y4271137D01*
X36574247Y4265942D01*
X36584636Y4260748D01*
X36595027Y4260748D01*
X36605418Y4265942D01*
X36610615Y4271137D01*
X36615809Y4286724D01*
X36615809Y4297116D01*
X36529566Y4369851D02*
G01*
X36529566Y4260748D01*
X36529566Y4260748D02*
G01*
X36467219Y4260748D01*
X36354997Y4343874D02*
G01*
X36360193Y4354266D01*
X36370585Y4364657D01*
X36380976Y4369851D01*
X36401756Y4369851D01*
X36412147Y4364657D01*
X36422538Y4354266D01*
X36427735Y4343874D01*
X36432929Y4328287D01*
X36432929Y4302310D01*
X36427735Y4286724D01*
X36422538Y4276333D01*
X36412147Y4265942D01*
X36401756Y4260748D01*
X36380976Y4260748D01*
X36370585Y4265942D01*
X36360193Y4276333D01*
X36354997Y4286724D01*
X36268753Y4369851D02*
G01*
X36268753Y4286724D01*
X36273948Y4271137D01*
X36279145Y4265942D01*
X36289536Y4260748D01*
X36299927Y4260748D01*
X36310316Y4265942D01*
X36315512Y4271137D01*
X36320707Y4286724D01*
X36320707Y4297116D01*
X36234463Y4369851D02*
G01*
X36234463Y4260748D01*
X36234463Y4260748D02*
G01*
X36172117Y4260748D01*
X36059897Y4343874D02*
G01*
X36065091Y4354266D01*
X36075482Y4364657D01*
X36085873Y4369851D01*
X36106656Y4369851D01*
X36117047Y4364657D01*
X36127436Y4354266D01*
X36132632Y4343874D01*
X36137827Y4328287D01*
X36137827Y4302310D01*
X36132632Y4286724D01*
X36127436Y4276333D01*
X36117047Y4265942D01*
X36106656Y4260748D01*
X36085873Y4260748D01*
X36075482Y4265942D01*
X36065091Y4276333D01*
X36059897Y4286724D01*
X35973651Y4369851D02*
G01*
X35973651Y4286724D01*
X35978846Y4271137D01*
X35984042Y4265942D01*
X35994433Y4260748D01*
X36004825Y4260748D01*
X36015216Y4265942D01*
X36020410Y4271137D01*
X36025607Y4286724D01*
X36025607Y4297116D01*
X35939361Y4369851D02*
G01*
X35939361Y4260748D01*
X35939361Y4260748D02*
G01*
X35877017Y4260748D01*
X35764795Y4343874D02*
G01*
X35769989Y4354266D01*
X35780380Y4364657D01*
X35790771Y4369851D01*
X35811553Y4369851D01*
X35821945Y4364657D01*
X35832336Y4354266D01*
X35837530Y4343874D01*
X35842727Y4328287D01*
X35842727Y4302310D01*
X35837530Y4286724D01*
X35832336Y4276333D01*
X35821945Y4265942D01*
X35811553Y4260748D01*
X35790771Y4260748D01*
X35780380Y4265942D01*
X35769989Y4276333D01*
X35764795Y4286724D01*
M02*
