G04 Layer: BottomSilkscreenLayer*
G04 EasyEDA v6.5.29, 2023-07-18 11:26:45*
G04 4de622fa8c6e451e87a0d4283465260b,5a6b42c53f6a479593ecc07194224c93,10*
G04 Gerber Generator version 0.2*
G04 Scale: 100 percent, Rotated: No, Reflected: No *
G04 Dimensions in millimeters *
G04 leading zeros omitted , absolute positions ,4 integer and 5 decimal *
%FSLAX45Y45*%
%MOMM*%

%ADD10C,0.2032*%
%ADD11C,0.1520*%

%LPD*%
D10*
X6141186Y716117D02*
G01*
X6146642Y727026D01*
X6157551Y737936D01*
X6168458Y743389D01*
X6190277Y743389D01*
X6201186Y737936D01*
X6212095Y727026D01*
X6217551Y716117D01*
X6223005Y699754D01*
X6223005Y672482D01*
X6217551Y656117D01*
X6212095Y645208D01*
X6201186Y634298D01*
X6190277Y628845D01*
X6168458Y628845D01*
X6157551Y634298D01*
X6146642Y645208D01*
X6141186Y656117D01*
X6072459Y743389D02*
G01*
X6083368Y737936D01*
X6094277Y727026D01*
X6099733Y716117D01*
X6105187Y699754D01*
X6105187Y672482D01*
X6099733Y656117D01*
X6094277Y645208D01*
X6083368Y634298D01*
X6072459Y628845D01*
X6050640Y628845D01*
X6039733Y634298D01*
X6028824Y645208D01*
X6023368Y656117D01*
X6017915Y672482D01*
X6017915Y699754D01*
X6023368Y716117D01*
X6028824Y727026D01*
X6039733Y737936D01*
X6050640Y743389D01*
X6072459Y743389D01*
X5981915Y743389D02*
G01*
X5981915Y628845D01*
X5981915Y743389D02*
G01*
X5932822Y743389D01*
X5916460Y737936D01*
X5911006Y732482D01*
X5905550Y721573D01*
X5905550Y705208D01*
X5911006Y694298D01*
X5916460Y688845D01*
X5932822Y683389D01*
X5981915Y683389D01*
X5869551Y743389D02*
G01*
X5825914Y688845D01*
X5825914Y628845D01*
X5782279Y743389D02*
G01*
X5825914Y688845D01*
X5746277Y743389D02*
G01*
X5746277Y628845D01*
X5746277Y743389D02*
G01*
X5697186Y743389D01*
X5680824Y737936D01*
X5675370Y732482D01*
X5669915Y721573D01*
X5669915Y710664D01*
X5675370Y699754D01*
X5680824Y694298D01*
X5697186Y688845D01*
X5746277Y688845D01*
X5708096Y688845D02*
G01*
X5669915Y628845D01*
X5633915Y743389D02*
G01*
X5633915Y628845D01*
X5516097Y716117D02*
G01*
X5521551Y727026D01*
X5532460Y737936D01*
X5543369Y743389D01*
X5565188Y743389D01*
X5576097Y737936D01*
X5587006Y727026D01*
X5592460Y716117D01*
X5597916Y699754D01*
X5597916Y672482D01*
X5592460Y656117D01*
X5587006Y645208D01*
X5576097Y634298D01*
X5565188Y628845D01*
X5543369Y628845D01*
X5532460Y634298D01*
X5521551Y645208D01*
X5516097Y656117D01*
X5516097Y672482D01*
X5543369Y672482D02*
G01*
X5516097Y672482D01*
X5480098Y743389D02*
G01*
X5480098Y628845D01*
X5403733Y743389D02*
G01*
X5403733Y628845D01*
X5480098Y688845D02*
G01*
X5403733Y688845D01*
X5329552Y743389D02*
G01*
X5329552Y628845D01*
X5367733Y743389D02*
G01*
X5291371Y743389D01*
X5165915Y716117D02*
G01*
X5165915Y721573D01*
X5160462Y732482D01*
X5155006Y737936D01*
X5144096Y743389D01*
X5122280Y743389D01*
X5111371Y737936D01*
X5105915Y732482D01*
X5100462Y721573D01*
X5100462Y710664D01*
X5105915Y699754D01*
X5116824Y683389D01*
X5171371Y628845D01*
X5095006Y628845D01*
X5026279Y743389D02*
G01*
X5042644Y737936D01*
X5053553Y721573D01*
X5059006Y694298D01*
X5059006Y677936D01*
X5053553Y650664D01*
X5042644Y634298D01*
X5026279Y628845D01*
X5015372Y628845D01*
X4999007Y634298D01*
X4988097Y650664D01*
X4982644Y677936D01*
X4982644Y694298D01*
X4988097Y721573D01*
X4999007Y737936D01*
X5015372Y743389D01*
X5026279Y743389D01*
X4941188Y716117D02*
G01*
X4941188Y721573D01*
X4935735Y732482D01*
X4930279Y737936D01*
X4919370Y743389D01*
X4897554Y743389D01*
X4886645Y737936D01*
X4881189Y732482D01*
X4875735Y721573D01*
X4875735Y710664D01*
X4881189Y699754D01*
X4892098Y683389D01*
X4946644Y628845D01*
X4870279Y628845D01*
X4823371Y743389D02*
G01*
X4763371Y743389D01*
X4796099Y699754D01*
X4779736Y699754D01*
X4768827Y694298D01*
X4763371Y688845D01*
X4757917Y672482D01*
X4757917Y661573D01*
X4763371Y645208D01*
X4774280Y634298D01*
X4790643Y628845D01*
X4807008Y628845D01*
X4823371Y634298D01*
X4828827Y639754D01*
X4834280Y650664D01*
X4637918Y743389D02*
G01*
X4594280Y628845D01*
X4550643Y743389D02*
G01*
X4594280Y628845D01*
X4514644Y743389D02*
G01*
X4514644Y628845D01*
X4514644Y743389D02*
G01*
X4443735Y743389D01*
X4514644Y688845D02*
G01*
X4471009Y688845D01*
X4514644Y628845D02*
G01*
X4443735Y628845D01*
X4331373Y743389D02*
G01*
X4385917Y628845D01*
X4407735Y743389D02*
G01*
X4331373Y743389D01*
X4295373Y743389D02*
G01*
X4295373Y628845D01*
X4295373Y743389D02*
G01*
X4224464Y743389D01*
X4295373Y688845D02*
G01*
X4251736Y688845D01*
X4188462Y743389D02*
G01*
X4188462Y628845D01*
X4152463Y743389D02*
G01*
X4152463Y628845D01*
X4152463Y743389D02*
G01*
X4108828Y628845D01*
X4065191Y743389D02*
G01*
X4108828Y628845D01*
X4065191Y743389D02*
G01*
X4065191Y628845D01*
X44183300Y629089D02*
G01*
X44183300Y514545D01*
X44183300Y629089D02*
G01*
X44134209Y629089D01*
X44117846Y623636D01*
X44112390Y618182D01*
X44106937Y607273D01*
X44106937Y590908D01*
X44112390Y579999D01*
X44117846Y574545D01*
X44134209Y569089D01*
X44183300Y569089D01*
X44027300Y629089D02*
G01*
X44070935Y514545D01*
X44027300Y629089D02*
G01*
X43983663Y514545D01*
X44054572Y552726D02*
G01*
X44000028Y552726D01*
X43947664Y629089D02*
G01*
X43947664Y514545D01*
X43947664Y629089D02*
G01*
X43898573Y629089D01*
X43882210Y623636D01*
X43876755Y618182D01*
X43871300Y607273D01*
X43871300Y596364D01*
X43876755Y585454D01*
X43882210Y579999D01*
X43898573Y574545D01*
X43947664Y574545D01*
X43909482Y574545D02*
G01*
X43871300Y514545D01*
X43797118Y629089D02*
G01*
X43797118Y514545D01*
X43835300Y629089D02*
G01*
X43758937Y629089D01*
X43638937Y629089D02*
G01*
X43638937Y514545D01*
X43638937Y629089D02*
G01*
X43562574Y514545D01*
X43562574Y629089D02*
G01*
X43562574Y514545D01*
X43526572Y629089D02*
G01*
X43526572Y547273D01*
X43521119Y530908D01*
X43510210Y519999D01*
X43493847Y514545D01*
X43482938Y514545D01*
X43466572Y519999D01*
X43455666Y530908D01*
X43450210Y547273D01*
X43450210Y629089D01*
X43414210Y629089D02*
G01*
X43414210Y514545D01*
X43414210Y629089D02*
G01*
X43370573Y514545D01*
X43326938Y629089D02*
G01*
X43370573Y514545D01*
X43326938Y629089D02*
G01*
X43326938Y514545D01*
X43290937Y629089D02*
G01*
X43290937Y514545D01*
X43290937Y629089D02*
G01*
X43241846Y629089D01*
X43225483Y623636D01*
X43220030Y618182D01*
X43214574Y607273D01*
X43214574Y596364D01*
X43220030Y585454D01*
X43225483Y579999D01*
X43241846Y574545D01*
X43290937Y574545D02*
G01*
X43241846Y574545D01*
X43225483Y569089D01*
X43220030Y563636D01*
X43214574Y552726D01*
X43214574Y536364D01*
X43220030Y525454D01*
X43225483Y519999D01*
X43241846Y514545D01*
X43290937Y514545D01*
X43178575Y629089D02*
G01*
X43178575Y514545D01*
X43178575Y629089D02*
G01*
X43107665Y629089D01*
X43178575Y574545D02*
G01*
X43134937Y574545D01*
X43178575Y514545D02*
G01*
X43107665Y514545D01*
X43071666Y629089D02*
G01*
X43071666Y514545D01*
X43071666Y629089D02*
G01*
X43022575Y629089D01*
X43006210Y623636D01*
X43000757Y618182D01*
X42995301Y607273D01*
X42995301Y596364D01*
X43000757Y585454D01*
X43006210Y579999D01*
X43022575Y574545D01*
X43071666Y574545D01*
X43033485Y574545D02*
G01*
X42995301Y514545D01*
X42875301Y607273D02*
G01*
X42864392Y612726D01*
X42848029Y629089D01*
X42848029Y514545D01*
X42741121Y590908D02*
G01*
X42746574Y574545D01*
X42757483Y563636D01*
X42773848Y558182D01*
X42779302Y558182D01*
X42795667Y563636D01*
X42806574Y574545D01*
X42812030Y590908D01*
X42812030Y596364D01*
X42806574Y612726D01*
X42795667Y623636D01*
X42779302Y629089D01*
X42773848Y629089D01*
X42757483Y623636D01*
X42746574Y612726D01*
X42741121Y590908D01*
X42741121Y563636D01*
X42746574Y536364D01*
X42757483Y519999D01*
X42773848Y514545D01*
X42784758Y514545D01*
X42801120Y519999D01*
X42806574Y530908D01*
X42699665Y601817D02*
G01*
X42699665Y607273D01*
X42694212Y618182D01*
X42688756Y623636D01*
X42677849Y629089D01*
X42656031Y629089D01*
X42645121Y623636D01*
X42639665Y618182D01*
X42634212Y607273D01*
X42634212Y596364D01*
X42639665Y585454D01*
X42650575Y569089D01*
X42705121Y514545D01*
X42628756Y514545D01*
X42560031Y629089D02*
G01*
X42576394Y623636D01*
X42587303Y607273D01*
X42592757Y579999D01*
X42592757Y563636D01*
X42587303Y536364D01*
X42576394Y519999D01*
X42560031Y514545D01*
X42549122Y514545D01*
X42532757Y519999D01*
X42521847Y536364D01*
X42516394Y563636D01*
X42516394Y579999D01*
X42521847Y607273D01*
X42532757Y623636D01*
X42549122Y629089D01*
X42560031Y629089D01*
X42480395Y563636D02*
G01*
X42382213Y563636D01*
X42313486Y629089D02*
G01*
X42329849Y623636D01*
X42340758Y607273D01*
X42346211Y579999D01*
X42346211Y563636D01*
X42340758Y536364D01*
X42329849Y519999D01*
X42313486Y514545D01*
X42302577Y514545D01*
X42286212Y519999D01*
X42275302Y536364D01*
X42269849Y563636D01*
X42269849Y579999D01*
X42275302Y607273D01*
X42286212Y623636D01*
X42302577Y629089D01*
X42313486Y629089D01*
X42228394Y601817D02*
G01*
X42228394Y607273D01*
X42222940Y618182D01*
X42217484Y623636D01*
X42206575Y629089D01*
X42184759Y629089D01*
X42173850Y623636D01*
X42168394Y618182D01*
X42162940Y607273D01*
X42162940Y596364D01*
X42168394Y585454D01*
X42179303Y569089D01*
X42233850Y514545D01*
X42157484Y514545D01*
X42088757Y629089D02*
G01*
X42105122Y623636D01*
X42116032Y607273D01*
X42121485Y579999D01*
X42121485Y563636D01*
X42116032Y536364D01*
X42105122Y519999D01*
X42088757Y514545D01*
X42077850Y514545D01*
X42061485Y519999D01*
X42050576Y536364D01*
X42045122Y563636D01*
X42045122Y579999D01*
X42050576Y607273D01*
X42061485Y623636D01*
X42077850Y629089D01*
X42088757Y629089D01*
X42009123Y607273D02*
G01*
X41998214Y612726D01*
X41981848Y629089D01*
X41981848Y514545D01*
X41861849Y629089D02*
G01*
X41818214Y514545D01*
X41774577Y629089D02*
G01*
X41818214Y514545D01*
X41738577Y607273D02*
G01*
X41727668Y612726D01*
X41711305Y629089D01*
X41711305Y514545D01*
X44177846Y805017D02*
G01*
X44177846Y810473D01*
X44172390Y821382D01*
X44166937Y826836D01*
X44156028Y832289D01*
X44134209Y832289D01*
X44123300Y826836D01*
X44117846Y821382D01*
X44112390Y810473D01*
X44112390Y799564D01*
X44117846Y788654D01*
X44128753Y772289D01*
X44183300Y717745D01*
X44106937Y717745D01*
X44070935Y832289D02*
G01*
X44070935Y750473D01*
X44065482Y734108D01*
X44054572Y723199D01*
X44038210Y717745D01*
X44027300Y717745D01*
X44010935Y723199D01*
X44000028Y734108D01*
X43994572Y750473D01*
X43994572Y832289D01*
X43874573Y832289D02*
G01*
X43874573Y717745D01*
X43874573Y832289D02*
G01*
X43825482Y832289D01*
X43809119Y826836D01*
X43803663Y821382D01*
X43798210Y810473D01*
X43798210Y799564D01*
X43803663Y788654D01*
X43809119Y783199D01*
X43825482Y777745D01*
X43874573Y777745D01*
X43836391Y777745D02*
G01*
X43798210Y717745D01*
X43718573Y832289D02*
G01*
X43762211Y717745D01*
X43718573Y832289D02*
G01*
X43674936Y717745D01*
X43745845Y755926D02*
G01*
X43691302Y755926D01*
X43557118Y805017D02*
G01*
X43562574Y815926D01*
X43573484Y826836D01*
X43584390Y832289D01*
X43606209Y832289D01*
X43617118Y826836D01*
X43628028Y815926D01*
X43633483Y805017D01*
X43638937Y788654D01*
X43638937Y761382D01*
X43633483Y745017D01*
X43628028Y734108D01*
X43617118Y723199D01*
X43606209Y717745D01*
X43584390Y717745D01*
X43573484Y723199D01*
X43562574Y734108D01*
X43557118Y745017D01*
X43521119Y832289D02*
G01*
X43521119Y717745D01*
X43444756Y832289D02*
G01*
X43521119Y755926D01*
X43493847Y783199D02*
G01*
X43444756Y717745D01*
X43324757Y832289D02*
G01*
X43324757Y717745D01*
X43324757Y832289D02*
G01*
X43286573Y832289D01*
X43270210Y826836D01*
X43259301Y815926D01*
X43253847Y805017D01*
X43248392Y788654D01*
X43248392Y761382D01*
X43253847Y745017D01*
X43259301Y734108D01*
X43270210Y723199D01*
X43286573Y717745D01*
X43324757Y717745D01*
X43212392Y832289D02*
G01*
X43212392Y717745D01*
X43100030Y815926D02*
G01*
X43110937Y826836D01*
X43127302Y832289D01*
X43149121Y832289D01*
X43165483Y826836D01*
X43176393Y815926D01*
X43176393Y805017D01*
X43170937Y794108D01*
X43165483Y788654D01*
X43154574Y783199D01*
X43121846Y772289D01*
X43110937Y766836D01*
X43105484Y761382D01*
X43100030Y750473D01*
X43100030Y734108D01*
X43110937Y723199D01*
X43127302Y717745D01*
X43149121Y717745D01*
X43165483Y723199D01*
X43176393Y734108D01*
X43064028Y832289D02*
G01*
X43064028Y717745D01*
X43064028Y832289D02*
G01*
X43014938Y832289D01*
X42998575Y826836D01*
X42993119Y821382D01*
X42987666Y810473D01*
X42987666Y794108D01*
X42993119Y783199D01*
X42998575Y777745D01*
X43014938Y772289D01*
X43064028Y772289D01*
X42951666Y832289D02*
G01*
X42951666Y717745D01*
X42951666Y717745D02*
G01*
X42886210Y717745D01*
X42806574Y832289D02*
G01*
X42850211Y717745D01*
X42806574Y832289D02*
G01*
X42762939Y717745D01*
X42833848Y755926D02*
G01*
X42779302Y755926D01*
X42726940Y832289D02*
G01*
X42683302Y777745D01*
X42683302Y717745D01*
X42639665Y832289D02*
G01*
X42683302Y777745D01*
X42443303Y815926D02*
G01*
X42454212Y826836D01*
X42470575Y832289D01*
X42492394Y832289D01*
X42508756Y826836D01*
X42519666Y815926D01*
X42519666Y805017D01*
X42514212Y794108D01*
X42508756Y788654D01*
X42497849Y783199D01*
X42465122Y772289D01*
X42454212Y766836D01*
X42448756Y761382D01*
X42443303Y750473D01*
X42443303Y734108D01*
X42454212Y723199D01*
X42470575Y717745D01*
X42492394Y717745D01*
X42508756Y723199D01*
X42519666Y734108D01*
X42369122Y832289D02*
G01*
X42369122Y717745D01*
X42407304Y832289D02*
G01*
X42330938Y832289D01*
X42294939Y832289D02*
G01*
X42294939Y717745D01*
X42258940Y832289D02*
G01*
X42258940Y717745D01*
X42258940Y832289D02*
G01*
X42188030Y832289D01*
X42258940Y777745D02*
G01*
X42215302Y777745D01*
X42152031Y832289D02*
G01*
X42152031Y717745D01*
X42152031Y832289D02*
G01*
X42081122Y832289D01*
X42152031Y777745D02*
G01*
X42108394Y777745D01*
X42045122Y832289D02*
G01*
X42045122Y717745D01*
X42045122Y832289D02*
G01*
X41974213Y832289D01*
X42045122Y777745D02*
G01*
X42001485Y777745D01*
X42045122Y717745D02*
G01*
X41974213Y717745D01*
X41938214Y832289D02*
G01*
X41938214Y717745D01*
X41938214Y832289D02*
G01*
X41861849Y717745D01*
X41861849Y832289D02*
G01*
X41861849Y717745D01*
X41825849Y832289D02*
G01*
X41825849Y717745D01*
X41825849Y832289D02*
G01*
X41754940Y832289D01*
X41825849Y777745D02*
G01*
X41782215Y777745D01*
X41825849Y717745D02*
G01*
X41754940Y717745D01*
X41718941Y832289D02*
G01*
X41718941Y717745D01*
X41718941Y832289D02*
G01*
X41669850Y832289D01*
X41653487Y826836D01*
X41648032Y821382D01*
X41642578Y810473D01*
X41642578Y799564D01*
X41648032Y788654D01*
X41653487Y783199D01*
X41669850Y777745D01*
X41718941Y777745D01*
X41680759Y777745D02*
G01*
X41642578Y717745D01*
D11*
X44385351Y8268741D02*
G01*
X44385351Y8185614D01*
X44390548Y8170026D01*
X44395743Y8164832D01*
X44406134Y8159638D01*
X44416525Y8159638D01*
X44426916Y8164832D01*
X44432113Y8170026D01*
X44437307Y8185614D01*
X44437307Y8196005D01*
X44351061Y8268741D02*
G01*
X44351061Y8159638D01*
X44351061Y8159638D02*
G01*
X44288717Y8159638D01*
X44176495Y8242764D02*
G01*
X44181692Y8253155D01*
X44192083Y8263547D01*
X44202471Y8268741D01*
X44223254Y8268741D01*
X44233645Y8263547D01*
X44244036Y8253155D01*
X44249233Y8242764D01*
X44254427Y8227176D01*
X44254427Y8201200D01*
X44249233Y8185614D01*
X44244036Y8175223D01*
X44233645Y8164832D01*
X44223254Y8159638D01*
X44202471Y8159638D01*
X44192083Y8164832D01*
X44181692Y8175223D01*
X44176495Y8185614D01*
X44090252Y8268741D02*
G01*
X44090252Y8185614D01*
X44095446Y8170026D01*
X44100643Y8164832D01*
X44111031Y8159638D01*
X44121423Y8159638D01*
X44131814Y8164832D01*
X44137011Y8170026D01*
X44142205Y8185614D01*
X44142205Y8196005D01*
X44055962Y8268741D02*
G01*
X44055962Y8159638D01*
X44055962Y8159638D02*
G01*
X43993615Y8159638D01*
X43881393Y8242764D02*
G01*
X43886589Y8253155D01*
X43896981Y8263547D01*
X43907372Y8268741D01*
X43928151Y8268741D01*
X43938543Y8263547D01*
X43948934Y8253155D01*
X43954131Y8242764D01*
X43959325Y8227176D01*
X43959325Y8201200D01*
X43954131Y8185614D01*
X43948934Y8175223D01*
X43938543Y8164832D01*
X43928151Y8159638D01*
X43907372Y8159638D01*
X43896981Y8164832D01*
X43886589Y8175223D01*
X43881393Y8185614D01*
X43795149Y8268741D02*
G01*
X43795149Y8185614D01*
X43800344Y8170026D01*
X43805541Y8164832D01*
X43815932Y8159638D01*
X43826323Y8159638D01*
X43836711Y8164832D01*
X43841908Y8170026D01*
X43847103Y8185614D01*
X43847103Y8196005D01*
X43760859Y8268741D02*
G01*
X43760859Y8159638D01*
X43760859Y8159638D02*
G01*
X43698513Y8159638D01*
X43586293Y8242764D02*
G01*
X43591487Y8253155D01*
X43601878Y8263547D01*
X43612269Y8268741D01*
X43633052Y8268741D01*
X43643443Y8263547D01*
X43653831Y8253155D01*
X43659028Y8242764D01*
X43664223Y8227176D01*
X43664223Y8201200D01*
X43659028Y8185614D01*
X43653831Y8175223D01*
X43643443Y8164832D01*
X43633052Y8159638D01*
X43612269Y8159638D01*
X43601878Y8164832D01*
X43591487Y8175223D01*
X43586293Y8185614D01*
X43500047Y8268741D02*
G01*
X43500047Y8185614D01*
X43505241Y8170026D01*
X43510438Y8164832D01*
X43520829Y8159638D01*
X43531221Y8159638D01*
X43541612Y8164832D01*
X43546806Y8170026D01*
X43552003Y8185614D01*
X43552003Y8196005D01*
X43465757Y8268741D02*
G01*
X43465757Y8159638D01*
X43465757Y8159638D02*
G01*
X43403413Y8159638D01*
X43291191Y8242764D02*
G01*
X43296385Y8253155D01*
X43306776Y8263547D01*
X43317167Y8268741D01*
X43337949Y8268741D01*
X43348341Y8263547D01*
X43358732Y8253155D01*
X43363926Y8242764D01*
X43369123Y8227176D01*
X43369123Y8201200D01*
X43363926Y8185614D01*
X43358732Y8175223D01*
X43348341Y8164832D01*
X43337949Y8159638D01*
X43317167Y8159638D01*
X43306776Y8164832D01*
X43296385Y8175223D01*
X43291191Y8185614D01*
M02*
