M48
METRIC,LZ,000.000
;FILE_FORMAT=3:3
;TYPE=PLATED
;Layer: PTH_Through_Via
;EasyEDA v6.5.29, 2023-07-18 16:12:35
;d5bba3988b1a441daab3a782034997f9,5a6b42c53f6a479593ecc07194224c93,10
;Gerber Generator version 0.2
;Holesize 1 = 0.305 mm
T01C0.305
%
G05
G90
T01
X041695Y041713
X040933Y006280
X040933Y002216
X040933Y010344
X040933Y014408
X040933Y018472
X040933Y022536
X039187Y006350
X039187Y002286
X039187Y010414
X039187Y014478
X039187Y018542
X039187Y022606
X039187Y026670
X040933Y026600
X039187Y030734
X040933Y030664
X039187Y034798
X040933Y034728
X039187Y038862
X040933Y038792
X045759Y041713
X044997Y006280
X044997Y002216
X044997Y010344
X044997Y014408
X044997Y018472
X044997Y022536
X043251Y006350
X043251Y002286
X043251Y010414
X043251Y014478
X043251Y018542
X043251Y022606
X043251Y026670
X044997Y026600
X043251Y030734
X044997Y030664
X043251Y034798
X044997Y034728
X043251Y038862
X044997Y038792
X049823Y041713
X049061Y006280
X049061Y002216
X049061Y010344
X049061Y014408
X049061Y018472
X049061Y022536
X047315Y006350
X047315Y002286
X047315Y010414
X047315Y014478
X047315Y018542
X047315Y022606
X047315Y026670
X049061Y026600
X047315Y030734
X049061Y030664
X047315Y034798
X049061Y034728
X047315Y038862
X049061Y038792
X053887Y041713
X053125Y006280
X053125Y002216
X053125Y010344
X053125Y014408
X053125Y018472
X053125Y022536
X051379Y006350
X051379Y002286
X051379Y010414
X051379Y014478
X051379Y018542
X051379Y022606
X051379Y026670
X053125Y026600
X051379Y030734
X053125Y030664
X051379Y034798
X053125Y034728
X051379Y038862
X053125Y038792
X057951Y041713
X057189Y006280
X057189Y002216
X057189Y010344
X057189Y014408
X057189Y018472
X057189Y022536
X055443Y006350
X055443Y002286
X055443Y010414
X055443Y014478
X055443Y018542
X055443Y022606
X055443Y026670
X057189Y026600
X055443Y030734
X057189Y030664
X055443Y034798
X057189Y034728
X055443Y038862
X057189Y038792
X062015Y041713
X061253Y006280
X061253Y002216
X061253Y010344
X061253Y014408
X061253Y018472
X061253Y022536
X059507Y006350
X059507Y002286
X059507Y010414
X059507Y014478
X059507Y018542
X059507Y022606
X059507Y026670
X061253Y026600
X059507Y030734
X061253Y030664
X059507Y034798
X061253Y034728
X059507Y038862
X061253Y038792
X066079Y041713
X065317Y006280
X065317Y002216
X065317Y010344
X065317Y014408
X065317Y018472
X065317Y022536
X063571Y006350
X063571Y002286
X063571Y010414
X063571Y014478
X063571Y018542
X063571Y022606
X063571Y026670
X065317Y026600
X063571Y030734
X065317Y030664
X063571Y034798
X065317Y034728
X063571Y038862
X065317Y038792
X070143Y041713
X069381Y006280
X069381Y002216
X069381Y010344
X069381Y014408
X069381Y018472
X069381Y022536
X067635Y006350
X067635Y002286
X067635Y010414
X067635Y014478
X067635Y018542
X067635Y022606
X067635Y026670
X069381Y026600
X067635Y030734
X069381Y030664
X067635Y034798
X069381Y034728
X067635Y038862
X069381Y038792
X074207Y041713
X073445Y006280
X073445Y002216
X073445Y010344
X073445Y014408
X073445Y018472
X073445Y022536
X071699Y006350
X071699Y002286
X071699Y010414
X071699Y014478
X071699Y018542
X071699Y022606
X071699Y026670
X073445Y026600
X071699Y030734
X073445Y030664
X071699Y034798
X073445Y034728
X071699Y038862
X073445Y038792
X078271Y041713
X077509Y006280
X077509Y002216
X077509Y010344
X077509Y014408
X077509Y018472
X077509Y022536
X075763Y006350
X075763Y002286
X075763Y010414
X075763Y014478
X075763Y018542
X075763Y022606
X075763Y026670
X077509Y026600
X075763Y030734
X077509Y030664
X075763Y034798
X077509Y034728
X075763Y038862
X077509Y038792
X082335Y041713
X081573Y006280
X081573Y002216
X081573Y010344
X081573Y014408
X081573Y018472
X081573Y022536
X079827Y006350
X079827Y002286
X079827Y010414
X079827Y014478
X079827Y018542
X079827Y022606
X079827Y026670
X081573Y026600
X079827Y030734
X081573Y030664
X079827Y034798
X081573Y034728
X079827Y038862
X081573Y038792
X086399Y041713
X085637Y006280
X085637Y002216
X085637Y010344
X085637Y014408
X085637Y018472
X085637Y022536
X083891Y006350
X083891Y002286
X083891Y010414
X083891Y014478
X083891Y018542
X083891Y022606
X083891Y026670
X085637Y026600
X083891Y030734
X085637Y030664
X083891Y034798
X085637Y034728
X083891Y038862
X085637Y038792
X090463Y041713
X089701Y006280
X089701Y002216
X089701Y010344
X089701Y014408
X089701Y018472
X089701Y022536
X087955Y006350
X087955Y002286
X087955Y010414
X087955Y014478
X087955Y018542
X087955Y022606
X087955Y026670
X089701Y026600
X087955Y030734
X089701Y030664
X087955Y034798
X089701Y034728
X087955Y038862
X089701Y038792
X094527Y041713
X093765Y006280
X093765Y002216
X093765Y010344
X093765Y014408
X093765Y018472
X093765Y022536
X092019Y006350
X092019Y002286
X092019Y010414
X092019Y014478
X092019Y018542
X092019Y022606
X092019Y026670
X093765Y026600
X092019Y030734
X093765Y030664
X092019Y034798
X093765Y034728
X092019Y038862
X093765Y038792
X098591Y041713
X097829Y006280
X097829Y002216
X097829Y010344
X097829Y014408
X097829Y018472
X097829Y022536
X096083Y006350
X096083Y002286
X096083Y010414
X096083Y014478
X096083Y018542
X096083Y022606
X096083Y026670
X097829Y026600
X096083Y030734
X097829Y030664
X096083Y034798
X097829Y034728
X096083Y038862
X097829Y038792
X102655Y041713
X101893Y006280
X101893Y002216
X101893Y010344
X101893Y014408
X101893Y018472
X101893Y022536
X100147Y006350
X100147Y002286
X100147Y010414
X100147Y014478
X100147Y018542
X100147Y022606
X100147Y026670
X101893Y026600
X100147Y030734
X101893Y030664
X100147Y034798
X101893Y034728
X100147Y038862
X101893Y038792
X106719Y041713
X105957Y006280
X105957Y002216
X105957Y010344
X105957Y014408
X105957Y018472
X105957Y022536
X104211Y006350
X104211Y002286
X104211Y010414
X104211Y014478
X104211Y018542
X104211Y022606
X104211Y026670
X105957Y026600
X104211Y030734
X105957Y030664
X104211Y034798
X105957Y034728
X104211Y038862
X105957Y038792
X110783Y041713
X110021Y006280
X110021Y002216
X110021Y010344
X110021Y014408
X110021Y018472
X110021Y022536
X108275Y006350
X108275Y002286
X108275Y010414
X108275Y014478
X108275Y018542
X108275Y022606
X108275Y026670
X110021Y026600
X108275Y030734
X110021Y030664
X108275Y034798
X110021Y034728
X108275Y038862
X110021Y038792
X114847Y041713
X114085Y006280
X114085Y002216
X114085Y010344
X114085Y014408
X114085Y018472
X114085Y022536
X112339Y006350
X112339Y002286
X112339Y010414
X112339Y014478
X112339Y018542
X112339Y022606
X112339Y026670
X114085Y026600
X112339Y030734
X114085Y030664
X112339Y034798
X114085Y034728
X112339Y038862
X114085Y038792
X118911Y041713
X118149Y006280
X118149Y002216
X118149Y010344
X118149Y014408
X118149Y018472
X118149Y022536
X116403Y006350
X116403Y002286
X116403Y010414
X116403Y014478
X116403Y018542
X116403Y022606
X116403Y026670
X118149Y026600
X116403Y030734
X118149Y030664
X116403Y034798
X118149Y034728
X116403Y038862
X118149Y038792
X122975Y041713
X122213Y006280
X122213Y002216
X122213Y010344
X122213Y014408
X122213Y018472
X122213Y022536
X120467Y006350
X120467Y002286
X120467Y010414
X120467Y014478
X120467Y018542
X120467Y022606
X120467Y026670
X122213Y026600
X120467Y030734
X122213Y030664
X120467Y034798
X122213Y034728
X120467Y038862
X122213Y038792
X127039Y041713
X126277Y006280
X126277Y002216
X126277Y010344
X126277Y014408
X126277Y018472
X126277Y022536
X124531Y006350
X124531Y002286
X124531Y010414
X124531Y014478
X124531Y018542
X124531Y022606
X124531Y026670
X126277Y026600
X124531Y030734
X126277Y030664
X124531Y034798
X126277Y034728
X124531Y038862
X126277Y038792
X131103Y041713
X130341Y006280
X130341Y002216
X130341Y010344
X130341Y014408
X130341Y018472
X130341Y022536
X128595Y006350
X128595Y002286
X128595Y010414
X128595Y014478
X128595Y018542
X128595Y022606
X128595Y026670
X130341Y026600
X128595Y030734
X130341Y030664
X128595Y034798
X130341Y034728
X128595Y038862
X130341Y038792
X135167Y041713
X134405Y006280
X134405Y002216
X134405Y010344
X134405Y014408
X134405Y018472
X134405Y022536
X132659Y006350
X132659Y002286
X132659Y010414
X132659Y014478
X132659Y018542
X132659Y022606
X132659Y026670
X134405Y026600
X132659Y030734
X134405Y030664
X132659Y034798
X134405Y034728
X132659Y038862
X134405Y038792
X139231Y041713
X138469Y006280
X138469Y002216
X138469Y010344
X138469Y014408
X138469Y018472
X138469Y022536
X136723Y006350
X136723Y002286
X136723Y010414
X136723Y014478
X136723Y018542
X136723Y022606
X136723Y026670
X138469Y026600
X136723Y030734
X138469Y030664
X136723Y034798
X138469Y034728
X136723Y038862
X138469Y038792
X143295Y041713
X142533Y006280
X142533Y002216
X142533Y010344
X142533Y014408
X142533Y018472
X142533Y022536
X140787Y006350
X140787Y002286
X140787Y010414
X140787Y014478
X140787Y018542
X140787Y022606
X140787Y026670
X142533Y026600
X140787Y030734
X142533Y030664
X140787Y034798
X142533Y034728
X140787Y038862
X142533Y038792
X147359Y041713
X146597Y006280
X146597Y002216
X146597Y010344
X146597Y014408
X146597Y018472
X146597Y022536
X144851Y006350
X144851Y002286
X144851Y010414
X144851Y014478
X144851Y018542
X144851Y022606
X144851Y026670
X146597Y026600
X144851Y030734
X146597Y030664
X144851Y034798
X146597Y034728
X144851Y038862
X146597Y038792
X151423Y041713
X150661Y006280
X150661Y002216
X150661Y010344
X150661Y014408
X150661Y018472
X150661Y022536
X148915Y006350
X148915Y002286
X148915Y010414
X148915Y014478
X148915Y018542
X148915Y022606
X148915Y026670
X150661Y026600
X148915Y030734
X150661Y030664
X148915Y034798
X150661Y034728
X148915Y038862
X150661Y038792
X155487Y041713
X154725Y006280
X154725Y002216
X154725Y010344
X154725Y014408
X154725Y018472
X154725Y022536
X152979Y006350
X152979Y002286
X152979Y010414
X152979Y014478
X152979Y018542
X152979Y022606
X152979Y026670
X154725Y026600
X152979Y030734
X154725Y030664
X152979Y034798
X154725Y034728
X152979Y038862
X154725Y038792
X159551Y041713
X158789Y006280
X158789Y002216
X158789Y010344
X158789Y014408
X158789Y018472
X158789Y022536
X157043Y006350
X157043Y002286
X157043Y010414
X157043Y014478
X157043Y018542
X157043Y022606
X157043Y026670
X158789Y026600
X157043Y030734
X158789Y030664
X157043Y034798
X158789Y034728
X157043Y038862
X158789Y038792
X163615Y041713
X162853Y006280
X162853Y002216
X162853Y010344
X162853Y014408
X162853Y018472
X162853Y022536
X161107Y006350
X161107Y002286
X161107Y010414
X161107Y014478
X161107Y018542
X161107Y022606
X161107Y026670
X162853Y026600
X161107Y030734
X162853Y030664
X161107Y034798
X162853Y034728
X161107Y038862
X162853Y038792
X167679Y041713
X166917Y006280
X166917Y002216
X166917Y010344
X166917Y014408
X166917Y018472
X166917Y022536
X165171Y006350
X165171Y002286
X165171Y010414
X165171Y014478
X165171Y018542
X165171Y022606
X165171Y026670
X166917Y026600
X165171Y030734
X166917Y030664
X165171Y034798
X166917Y034728
X165171Y038862
X166917Y038792
X171743Y041713
X170981Y006280
X170981Y002216
X170981Y010344
X170981Y014408
X170981Y018472
X170981Y022536
X169235Y006350
X169235Y002286
X169235Y010414
X169235Y014478
X169235Y018542
X169235Y022606
X169235Y026670
X170981Y026600
X169235Y030734
X170981Y030664
X169235Y034798
X170981Y034728
X169235Y038862
X170981Y038792
X175807Y041713
X175045Y006280
X175045Y002216
X175045Y010344
X175045Y014408
X175045Y018472
X175045Y022536
X173299Y006350
X173299Y002286
X173299Y010414
X173299Y014478
X173299Y018542
X173299Y022606
X173299Y026670
X175045Y026600
X173299Y030734
X175045Y030664
X173299Y034798
X175045Y034728
X173299Y038862
X175045Y038792
X179871Y041713
X179109Y006280
X179109Y002216
X179109Y010344
X179109Y014408
X179109Y018472
X179109Y022536
X177363Y006350
X177363Y002286
X177363Y010414
X177363Y014478
X177363Y018542
X177363Y022606
X177363Y026670
X179109Y026600
X177363Y030734
X179109Y030664
X177363Y034798
X179109Y034728
X177363Y038862
X179109Y038792
X183935Y041713
X183173Y006280
X183173Y002216
X183173Y010344
X183173Y014408
X183173Y018472
X183173Y022536
X181427Y006350
X181427Y002286
X181427Y010414
X181427Y014478
X181427Y018542
X181427Y022606
X181427Y026670
X183173Y026600
X181427Y030734
X183173Y030664
X181427Y034798
X183173Y034728
X181427Y038862
X183173Y038792
X187999Y041713
X187237Y006280
X187237Y002216
X187237Y010344
X187237Y014408
X187237Y018472
X187237Y022536
X185491Y006350
X185491Y002286
X185491Y010414
X185491Y014478
X185491Y018542
X185491Y022606
X185491Y026670
X187237Y026600
X185491Y030734
X187237Y030664
X185491Y034798
X187237Y034728
X185491Y038862
X187237Y038792
X192063Y041713
X191301Y006280
X191301Y002216
X191301Y010344
X191301Y014408
X191301Y018472
X191301Y022536
X189555Y006350
X189555Y002286
X189555Y010414
X189555Y014478
X189555Y018542
X189555Y022606
X189555Y026670
X191301Y026600
X189555Y030734
X191301Y030664
X189555Y034798
X191301Y034728
X189555Y038862
X191301Y038792
X196127Y041713
X195365Y006280
X195365Y002216
X195365Y010344
X195365Y014408
X195365Y018472
X195365Y022536
X193619Y006350
X193619Y002286
X193619Y010414
X193619Y014478
X193619Y018542
X193619Y022606
X193619Y026670
X195365Y026600
X193619Y030734
X195365Y030664
X193619Y034798
X195365Y034728
X193619Y038862
X195365Y038792
X200191Y041713
X199429Y006280
X199429Y002216
X199429Y010344
X199429Y014408
X199429Y018472
X199429Y022536
X197683Y006350
X197683Y002286
X197683Y010414
X197683Y014478
X197683Y018542
X197683Y022606
X197683Y026670
X199429Y026600
X197683Y030734
X199429Y030664
X197683Y034798
X199429Y034728
X197683Y038862
X199429Y038792
X204255Y041713
X203493Y006280
X203493Y002216
X203493Y010344
X203493Y014408
X203493Y018472
X203493Y022536
X201747Y006350
X201747Y002286
X201747Y010414
X201747Y014478
X201747Y018542
X201747Y022606
X201747Y026670
X203493Y026600
X201747Y030734
X203493Y030664
X201747Y034798
X203493Y034728
X201747Y038862
X203493Y038792
X208319Y041713
X207557Y006280
X207557Y002216
X207557Y010344
X207557Y014408
X207557Y018472
X207557Y022536
X205811Y006350
X205811Y002286
X205811Y010414
X205811Y014478
X205811Y018542
X205811Y022606
X205811Y026670
X207557Y026600
X205811Y030734
X207557Y030664
X205811Y034798
X207557Y034728
X205811Y038862
X207557Y038792
X212383Y041713
X211621Y006280
X211621Y002216
X211621Y010344
X211621Y014408
X211621Y018472
X211621Y022536
X209875Y006350
X209875Y002286
X209875Y010414
X209875Y014478
X209875Y018542
X209875Y022606
X209875Y026670
X211621Y026600
X209875Y030734
X211621Y030664
X209875Y034798
X211621Y034728
X209875Y038862
X211621Y038792
X216447Y041713
X215685Y006280
X215685Y002216
X215685Y010344
X215685Y014408
X215685Y018472
X215685Y022536
X213939Y006350
X213939Y002286
X213939Y010414
X213939Y014478
X213939Y018542
X213939Y022606
X213939Y026670
X215685Y026600
X213939Y030734
X215685Y030664
X213939Y034798
X215685Y034728
X213939Y038862
X215685Y038792
X220511Y041713
X219749Y006280
X219749Y002216
X219749Y010344
X219749Y014408
X219749Y018472
X219749Y022536
X218003Y006350
X218003Y002286
X218003Y010414
X218003Y014478
X218003Y018542
X218003Y022606
X218003Y026670
X219749Y026600
X218003Y030734
X219749Y030664
X218003Y034798
X219749Y034728
X218003Y038862
X219749Y038792
X224575Y041713
X223813Y006280
X223813Y002216
X223813Y010344
X223813Y014408
X223813Y018472
X223813Y022536
X222067Y006350
X222067Y002286
X222067Y010414
X222067Y014478
X222067Y018542
X222067Y022606
X222067Y026670
X223813Y026600
X222067Y030734
X223813Y030664
X222067Y034798
X223813Y034728
X222067Y038862
X223813Y038792
X228639Y041713
X227877Y006280
X227877Y002216
X227877Y010344
X227877Y014408
X227877Y018472
X227877Y022536
X226131Y006350
X226131Y002286
X226131Y010414
X226131Y014478
X226131Y018542
X226131Y022606
X226131Y026670
X227877Y026600
X226131Y030734
X227877Y030664
X226131Y034798
X227877Y034728
X226131Y038862
X227877Y038792
X232703Y041713
X231941Y006280
X231941Y002216
X231941Y010344
X231941Y014408
X231941Y018472
X231941Y022536
X230195Y006350
X230195Y002286
X230195Y010414
X230195Y014478
X230195Y018542
X230195Y022606
X230195Y026670
X231941Y026600
X230195Y030734
X231941Y030664
X230195Y034798
X231941Y034728
X230195Y038862
X231941Y038792
X236767Y041713
X236005Y006280
X236005Y002216
X236005Y010344
X236005Y014408
X236005Y018472
X236005Y022536
X234259Y006350
X234259Y002286
X234259Y010414
X234259Y014478
X234259Y018542
X234259Y022606
X234259Y026670
X236005Y026600
X234259Y030734
X236005Y030664
X234259Y034798
X236005Y034728
X234259Y038862
X236005Y038792
X240831Y041713
X240069Y006280
X240069Y002216
X240069Y010344
X240069Y014408
X240069Y018472
X240069Y022536
X238323Y006350
X238323Y002286
X238323Y010414
X238323Y014478
X238323Y018542
X238323Y022606
X238323Y026670
X240069Y026600
X238323Y030734
X240069Y030664
X238323Y034798
X240069Y034728
X238323Y038862
X240069Y038792
X244895Y041713
X244133Y006280
X244133Y002216
X244133Y010344
X244133Y014408
X244133Y018472
X244133Y022536
X242387Y006350
X242387Y002286
X242387Y010414
X242387Y014478
X242387Y018542
X242387Y022606
X242387Y026670
X244133Y026600
X242387Y030734
X244133Y030664
X242387Y034798
X244133Y034728
X242387Y038862
X244133Y038792
X248959Y041713
X248197Y006280
X248197Y002216
X248197Y010344
X248197Y014408
X248197Y018472
X248197Y022536
X246451Y006350
X246451Y002286
X246451Y010414
X246451Y014478
X246451Y018542
X246451Y022606
X246451Y026670
X248197Y026600
X246451Y030734
X248197Y030664
X246451Y034798
X248197Y034728
X246451Y038862
X248197Y038792
X253023Y041713
X252261Y006280
X252261Y002216
X252261Y010344
X252261Y014408
X252261Y018472
X252261Y022536
X250515Y006350
X250515Y002286
X250515Y010414
X250515Y014478
X250515Y018542
X250515Y022606
X250515Y026670
X252261Y026600
X250515Y030734
X252261Y030664
X250515Y034798
X252261Y034728
X250515Y038862
X252261Y038792
X257087Y041713
X256325Y006280
X256325Y002216
X256325Y010344
X256325Y014408
X256325Y018472
X256325Y022536
X254579Y006350
X254579Y002286
X254579Y010414
X254579Y014478
X254579Y018542
X254579Y022606
X254579Y026670
X256325Y026600
X254579Y030734
X256325Y030664
X254579Y034798
X256325Y034728
X254579Y038862
X256325Y038792
X261151Y041713
X260389Y006280
X260389Y002216
X260389Y010344
X260389Y014408
X260389Y018472
X260389Y022536
X258643Y006350
X258643Y002286
X258643Y010414
X258643Y014478
X258643Y018542
X258643Y022606
X258643Y026670
X260389Y026600
X258643Y030734
X260389Y030664
X258643Y034798
X260389Y034728
X258643Y038862
X260389Y038792
X265215Y041713
X264453Y006280
X264453Y002216
X264453Y010344
X264453Y014408
X264453Y018472
X264453Y022536
X262707Y006350
X262707Y002286
X262707Y010414
X262707Y014478
X262707Y018542
X262707Y022606
X262707Y026670
X264453Y026600
X262707Y030734
X264453Y030664
X262707Y034798
X264453Y034728
X262707Y038862
X264453Y038792
X269279Y041713
X268517Y006280
X268517Y002216
X268517Y010344
X268517Y014408
X268517Y018472
X268517Y022536
X266771Y006350
X266771Y002286
X266771Y010414
X266771Y014478
X266771Y018542
X266771Y022606
X266771Y026670
X268517Y026600
X266771Y030734
X268517Y030664
X266771Y034798
X268517Y034728
X266771Y038862
X268517Y038792
X273343Y041713
X272581Y006280
X272581Y002216
X272581Y010344
X272581Y014408
X272581Y018472
X272581Y022536
X270835Y006350
X270835Y002286
X270835Y010414
X270835Y014478
X270835Y018542
X270835Y022606
X270835Y026670
X272581Y026600
X270835Y030734
X272581Y030664
X270835Y034798
X272581Y034728
X270835Y038862
X272581Y038792
X277407Y041713
X276645Y006280
X276645Y002216
X276645Y010344
X276645Y014408
X276645Y018472
X276645Y022536
X274899Y006350
X274899Y002286
X274899Y010414
X274899Y014478
X274899Y018542
X274899Y022606
X274899Y026670
X276645Y026600
X274899Y030734
X276645Y030664
X274899Y034798
X276645Y034728
X274899Y038862
X276645Y038792
X281471Y041713
X280709Y006280
X280709Y002216
X280709Y010344
X280709Y014408
X280709Y018472
X280709Y022536
X278963Y006350
X278963Y002286
X278963Y010414
X278963Y014478
X278963Y018542
X278963Y022606
X278963Y026670
X280709Y026600
X278963Y030734
X280709Y030664
X278963Y034798
X280709Y034728
X278963Y038862
X280709Y038792
X285535Y041713
X284773Y006280
X284773Y002216
X284773Y010344
X284773Y014408
X284773Y018472
X284773Y022536
X283027Y006350
X283027Y002286
X283027Y010414
X283027Y014478
X283027Y018542
X283027Y022606
X283027Y026670
X284773Y026600
X283027Y030734
X284773Y030664
X283027Y034798
X284773Y034728
X283027Y038862
X284773Y038792
X289599Y041713
X288837Y006280
X288837Y002216
X288837Y010344
X288837Y014408
X288837Y018472
X288837Y022536
X287091Y006350
X287091Y002286
X287091Y010414
X287091Y014478
X287091Y018542
X287091Y022606
X287091Y026670
X288837Y026600
X287091Y030734
X288837Y030664
X287091Y034798
X288837Y034728
X287091Y038862
X288837Y038792
X293663Y041713
X292901Y006280
X292901Y002216
X292901Y010344
X292901Y014408
X292901Y018472
X292901Y022536
X291155Y006350
X291155Y002286
X291155Y010414
X291155Y014478
X291155Y018542
X291155Y022606
X291155Y026670
X292901Y026600
X291155Y030734
X292901Y030664
X291155Y034798
X292901Y034728
X291155Y038862
X292901Y038792
X297727Y041713
X296965Y006280
X296965Y002216
X296965Y010344
X296965Y014408
X296965Y018472
X296965Y022536
X295219Y006350
X295219Y002286
X295219Y010414
X295219Y014478
X295219Y018542
X295219Y022606
X295219Y026670
X296965Y026600
X295219Y030734
X296965Y030664
X295219Y034798
X296965Y034728
X295219Y038862
X296965Y038792
X301791Y041713
X301029Y006280
X301029Y002216
X301029Y010344
X301029Y014408
X301029Y018472
X301029Y022536
X299283Y006350
X299283Y002286
X299283Y010414
X299283Y014478
X299283Y018542
X299283Y022606
X299283Y026670
X301029Y026600
X299283Y030734
X301029Y030664
X299283Y034798
X301029Y034728
X299283Y038862
X301029Y038792
X305855Y041713
X305093Y006280
X305093Y002216
X305093Y010344
X305093Y014408
X305093Y018472
X305093Y022536
X303347Y006350
X303347Y002286
X303347Y010414
X303347Y014478
X303347Y018542
X303347Y022606
X303347Y026670
X305093Y026600
X303347Y030734
X305093Y030664
X303347Y034798
X305093Y034728
X303347Y038862
X305093Y038792
X309919Y041713
X309157Y006280
X309157Y002216
X309157Y010344
X309157Y014408
X309157Y018472
X309157Y022536
X307411Y006350
X307411Y002286
X307411Y010414
X307411Y014478
X307411Y018542
X307411Y022606
X307411Y026670
X309157Y026600
X307411Y030734
X309157Y030664
X307411Y034798
X309157Y034728
X307411Y038862
X309157Y038792
X313983Y041713
X313221Y006280
X313221Y002216
X313221Y010344
X313221Y014408
X313221Y018472
X313221Y022536
X311475Y006350
X311475Y002286
X311475Y010414
X311475Y014478
X311475Y018542
X311475Y022606
X311475Y026670
X313221Y026600
X311475Y030734
X313221Y030664
X311475Y034798
X313221Y034728
X311475Y038862
X313221Y038792
X318047Y041713
X317285Y006280
X317285Y002216
X317285Y010344
X317285Y014408
X317285Y018472
X317285Y022536
X315539Y006350
X315539Y002286
X315539Y010414
X315539Y014478
X315539Y018542
X315539Y022606
X315539Y026670
X317285Y026600
X315539Y030734
X317285Y030664
X315539Y034798
X317285Y034728
X315539Y038862
X317285Y038792
X322111Y041713
X321349Y006280
X321349Y002216
X321349Y010344
X321349Y014408
X321349Y018472
X321349Y022536
X319603Y006350
X319603Y002286
X319603Y010414
X319603Y014478
X319603Y018542
X319603Y022606
X319603Y026670
X321349Y026600
X319603Y030734
X321349Y030664
X319603Y034798
X321349Y034728
X319603Y038862
X321349Y038792
X326175Y041713
X325413Y006280
X325413Y002216
X325413Y010344
X325413Y014408
X325413Y018472
X325413Y022536
X323667Y006350
X323667Y002286
X323667Y010414
X323667Y014478
X323667Y018542
X323667Y022606
X323667Y026670
X325413Y026600
X323667Y030734
X325413Y030664
X323667Y034798
X325413Y034728
X323667Y038862
X325413Y038792
X330239Y041713
X329477Y006280
X329477Y002216
X329477Y010344
X329477Y014408
X329477Y018472
X329477Y022536
X327731Y006350
X327731Y002286
X327731Y010414
X327731Y014478
X327731Y018542
X327731Y022606
X327731Y026670
X329477Y026600
X327731Y030734
X329477Y030664
X327731Y034798
X329477Y034728
X327731Y038862
X329477Y038792
X334303Y041713
X333541Y006280
X333541Y002216
X333541Y010344
X333541Y014408
X333541Y018472
X333541Y022536
X331795Y006350
X331795Y002286
X331795Y010414
X331795Y014478
X331795Y018542
X331795Y022606
X331795Y026670
X333541Y026600
X331795Y030734
X333541Y030664
X331795Y034798
X333541Y034728
X331795Y038862
X333541Y038792
X338367Y041713
X337605Y006280
X337605Y002216
X337605Y010344
X337605Y014408
X337605Y018472
X337605Y022536
X335859Y006350
X335859Y002286
X335859Y010414
X335859Y014478
X335859Y018542
X335859Y022606
X335859Y026670
X337605Y026600
X335859Y030734
X337605Y030664
X335859Y034798
X337605Y034728
X335859Y038862
X337605Y038792
X342431Y041713
X341669Y006280
X341669Y002216
X341669Y010344
X341669Y014408
X341669Y018472
X341669Y022536
X339923Y006350
X339923Y002286
X339923Y010414
X339923Y014478
X339923Y018542
X339923Y022606
X339923Y026670
X341669Y026600
X339923Y030734
X341669Y030664
X339923Y034798
X341669Y034728
X339923Y038862
X341669Y038792
X346495Y041713
X345733Y006280
X345733Y002216
X345733Y010344
X345733Y014408
X345733Y018472
X345733Y022536
X343987Y006350
X343987Y002286
X343987Y010414
X343987Y014478
X343987Y018542
X343987Y022606
X343987Y026670
X345733Y026600
X343987Y030734
X345733Y030664
X343987Y034798
X345733Y034728
X343987Y038862
X345733Y038792
X350559Y041713
X349797Y006280
X349797Y002216
X349797Y010344
X349797Y014408
X349797Y018472
X349797Y022536
X348051Y006350
X348051Y002286
X348051Y010414
X348051Y014478
X348051Y018542
X348051Y022606
X348051Y026670
X349797Y026600
X348051Y030734
X349797Y030664
X348051Y034798
X349797Y034728
X348051Y038862
X349797Y038792
X354623Y041713
X353861Y006280
X353861Y002216
X353861Y010344
X353861Y014408
X353861Y018472
X353861Y022536
X352115Y006350
X352115Y002286
X352115Y010414
X352115Y014478
X352115Y018542
X352115Y022606
X352115Y026670
X353861Y026600
X352115Y030734
X353861Y030664
X352115Y034798
X353861Y034728
X352115Y038862
X353861Y038792
X358687Y041713
X357925Y006280
X357925Y002216
X357925Y010344
X357925Y014408
X357925Y018472
X357925Y022536
X356179Y006350
X356179Y002286
X356179Y010414
X356179Y014478
X356179Y018542
X356179Y022606
X356179Y026670
X357925Y026600
X356179Y030734
X357925Y030664
X356179Y034798
X357925Y034728
X356179Y038862
X357925Y038792
X362751Y041713
X361989Y006280
X361989Y002216
X361989Y010344
X361989Y014408
X361989Y018472
X361989Y022536
X360243Y006350
X360243Y002286
X360243Y010414
X360243Y014478
X360243Y018542
X360243Y022606
X360243Y026670
X361989Y026600
X360243Y030734
X361989Y030664
X360243Y034798
X361989Y034728
X360243Y038862
X361989Y038792
X366815Y041713
X366053Y006280
X366053Y002216
X366053Y010344
X366053Y014408
X366053Y018472
X366053Y022536
X364307Y006350
X364307Y002286
X364307Y010414
X364307Y014478
X364307Y018542
X364307Y022606
X364307Y026670
X366053Y026600
X364307Y030734
X366053Y030664
X364307Y034798
X366053Y034728
X364307Y038862
X366053Y038792
X370879Y041713
X370117Y006280
X370117Y002216
X370117Y010344
X370117Y014408
X370117Y018472
X370117Y022536
X368371Y006350
X368371Y002286
X368371Y010414
X368371Y014478
X368371Y018542
X368371Y022606
X368371Y026670
X370117Y026600
X368371Y030734
X370117Y030664
X368371Y034798
X370117Y034728
X368371Y038862
X370117Y038792
X374943Y041713
X374181Y006280
X374181Y002216
X374181Y010344
X374181Y014408
X374181Y018472
X374181Y022536
X372435Y006350
X372435Y002286
X372435Y010414
X372435Y014478
X372435Y018542
X372435Y022606
X372435Y026670
X374181Y026600
X372435Y030734
X374181Y030664
X372435Y034798
X374181Y034728
X372435Y038862
X374181Y038792
X379007Y041713
X378245Y006280
X378245Y002216
X378245Y010344
X378245Y014408
X378245Y018472
X378245Y022536
X376499Y006350
X376499Y002286
X376499Y010414
X376499Y014478
X376499Y018542
X376499Y022606
X376499Y026670
X378245Y026600
X376499Y030734
X378245Y030664
X376499Y034798
X378245Y034728
X376499Y038862
X378245Y038792
X383071Y041713
X382309Y006280
X382309Y002216
X382309Y010344
X382309Y014408
X382309Y018472
X382309Y022536
X380563Y006350
X380563Y002286
X380563Y010414
X380563Y014478
X380563Y018542
X380563Y022606
X380563Y026670
X382309Y026600
X380563Y030734
X382309Y030664
X380563Y034798
X382309Y034728
X380563Y038862
X382309Y038792
X387135Y041713
X386373Y006280
X386373Y002216
X386373Y010344
X386373Y014408
X386373Y018472
X386373Y022536
X384627Y006350
X384627Y002286
X384627Y010414
X384627Y014478
X384627Y018542
X384627Y022606
X384627Y026670
X386373Y026600
X384627Y030734
X386373Y030664
X384627Y034798
X386373Y034728
X384627Y038862
X386373Y038792
X391199Y041713
X390437Y006280
X390437Y002216
X390437Y010344
X390437Y014408
X390437Y018472
X390437Y022536
X388691Y006350
X388691Y002286
X388691Y010414
X388691Y014478
X388691Y018542
X388691Y022606
X388691Y026670
X390437Y026600
X388691Y030734
X390437Y030664
X388691Y034798
X390437Y034728
X388691Y038862
X390437Y038792
X395263Y041713
X394501Y006280
X394501Y002216
X394501Y010344
X394501Y014408
X394501Y018472
X394501Y022536
X392755Y006350
X392755Y002286
X392755Y010414
X392755Y014478
X392755Y018542
X392755Y022606
X392755Y026670
X394501Y026600
X392755Y030734
X394501Y030664
X392755Y034798
X394501Y034728
X392755Y038862
X394501Y038792
X399327Y041713
X398565Y006280
X398565Y002216
X398565Y010344
X398565Y014408
X398565Y018472
X398565Y022536
X396819Y006350
X396819Y002286
X396819Y010414
X396819Y014478
X396819Y018542
X396819Y022606
X396819Y026670
X398565Y026600
X396819Y030734
X398565Y030664
X396819Y034798
X398565Y034728
X396819Y038862
X398565Y038792
X403391Y041713
X402629Y006280
X402629Y002216
X402629Y010344
X402629Y014408
X402629Y018472
X402629Y022536
X400883Y006350
X400883Y002286
X400883Y010414
X400883Y014478
X400883Y018542
X400883Y022606
X400883Y026670
X402629Y026600
X400883Y030734
X402629Y030664
X400883Y034798
X402629Y034728
X400883Y038862
X402629Y038792
X407455Y041713
X406693Y006280
X406693Y002216
X406693Y010344
X406693Y014408
X406693Y018472
X406693Y022536
X404947Y006350
X404947Y002286
X404947Y010414
X404947Y014478
X404947Y018542
X404947Y022606
X404947Y026670
X406693Y026600
X404947Y030734
X406693Y030664
X404947Y034798
X406693Y034728
X404947Y038862
X406693Y038792
X411519Y041713
X410757Y006280
X410757Y002216
X410757Y010344
X410757Y014408
X410757Y018472
X410757Y022536
X409011Y006350
X409011Y002286
X409011Y010414
X409011Y014478
X409011Y018542
X409011Y022606
X409011Y026670
X410757Y026600
X409011Y030734
X410757Y030664
X409011Y034798
X410757Y034728
X409011Y038862
X410757Y038792
X415583Y041713
X414821Y006280
X414821Y002216
X414821Y010344
X414821Y014408
X414821Y018472
X414821Y022536
X413075Y006350
X413075Y002286
X413075Y010414
X413075Y014478
X413075Y018542
X413075Y022606
X413075Y026670
X414821Y026600
X413075Y030734
X414821Y030664
X413075Y034798
X414821Y034728
X413075Y038862
X414821Y038792
X419647Y041713
X418885Y006280
X418885Y002216
X418885Y010344
X418885Y014408
X418885Y018472
X418885Y022536
X417139Y006350
X417139Y002286
X417139Y010414
X417139Y014478
X417139Y018542
X417139Y022606
X417139Y026670
X418885Y026600
X417139Y030734
X418885Y030664
X417139Y034798
X418885Y034728
X417139Y038862
X418885Y038792
X423711Y041713
X422949Y006280
X422949Y002216
X422949Y010344
X422949Y014408
X422949Y018472
X422949Y022536
X421203Y006350
X421203Y002286
X421203Y010414
X421203Y014478
X421203Y018542
X421203Y022606
X421203Y026670
X422949Y026600
X421203Y030734
X422949Y030664
X421203Y034798
X422949Y034728
X421203Y038862
X422949Y038792
X427775Y041713
X427013Y006280
X427013Y002216
X427013Y010344
X427013Y014408
X427013Y018472
X427013Y022536
X425267Y006350
X425267Y002286
X425267Y010414
X425267Y014478
X425267Y018542
X425267Y022606
X425267Y026670
X427013Y026600
X425267Y030734
X427013Y030664
X425267Y034798
X427013Y034728
X425267Y038862
X427013Y038792
X431839Y041713
X431077Y006280
X431077Y002216
X431077Y010344
X431077Y014408
X431077Y018472
X431077Y022536
X429331Y006350
X429331Y002286
X429331Y010414
X429331Y014478
X429331Y018542
X429331Y022606
X429331Y026670
X431077Y026600
X429331Y030734
X431077Y030664
X429331Y034798
X431077Y034728
X429331Y038862
X431077Y038792
X435903Y041713
X435141Y006280
X435141Y002216
X435141Y010344
X435141Y014408
X435141Y018472
X435141Y022536
X433395Y006350
X433395Y002286
X433395Y010414
X433395Y014478
X433395Y018542
X433395Y022606
X433395Y026670
X435141Y026600
X433395Y030734
X435141Y030664
X433395Y034798
X435141Y034728
X433395Y038862
X435141Y038792
X439967Y041713
X439205Y006280
X439205Y002216
X439205Y010344
X439205Y014408
X439205Y018472
X439205Y022536
X437459Y006350
X437459Y002286
X437459Y010414
X437459Y014478
X437459Y018542
X437459Y022606
X437459Y026670
X439205Y026600
X437459Y030734
X439205Y030664
X437459Y034798
X439205Y034728
X437459Y038862
X439205Y038792
X443269Y038792
X441523Y038862
X443269Y034728
X441523Y034798
X443269Y030664
X441523Y030734
X443269Y026600
X441523Y026670
X441523Y022606
X441523Y018542
X441523Y014478
X441523Y010414
X441523Y002286
X441523Y006350
X443269Y022536
X443269Y018472
X443269Y014408
X443269Y010344
X443269Y002216
X443269Y006280
X444031Y041713
X239395Y001143
X246507Y043561
M30
