G04 Layer: BottomLayer*
G04 EasyEDA v6.5.34, 2023-08-21 18:11:39*
G04 5c87355bc908427197e19914ae2d944d,5a6b42c53f6a479593ecc07194224c93,10*
G04 Gerber Generator version 0.2*
G04 Scale: 100 percent, Rotated: No, Reflected: No *
G04 Dimensions in millimeters *
G04 leading zeros omitted , absolute positions ,4 integer and 5 decimal *
%FSLAX45Y45*%
%MOMM*%

%ADD10C,3.0000*%

%LPD*%
G36*
X40930068Y25908D02*
G01*
X40926156Y26670D01*
X40922905Y28905D01*
X40920670Y32156D01*
X40919908Y36068D01*
X40919908Y484632D01*
X40920670Y488543D01*
X40922905Y491794D01*
X40926156Y494030D01*
X40930068Y494792D01*
X41464941Y494792D01*
X41471240Y495503D01*
X41476726Y497433D01*
X41481603Y500481D01*
X41485718Y504596D01*
X41488766Y509473D01*
X41490696Y514959D01*
X41491408Y521258D01*
X41491408Y1155141D01*
X41490696Y1161440D01*
X41488766Y1166926D01*
X41485718Y1171803D01*
X41481603Y1175918D01*
X41476726Y1178966D01*
X41471240Y1180896D01*
X41464941Y1181608D01*
X40930068Y1181608D01*
X40926156Y1182370D01*
X40922905Y1184605D01*
X40920670Y1187856D01*
X40919908Y1191768D01*
X40919908Y2300732D01*
X40920670Y2304643D01*
X40922905Y2307894D01*
X40926156Y2310130D01*
X40930068Y2310892D01*
X41464941Y2310892D01*
X41471240Y2311603D01*
X41476726Y2313533D01*
X41481603Y2316581D01*
X41485718Y2320696D01*
X41488766Y2325573D01*
X41490696Y2331059D01*
X41491408Y2337358D01*
X41491408Y2971241D01*
X41490696Y2977540D01*
X41488766Y2983026D01*
X41485718Y2987903D01*
X41481603Y2992018D01*
X41476726Y2995066D01*
X41471240Y2996996D01*
X41464941Y2997708D01*
X40930068Y2997708D01*
X40926156Y2998470D01*
X40922905Y3000705D01*
X40920670Y3003956D01*
X40919908Y3007868D01*
X40919908Y4408932D01*
X40920670Y4412843D01*
X40922905Y4416094D01*
X40926156Y4418330D01*
X40930068Y4419092D01*
X41797173Y4419092D01*
X41801542Y4418126D01*
X41805047Y4415383D01*
X41807028Y4411421D01*
X41807130Y4406950D01*
X41805352Y4402886D01*
X41801948Y4399991D01*
X41794074Y4395774D01*
X41785743Y4390186D01*
X41777970Y4383786D01*
X41770909Y4376623D01*
X41764559Y4368800D01*
X41759022Y4360418D01*
X41754348Y4351477D01*
X41750589Y4342130D01*
X41747795Y4332528D01*
X41745966Y4322622D01*
X41745154Y4312615D01*
X41745306Y4302506D01*
X41746474Y4292498D01*
X41748659Y4282694D01*
X41751758Y4273143D01*
X41755822Y4263948D01*
X41760800Y4255211D01*
X41766591Y4246981D01*
X41773195Y4239412D01*
X41780510Y4232503D01*
X41788486Y4226356D01*
X41797020Y4221022D01*
X41806063Y4216603D01*
X41815461Y4213098D01*
X41825164Y4210507D01*
X41835120Y4208932D01*
X41846246Y4208322D01*
X42070070Y4208424D01*
X42080230Y4209389D01*
X42090086Y4211269D01*
X42099738Y4214164D01*
X42109034Y4217974D01*
X42117873Y4222750D01*
X42126255Y4228338D01*
X42134028Y4234738D01*
X42141089Y4241901D01*
X42147439Y4249674D01*
X42152925Y4258106D01*
X42157599Y4266996D01*
X42161358Y4276344D01*
X42164152Y4285996D01*
X42165981Y4295851D01*
X42166844Y4305909D01*
X42166641Y4315968D01*
X42165473Y4325975D01*
X42163339Y4335780D01*
X42160190Y4345330D01*
X42156126Y4354525D01*
X42151198Y4363313D01*
X42145356Y4371492D01*
X42138803Y4379112D01*
X42131437Y4386021D01*
X42123512Y4392168D01*
X42114978Y4397451D01*
X42110152Y4399838D01*
X42106646Y4402632D01*
X42104716Y4406747D01*
X42104767Y4411218D01*
X42106697Y4415282D01*
X42110253Y4418076D01*
X42114622Y4419092D01*
X46191932Y4419092D01*
X46195843Y4418330D01*
X46199094Y4416094D01*
X46201330Y4412843D01*
X46202092Y4408932D01*
X46202092Y36068D01*
X46201330Y32156D01*
X46199094Y28905D01*
X46195843Y26670D01*
X46191932Y25908D01*
G37*

%LPC*%
G36*
X41643858Y164592D02*
G01*
X44563741Y164592D01*
X44570040Y165303D01*
X44575526Y167233D01*
X44580403Y170281D01*
X44584518Y174396D01*
X44587566Y179273D01*
X44589496Y184759D01*
X44590208Y191058D01*
X44590208Y1119632D01*
X44590970Y1123543D01*
X44593205Y1126794D01*
X44596456Y1129030D01*
X44600368Y1129792D01*
X45630541Y1129792D01*
X45636840Y1130503D01*
X45642326Y1132433D01*
X45647203Y1135481D01*
X45651318Y1139596D01*
X45654366Y1144473D01*
X45656296Y1149959D01*
X45657008Y1156258D01*
X45657008Y3301441D01*
X45656296Y3307740D01*
X45654366Y3313226D01*
X45651318Y3318103D01*
X45647203Y3322218D01*
X45642326Y3325266D01*
X45636840Y3327196D01*
X45630541Y3327908D01*
X44600368Y3327908D01*
X44596456Y3328670D01*
X44593205Y3330905D01*
X44590970Y3334156D01*
X44590208Y3338068D01*
X44590208Y4063441D01*
X44589496Y4069740D01*
X44587566Y4075226D01*
X44584518Y4080103D01*
X44580403Y4084218D01*
X44575526Y4087266D01*
X44570040Y4089196D01*
X44563741Y4089908D01*
X41554958Y4089908D01*
X41548659Y4089196D01*
X41543173Y4087266D01*
X41538296Y4084218D01*
X41534181Y4080103D01*
X41531133Y4075226D01*
X41529203Y4069740D01*
X41528492Y4063441D01*
X41528492Y3607358D01*
X41529203Y3601059D01*
X41531133Y3595573D01*
X41534181Y3590696D01*
X41538296Y3586581D01*
X41543173Y3583533D01*
X41548659Y3581603D01*
X41554958Y3580892D01*
X41607232Y3580892D01*
X41611143Y3580129D01*
X41614394Y3577894D01*
X41616630Y3574643D01*
X41617392Y3570732D01*
X41617392Y191058D01*
X41618103Y184759D01*
X41620033Y179273D01*
X41623081Y174396D01*
X41627196Y170281D01*
X41632073Y167233D01*
X41637559Y165303D01*
G37*

%LPD*%
D10*
G01*
X45466000Y635000D03*
G01*
X45466000Y3810000D03*
M02*
