G04 Layer: BoardOutlineLayer*
G04 EasyEDA v6.5.34, 2023-08-21 18:11:39*
G04 5c87355bc908427197e19914ae2d944d,5a6b42c53f6a479593ecc07194224c93,10*
G04 Gerber Generator version 0.2*
G04 Scale: 100 percent, Rotated: No, Reflected: No *
G04 Dimensions in millimeters *
G04 leading zeros omitted , absolute positions ,4 integer and 5 decimal *
%FSLAX45Y45*%
%MOMM*%

%ADD10C,0.2540*%
D10*
X40894000Y4445000D02*
G01*
X46228000Y4445000D01*
X46228000Y0D01*
X40894000Y0D01*
X40894000Y4445000D01*
X42069727Y4384154D02*
G01*
X42065989Y4384248D01*
X42065989Y4384248D02*
G01*
X41845989Y4384248D01*
X41845989Y4384248D02*
G01*
X41842250Y4384154D01*
X41842250Y4384154D02*
G01*
X41838521Y4383874D01*
X41838521Y4383874D02*
G01*
X41834810Y4383410D01*
X41834810Y4383410D02*
G01*
X41831127Y4382762D01*
X41831127Y4382762D02*
G01*
X41827483Y4381929D01*
X41827483Y4381929D02*
G01*
X41823881Y4380915D01*
X41823881Y4380915D02*
G01*
X41820338Y4379724D01*
X41820338Y4379724D02*
G01*
X41816855Y4378358D01*
X41816855Y4378358D02*
G01*
X41813446Y4376821D01*
X41813446Y4376821D02*
G01*
X41810119Y4375114D01*
X41810119Y4375114D02*
G01*
X41806881Y4373245D01*
X41806881Y4373245D02*
G01*
X41803739Y4371215D01*
X41803739Y4371215D02*
G01*
X41800703Y4369033D01*
X41800703Y4369033D02*
G01*
X41797780Y4366701D01*
X41797780Y4366701D02*
G01*
X41794976Y4364228D01*
X41794976Y4364228D02*
G01*
X41792298Y4361616D01*
X41792298Y4361616D02*
G01*
X41789753Y4358873D01*
X41789753Y4358873D02*
G01*
X41787351Y4356008D01*
X41787351Y4356008D02*
G01*
X41785092Y4353029D01*
X41785092Y4353029D02*
G01*
X41782987Y4349937D01*
X41782987Y4349937D02*
G01*
X41781036Y4346747D01*
X41781036Y4346747D02*
G01*
X41779248Y4343463D01*
X41779248Y4343463D02*
G01*
X41777625Y4340092D01*
X41777625Y4340092D02*
G01*
X41776172Y4336648D01*
X41776172Y4336648D02*
G01*
X41774894Y4333133D01*
X41774894Y4333133D02*
G01*
X41773792Y4329559D01*
X41773792Y4329559D02*
G01*
X41772867Y4325937D01*
X41772867Y4325937D02*
G01*
X41772128Y4322269D01*
X41772128Y4322269D02*
G01*
X41771570Y4318574D01*
X41771570Y4318574D02*
G01*
X41771199Y4314852D01*
X41771199Y4314852D02*
G01*
X41771011Y4311116D01*
X41771011Y4311116D02*
G01*
X41771011Y4307377D01*
X41771011Y4307377D02*
G01*
X41771199Y4303641D01*
X41771199Y4303641D02*
G01*
X41771570Y4299920D01*
X41771570Y4299920D02*
G01*
X41772128Y4296224D01*
X41772128Y4296224D02*
G01*
X41772867Y4292556D01*
X41772867Y4292556D02*
G01*
X41773792Y4288934D01*
X41773792Y4288934D02*
G01*
X41774894Y4285361D01*
X41774894Y4285361D02*
G01*
X41776172Y4281845D01*
X41776172Y4281845D02*
G01*
X41777625Y4278401D01*
X41777625Y4278401D02*
G01*
X41779248Y4275030D01*
X41779248Y4275030D02*
G01*
X41781036Y4271746D01*
X41781036Y4271746D02*
G01*
X41782987Y4268556D01*
X41782987Y4268556D02*
G01*
X41785092Y4265465D01*
X41785092Y4265465D02*
G01*
X41787351Y4262485D01*
X41787351Y4262485D02*
G01*
X41789753Y4259620D01*
X41789753Y4259620D02*
G01*
X41792298Y4256877D01*
X41792298Y4256877D02*
G01*
X41794976Y4254266D01*
X41794976Y4254266D02*
G01*
X41797780Y4251792D01*
X41797780Y4251792D02*
G01*
X41800703Y4249460D01*
X41800703Y4249460D02*
G01*
X41803739Y4247278D01*
X41803739Y4247278D02*
G01*
X41806881Y4245249D01*
X41806881Y4245249D02*
G01*
X41810119Y4243379D01*
X41810119Y4243379D02*
G01*
X41813446Y4241672D01*
X41813446Y4241672D02*
G01*
X41816855Y4240136D01*
X41816855Y4240136D02*
G01*
X41820338Y4238769D01*
X41820338Y4238769D02*
G01*
X41823881Y4237578D01*
X41823881Y4237578D02*
G01*
X41827483Y4236565D01*
X41827483Y4236565D02*
G01*
X41831127Y4235731D01*
X41831127Y4235731D02*
G01*
X41834810Y4235084D01*
X41834810Y4235084D02*
G01*
X41838521Y4234619D01*
X41838521Y4234619D02*
G01*
X41842250Y4234340D01*
X41842250Y4234340D02*
G01*
X41845989Y4234246D01*
X41845989Y4234246D02*
G01*
X42065989Y4234246D01*
X42065989Y4234246D02*
G01*
X42069727Y4234340D01*
X42069727Y4234340D02*
G01*
X42073456Y4234619D01*
X42073456Y4234619D02*
G01*
X42077167Y4235084D01*
X42077167Y4235084D02*
G01*
X42080850Y4235731D01*
X42080850Y4235731D02*
G01*
X42084495Y4236565D01*
X42084495Y4236565D02*
G01*
X42088097Y4237578D01*
X42088097Y4237578D02*
G01*
X42091640Y4238769D01*
X42091640Y4238769D02*
G01*
X42095122Y4240136D01*
X42095122Y4240136D02*
G01*
X42098531Y4241672D01*
X42098531Y4241672D02*
G01*
X42101858Y4243379D01*
X42101858Y4243379D02*
G01*
X42105097Y4245249D01*
X42105097Y4245249D02*
G01*
X42108239Y4247278D01*
X42108239Y4247278D02*
G01*
X42111274Y4249460D01*
X42111274Y4249460D02*
G01*
X42114198Y4251792D01*
X42114198Y4251792D02*
G01*
X42117002Y4254266D01*
X42117002Y4254266D02*
G01*
X42119679Y4256877D01*
X42119679Y4256877D02*
G01*
X42122224Y4259620D01*
X42122224Y4259620D02*
G01*
X42124627Y4262485D01*
X42124627Y4262485D02*
G01*
X42126885Y4265465D01*
X42126885Y4265465D02*
G01*
X42128991Y4268556D01*
X42128991Y4268556D02*
G01*
X42130941Y4271746D01*
X42130941Y4271746D02*
G01*
X42132730Y4275030D01*
X42132730Y4275030D02*
G01*
X42134353Y4278401D01*
X42134353Y4278401D02*
G01*
X42135806Y4281845D01*
X42135806Y4281845D02*
G01*
X42137083Y4285361D01*
X42137083Y4285361D02*
G01*
X42138185Y4288934D01*
X42138185Y4288934D02*
G01*
X42139110Y4292556D01*
X42139110Y4292556D02*
G01*
X42139849Y4296224D01*
X42139849Y4296224D02*
G01*
X42140408Y4299920D01*
X42140408Y4299920D02*
G01*
X42140779Y4303641D01*
X42140779Y4303641D02*
G01*
X42140967Y4307377D01*
X42140967Y4307377D02*
G01*
X42140967Y4311116D01*
X42140967Y4311116D02*
G01*
X42140779Y4314852D01*
X42140779Y4314852D02*
G01*
X42140408Y4318574D01*
X42140408Y4318574D02*
G01*
X42139849Y4322269D01*
X42139849Y4322269D02*
G01*
X42139110Y4325937D01*
X42139110Y4325937D02*
G01*
X42138185Y4329559D01*
X42138185Y4329559D02*
G01*
X42137083Y4333133D01*
X42137083Y4333133D02*
G01*
X42135806Y4336648D01*
X42135806Y4336648D02*
G01*
X42134353Y4340092D01*
X42134353Y4340092D02*
G01*
X42132730Y4343463D01*
X42132730Y4343463D02*
G01*
X42130941Y4346747D01*
X42130941Y4346747D02*
G01*
X42128991Y4349937D01*
X42128991Y4349937D02*
G01*
X42126885Y4353029D01*
X42126885Y4353029D02*
G01*
X42124627Y4356008D01*
X42124627Y4356008D02*
G01*
X42122224Y4358873D01*
X42122224Y4358873D02*
G01*
X42119679Y4361616D01*
X42119679Y4361616D02*
G01*
X42117002Y4364228D01*
X42117002Y4364228D02*
G01*
X42114198Y4366701D01*
X42114198Y4366701D02*
G01*
X42111274Y4369033D01*
X42111274Y4369033D02*
G01*
X42108239Y4371215D01*
X42108239Y4371215D02*
G01*
X42105097Y4373245D01*
X42105097Y4373245D02*
G01*
X42101858Y4375114D01*
X42101858Y4375114D02*
G01*
X42098531Y4376821D01*
X42098531Y4376821D02*
G01*
X42095122Y4378358D01*
X42095122Y4378358D02*
G01*
X42091640Y4379724D01*
X42091640Y4379724D02*
G01*
X42088097Y4380915D01*
X42088097Y4380915D02*
G01*
X42084495Y4381929D01*
X42084495Y4381929D02*
G01*
X42080850Y4382762D01*
X42080850Y4382762D02*
G01*
X42077167Y4383410D01*
X42077167Y4383410D02*
G01*
X42073456Y4383874D01*
X42073456Y4383874D02*
G01*
X42069727Y4384154D01*
X41554400Y4064000D02*
G01*
X44564300Y4064000D01*
X44564300Y4064000D02*
G01*
X44564300Y3302000D01*
X44564300Y3302000D02*
G01*
X45631100Y3302000D01*
X45631100Y3302000D02*
G01*
X45631100Y1155700D01*
X45631100Y1155700D02*
G01*
X44564300Y1155700D01*
X44564300Y1155700D02*
G01*
X44564300Y190500D01*
X44564300Y190500D02*
G01*
X41643300Y190500D01*
X41643300Y190500D02*
G01*
X41643300Y3606800D01*
X41643300Y3606800D02*
G01*
X41554400Y3606800D01*
X41554400Y3606800D02*
G01*
X41554400Y4064000D01*
X40881300Y2971800D02*
G01*
X40881300Y2336800D01*
X40881300Y2336800D02*
G01*
X41465500Y2336800D01*
X41465500Y2336800D02*
G01*
X41465500Y2971800D01*
X41465500Y2971800D02*
G01*
X40881300Y2971800D01*
X40881300Y1155700D02*
G01*
X40881300Y520700D01*
X40881300Y520700D02*
G01*
X41465500Y520700D01*
X41465500Y520700D02*
G01*
X41465500Y1155700D01*
X41465500Y1155700D02*
G01*
X40881300Y1155700D01*

%LPD*%
M02*
