G04 Layer: BottomLayer*
G04 EasyEDA v6.5.29, 2023-07-18 16:12:35*
G04 d5bba3988b1a441daab3a782034997f9,5a6b42c53f6a479593ecc07194224c93,10*
G04 Gerber Generator version 0.2*
G04 Scale: 100 percent, Rotated: No, Reflected: No *
G04 Dimensions in millimeters *
G04 leading zeros omitted , absolute positions ,4 integer and 5 decimal *
%FSLAX45Y45*%
%MOMM*%

%AMMACRO1*21,1,$1,$2,0,0,$3*%
%ADD10C,0.2540*%
%ADD11C,1.8000*%
%ADD12MACRO1,1.8X1.8X90.0000*%
%ADD13C,3.0000*%
%ADD14C,0.6096*%
%ADD15C,0.0124*%

%LPD*%
G36*
X2068068Y25908D02*
G01*
X2064156Y26670D01*
X2060905Y28905D01*
X2058670Y32156D01*
X2057907Y36068D01*
X2057907Y4408932D01*
X2058670Y4412843D01*
X2060905Y4416094D01*
X2064156Y4418330D01*
X2068068Y4419092D01*
X46191932Y4419092D01*
X46195843Y4418330D01*
X46199094Y4416094D01*
X46201330Y4412843D01*
X46202092Y4408932D01*
X46202092Y36068D01*
X46201330Y32156D01*
X46199094Y28905D01*
X46195843Y26670D01*
X46191932Y25908D01*
G37*

%LPC*%
G36*
X45351039Y1600200D02*
G01*
X45453300Y1600200D01*
X45453300Y1702562D01*
X45451471Y1702460D01*
X45437196Y1699717D01*
X45423328Y1695246D01*
X45410170Y1689049D01*
X45397877Y1681225D01*
X45386701Y1671980D01*
X45376693Y1661363D01*
X45368159Y1649577D01*
X45361148Y1636826D01*
X45355814Y1623314D01*
X45352157Y1609191D01*
G37*
G36*
X45290740Y3822700D02*
G01*
X45453300Y3822700D01*
X45453300Y3985412D01*
X45434453Y3983024D01*
X45416825Y3978910D01*
X45399756Y3972915D01*
X45383348Y3965244D01*
X45367803Y3955948D01*
X45353325Y3945077D01*
X45340016Y3932783D01*
X45328078Y3919169D01*
X45317562Y3904386D01*
X45308672Y3888638D01*
X45301408Y3872026D01*
X45295921Y3854805D01*
X45292213Y3837076D01*
G37*
G36*
X2781300Y459587D02*
G01*
X2781300Y622300D01*
X2618740Y622300D01*
X2620213Y607923D01*
X2623921Y590194D01*
X2629408Y572973D01*
X2636672Y556361D01*
X2645562Y540613D01*
X2656078Y525830D01*
X2668016Y512216D01*
X2681325Y499922D01*
X2695803Y489051D01*
X2711348Y479755D01*
X2727756Y472084D01*
X2744825Y466090D01*
X2762453Y461975D01*
G37*
G36*
X45453300Y459587D02*
G01*
X45453300Y622300D01*
X45290740Y622300D01*
X45292213Y607923D01*
X45295921Y590194D01*
X45301408Y572973D01*
X45308672Y556361D01*
X45317562Y540613D01*
X45328078Y525830D01*
X45340016Y512216D01*
X45353325Y499922D01*
X45367803Y489051D01*
X45383348Y479755D01*
X45399756Y472084D01*
X45416825Y466090D01*
X45434453Y461975D01*
G37*
G36*
X45478700Y459790D02*
G01*
X45488606Y460552D01*
X45506386Y463804D01*
X45523810Y468884D01*
X45540574Y475691D01*
X45556525Y484225D01*
X45571562Y494334D01*
X45585481Y505917D01*
X45598130Y518871D01*
X45609357Y533095D01*
X45619060Y548386D01*
X45627188Y564540D01*
X45633538Y581507D01*
X45638161Y599033D01*
X45640955Y616915D01*
X45641260Y622300D01*
X45478700Y622300D01*
G37*
G36*
X2806700Y459790D02*
G01*
X2816606Y460552D01*
X2834386Y463804D01*
X2851810Y468884D01*
X2868574Y475691D01*
X2884525Y484225D01*
X2899562Y494334D01*
X2913481Y505917D01*
X2926130Y518871D01*
X2937357Y533095D01*
X2947060Y548386D01*
X2955188Y564540D01*
X2961538Y581507D01*
X2966161Y599033D01*
X2968955Y616915D01*
X2969260Y622300D01*
X2806700Y622300D01*
G37*
G36*
X45478700Y647700D02*
G01*
X45641260Y647700D01*
X45640955Y653084D01*
X45638161Y670966D01*
X45633538Y688492D01*
X45627188Y705459D01*
X45619060Y721614D01*
X45609357Y736904D01*
X45598130Y751128D01*
X45585481Y764082D01*
X45571562Y775665D01*
X45556525Y785774D01*
X45540574Y794308D01*
X45523810Y801116D01*
X45506386Y806196D01*
X45488606Y809447D01*
X45478700Y810209D01*
G37*
G36*
X2806700Y647700D02*
G01*
X2969260Y647700D01*
X2968955Y653084D01*
X2966161Y670966D01*
X2961538Y688492D01*
X2955188Y705459D01*
X2947060Y721614D01*
X2937357Y736904D01*
X2926130Y751128D01*
X2913481Y764082D01*
X2899562Y775665D01*
X2884525Y785774D01*
X2868574Y794308D01*
X2851810Y801116D01*
X2834386Y806196D01*
X2816606Y809447D01*
X2806700Y810209D01*
G37*
G36*
X45290740Y647700D02*
G01*
X45453300Y647700D01*
X45453300Y810412D01*
X45434453Y808024D01*
X45416825Y803910D01*
X45399756Y797915D01*
X45383348Y790244D01*
X45367803Y780948D01*
X45353325Y770077D01*
X45340016Y757783D01*
X45328078Y744169D01*
X45317562Y729386D01*
X45308672Y713638D01*
X45301408Y697026D01*
X45295921Y679805D01*
X45292213Y662076D01*
G37*
G36*
X2618740Y647700D02*
G01*
X2781300Y647700D01*
X2781300Y810412D01*
X2762453Y808024D01*
X2744825Y803910D01*
X2727756Y797915D01*
X2711348Y790244D01*
X2695803Y780948D01*
X2681325Y770077D01*
X2668016Y757783D01*
X2656078Y744169D01*
X2645562Y729386D01*
X2636672Y713638D01*
X2629408Y697026D01*
X2623921Y679805D01*
X2620213Y662076D01*
G37*
G36*
X45376592Y1217574D02*
G01*
X45453300Y1217574D01*
X45453300Y1320800D01*
X45350125Y1320800D01*
X45350125Y1244041D01*
X45350836Y1237742D01*
X45352716Y1232306D01*
X45355814Y1227378D01*
X45359878Y1223314D01*
X45364806Y1220216D01*
X45370242Y1218285D01*
G37*
G36*
X45478700Y1217574D02*
G01*
X45555458Y1217574D01*
X45561758Y1218285D01*
X45567244Y1220216D01*
X45572121Y1223314D01*
X45576236Y1227378D01*
X45579284Y1232306D01*
X45581214Y1237742D01*
X45581925Y1244041D01*
X45581925Y1320800D01*
X45478700Y1320800D01*
G37*
G36*
X45350125Y1346200D02*
G01*
X45453300Y1346200D01*
X45453300Y1449425D01*
X45376592Y1449425D01*
X45370242Y1448714D01*
X45364806Y1446784D01*
X45359878Y1443685D01*
X45355814Y1439621D01*
X45352716Y1434693D01*
X45350836Y1429258D01*
X45350125Y1422908D01*
G37*
G36*
X45478700Y1346200D02*
G01*
X45581925Y1346200D01*
X45581925Y1422908D01*
X45581214Y1429258D01*
X45579284Y1434693D01*
X45576236Y1439621D01*
X45572121Y1443685D01*
X45567244Y1446784D01*
X45561758Y1448714D01*
X45555458Y1449425D01*
X45478700Y1449425D01*
G37*
G36*
X45453300Y1472387D02*
G01*
X45453300Y1574800D01*
X45351039Y1574800D01*
X45352157Y1565757D01*
X45355814Y1551686D01*
X45361148Y1538173D01*
X45368159Y1525422D01*
X45376693Y1513636D01*
X45386701Y1503019D01*
X45397877Y1493723D01*
X45410170Y1485950D01*
X45423328Y1479753D01*
X45437196Y1475232D01*
X45451471Y1472539D01*
G37*
G36*
X45478700Y1472387D02*
G01*
X45480528Y1472539D01*
X45494854Y1475232D01*
X45508672Y1479753D01*
X45521829Y1485950D01*
X45534122Y1493723D01*
X45545349Y1503019D01*
X45555306Y1513636D01*
X45563840Y1525422D01*
X45570851Y1538173D01*
X45576236Y1551686D01*
X45579842Y1565757D01*
X45580960Y1574800D01*
X45478700Y1574800D01*
G37*
G36*
X23939500Y57962D02*
G01*
X23949304Y58826D01*
X23958753Y61366D01*
X23967694Y65481D01*
X23975720Y71120D01*
X23977295Y72694D01*
X23980597Y74930D01*
X23984508Y75692D01*
X46087792Y75692D01*
X46095818Y76504D01*
X46103032Y78689D01*
X46109737Y82245D01*
X46115935Y87376D01*
X46153324Y124764D01*
X46158454Y130962D01*
X46162010Y137668D01*
X46164195Y144881D01*
X46165008Y152908D01*
X46165008Y2056892D01*
X46164195Y2064918D01*
X46162010Y2072132D01*
X46158454Y2078837D01*
X46153324Y2085035D01*
X46115935Y2122424D01*
X46109737Y2127554D01*
X46103032Y2131110D01*
X46095818Y2133295D01*
X46087792Y2134108D01*
X45582027Y2134108D01*
X45578064Y2134920D01*
X45574762Y2137156D01*
X45572578Y2140508D01*
X45570851Y2144826D01*
X45563840Y2157577D01*
X45555306Y2169363D01*
X45545349Y2179980D01*
X45534122Y2189226D01*
X45521829Y2197049D01*
X45508672Y2203246D01*
X45494854Y2207717D01*
X45480528Y2210460D01*
X45466000Y2211374D01*
X45451471Y2210460D01*
X45437196Y2207717D01*
X45423328Y2203246D01*
X45410170Y2197049D01*
X45397877Y2189226D01*
X45386701Y2179980D01*
X45376693Y2169363D01*
X45368159Y2157577D01*
X45361148Y2144826D01*
X45355814Y2131314D01*
X45352157Y2117191D01*
X45350328Y2102764D01*
X45350328Y2088235D01*
X45352157Y2073757D01*
X45355814Y2059686D01*
X45361148Y2046173D01*
X45368159Y2033422D01*
X45376693Y2021636D01*
X45386701Y2011019D01*
X45397877Y2001723D01*
X45410170Y1993950D01*
X45423328Y1987753D01*
X45437196Y1983232D01*
X45451471Y1980539D01*
X45466000Y1979625D01*
X45480528Y1980539D01*
X45494854Y1983232D01*
X45508672Y1987753D01*
X45521829Y1993950D01*
X45534122Y2001723D01*
X45545349Y2011019D01*
X45555306Y2021636D01*
X45563840Y2033422D01*
X45570851Y2046173D01*
X45572578Y2050491D01*
X45574762Y2053843D01*
X45578064Y2056079D01*
X45582027Y2056892D01*
X46068081Y2056892D01*
X46071993Y2056130D01*
X46075295Y2053894D01*
X46084794Y2044395D01*
X46087030Y2041093D01*
X46087792Y2037181D01*
X46087792Y172618D01*
X46087030Y168706D01*
X46084794Y165404D01*
X46075295Y155905D01*
X46071993Y153670D01*
X46068081Y152908D01*
X23984508Y152908D01*
X23980597Y153670D01*
X23977295Y155905D01*
X23975720Y157480D01*
X23967694Y163118D01*
X23958753Y167233D01*
X23949304Y169773D01*
X23939500Y170637D01*
X23929695Y169773D01*
X23920246Y167233D01*
X23911306Y163118D01*
X23903279Y157480D01*
X23896320Y150520D01*
X23890681Y142494D01*
X23886566Y133553D01*
X23884026Y124104D01*
X23883162Y114300D01*
X23884026Y104495D01*
X23886566Y95046D01*
X23890681Y86106D01*
X23896320Y78079D01*
X23903279Y71120D01*
X23911306Y65481D01*
X23920246Y61366D01*
X23929695Y58826D01*
G37*
G36*
X45478700Y1600200D02*
G01*
X45580960Y1600200D01*
X45579842Y1609191D01*
X45576236Y1623314D01*
X45570851Y1636826D01*
X45563840Y1649577D01*
X45555306Y1661363D01*
X45545349Y1671980D01*
X45534122Y1681225D01*
X45521829Y1689049D01*
X45508672Y1695246D01*
X45494854Y1699717D01*
X45480528Y1702460D01*
X45478700Y1702562D01*
G37*
G36*
X45453300Y1726387D02*
G01*
X45453300Y1828800D01*
X45351039Y1828800D01*
X45352157Y1819757D01*
X45355814Y1805686D01*
X45361148Y1792173D01*
X45368159Y1779422D01*
X45376693Y1767636D01*
X45386701Y1757019D01*
X45397877Y1747723D01*
X45410170Y1739950D01*
X45423328Y1733753D01*
X45437196Y1729232D01*
X45451471Y1726539D01*
G37*
G36*
X45478700Y1726387D02*
G01*
X45480528Y1726539D01*
X45494854Y1729232D01*
X45508672Y1733753D01*
X45521829Y1739950D01*
X45534122Y1747723D01*
X45545349Y1757019D01*
X45555306Y1767636D01*
X45563840Y1779422D01*
X45570851Y1792173D01*
X45576236Y1805686D01*
X45579842Y1819757D01*
X45580960Y1828800D01*
X45478700Y1828800D01*
G37*
G36*
X45351039Y1854200D02*
G01*
X45453300Y1854200D01*
X45453300Y1956562D01*
X45451471Y1956460D01*
X45437196Y1953717D01*
X45423328Y1949246D01*
X45410170Y1943049D01*
X45397877Y1935225D01*
X45386701Y1925980D01*
X45376693Y1915363D01*
X45368159Y1903577D01*
X45361148Y1890826D01*
X45355814Y1877314D01*
X45352157Y1863191D01*
G37*
G36*
X45478700Y1854200D02*
G01*
X45580960Y1854200D01*
X45579842Y1863191D01*
X45576236Y1877314D01*
X45570851Y1890826D01*
X45563840Y1903577D01*
X45555306Y1915363D01*
X45545349Y1925980D01*
X45534122Y1935225D01*
X45521829Y1943049D01*
X45508672Y1949246D01*
X45494854Y1953717D01*
X45480528Y1956460D01*
X45478700Y1956562D01*
G37*
G36*
X2618740Y3822700D02*
G01*
X2781300Y3822700D01*
X2781300Y3985412D01*
X2762453Y3983024D01*
X2744825Y3978910D01*
X2727756Y3972915D01*
X2711348Y3965244D01*
X2695803Y3955948D01*
X2681325Y3945077D01*
X2668016Y3932783D01*
X2656078Y3919169D01*
X2645562Y3904386D01*
X2636672Y3888638D01*
X2629408Y3872026D01*
X2623921Y3854805D01*
X2620213Y3837076D01*
G37*
G36*
X45466000Y2233625D02*
G01*
X45480528Y2234539D01*
X45494854Y2237232D01*
X45508672Y2241753D01*
X45521829Y2247950D01*
X45534122Y2255723D01*
X45545349Y2265019D01*
X45555306Y2275636D01*
X45563840Y2287422D01*
X45570851Y2300173D01*
X45576236Y2313686D01*
X45579842Y2327757D01*
X45581671Y2342235D01*
X45581671Y2356764D01*
X45579842Y2371191D01*
X45576236Y2385314D01*
X45570851Y2398826D01*
X45563840Y2411577D01*
X45555306Y2423363D01*
X45545349Y2433980D01*
X45534122Y2443226D01*
X45521829Y2451049D01*
X45508672Y2457246D01*
X45494854Y2461717D01*
X45480528Y2464460D01*
X45466000Y2465374D01*
X45451471Y2464460D01*
X45437196Y2461717D01*
X45423328Y2457246D01*
X45410170Y2451049D01*
X45397877Y2443226D01*
X45386701Y2433980D01*
X45376693Y2423363D01*
X45368159Y2411577D01*
X45361148Y2398826D01*
X45355814Y2385314D01*
X45352157Y2371191D01*
X45350328Y2356764D01*
X45350328Y2342235D01*
X45352157Y2327757D01*
X45355814Y2313686D01*
X45361148Y2300173D01*
X45368159Y2287422D01*
X45376693Y2275636D01*
X45386701Y2265019D01*
X45397877Y2255723D01*
X45410170Y2247950D01*
X45423328Y2241753D01*
X45437196Y2237232D01*
X45451471Y2234539D01*
G37*
G36*
X45466000Y2487574D02*
G01*
X45473264Y2487828D01*
X45480528Y2488488D01*
X45487742Y2489657D01*
X45494854Y2491232D01*
X45501814Y2493264D01*
X45508672Y2495753D01*
X45515326Y2498648D01*
X45521829Y2501950D01*
X45528128Y2505659D01*
X45534122Y2509723D01*
X45539863Y2514193D01*
X45545349Y2519019D01*
X45550480Y2524150D01*
X45555306Y2529636D01*
X45559776Y2535377D01*
X45563891Y2541371D01*
X45567549Y2547670D01*
X45570902Y2554122D01*
X45573746Y2560828D01*
X45576236Y2567686D01*
X45578268Y2574696D01*
X45579842Y2581757D01*
X45581011Y2588971D01*
X45581671Y2596235D01*
X45581925Y2603652D01*
X45581925Y3111347D01*
X45581671Y3118764D01*
X45581011Y3126028D01*
X45579842Y3133191D01*
X45578268Y3140303D01*
X45576236Y3147314D01*
X45573746Y3154172D01*
X45570902Y3160826D01*
X45567549Y3167329D01*
X45563891Y3173577D01*
X45559776Y3179622D01*
X45555306Y3185363D01*
X45550480Y3190849D01*
X45545349Y3195980D01*
X45539863Y3200806D01*
X45534275Y3205175D01*
X45530312Y3207969D01*
X44482512Y4255668D01*
X44473977Y4262983D01*
X44471336Y4264964D01*
X44461938Y4271111D01*
X44459042Y4272788D01*
X44448933Y4277715D01*
X44445885Y4278985D01*
X44435268Y4282643D01*
X44432016Y4283506D01*
X44421044Y4285792D01*
X44417742Y4286250D01*
X44406566Y4287164D01*
X34267241Y4287215D01*
X34264092Y4287672D01*
X34255303Y4290568D01*
X34241028Y4293260D01*
X34226195Y4294225D01*
X33820404Y4294225D01*
X33805571Y4293260D01*
X33791296Y4290568D01*
X33782508Y4287672D01*
X33779358Y4287215D01*
X4169765Y4287215D01*
X4154932Y4286250D01*
X4140657Y4283557D01*
X4126788Y4279036D01*
X4113631Y4272838D01*
X4101337Y4265066D01*
X4090111Y4255770D01*
X4080154Y4245152D01*
X4071620Y4233367D01*
X4064609Y4220616D01*
X4059224Y4207103D01*
X4055618Y4192981D01*
X4053789Y4178554D01*
X4053789Y4164025D01*
X4055618Y4149598D01*
X4059224Y4135475D01*
X4064609Y4121962D01*
X4071620Y4109212D01*
X4080154Y4097426D01*
X4090111Y4086809D01*
X4101337Y4077512D01*
X4113631Y4069740D01*
X4126788Y4063542D01*
X4140657Y4059021D01*
X4154932Y4056329D01*
X4169765Y4055364D01*
X33836356Y4055364D01*
X33851189Y4056329D01*
X33865464Y4059021D01*
X33874252Y4061917D01*
X33877402Y4062374D01*
X34202319Y4062374D01*
X34205468Y4061917D01*
X34214257Y4059021D01*
X34228532Y4056329D01*
X34243365Y4055364D01*
X44350838Y4055364D01*
X44354750Y4054601D01*
X44358001Y4052417D01*
X45347128Y3063290D01*
X45349312Y3060039D01*
X45350074Y3056128D01*
X45350074Y2603652D01*
X45350328Y2596235D01*
X45350988Y2588971D01*
X45352157Y2581757D01*
X45353732Y2574696D01*
X45355764Y2567686D01*
X45358253Y2560828D01*
X45361148Y2554122D01*
X45364450Y2547670D01*
X45368159Y2541371D01*
X45372223Y2535377D01*
X45376693Y2529636D01*
X45381519Y2524150D01*
X45386650Y2519019D01*
X45392136Y2514193D01*
X45397877Y2509723D01*
X45403871Y2505659D01*
X45410170Y2501950D01*
X45416673Y2498648D01*
X45423328Y2495753D01*
X45430186Y2493264D01*
X45437196Y2491232D01*
X45444257Y2489657D01*
X45451471Y2488488D01*
X45458735Y2487828D01*
G37*
G36*
X45453300Y3634587D02*
G01*
X45453300Y3797300D01*
X45290740Y3797300D01*
X45292213Y3782923D01*
X45295921Y3765194D01*
X45301408Y3747973D01*
X45308672Y3731361D01*
X45317562Y3715613D01*
X45328078Y3700830D01*
X45340016Y3687216D01*
X45353325Y3674922D01*
X45367803Y3664051D01*
X45383348Y3654755D01*
X45399756Y3647084D01*
X45416825Y3641090D01*
X45434453Y3636975D01*
G37*
G36*
X2781300Y3634587D02*
G01*
X2781300Y3797300D01*
X2618740Y3797300D01*
X2620213Y3782923D01*
X2623921Y3765194D01*
X2629408Y3747973D01*
X2636672Y3731361D01*
X2645562Y3715613D01*
X2656078Y3700830D01*
X2668016Y3687216D01*
X2681325Y3674922D01*
X2695803Y3664051D01*
X2711348Y3654755D01*
X2727756Y3647084D01*
X2744825Y3641090D01*
X2762453Y3636975D01*
G37*
G36*
X45478700Y3634790D02*
G01*
X45488606Y3635552D01*
X45506386Y3638804D01*
X45523810Y3643884D01*
X45540574Y3650691D01*
X45556525Y3659225D01*
X45571562Y3669334D01*
X45585481Y3680917D01*
X45598130Y3693871D01*
X45609357Y3708095D01*
X45619060Y3723386D01*
X45627188Y3739540D01*
X45633538Y3756507D01*
X45638161Y3774033D01*
X45640955Y3791915D01*
X45641260Y3797300D01*
X45478700Y3797300D01*
G37*
G36*
X2806700Y3634790D02*
G01*
X2816606Y3635552D01*
X2834386Y3638804D01*
X2851810Y3643884D01*
X2868574Y3650691D01*
X2884525Y3659225D01*
X2899562Y3669334D01*
X2913481Y3680917D01*
X2926130Y3693871D01*
X2937357Y3708095D01*
X2947060Y3723386D01*
X2955188Y3739540D01*
X2961538Y3756507D01*
X2966161Y3774033D01*
X2968955Y3791915D01*
X2969260Y3797300D01*
X2806700Y3797300D01*
G37*
G36*
X2806700Y3822700D02*
G01*
X2969260Y3822700D01*
X2968955Y3828084D01*
X2966161Y3845966D01*
X2961538Y3863492D01*
X2955188Y3880459D01*
X2947060Y3896614D01*
X2937357Y3911904D01*
X2926130Y3926128D01*
X2913481Y3939082D01*
X2899562Y3950665D01*
X2884525Y3960774D01*
X2868574Y3969308D01*
X2851810Y3976115D01*
X2834386Y3981196D01*
X2816606Y3984447D01*
X2806700Y3985209D01*
G37*
G36*
X45478700Y3822700D02*
G01*
X45641260Y3822700D01*
X45640955Y3828084D01*
X45638161Y3845966D01*
X45633538Y3863492D01*
X45627188Y3880459D01*
X45619060Y3896614D01*
X45609357Y3911904D01*
X45598130Y3926128D01*
X45585481Y3939082D01*
X45571562Y3950665D01*
X45556525Y3960774D01*
X45540574Y3969308D01*
X45523810Y3976115D01*
X45506386Y3981196D01*
X45488606Y3984447D01*
X45478700Y3985209D01*
G37*

%LPD*%
D10*
X23939500Y114300D02*
G01*
X46088300Y114300D01*
X46126400Y152400D01*
X46126400Y2057400D01*
X46088300Y2095500D01*
X45466000Y2095500D01*
D11*
X4575860Y4171289D02*
G01*
X4169460Y4171289D01*
X4982260Y4171289D02*
G01*
X4575860Y4171289D01*
X5388660Y4171289D02*
G01*
X4982260Y4171289D01*
X5795060Y4171289D02*
G01*
X5388660Y4171289D01*
X6201460Y4171289D02*
G01*
X5795060Y4171289D01*
X6607860Y4171289D02*
G01*
X6201460Y4171289D01*
X7014260Y4171289D02*
G01*
X6607860Y4171289D01*
X7420660Y4171289D02*
G01*
X7014260Y4171289D01*
X7827060Y4171289D02*
G01*
X7420660Y4171289D01*
X8233460Y4171289D02*
G01*
X7827060Y4171289D01*
X8639860Y4171289D02*
G01*
X8233460Y4171289D01*
X9046260Y4171289D02*
G01*
X8639860Y4171289D01*
X9452660Y4171289D02*
G01*
X9046260Y4171289D01*
X9859060Y4171289D02*
G01*
X9452660Y4171289D01*
X10265460Y4171289D02*
G01*
X9859060Y4171289D01*
X10671860Y4171289D02*
G01*
X10265460Y4171289D01*
X11078260Y4171289D02*
G01*
X10671860Y4171289D01*
X11484660Y4171289D02*
G01*
X11078260Y4171289D01*
X11891060Y4171289D02*
G01*
X11484660Y4171289D01*
X12297460Y4171289D02*
G01*
X11891060Y4171289D01*
X12703860Y4171289D02*
G01*
X12297460Y4171289D01*
X13110260Y4171289D02*
G01*
X12703860Y4171289D01*
X13516660Y4171289D02*
G01*
X13110260Y4171289D01*
X13923060Y4171289D02*
G01*
X13516660Y4171289D01*
X14329460Y4171289D02*
G01*
X13923060Y4171289D01*
X14735860Y4171289D02*
G01*
X14329460Y4171289D01*
X15142260Y4171289D02*
G01*
X14735860Y4171289D01*
X15548660Y4171289D02*
G01*
X15142260Y4171289D01*
X15955060Y4171289D02*
G01*
X15548660Y4171289D01*
X16361460Y4171289D02*
G01*
X15955060Y4171289D01*
X16767860Y4171289D02*
G01*
X16361460Y4171289D01*
X17174260Y4171289D02*
G01*
X16767860Y4171289D01*
X17580660Y4171289D02*
G01*
X17174260Y4171289D01*
X17987060Y4171289D02*
G01*
X17580660Y4171289D01*
X18393460Y4171289D02*
G01*
X17987060Y4171289D01*
X18799860Y4171289D02*
G01*
X18393460Y4171289D01*
X19206260Y4171289D02*
G01*
X18799860Y4171289D01*
X19612660Y4171289D02*
G01*
X19206260Y4171289D01*
X20019060Y4171289D02*
G01*
X19612660Y4171289D01*
X20425460Y4171289D02*
G01*
X20019060Y4171289D01*
X20831860Y4171289D02*
G01*
X20425460Y4171289D01*
X21238260Y4171289D02*
G01*
X20831860Y4171289D01*
X21644660Y4171289D02*
G01*
X21238260Y4171289D01*
X22051060Y4171289D02*
G01*
X21644660Y4171289D01*
X22457460Y4171289D02*
G01*
X22051060Y4171289D01*
X22863860Y4171289D02*
G01*
X22457460Y4171289D01*
X23270260Y4171289D02*
G01*
X22863860Y4171289D01*
X23676660Y4171289D02*
G01*
X23270260Y4171289D01*
X24083060Y4171289D02*
G01*
X23676660Y4171289D01*
X24489460Y4171289D02*
G01*
X24083060Y4171289D01*
X24895860Y4171289D02*
G01*
X24489460Y4171289D01*
X25302260Y4171289D02*
G01*
X24895860Y4171289D01*
X25708660Y4171289D02*
G01*
X25302260Y4171289D01*
X26115060Y4171289D02*
G01*
X25708660Y4171289D01*
X26521460Y4171289D02*
G01*
X26115060Y4171289D01*
X26927860Y4171289D02*
G01*
X26521460Y4171289D01*
X27334260Y4171289D02*
G01*
X26927860Y4171289D01*
X27740660Y4171289D02*
G01*
X27334260Y4171289D01*
X28147060Y4171289D02*
G01*
X27740660Y4171289D01*
X28553460Y4171289D02*
G01*
X28147060Y4171289D01*
X28959860Y4171289D02*
G01*
X28553460Y4171289D01*
X29366260Y4171289D02*
G01*
X28959860Y4171289D01*
X29772660Y4171289D02*
G01*
X29366260Y4171289D01*
X30179060Y4171289D02*
G01*
X29772660Y4171289D01*
X30585460Y4171289D02*
G01*
X30179060Y4171289D01*
X30991860Y4171289D02*
G01*
X30585460Y4171289D01*
X31398260Y4171289D02*
G01*
X30991860Y4171289D01*
X31804660Y4171289D02*
G01*
X31398260Y4171289D01*
X32211060Y4171289D02*
G01*
X31804660Y4171289D01*
X32617460Y4171289D02*
G01*
X32211060Y4171289D01*
X33023860Y4171289D02*
G01*
X32617460Y4171289D01*
X33430260Y4171289D02*
G01*
X33023860Y4171289D01*
X33836660Y4171289D02*
G01*
X33430260Y4171289D01*
X34226500Y4178300D02*
G01*
X33820100Y4178300D01*
X34649460Y4171289D02*
G01*
X34243060Y4171289D01*
X35055860Y4171289D02*
G01*
X34649460Y4171289D01*
X35462260Y4171289D02*
G01*
X35055860Y4171289D01*
X35868660Y4171289D02*
G01*
X35462260Y4171289D01*
X36275060Y4171289D02*
G01*
X35868660Y4171289D01*
X36681460Y4171289D02*
G01*
X36275060Y4171289D01*
X37087860Y4171289D02*
G01*
X36681460Y4171289D01*
X37494260Y4171289D02*
G01*
X37087860Y4171289D01*
X37900660Y4171289D02*
G01*
X37494260Y4171289D01*
X38307060Y4171289D02*
G01*
X37900660Y4171289D01*
X38713460Y4171289D02*
G01*
X38307060Y4171289D01*
X39119860Y4171289D02*
G01*
X38713460Y4171289D01*
X39526260Y4171289D02*
G01*
X39119860Y4171289D01*
X39932660Y4171289D02*
G01*
X39526260Y4171289D01*
X40339060Y4171289D02*
G01*
X39932660Y4171289D01*
X40745460Y4171289D02*
G01*
X40339060Y4171289D01*
X41151860Y4171289D02*
G01*
X40745460Y4171289D01*
X41558260Y4171289D02*
G01*
X41151860Y4171289D01*
X41964660Y4171289D02*
G01*
X41558260Y4171289D01*
X42371060Y4171289D02*
G01*
X41964660Y4171289D01*
X42777460Y4171289D02*
G01*
X42371060Y4171289D01*
X43183860Y4171289D02*
G01*
X42777460Y4171289D01*
X43590260Y4171289D02*
G01*
X43183860Y4171289D01*
X43996660Y4171289D02*
G01*
X43590260Y4171289D01*
X44403060Y4171289D02*
G01*
X43996660Y4171289D01*
X45466000Y3111500D02*
G01*
X45462850Y3111500D01*
X44403060Y4171289D01*
X45466000Y2857500D02*
G01*
X45466000Y3111500D01*
X45466000Y2603500D02*
G01*
X45466000Y2857500D01*
D12*
G01*
X45466010Y1333494D03*
D11*
G01*
X45466000Y1587500D03*
G01*
X45466000Y1841500D03*
G01*
X45466000Y2095500D03*
G01*
X45466000Y2349500D03*
G01*
X45466000Y2603500D03*
G01*
X45466000Y2857500D03*
G01*
X45466000Y3111500D03*
D13*
G01*
X2794000Y3810000D03*
G01*
X2794000Y635000D03*
G01*
X45466000Y635000D03*
G01*
X45466000Y3810000D03*
D14*
G01*
X4169460Y4171289D03*
G01*
X4093260Y627989D03*
G01*
X4093260Y221589D03*
G01*
X4093260Y1034389D03*
G01*
X4093260Y1440789D03*
G01*
X4093260Y1847189D03*
G01*
X4093260Y2253589D03*
G01*
X3918737Y635000D03*
G01*
X3918737Y228600D03*
G01*
X3918737Y1041400D03*
G01*
X3918737Y1447800D03*
G01*
X3918737Y1854200D03*
G01*
X3918737Y2260600D03*
G01*
X3918737Y2667000D03*
G01*
X4093260Y2659989D03*
G01*
X3918737Y3073400D03*
G01*
X4093260Y3066389D03*
G01*
X3918737Y3479800D03*
G01*
X4093260Y3472789D03*
G01*
X3918737Y3886200D03*
G01*
X4093260Y3879189D03*
G01*
X4575860Y4171289D03*
G01*
X4499660Y627989D03*
G01*
X4499660Y221589D03*
G01*
X4499660Y1034389D03*
G01*
X4499660Y1440789D03*
G01*
X4499660Y1847189D03*
G01*
X4499660Y2253589D03*
G01*
X4325137Y635000D03*
G01*
X4325137Y228600D03*
G01*
X4325137Y1041400D03*
G01*
X4325137Y1447800D03*
G01*
X4325137Y1854200D03*
G01*
X4325137Y2260600D03*
G01*
X4325137Y2667000D03*
G01*
X4499660Y2659989D03*
G01*
X4325137Y3073400D03*
G01*
X4499660Y3066389D03*
G01*
X4325137Y3479800D03*
G01*
X4499660Y3472789D03*
G01*
X4325137Y3886200D03*
G01*
X4499660Y3879189D03*
G01*
X4982260Y4171289D03*
G01*
X4906060Y627989D03*
G01*
X4906060Y221589D03*
G01*
X4906060Y1034389D03*
G01*
X4906060Y1440789D03*
G01*
X4906060Y1847189D03*
G01*
X4906060Y2253589D03*
G01*
X4731537Y635000D03*
G01*
X4731537Y228600D03*
G01*
X4731537Y1041400D03*
G01*
X4731537Y1447800D03*
G01*
X4731537Y1854200D03*
G01*
X4731537Y2260600D03*
G01*
X4731537Y2667000D03*
G01*
X4906060Y2659989D03*
G01*
X4731537Y3073400D03*
G01*
X4906060Y3066389D03*
G01*
X4731537Y3479800D03*
G01*
X4906060Y3472789D03*
G01*
X4731537Y3886200D03*
G01*
X4906060Y3879189D03*
G01*
X5388660Y4171289D03*
G01*
X5312460Y627989D03*
G01*
X5312460Y221589D03*
G01*
X5312460Y1034389D03*
G01*
X5312460Y1440789D03*
G01*
X5312460Y1847189D03*
G01*
X5312460Y2253589D03*
G01*
X5137937Y635000D03*
G01*
X5137937Y228600D03*
G01*
X5137937Y1041400D03*
G01*
X5137937Y1447800D03*
G01*
X5137937Y1854200D03*
G01*
X5137937Y2260600D03*
G01*
X5137937Y2667000D03*
G01*
X5312460Y2659989D03*
G01*
X5137937Y3073400D03*
G01*
X5312460Y3066389D03*
G01*
X5137937Y3479800D03*
G01*
X5312460Y3472789D03*
G01*
X5137937Y3886200D03*
G01*
X5312460Y3879189D03*
G01*
X5795060Y4171289D03*
G01*
X5718860Y627989D03*
G01*
X5718860Y221589D03*
G01*
X5718860Y1034389D03*
G01*
X5718860Y1440789D03*
G01*
X5718860Y1847189D03*
G01*
X5718860Y2253589D03*
G01*
X5544337Y635000D03*
G01*
X5544337Y228600D03*
G01*
X5544337Y1041400D03*
G01*
X5544337Y1447800D03*
G01*
X5544337Y1854200D03*
G01*
X5544337Y2260600D03*
G01*
X5544337Y2667000D03*
G01*
X5718860Y2659989D03*
G01*
X5544337Y3073400D03*
G01*
X5718860Y3066389D03*
G01*
X5544337Y3479800D03*
G01*
X5718860Y3472789D03*
G01*
X5544337Y3886200D03*
G01*
X5718860Y3879189D03*
G01*
X6201460Y4171289D03*
G01*
X6125260Y627989D03*
G01*
X6125260Y221589D03*
G01*
X6125260Y1034389D03*
G01*
X6125260Y1440789D03*
G01*
X6125260Y1847189D03*
G01*
X6125260Y2253589D03*
G01*
X5950737Y635000D03*
G01*
X5950737Y228600D03*
G01*
X5950737Y1041400D03*
G01*
X5950737Y1447800D03*
G01*
X5950737Y1854200D03*
G01*
X5950737Y2260600D03*
G01*
X5950737Y2667000D03*
G01*
X6125260Y2659989D03*
G01*
X5950737Y3073400D03*
G01*
X6125260Y3066389D03*
G01*
X5950737Y3479800D03*
G01*
X6125260Y3472789D03*
G01*
X5950737Y3886200D03*
G01*
X6125260Y3879189D03*
G01*
X6607860Y4171289D03*
G01*
X6531660Y627989D03*
G01*
X6531660Y221589D03*
G01*
X6531660Y1034389D03*
G01*
X6531660Y1440789D03*
G01*
X6531660Y1847189D03*
G01*
X6531660Y2253589D03*
G01*
X6357137Y635000D03*
G01*
X6357137Y228600D03*
G01*
X6357137Y1041400D03*
G01*
X6357137Y1447800D03*
G01*
X6357137Y1854200D03*
G01*
X6357137Y2260600D03*
G01*
X6357137Y2667000D03*
G01*
X6531660Y2659989D03*
G01*
X6357137Y3073400D03*
G01*
X6531660Y3066389D03*
G01*
X6357137Y3479800D03*
G01*
X6531660Y3472789D03*
G01*
X6357137Y3886200D03*
G01*
X6531660Y3879189D03*
G01*
X7014260Y4171289D03*
G01*
X6938060Y627989D03*
G01*
X6938060Y221589D03*
G01*
X6938060Y1034389D03*
G01*
X6938060Y1440789D03*
G01*
X6938060Y1847189D03*
G01*
X6938060Y2253589D03*
G01*
X6763537Y635000D03*
G01*
X6763537Y228600D03*
G01*
X6763537Y1041400D03*
G01*
X6763537Y1447800D03*
G01*
X6763537Y1854200D03*
G01*
X6763537Y2260600D03*
G01*
X6763537Y2667000D03*
G01*
X6938060Y2659989D03*
G01*
X6763537Y3073400D03*
G01*
X6938060Y3066389D03*
G01*
X6763537Y3479800D03*
G01*
X6938060Y3472789D03*
G01*
X6763537Y3886200D03*
G01*
X6938060Y3879189D03*
G01*
X7420660Y4171289D03*
G01*
X7344460Y627989D03*
G01*
X7344460Y221589D03*
G01*
X7344460Y1034389D03*
G01*
X7344460Y1440789D03*
G01*
X7344460Y1847189D03*
G01*
X7344460Y2253589D03*
G01*
X7169937Y635000D03*
G01*
X7169937Y228600D03*
G01*
X7169937Y1041400D03*
G01*
X7169937Y1447800D03*
G01*
X7169937Y1854200D03*
G01*
X7169937Y2260600D03*
G01*
X7169937Y2667000D03*
G01*
X7344460Y2659989D03*
G01*
X7169937Y3073400D03*
G01*
X7344460Y3066389D03*
G01*
X7169937Y3479800D03*
G01*
X7344460Y3472789D03*
G01*
X7169937Y3886200D03*
G01*
X7344460Y3879189D03*
G01*
X7827060Y4171289D03*
G01*
X7750860Y627989D03*
G01*
X7750860Y221589D03*
G01*
X7750860Y1034389D03*
G01*
X7750860Y1440789D03*
G01*
X7750860Y1847189D03*
G01*
X7750860Y2253589D03*
G01*
X7576337Y635000D03*
G01*
X7576337Y228600D03*
G01*
X7576337Y1041400D03*
G01*
X7576337Y1447800D03*
G01*
X7576337Y1854200D03*
G01*
X7576337Y2260600D03*
G01*
X7576337Y2667000D03*
G01*
X7750860Y2659989D03*
G01*
X7576337Y3073400D03*
G01*
X7750860Y3066389D03*
G01*
X7576337Y3479800D03*
G01*
X7750860Y3472789D03*
G01*
X7576337Y3886200D03*
G01*
X7750860Y3879189D03*
G01*
X8233460Y4171289D03*
G01*
X8157260Y627989D03*
G01*
X8157260Y221589D03*
G01*
X8157260Y1034389D03*
G01*
X8157260Y1440789D03*
G01*
X8157260Y1847189D03*
G01*
X8157260Y2253589D03*
G01*
X7982737Y635000D03*
G01*
X7982737Y228600D03*
G01*
X7982737Y1041400D03*
G01*
X7982737Y1447800D03*
G01*
X7982737Y1854200D03*
G01*
X7982737Y2260600D03*
G01*
X7982737Y2667000D03*
G01*
X8157260Y2659989D03*
G01*
X7982737Y3073400D03*
G01*
X8157260Y3066389D03*
G01*
X7982737Y3479800D03*
G01*
X8157260Y3472789D03*
G01*
X7982737Y3886200D03*
G01*
X8157260Y3879189D03*
G01*
X8639860Y4171289D03*
G01*
X8563660Y627989D03*
G01*
X8563660Y221589D03*
G01*
X8563660Y1034389D03*
G01*
X8563660Y1440789D03*
G01*
X8563660Y1847189D03*
G01*
X8563660Y2253589D03*
G01*
X8389137Y635000D03*
G01*
X8389137Y228600D03*
G01*
X8389137Y1041400D03*
G01*
X8389137Y1447800D03*
G01*
X8389137Y1854200D03*
G01*
X8389137Y2260600D03*
G01*
X8389137Y2667000D03*
G01*
X8563660Y2659989D03*
G01*
X8389137Y3073400D03*
G01*
X8563660Y3066389D03*
G01*
X8389137Y3479800D03*
G01*
X8563660Y3472789D03*
G01*
X8389137Y3886200D03*
G01*
X8563660Y3879189D03*
G01*
X9046260Y4171289D03*
G01*
X8970060Y627989D03*
G01*
X8970060Y221589D03*
G01*
X8970060Y1034389D03*
G01*
X8970060Y1440789D03*
G01*
X8970060Y1847189D03*
G01*
X8970060Y2253589D03*
G01*
X8795537Y635000D03*
G01*
X8795537Y228600D03*
G01*
X8795537Y1041400D03*
G01*
X8795537Y1447800D03*
G01*
X8795537Y1854200D03*
G01*
X8795537Y2260600D03*
G01*
X8795537Y2667000D03*
G01*
X8970060Y2659989D03*
G01*
X8795537Y3073400D03*
G01*
X8970060Y3066389D03*
G01*
X8795537Y3479800D03*
G01*
X8970060Y3472789D03*
G01*
X8795537Y3886200D03*
G01*
X8970060Y3879189D03*
G01*
X9452660Y4171289D03*
G01*
X9376460Y627989D03*
G01*
X9376460Y221589D03*
G01*
X9376460Y1034389D03*
G01*
X9376460Y1440789D03*
G01*
X9376460Y1847189D03*
G01*
X9376460Y2253589D03*
G01*
X9201937Y635000D03*
G01*
X9201937Y228600D03*
G01*
X9201937Y1041400D03*
G01*
X9201937Y1447800D03*
G01*
X9201937Y1854200D03*
G01*
X9201937Y2260600D03*
G01*
X9201937Y2667000D03*
G01*
X9376460Y2659989D03*
G01*
X9201937Y3073400D03*
G01*
X9376460Y3066389D03*
G01*
X9201937Y3479800D03*
G01*
X9376460Y3472789D03*
G01*
X9201937Y3886200D03*
G01*
X9376460Y3879189D03*
G01*
X9859060Y4171289D03*
G01*
X9782860Y627989D03*
G01*
X9782860Y221589D03*
G01*
X9782860Y1034389D03*
G01*
X9782860Y1440789D03*
G01*
X9782860Y1847189D03*
G01*
X9782860Y2253589D03*
G01*
X9608337Y635000D03*
G01*
X9608337Y228600D03*
G01*
X9608337Y1041400D03*
G01*
X9608337Y1447800D03*
G01*
X9608337Y1854200D03*
G01*
X9608337Y2260600D03*
G01*
X9608337Y2667000D03*
G01*
X9782860Y2659989D03*
G01*
X9608337Y3073400D03*
G01*
X9782860Y3066389D03*
G01*
X9608337Y3479800D03*
G01*
X9782860Y3472789D03*
G01*
X9608337Y3886200D03*
G01*
X9782860Y3879189D03*
G01*
X10265460Y4171289D03*
G01*
X10189260Y627989D03*
G01*
X10189260Y221589D03*
G01*
X10189260Y1034389D03*
G01*
X10189260Y1440789D03*
G01*
X10189260Y1847189D03*
G01*
X10189260Y2253589D03*
G01*
X10014737Y635000D03*
G01*
X10014737Y228600D03*
G01*
X10014737Y1041400D03*
G01*
X10014737Y1447800D03*
G01*
X10014737Y1854200D03*
G01*
X10014737Y2260600D03*
G01*
X10014737Y2667000D03*
G01*
X10189260Y2659989D03*
G01*
X10014737Y3073400D03*
G01*
X10189260Y3066389D03*
G01*
X10014737Y3479800D03*
G01*
X10189260Y3472789D03*
G01*
X10014737Y3886200D03*
G01*
X10189260Y3879189D03*
G01*
X10671860Y4171289D03*
G01*
X10595660Y627989D03*
G01*
X10595660Y221589D03*
G01*
X10595660Y1034389D03*
G01*
X10595660Y1440789D03*
G01*
X10595660Y1847189D03*
G01*
X10595660Y2253589D03*
G01*
X10421137Y635000D03*
G01*
X10421137Y228600D03*
G01*
X10421137Y1041400D03*
G01*
X10421137Y1447800D03*
G01*
X10421137Y1854200D03*
G01*
X10421137Y2260600D03*
G01*
X10421137Y2667000D03*
G01*
X10595660Y2659989D03*
G01*
X10421137Y3073400D03*
G01*
X10595660Y3066389D03*
G01*
X10421137Y3479800D03*
G01*
X10595660Y3472789D03*
G01*
X10421137Y3886200D03*
G01*
X10595660Y3879189D03*
G01*
X11078260Y4171289D03*
G01*
X11002060Y627989D03*
G01*
X11002060Y221589D03*
G01*
X11002060Y1034389D03*
G01*
X11002060Y1440789D03*
G01*
X11002060Y1847189D03*
G01*
X11002060Y2253589D03*
G01*
X10827537Y635000D03*
G01*
X10827537Y228600D03*
G01*
X10827537Y1041400D03*
G01*
X10827537Y1447800D03*
G01*
X10827537Y1854200D03*
G01*
X10827537Y2260600D03*
G01*
X10827537Y2667000D03*
G01*
X11002060Y2659989D03*
G01*
X10827537Y3073400D03*
G01*
X11002060Y3066389D03*
G01*
X10827537Y3479800D03*
G01*
X11002060Y3472789D03*
G01*
X10827537Y3886200D03*
G01*
X11002060Y3879189D03*
G01*
X11484660Y4171289D03*
G01*
X11408460Y627989D03*
G01*
X11408460Y221589D03*
G01*
X11408460Y1034389D03*
G01*
X11408460Y1440789D03*
G01*
X11408460Y1847189D03*
G01*
X11408460Y2253589D03*
G01*
X11233937Y635000D03*
G01*
X11233937Y228600D03*
G01*
X11233937Y1041400D03*
G01*
X11233937Y1447800D03*
G01*
X11233937Y1854200D03*
G01*
X11233937Y2260600D03*
G01*
X11233937Y2667000D03*
G01*
X11408460Y2659989D03*
G01*
X11233937Y3073400D03*
G01*
X11408460Y3066389D03*
G01*
X11233937Y3479800D03*
G01*
X11408460Y3472789D03*
G01*
X11233937Y3886200D03*
G01*
X11408460Y3879189D03*
G01*
X11891060Y4171289D03*
G01*
X11814860Y627989D03*
G01*
X11814860Y221589D03*
G01*
X11814860Y1034389D03*
G01*
X11814860Y1440789D03*
G01*
X11814860Y1847189D03*
G01*
X11814860Y2253589D03*
G01*
X11640337Y635000D03*
G01*
X11640337Y228600D03*
G01*
X11640337Y1041400D03*
G01*
X11640337Y1447800D03*
G01*
X11640337Y1854200D03*
G01*
X11640337Y2260600D03*
G01*
X11640337Y2667000D03*
G01*
X11814860Y2659989D03*
G01*
X11640337Y3073400D03*
G01*
X11814860Y3066389D03*
G01*
X11640337Y3479800D03*
G01*
X11814860Y3472789D03*
G01*
X11640337Y3886200D03*
G01*
X11814860Y3879189D03*
G01*
X12297460Y4171289D03*
G01*
X12221260Y627989D03*
G01*
X12221260Y221589D03*
G01*
X12221260Y1034389D03*
G01*
X12221260Y1440789D03*
G01*
X12221260Y1847189D03*
G01*
X12221260Y2253589D03*
G01*
X12046737Y635000D03*
G01*
X12046737Y228600D03*
G01*
X12046737Y1041400D03*
G01*
X12046737Y1447800D03*
G01*
X12046737Y1854200D03*
G01*
X12046737Y2260600D03*
G01*
X12046737Y2667000D03*
G01*
X12221260Y2659989D03*
G01*
X12046737Y3073400D03*
G01*
X12221260Y3066389D03*
G01*
X12046737Y3479800D03*
G01*
X12221260Y3472789D03*
G01*
X12046737Y3886200D03*
G01*
X12221260Y3879189D03*
G01*
X12703860Y4171289D03*
G01*
X12627660Y627989D03*
G01*
X12627660Y221589D03*
G01*
X12627660Y1034389D03*
G01*
X12627660Y1440789D03*
G01*
X12627660Y1847189D03*
G01*
X12627660Y2253589D03*
G01*
X12453137Y635000D03*
G01*
X12453137Y228600D03*
G01*
X12453137Y1041400D03*
G01*
X12453137Y1447800D03*
G01*
X12453137Y1854200D03*
G01*
X12453137Y2260600D03*
G01*
X12453137Y2667000D03*
G01*
X12627660Y2659989D03*
G01*
X12453137Y3073400D03*
G01*
X12627660Y3066389D03*
G01*
X12453137Y3479800D03*
G01*
X12627660Y3472789D03*
G01*
X12453137Y3886200D03*
G01*
X12627660Y3879189D03*
G01*
X13110260Y4171289D03*
G01*
X13034060Y627989D03*
G01*
X13034060Y221589D03*
G01*
X13034060Y1034389D03*
G01*
X13034060Y1440789D03*
G01*
X13034060Y1847189D03*
G01*
X13034060Y2253589D03*
G01*
X12859537Y635000D03*
G01*
X12859537Y228600D03*
G01*
X12859537Y1041400D03*
G01*
X12859537Y1447800D03*
G01*
X12859537Y1854200D03*
G01*
X12859537Y2260600D03*
G01*
X12859537Y2667000D03*
G01*
X13034060Y2659989D03*
G01*
X12859537Y3073400D03*
G01*
X13034060Y3066389D03*
G01*
X12859537Y3479800D03*
G01*
X13034060Y3472789D03*
G01*
X12859537Y3886200D03*
G01*
X13034060Y3879189D03*
G01*
X13516660Y4171289D03*
G01*
X13440460Y627989D03*
G01*
X13440460Y221589D03*
G01*
X13440460Y1034389D03*
G01*
X13440460Y1440789D03*
G01*
X13440460Y1847189D03*
G01*
X13440460Y2253589D03*
G01*
X13265937Y635000D03*
G01*
X13265937Y228600D03*
G01*
X13265937Y1041400D03*
G01*
X13265937Y1447800D03*
G01*
X13265937Y1854200D03*
G01*
X13265937Y2260600D03*
G01*
X13265937Y2667000D03*
G01*
X13440460Y2659989D03*
G01*
X13265937Y3073400D03*
G01*
X13440460Y3066389D03*
G01*
X13265937Y3479800D03*
G01*
X13440460Y3472789D03*
G01*
X13265937Y3886200D03*
G01*
X13440460Y3879189D03*
G01*
X13923060Y4171289D03*
G01*
X13846860Y627989D03*
G01*
X13846860Y221589D03*
G01*
X13846860Y1034389D03*
G01*
X13846860Y1440789D03*
G01*
X13846860Y1847189D03*
G01*
X13846860Y2253589D03*
G01*
X13672337Y635000D03*
G01*
X13672337Y228600D03*
G01*
X13672337Y1041400D03*
G01*
X13672337Y1447800D03*
G01*
X13672337Y1854200D03*
G01*
X13672337Y2260600D03*
G01*
X13672337Y2667000D03*
G01*
X13846860Y2659989D03*
G01*
X13672337Y3073400D03*
G01*
X13846860Y3066389D03*
G01*
X13672337Y3479800D03*
G01*
X13846860Y3472789D03*
G01*
X13672337Y3886200D03*
G01*
X13846860Y3879189D03*
G01*
X14329460Y4171289D03*
G01*
X14253260Y627989D03*
G01*
X14253260Y221589D03*
G01*
X14253260Y1034389D03*
G01*
X14253260Y1440789D03*
G01*
X14253260Y1847189D03*
G01*
X14253260Y2253589D03*
G01*
X14078737Y635000D03*
G01*
X14078737Y228600D03*
G01*
X14078737Y1041400D03*
G01*
X14078737Y1447800D03*
G01*
X14078737Y1854200D03*
G01*
X14078737Y2260600D03*
G01*
X14078737Y2667000D03*
G01*
X14253260Y2659989D03*
G01*
X14078737Y3073400D03*
G01*
X14253260Y3066389D03*
G01*
X14078737Y3479800D03*
G01*
X14253260Y3472789D03*
G01*
X14078737Y3886200D03*
G01*
X14253260Y3879189D03*
G01*
X14735860Y4171289D03*
G01*
X14659660Y627989D03*
G01*
X14659660Y221589D03*
G01*
X14659660Y1034389D03*
G01*
X14659660Y1440789D03*
G01*
X14659660Y1847189D03*
G01*
X14659660Y2253589D03*
G01*
X14485137Y635000D03*
G01*
X14485137Y228600D03*
G01*
X14485137Y1041400D03*
G01*
X14485137Y1447800D03*
G01*
X14485137Y1854200D03*
G01*
X14485137Y2260600D03*
G01*
X14485137Y2667000D03*
G01*
X14659660Y2659989D03*
G01*
X14485137Y3073400D03*
G01*
X14659660Y3066389D03*
G01*
X14485137Y3479800D03*
G01*
X14659660Y3472789D03*
G01*
X14485137Y3886200D03*
G01*
X14659660Y3879189D03*
G01*
X15142260Y4171289D03*
G01*
X15066060Y627989D03*
G01*
X15066060Y221589D03*
G01*
X15066060Y1034389D03*
G01*
X15066060Y1440789D03*
G01*
X15066060Y1847189D03*
G01*
X15066060Y2253589D03*
G01*
X14891537Y635000D03*
G01*
X14891537Y228600D03*
G01*
X14891537Y1041400D03*
G01*
X14891537Y1447800D03*
G01*
X14891537Y1854200D03*
G01*
X14891537Y2260600D03*
G01*
X14891537Y2667000D03*
G01*
X15066060Y2659989D03*
G01*
X14891537Y3073400D03*
G01*
X15066060Y3066389D03*
G01*
X14891537Y3479800D03*
G01*
X15066060Y3472789D03*
G01*
X14891537Y3886200D03*
G01*
X15066060Y3879189D03*
G01*
X15548660Y4171289D03*
G01*
X15472460Y627989D03*
G01*
X15472460Y221589D03*
G01*
X15472460Y1034389D03*
G01*
X15472460Y1440789D03*
G01*
X15472460Y1847189D03*
G01*
X15472460Y2253589D03*
G01*
X15297937Y635000D03*
G01*
X15297937Y228600D03*
G01*
X15297937Y1041400D03*
G01*
X15297937Y1447800D03*
G01*
X15297937Y1854200D03*
G01*
X15297937Y2260600D03*
G01*
X15297937Y2667000D03*
G01*
X15472460Y2659989D03*
G01*
X15297937Y3073400D03*
G01*
X15472460Y3066389D03*
G01*
X15297937Y3479800D03*
G01*
X15472460Y3472789D03*
G01*
X15297937Y3886200D03*
G01*
X15472460Y3879189D03*
G01*
X15955060Y4171289D03*
G01*
X15878860Y627989D03*
G01*
X15878860Y221589D03*
G01*
X15878860Y1034389D03*
G01*
X15878860Y1440789D03*
G01*
X15878860Y1847189D03*
G01*
X15878860Y2253589D03*
G01*
X15704337Y635000D03*
G01*
X15704337Y228600D03*
G01*
X15704337Y1041400D03*
G01*
X15704337Y1447800D03*
G01*
X15704337Y1854200D03*
G01*
X15704337Y2260600D03*
G01*
X15704337Y2667000D03*
G01*
X15878860Y2659989D03*
G01*
X15704337Y3073400D03*
G01*
X15878860Y3066389D03*
G01*
X15704337Y3479800D03*
G01*
X15878860Y3472789D03*
G01*
X15704337Y3886200D03*
G01*
X15878860Y3879189D03*
G01*
X16361460Y4171289D03*
G01*
X16285260Y627989D03*
G01*
X16285260Y221589D03*
G01*
X16285260Y1034389D03*
G01*
X16285260Y1440789D03*
G01*
X16285260Y1847189D03*
G01*
X16285260Y2253589D03*
G01*
X16110737Y635000D03*
G01*
X16110737Y228600D03*
G01*
X16110737Y1041400D03*
G01*
X16110737Y1447800D03*
G01*
X16110737Y1854200D03*
G01*
X16110737Y2260600D03*
G01*
X16110737Y2667000D03*
G01*
X16285260Y2659989D03*
G01*
X16110737Y3073400D03*
G01*
X16285260Y3066389D03*
G01*
X16110737Y3479800D03*
G01*
X16285260Y3472789D03*
G01*
X16110737Y3886200D03*
G01*
X16285260Y3879189D03*
G01*
X16767860Y4171289D03*
G01*
X16691660Y627989D03*
G01*
X16691660Y221589D03*
G01*
X16691660Y1034389D03*
G01*
X16691660Y1440789D03*
G01*
X16691660Y1847189D03*
G01*
X16691660Y2253589D03*
G01*
X16517137Y635000D03*
G01*
X16517137Y228600D03*
G01*
X16517137Y1041400D03*
G01*
X16517137Y1447800D03*
G01*
X16517137Y1854200D03*
G01*
X16517137Y2260600D03*
G01*
X16517137Y2667000D03*
G01*
X16691660Y2659989D03*
G01*
X16517137Y3073400D03*
G01*
X16691660Y3066389D03*
G01*
X16517137Y3479800D03*
G01*
X16691660Y3472789D03*
G01*
X16517137Y3886200D03*
G01*
X16691660Y3879189D03*
G01*
X17174260Y4171289D03*
G01*
X17098060Y627989D03*
G01*
X17098060Y221589D03*
G01*
X17098060Y1034389D03*
G01*
X17098060Y1440789D03*
G01*
X17098060Y1847189D03*
G01*
X17098060Y2253589D03*
G01*
X16923537Y635000D03*
G01*
X16923537Y228600D03*
G01*
X16923537Y1041400D03*
G01*
X16923537Y1447800D03*
G01*
X16923537Y1854200D03*
G01*
X16923537Y2260600D03*
G01*
X16923537Y2667000D03*
G01*
X17098060Y2659989D03*
G01*
X16923537Y3073400D03*
G01*
X17098060Y3066389D03*
G01*
X16923537Y3479800D03*
G01*
X17098060Y3472789D03*
G01*
X16923537Y3886200D03*
G01*
X17098060Y3879189D03*
G01*
X17580660Y4171289D03*
G01*
X17504460Y627989D03*
G01*
X17504460Y221589D03*
G01*
X17504460Y1034389D03*
G01*
X17504460Y1440789D03*
G01*
X17504460Y1847189D03*
G01*
X17504460Y2253589D03*
G01*
X17329937Y635000D03*
G01*
X17329937Y228600D03*
G01*
X17329937Y1041400D03*
G01*
X17329937Y1447800D03*
G01*
X17329937Y1854200D03*
G01*
X17329937Y2260600D03*
G01*
X17329937Y2667000D03*
G01*
X17504460Y2659989D03*
G01*
X17329937Y3073400D03*
G01*
X17504460Y3066389D03*
G01*
X17329937Y3479800D03*
G01*
X17504460Y3472789D03*
G01*
X17329937Y3886200D03*
G01*
X17504460Y3879189D03*
G01*
X17987060Y4171289D03*
G01*
X17910860Y627989D03*
G01*
X17910860Y221589D03*
G01*
X17910860Y1034389D03*
G01*
X17910860Y1440789D03*
G01*
X17910860Y1847189D03*
G01*
X17910860Y2253589D03*
G01*
X17736337Y635000D03*
G01*
X17736337Y228600D03*
G01*
X17736337Y1041400D03*
G01*
X17736337Y1447800D03*
G01*
X17736337Y1854200D03*
G01*
X17736337Y2260600D03*
G01*
X17736337Y2667000D03*
G01*
X17910860Y2659989D03*
G01*
X17736337Y3073400D03*
G01*
X17910860Y3066389D03*
G01*
X17736337Y3479800D03*
G01*
X17910860Y3472789D03*
G01*
X17736337Y3886200D03*
G01*
X17910860Y3879189D03*
G01*
X18393460Y4171289D03*
G01*
X18317260Y627989D03*
G01*
X18317260Y221589D03*
G01*
X18317260Y1034389D03*
G01*
X18317260Y1440789D03*
G01*
X18317260Y1847189D03*
G01*
X18317260Y2253589D03*
G01*
X18142737Y635000D03*
G01*
X18142737Y228600D03*
G01*
X18142737Y1041400D03*
G01*
X18142737Y1447800D03*
G01*
X18142737Y1854200D03*
G01*
X18142737Y2260600D03*
G01*
X18142737Y2667000D03*
G01*
X18317260Y2659989D03*
G01*
X18142737Y3073400D03*
G01*
X18317260Y3066389D03*
G01*
X18142737Y3479800D03*
G01*
X18317260Y3472789D03*
G01*
X18142737Y3886200D03*
G01*
X18317260Y3879189D03*
G01*
X18799860Y4171289D03*
G01*
X18723660Y627989D03*
G01*
X18723660Y221589D03*
G01*
X18723660Y1034389D03*
G01*
X18723660Y1440789D03*
G01*
X18723660Y1847189D03*
G01*
X18723660Y2253589D03*
G01*
X18549137Y635000D03*
G01*
X18549137Y228600D03*
G01*
X18549137Y1041400D03*
G01*
X18549137Y1447800D03*
G01*
X18549137Y1854200D03*
G01*
X18549137Y2260600D03*
G01*
X18549137Y2667000D03*
G01*
X18723660Y2659989D03*
G01*
X18549137Y3073400D03*
G01*
X18723660Y3066389D03*
G01*
X18549137Y3479800D03*
G01*
X18723660Y3472789D03*
G01*
X18549137Y3886200D03*
G01*
X18723660Y3879189D03*
G01*
X19206260Y4171289D03*
G01*
X19130060Y627989D03*
G01*
X19130060Y221589D03*
G01*
X19130060Y1034389D03*
G01*
X19130060Y1440789D03*
G01*
X19130060Y1847189D03*
G01*
X19130060Y2253589D03*
G01*
X18955537Y635000D03*
G01*
X18955537Y228600D03*
G01*
X18955537Y1041400D03*
G01*
X18955537Y1447800D03*
G01*
X18955537Y1854200D03*
G01*
X18955537Y2260600D03*
G01*
X18955537Y2667000D03*
G01*
X19130060Y2659989D03*
G01*
X18955537Y3073400D03*
G01*
X19130060Y3066389D03*
G01*
X18955537Y3479800D03*
G01*
X19130060Y3472789D03*
G01*
X18955537Y3886200D03*
G01*
X19130060Y3879189D03*
G01*
X19612660Y4171289D03*
G01*
X19536460Y627989D03*
G01*
X19536460Y221589D03*
G01*
X19536460Y1034389D03*
G01*
X19536460Y1440789D03*
G01*
X19536460Y1847189D03*
G01*
X19536460Y2253589D03*
G01*
X19361937Y635000D03*
G01*
X19361937Y228600D03*
G01*
X19361937Y1041400D03*
G01*
X19361937Y1447800D03*
G01*
X19361937Y1854200D03*
G01*
X19361937Y2260600D03*
G01*
X19361937Y2667000D03*
G01*
X19536460Y2659989D03*
G01*
X19361937Y3073400D03*
G01*
X19536460Y3066389D03*
G01*
X19361937Y3479800D03*
G01*
X19536460Y3472789D03*
G01*
X19361937Y3886200D03*
G01*
X19536460Y3879189D03*
G01*
X20019060Y4171289D03*
G01*
X19942860Y627989D03*
G01*
X19942860Y221589D03*
G01*
X19942860Y1034389D03*
G01*
X19942860Y1440789D03*
G01*
X19942860Y1847189D03*
G01*
X19942860Y2253589D03*
G01*
X19768337Y635000D03*
G01*
X19768337Y228600D03*
G01*
X19768337Y1041400D03*
G01*
X19768337Y1447800D03*
G01*
X19768337Y1854200D03*
G01*
X19768337Y2260600D03*
G01*
X19768337Y2667000D03*
G01*
X19942860Y2659989D03*
G01*
X19768337Y3073400D03*
G01*
X19942860Y3066389D03*
G01*
X19768337Y3479800D03*
G01*
X19942860Y3472789D03*
G01*
X19768337Y3886200D03*
G01*
X19942860Y3879189D03*
G01*
X20425460Y4171289D03*
G01*
X20349260Y627989D03*
G01*
X20349260Y221589D03*
G01*
X20349260Y1034389D03*
G01*
X20349260Y1440789D03*
G01*
X20349260Y1847189D03*
G01*
X20349260Y2253589D03*
G01*
X20174737Y635000D03*
G01*
X20174737Y228600D03*
G01*
X20174737Y1041400D03*
G01*
X20174737Y1447800D03*
G01*
X20174737Y1854200D03*
G01*
X20174737Y2260600D03*
G01*
X20174737Y2667000D03*
G01*
X20349260Y2659989D03*
G01*
X20174737Y3073400D03*
G01*
X20349260Y3066389D03*
G01*
X20174737Y3479800D03*
G01*
X20349260Y3472789D03*
G01*
X20174737Y3886200D03*
G01*
X20349260Y3879189D03*
G01*
X20831860Y4171289D03*
G01*
X20755660Y627989D03*
G01*
X20755660Y221589D03*
G01*
X20755660Y1034389D03*
G01*
X20755660Y1440789D03*
G01*
X20755660Y1847189D03*
G01*
X20755660Y2253589D03*
G01*
X20581137Y635000D03*
G01*
X20581137Y228600D03*
G01*
X20581137Y1041400D03*
G01*
X20581137Y1447800D03*
G01*
X20581137Y1854200D03*
G01*
X20581137Y2260600D03*
G01*
X20581137Y2667000D03*
G01*
X20755660Y2659989D03*
G01*
X20581137Y3073400D03*
G01*
X20755660Y3066389D03*
G01*
X20581137Y3479800D03*
G01*
X20755660Y3472789D03*
G01*
X20581137Y3886200D03*
G01*
X20755660Y3879189D03*
G01*
X21238260Y4171289D03*
G01*
X21162060Y627989D03*
G01*
X21162060Y221589D03*
G01*
X21162060Y1034389D03*
G01*
X21162060Y1440789D03*
G01*
X21162060Y1847189D03*
G01*
X21162060Y2253589D03*
G01*
X20987537Y635000D03*
G01*
X20987537Y228600D03*
G01*
X20987537Y1041400D03*
G01*
X20987537Y1447800D03*
G01*
X20987537Y1854200D03*
G01*
X20987537Y2260600D03*
G01*
X20987537Y2667000D03*
G01*
X21162060Y2659989D03*
G01*
X20987537Y3073400D03*
G01*
X21162060Y3066389D03*
G01*
X20987537Y3479800D03*
G01*
X21162060Y3472789D03*
G01*
X20987537Y3886200D03*
G01*
X21162060Y3879189D03*
G01*
X21644660Y4171289D03*
G01*
X21568460Y627989D03*
G01*
X21568460Y221589D03*
G01*
X21568460Y1034389D03*
G01*
X21568460Y1440789D03*
G01*
X21568460Y1847189D03*
G01*
X21568460Y2253589D03*
G01*
X21393937Y635000D03*
G01*
X21393937Y228600D03*
G01*
X21393937Y1041400D03*
G01*
X21393937Y1447800D03*
G01*
X21393937Y1854200D03*
G01*
X21393937Y2260600D03*
G01*
X21393937Y2667000D03*
G01*
X21568460Y2659989D03*
G01*
X21393937Y3073400D03*
G01*
X21568460Y3066389D03*
G01*
X21393937Y3479800D03*
G01*
X21568460Y3472789D03*
G01*
X21393937Y3886200D03*
G01*
X21568460Y3879189D03*
G01*
X22051060Y4171289D03*
G01*
X21974860Y627989D03*
G01*
X21974860Y221589D03*
G01*
X21974860Y1034389D03*
G01*
X21974860Y1440789D03*
G01*
X21974860Y1847189D03*
G01*
X21974860Y2253589D03*
G01*
X21800337Y635000D03*
G01*
X21800337Y228600D03*
G01*
X21800337Y1041400D03*
G01*
X21800337Y1447800D03*
G01*
X21800337Y1854200D03*
G01*
X21800337Y2260600D03*
G01*
X21800337Y2667000D03*
G01*
X21974860Y2659989D03*
G01*
X21800337Y3073400D03*
G01*
X21974860Y3066389D03*
G01*
X21800337Y3479800D03*
G01*
X21974860Y3472789D03*
G01*
X21800337Y3886200D03*
G01*
X21974860Y3879189D03*
G01*
X22457460Y4171289D03*
G01*
X22381260Y627989D03*
G01*
X22381260Y221589D03*
G01*
X22381260Y1034389D03*
G01*
X22381260Y1440789D03*
G01*
X22381260Y1847189D03*
G01*
X22381260Y2253589D03*
G01*
X22206737Y635000D03*
G01*
X22206737Y228600D03*
G01*
X22206737Y1041400D03*
G01*
X22206737Y1447800D03*
G01*
X22206737Y1854200D03*
G01*
X22206737Y2260600D03*
G01*
X22206737Y2667000D03*
G01*
X22381260Y2659989D03*
G01*
X22206737Y3073400D03*
G01*
X22381260Y3066389D03*
G01*
X22206737Y3479800D03*
G01*
X22381260Y3472789D03*
G01*
X22206737Y3886200D03*
G01*
X22381260Y3879189D03*
G01*
X22863860Y4171289D03*
G01*
X22787660Y627989D03*
G01*
X22787660Y221589D03*
G01*
X22787660Y1034389D03*
G01*
X22787660Y1440789D03*
G01*
X22787660Y1847189D03*
G01*
X22787660Y2253589D03*
G01*
X22613137Y635000D03*
G01*
X22613137Y228600D03*
G01*
X22613137Y1041400D03*
G01*
X22613137Y1447800D03*
G01*
X22613137Y1854200D03*
G01*
X22613137Y2260600D03*
G01*
X22613137Y2667000D03*
G01*
X22787660Y2659989D03*
G01*
X22613137Y3073400D03*
G01*
X22787660Y3066389D03*
G01*
X22613137Y3479800D03*
G01*
X22787660Y3472789D03*
G01*
X22613137Y3886200D03*
G01*
X22787660Y3879189D03*
G01*
X23270260Y4171289D03*
G01*
X23194060Y627989D03*
G01*
X23194060Y221589D03*
G01*
X23194060Y1034389D03*
G01*
X23194060Y1440789D03*
G01*
X23194060Y1847189D03*
G01*
X23194060Y2253589D03*
G01*
X23019537Y635000D03*
G01*
X23019537Y228600D03*
G01*
X23019537Y1041400D03*
G01*
X23019537Y1447800D03*
G01*
X23019537Y1854200D03*
G01*
X23019537Y2260600D03*
G01*
X23019537Y2667000D03*
G01*
X23194060Y2659989D03*
G01*
X23019537Y3073400D03*
G01*
X23194060Y3066389D03*
G01*
X23019537Y3479800D03*
G01*
X23194060Y3472789D03*
G01*
X23019537Y3886200D03*
G01*
X23194060Y3879189D03*
G01*
X23676660Y4171289D03*
G01*
X23600460Y627989D03*
G01*
X23600460Y221589D03*
G01*
X23600460Y1034389D03*
G01*
X23600460Y1440789D03*
G01*
X23600460Y1847189D03*
G01*
X23600460Y2253589D03*
G01*
X23425937Y635000D03*
G01*
X23425937Y228600D03*
G01*
X23425937Y1041400D03*
G01*
X23425937Y1447800D03*
G01*
X23425937Y1854200D03*
G01*
X23425937Y2260600D03*
G01*
X23425937Y2667000D03*
G01*
X23600460Y2659989D03*
G01*
X23425937Y3073400D03*
G01*
X23600460Y3066389D03*
G01*
X23425937Y3479800D03*
G01*
X23600460Y3472789D03*
G01*
X23425937Y3886200D03*
G01*
X23600460Y3879189D03*
G01*
X24083060Y4171289D03*
G01*
X24006860Y627989D03*
G01*
X24006860Y221589D03*
G01*
X24006860Y1034389D03*
G01*
X24006860Y1440789D03*
G01*
X24006860Y1847189D03*
G01*
X24006860Y2253589D03*
G01*
X23832337Y635000D03*
G01*
X23832337Y228600D03*
G01*
X23832337Y1041400D03*
G01*
X23832337Y1447800D03*
G01*
X23832337Y1854200D03*
G01*
X23832337Y2260600D03*
G01*
X23832337Y2667000D03*
G01*
X24006860Y2659989D03*
G01*
X23832337Y3073400D03*
G01*
X24006860Y3066389D03*
G01*
X23832337Y3479800D03*
G01*
X24006860Y3472789D03*
G01*
X23832337Y3886200D03*
G01*
X24006860Y3879189D03*
G01*
X24489460Y4171289D03*
G01*
X24413260Y627989D03*
G01*
X24413260Y221589D03*
G01*
X24413260Y1034389D03*
G01*
X24413260Y1440789D03*
G01*
X24413260Y1847189D03*
G01*
X24413260Y2253589D03*
G01*
X24238737Y635000D03*
G01*
X24238737Y228600D03*
G01*
X24238737Y1041400D03*
G01*
X24238737Y1447800D03*
G01*
X24238737Y1854200D03*
G01*
X24238737Y2260600D03*
G01*
X24238737Y2667000D03*
G01*
X24413260Y2659989D03*
G01*
X24238737Y3073400D03*
G01*
X24413260Y3066389D03*
G01*
X24238737Y3479800D03*
G01*
X24413260Y3472789D03*
G01*
X24238737Y3886200D03*
G01*
X24413260Y3879189D03*
G01*
X24895860Y4171289D03*
G01*
X24819660Y627989D03*
G01*
X24819660Y221589D03*
G01*
X24819660Y1034389D03*
G01*
X24819660Y1440789D03*
G01*
X24819660Y1847189D03*
G01*
X24819660Y2253589D03*
G01*
X24645137Y635000D03*
G01*
X24645137Y228600D03*
G01*
X24645137Y1041400D03*
G01*
X24645137Y1447800D03*
G01*
X24645137Y1854200D03*
G01*
X24645137Y2260600D03*
G01*
X24645137Y2667000D03*
G01*
X24819660Y2659989D03*
G01*
X24645137Y3073400D03*
G01*
X24819660Y3066389D03*
G01*
X24645137Y3479800D03*
G01*
X24819660Y3472789D03*
G01*
X24645137Y3886200D03*
G01*
X24819660Y3879189D03*
G01*
X25302260Y4171289D03*
G01*
X25226060Y627989D03*
G01*
X25226060Y221589D03*
G01*
X25226060Y1034389D03*
G01*
X25226060Y1440789D03*
G01*
X25226060Y1847189D03*
G01*
X25226060Y2253589D03*
G01*
X25051537Y635000D03*
G01*
X25051537Y228600D03*
G01*
X25051537Y1041400D03*
G01*
X25051537Y1447800D03*
G01*
X25051537Y1854200D03*
G01*
X25051537Y2260600D03*
G01*
X25051537Y2667000D03*
G01*
X25226060Y2659989D03*
G01*
X25051537Y3073400D03*
G01*
X25226060Y3066389D03*
G01*
X25051537Y3479800D03*
G01*
X25226060Y3472789D03*
G01*
X25051537Y3886200D03*
G01*
X25226060Y3879189D03*
G01*
X25708660Y4171289D03*
G01*
X25632460Y627989D03*
G01*
X25632460Y221589D03*
G01*
X25632460Y1034389D03*
G01*
X25632460Y1440789D03*
G01*
X25632460Y1847189D03*
G01*
X25632460Y2253589D03*
G01*
X25457937Y635000D03*
G01*
X25457937Y228600D03*
G01*
X25457937Y1041400D03*
G01*
X25457937Y1447800D03*
G01*
X25457937Y1854200D03*
G01*
X25457937Y2260600D03*
G01*
X25457937Y2667000D03*
G01*
X25632460Y2659989D03*
G01*
X25457937Y3073400D03*
G01*
X25632460Y3066389D03*
G01*
X25457937Y3479800D03*
G01*
X25632460Y3472789D03*
G01*
X25457937Y3886200D03*
G01*
X25632460Y3879189D03*
G01*
X26115060Y4171289D03*
G01*
X26038860Y627989D03*
G01*
X26038860Y221589D03*
G01*
X26038860Y1034389D03*
G01*
X26038860Y1440789D03*
G01*
X26038860Y1847189D03*
G01*
X26038860Y2253589D03*
G01*
X25864337Y635000D03*
G01*
X25864337Y228600D03*
G01*
X25864337Y1041400D03*
G01*
X25864337Y1447800D03*
G01*
X25864337Y1854200D03*
G01*
X25864337Y2260600D03*
G01*
X25864337Y2667000D03*
G01*
X26038860Y2659989D03*
G01*
X25864337Y3073400D03*
G01*
X26038860Y3066389D03*
G01*
X25864337Y3479800D03*
G01*
X26038860Y3472789D03*
G01*
X25864337Y3886200D03*
G01*
X26038860Y3879189D03*
G01*
X26521460Y4171289D03*
G01*
X26445260Y627989D03*
G01*
X26445260Y221589D03*
G01*
X26445260Y1034389D03*
G01*
X26445260Y1440789D03*
G01*
X26445260Y1847189D03*
G01*
X26445260Y2253589D03*
G01*
X26270737Y635000D03*
G01*
X26270737Y228600D03*
G01*
X26270737Y1041400D03*
G01*
X26270737Y1447800D03*
G01*
X26270737Y1854200D03*
G01*
X26270737Y2260600D03*
G01*
X26270737Y2667000D03*
G01*
X26445260Y2659989D03*
G01*
X26270737Y3073400D03*
G01*
X26445260Y3066389D03*
G01*
X26270737Y3479800D03*
G01*
X26445260Y3472789D03*
G01*
X26270737Y3886200D03*
G01*
X26445260Y3879189D03*
G01*
X26927860Y4171289D03*
G01*
X26851660Y627989D03*
G01*
X26851660Y221589D03*
G01*
X26851660Y1034389D03*
G01*
X26851660Y1440789D03*
G01*
X26851660Y1847189D03*
G01*
X26851660Y2253589D03*
G01*
X26677137Y635000D03*
G01*
X26677137Y228600D03*
G01*
X26677137Y1041400D03*
G01*
X26677137Y1447800D03*
G01*
X26677137Y1854200D03*
G01*
X26677137Y2260600D03*
G01*
X26677137Y2667000D03*
G01*
X26851660Y2659989D03*
G01*
X26677137Y3073400D03*
G01*
X26851660Y3066389D03*
G01*
X26677137Y3479800D03*
G01*
X26851660Y3472789D03*
G01*
X26677137Y3886200D03*
G01*
X26851660Y3879189D03*
G01*
X27334260Y4171289D03*
G01*
X27258060Y627989D03*
G01*
X27258060Y221589D03*
G01*
X27258060Y1034389D03*
G01*
X27258060Y1440789D03*
G01*
X27258060Y1847189D03*
G01*
X27258060Y2253589D03*
G01*
X27083537Y635000D03*
G01*
X27083537Y228600D03*
G01*
X27083537Y1041400D03*
G01*
X27083537Y1447800D03*
G01*
X27083537Y1854200D03*
G01*
X27083537Y2260600D03*
G01*
X27083537Y2667000D03*
G01*
X27258060Y2659989D03*
G01*
X27083537Y3073400D03*
G01*
X27258060Y3066389D03*
G01*
X27083537Y3479800D03*
G01*
X27258060Y3472789D03*
G01*
X27083537Y3886200D03*
G01*
X27258060Y3879189D03*
G01*
X27740660Y4171289D03*
G01*
X27664460Y627989D03*
G01*
X27664460Y221589D03*
G01*
X27664460Y1034389D03*
G01*
X27664460Y1440789D03*
G01*
X27664460Y1847189D03*
G01*
X27664460Y2253589D03*
G01*
X27489937Y635000D03*
G01*
X27489937Y228600D03*
G01*
X27489937Y1041400D03*
G01*
X27489937Y1447800D03*
G01*
X27489937Y1854200D03*
G01*
X27489937Y2260600D03*
G01*
X27489937Y2667000D03*
G01*
X27664460Y2659989D03*
G01*
X27489937Y3073400D03*
G01*
X27664460Y3066389D03*
G01*
X27489937Y3479800D03*
G01*
X27664460Y3472789D03*
G01*
X27489937Y3886200D03*
G01*
X27664460Y3879189D03*
G01*
X28147060Y4171289D03*
G01*
X28070860Y627989D03*
G01*
X28070860Y221589D03*
G01*
X28070860Y1034389D03*
G01*
X28070860Y1440789D03*
G01*
X28070860Y1847189D03*
G01*
X28070860Y2253589D03*
G01*
X27896337Y635000D03*
G01*
X27896337Y228600D03*
G01*
X27896337Y1041400D03*
G01*
X27896337Y1447800D03*
G01*
X27896337Y1854200D03*
G01*
X27896337Y2260600D03*
G01*
X27896337Y2667000D03*
G01*
X28070860Y2659989D03*
G01*
X27896337Y3073400D03*
G01*
X28070860Y3066389D03*
G01*
X27896337Y3479800D03*
G01*
X28070860Y3472789D03*
G01*
X27896337Y3886200D03*
G01*
X28070860Y3879189D03*
G01*
X28553460Y4171289D03*
G01*
X28477260Y627989D03*
G01*
X28477260Y221589D03*
G01*
X28477260Y1034389D03*
G01*
X28477260Y1440789D03*
G01*
X28477260Y1847189D03*
G01*
X28477260Y2253589D03*
G01*
X28302737Y635000D03*
G01*
X28302737Y228600D03*
G01*
X28302737Y1041400D03*
G01*
X28302737Y1447800D03*
G01*
X28302737Y1854200D03*
G01*
X28302737Y2260600D03*
G01*
X28302737Y2667000D03*
G01*
X28477260Y2659989D03*
G01*
X28302737Y3073400D03*
G01*
X28477260Y3066389D03*
G01*
X28302737Y3479800D03*
G01*
X28477260Y3472789D03*
G01*
X28302737Y3886200D03*
G01*
X28477260Y3879189D03*
G01*
X28959860Y4171289D03*
G01*
X28883660Y627989D03*
G01*
X28883660Y221589D03*
G01*
X28883660Y1034389D03*
G01*
X28883660Y1440789D03*
G01*
X28883660Y1847189D03*
G01*
X28883660Y2253589D03*
G01*
X28709137Y635000D03*
G01*
X28709137Y228600D03*
G01*
X28709137Y1041400D03*
G01*
X28709137Y1447800D03*
G01*
X28709137Y1854200D03*
G01*
X28709137Y2260600D03*
G01*
X28709137Y2667000D03*
G01*
X28883660Y2659989D03*
G01*
X28709137Y3073400D03*
G01*
X28883660Y3066389D03*
G01*
X28709137Y3479800D03*
G01*
X28883660Y3472789D03*
G01*
X28709137Y3886200D03*
G01*
X28883660Y3879189D03*
G01*
X29366260Y4171289D03*
G01*
X29290060Y627989D03*
G01*
X29290060Y221589D03*
G01*
X29290060Y1034389D03*
G01*
X29290060Y1440789D03*
G01*
X29290060Y1847189D03*
G01*
X29290060Y2253589D03*
G01*
X29115537Y635000D03*
G01*
X29115537Y228600D03*
G01*
X29115537Y1041400D03*
G01*
X29115537Y1447800D03*
G01*
X29115537Y1854200D03*
G01*
X29115537Y2260600D03*
G01*
X29115537Y2667000D03*
G01*
X29290060Y2659989D03*
G01*
X29115537Y3073400D03*
G01*
X29290060Y3066389D03*
G01*
X29115537Y3479800D03*
G01*
X29290060Y3472789D03*
G01*
X29115537Y3886200D03*
G01*
X29290060Y3879189D03*
G01*
X29772660Y4171289D03*
G01*
X29696460Y627989D03*
G01*
X29696460Y221589D03*
G01*
X29696460Y1034389D03*
G01*
X29696460Y1440789D03*
G01*
X29696460Y1847189D03*
G01*
X29696460Y2253589D03*
G01*
X29521937Y635000D03*
G01*
X29521937Y228600D03*
G01*
X29521937Y1041400D03*
G01*
X29521937Y1447800D03*
G01*
X29521937Y1854200D03*
G01*
X29521937Y2260600D03*
G01*
X29521937Y2667000D03*
G01*
X29696460Y2659989D03*
G01*
X29521937Y3073400D03*
G01*
X29696460Y3066389D03*
G01*
X29521937Y3479800D03*
G01*
X29696460Y3472789D03*
G01*
X29521937Y3886200D03*
G01*
X29696460Y3879189D03*
G01*
X30179060Y4171289D03*
G01*
X30102860Y627989D03*
G01*
X30102860Y221589D03*
G01*
X30102860Y1034389D03*
G01*
X30102860Y1440789D03*
G01*
X30102860Y1847189D03*
G01*
X30102860Y2253589D03*
G01*
X29928337Y635000D03*
G01*
X29928337Y228600D03*
G01*
X29928337Y1041400D03*
G01*
X29928337Y1447800D03*
G01*
X29928337Y1854200D03*
G01*
X29928337Y2260600D03*
G01*
X29928337Y2667000D03*
G01*
X30102860Y2659989D03*
G01*
X29928337Y3073400D03*
G01*
X30102860Y3066389D03*
G01*
X29928337Y3479800D03*
G01*
X30102860Y3472789D03*
G01*
X29928337Y3886200D03*
G01*
X30102860Y3879189D03*
G01*
X30585460Y4171289D03*
G01*
X30509260Y627989D03*
G01*
X30509260Y221589D03*
G01*
X30509260Y1034389D03*
G01*
X30509260Y1440789D03*
G01*
X30509260Y1847189D03*
G01*
X30509260Y2253589D03*
G01*
X30334737Y635000D03*
G01*
X30334737Y228600D03*
G01*
X30334737Y1041400D03*
G01*
X30334737Y1447800D03*
G01*
X30334737Y1854200D03*
G01*
X30334737Y2260600D03*
G01*
X30334737Y2667000D03*
G01*
X30509260Y2659989D03*
G01*
X30334737Y3073400D03*
G01*
X30509260Y3066389D03*
G01*
X30334737Y3479800D03*
G01*
X30509260Y3472789D03*
G01*
X30334737Y3886200D03*
G01*
X30509260Y3879189D03*
G01*
X30991860Y4171289D03*
G01*
X30915660Y627989D03*
G01*
X30915660Y221589D03*
G01*
X30915660Y1034389D03*
G01*
X30915660Y1440789D03*
G01*
X30915660Y1847189D03*
G01*
X30915660Y2253589D03*
G01*
X30741137Y635000D03*
G01*
X30741137Y228600D03*
G01*
X30741137Y1041400D03*
G01*
X30741137Y1447800D03*
G01*
X30741137Y1854200D03*
G01*
X30741137Y2260600D03*
G01*
X30741137Y2667000D03*
G01*
X30915660Y2659989D03*
G01*
X30741137Y3073400D03*
G01*
X30915660Y3066389D03*
G01*
X30741137Y3479800D03*
G01*
X30915660Y3472789D03*
G01*
X30741137Y3886200D03*
G01*
X30915660Y3879189D03*
G01*
X31398260Y4171289D03*
G01*
X31322060Y627989D03*
G01*
X31322060Y221589D03*
G01*
X31322060Y1034389D03*
G01*
X31322060Y1440789D03*
G01*
X31322060Y1847189D03*
G01*
X31322060Y2253589D03*
G01*
X31147537Y635000D03*
G01*
X31147537Y228600D03*
G01*
X31147537Y1041400D03*
G01*
X31147537Y1447800D03*
G01*
X31147537Y1854200D03*
G01*
X31147537Y2260600D03*
G01*
X31147537Y2667000D03*
G01*
X31322060Y2659989D03*
G01*
X31147537Y3073400D03*
G01*
X31322060Y3066389D03*
G01*
X31147537Y3479800D03*
G01*
X31322060Y3472789D03*
G01*
X31147537Y3886200D03*
G01*
X31322060Y3879189D03*
G01*
X31804660Y4171289D03*
G01*
X31728460Y627989D03*
G01*
X31728460Y221589D03*
G01*
X31728460Y1034389D03*
G01*
X31728460Y1440789D03*
G01*
X31728460Y1847189D03*
G01*
X31728460Y2253589D03*
G01*
X31553937Y635000D03*
G01*
X31553937Y228600D03*
G01*
X31553937Y1041400D03*
G01*
X31553937Y1447800D03*
G01*
X31553937Y1854200D03*
G01*
X31553937Y2260600D03*
G01*
X31553937Y2667000D03*
G01*
X31728460Y2659989D03*
G01*
X31553937Y3073400D03*
G01*
X31728460Y3066389D03*
G01*
X31553937Y3479800D03*
G01*
X31728460Y3472789D03*
G01*
X31553937Y3886200D03*
G01*
X31728460Y3879189D03*
G01*
X32211060Y4171289D03*
G01*
X32134860Y627989D03*
G01*
X32134860Y221589D03*
G01*
X32134860Y1034389D03*
G01*
X32134860Y1440789D03*
G01*
X32134860Y1847189D03*
G01*
X32134860Y2253589D03*
G01*
X31960337Y635000D03*
G01*
X31960337Y228600D03*
G01*
X31960337Y1041400D03*
G01*
X31960337Y1447800D03*
G01*
X31960337Y1854200D03*
G01*
X31960337Y2260600D03*
G01*
X31960337Y2667000D03*
G01*
X32134860Y2659989D03*
G01*
X31960337Y3073400D03*
G01*
X32134860Y3066389D03*
G01*
X31960337Y3479800D03*
G01*
X32134860Y3472789D03*
G01*
X31960337Y3886200D03*
G01*
X32134860Y3879189D03*
G01*
X32617460Y4171289D03*
G01*
X32541260Y627989D03*
G01*
X32541260Y221589D03*
G01*
X32541260Y1034389D03*
G01*
X32541260Y1440789D03*
G01*
X32541260Y1847189D03*
G01*
X32541260Y2253589D03*
G01*
X32366737Y635000D03*
G01*
X32366737Y228600D03*
G01*
X32366737Y1041400D03*
G01*
X32366737Y1447800D03*
G01*
X32366737Y1854200D03*
G01*
X32366737Y2260600D03*
G01*
X32366737Y2667000D03*
G01*
X32541260Y2659989D03*
G01*
X32366737Y3073400D03*
G01*
X32541260Y3066389D03*
G01*
X32366737Y3479800D03*
G01*
X32541260Y3472789D03*
G01*
X32366737Y3886200D03*
G01*
X32541260Y3879189D03*
G01*
X33023860Y4171289D03*
G01*
X32947660Y627989D03*
G01*
X32947660Y221589D03*
G01*
X32947660Y1034389D03*
G01*
X32947660Y1440789D03*
G01*
X32947660Y1847189D03*
G01*
X32947660Y2253589D03*
G01*
X32773137Y635000D03*
G01*
X32773137Y228600D03*
G01*
X32773137Y1041400D03*
G01*
X32773137Y1447800D03*
G01*
X32773137Y1854200D03*
G01*
X32773137Y2260600D03*
G01*
X32773137Y2667000D03*
G01*
X32947660Y2659989D03*
G01*
X32773137Y3073400D03*
G01*
X32947660Y3066389D03*
G01*
X32773137Y3479800D03*
G01*
X32947660Y3472789D03*
G01*
X32773137Y3886200D03*
G01*
X32947660Y3879189D03*
G01*
X33430260Y4171289D03*
G01*
X33354060Y627989D03*
G01*
X33354060Y221589D03*
G01*
X33354060Y1034389D03*
G01*
X33354060Y1440789D03*
G01*
X33354060Y1847189D03*
G01*
X33354060Y2253589D03*
G01*
X33179537Y635000D03*
G01*
X33179537Y228600D03*
G01*
X33179537Y1041400D03*
G01*
X33179537Y1447800D03*
G01*
X33179537Y1854200D03*
G01*
X33179537Y2260600D03*
G01*
X33179537Y2667000D03*
G01*
X33354060Y2659989D03*
G01*
X33179537Y3073400D03*
G01*
X33354060Y3066389D03*
G01*
X33179537Y3479800D03*
G01*
X33354060Y3472789D03*
G01*
X33179537Y3886200D03*
G01*
X33354060Y3879189D03*
G01*
X33836660Y4171289D03*
G01*
X33760460Y627989D03*
G01*
X33760460Y221589D03*
G01*
X33760460Y1034389D03*
G01*
X33760460Y1440789D03*
G01*
X33760460Y1847189D03*
G01*
X33760460Y2253589D03*
G01*
X33585937Y635000D03*
G01*
X33585937Y228600D03*
G01*
X33585937Y1041400D03*
G01*
X33585937Y1447800D03*
G01*
X33585937Y1854200D03*
G01*
X33585937Y2260600D03*
G01*
X33585937Y2667000D03*
G01*
X33760460Y2659989D03*
G01*
X33585937Y3073400D03*
G01*
X33760460Y3066389D03*
G01*
X33585937Y3479800D03*
G01*
X33760460Y3472789D03*
G01*
X33585937Y3886200D03*
G01*
X33760460Y3879189D03*
G01*
X34243060Y4171289D03*
G01*
X34166860Y627989D03*
G01*
X34166860Y221589D03*
G01*
X34166860Y1034389D03*
G01*
X34166860Y1440789D03*
G01*
X34166860Y1847189D03*
G01*
X34166860Y2253589D03*
G01*
X33992337Y635000D03*
G01*
X33992337Y228600D03*
G01*
X33992337Y1041400D03*
G01*
X33992337Y1447800D03*
G01*
X33992337Y1854200D03*
G01*
X33992337Y2260600D03*
G01*
X33992337Y2667000D03*
G01*
X34166860Y2659989D03*
G01*
X33992337Y3073400D03*
G01*
X34166860Y3066389D03*
G01*
X33992337Y3479800D03*
G01*
X34166860Y3472789D03*
G01*
X33992337Y3886200D03*
G01*
X34166860Y3879189D03*
G01*
X34649460Y4171289D03*
G01*
X34573260Y627989D03*
G01*
X34573260Y221589D03*
G01*
X34573260Y1034389D03*
G01*
X34573260Y1440789D03*
G01*
X34573260Y1847189D03*
G01*
X34573260Y2253589D03*
G01*
X34398737Y635000D03*
G01*
X34398737Y228600D03*
G01*
X34398737Y1041400D03*
G01*
X34398737Y1447800D03*
G01*
X34398737Y1854200D03*
G01*
X34398737Y2260600D03*
G01*
X34398737Y2667000D03*
G01*
X34573260Y2659989D03*
G01*
X34398737Y3073400D03*
G01*
X34573260Y3066389D03*
G01*
X34398737Y3479800D03*
G01*
X34573260Y3472789D03*
G01*
X34398737Y3886200D03*
G01*
X34573260Y3879189D03*
G01*
X35055860Y4171289D03*
G01*
X34979660Y627989D03*
G01*
X34979660Y221589D03*
G01*
X34979660Y1034389D03*
G01*
X34979660Y1440789D03*
G01*
X34979660Y1847189D03*
G01*
X34979660Y2253589D03*
G01*
X34805137Y635000D03*
G01*
X34805137Y228600D03*
G01*
X34805137Y1041400D03*
G01*
X34805137Y1447800D03*
G01*
X34805137Y1854200D03*
G01*
X34805137Y2260600D03*
G01*
X34805137Y2667000D03*
G01*
X34979660Y2659989D03*
G01*
X34805137Y3073400D03*
G01*
X34979660Y3066389D03*
G01*
X34805137Y3479800D03*
G01*
X34979660Y3472789D03*
G01*
X34805137Y3886200D03*
G01*
X34979660Y3879189D03*
G01*
X35462260Y4171289D03*
G01*
X35386060Y627989D03*
G01*
X35386060Y221589D03*
G01*
X35386060Y1034389D03*
G01*
X35386060Y1440789D03*
G01*
X35386060Y1847189D03*
G01*
X35386060Y2253589D03*
G01*
X35211537Y635000D03*
G01*
X35211537Y228600D03*
G01*
X35211537Y1041400D03*
G01*
X35211537Y1447800D03*
G01*
X35211537Y1854200D03*
G01*
X35211537Y2260600D03*
G01*
X35211537Y2667000D03*
G01*
X35386060Y2659989D03*
G01*
X35211537Y3073400D03*
G01*
X35386060Y3066389D03*
G01*
X35211537Y3479800D03*
G01*
X35386060Y3472789D03*
G01*
X35211537Y3886200D03*
G01*
X35386060Y3879189D03*
G01*
X35868660Y4171289D03*
G01*
X35792460Y627989D03*
G01*
X35792460Y221589D03*
G01*
X35792460Y1034389D03*
G01*
X35792460Y1440789D03*
G01*
X35792460Y1847189D03*
G01*
X35792460Y2253589D03*
G01*
X35617937Y635000D03*
G01*
X35617937Y228600D03*
G01*
X35617937Y1041400D03*
G01*
X35617937Y1447800D03*
G01*
X35617937Y1854200D03*
G01*
X35617937Y2260600D03*
G01*
X35617937Y2667000D03*
G01*
X35792460Y2659989D03*
G01*
X35617937Y3073400D03*
G01*
X35792460Y3066389D03*
G01*
X35617937Y3479800D03*
G01*
X35792460Y3472789D03*
G01*
X35617937Y3886200D03*
G01*
X35792460Y3879189D03*
G01*
X36275060Y4171289D03*
G01*
X36198860Y627989D03*
G01*
X36198860Y221589D03*
G01*
X36198860Y1034389D03*
G01*
X36198860Y1440789D03*
G01*
X36198860Y1847189D03*
G01*
X36198860Y2253589D03*
G01*
X36024337Y635000D03*
G01*
X36024337Y228600D03*
G01*
X36024337Y1041400D03*
G01*
X36024337Y1447800D03*
G01*
X36024337Y1854200D03*
G01*
X36024337Y2260600D03*
G01*
X36024337Y2667000D03*
G01*
X36198860Y2659989D03*
G01*
X36024337Y3073400D03*
G01*
X36198860Y3066389D03*
G01*
X36024337Y3479800D03*
G01*
X36198860Y3472789D03*
G01*
X36024337Y3886200D03*
G01*
X36198860Y3879189D03*
G01*
X36681460Y4171289D03*
G01*
X36605260Y627989D03*
G01*
X36605260Y221589D03*
G01*
X36605260Y1034389D03*
G01*
X36605260Y1440789D03*
G01*
X36605260Y1847189D03*
G01*
X36605260Y2253589D03*
G01*
X36430737Y635000D03*
G01*
X36430737Y228600D03*
G01*
X36430737Y1041400D03*
G01*
X36430737Y1447800D03*
G01*
X36430737Y1854200D03*
G01*
X36430737Y2260600D03*
G01*
X36430737Y2667000D03*
G01*
X36605260Y2659989D03*
G01*
X36430737Y3073400D03*
G01*
X36605260Y3066389D03*
G01*
X36430737Y3479800D03*
G01*
X36605260Y3472789D03*
G01*
X36430737Y3886200D03*
G01*
X36605260Y3879189D03*
G01*
X37087860Y4171289D03*
G01*
X37011660Y627989D03*
G01*
X37011660Y221589D03*
G01*
X37011660Y1034389D03*
G01*
X37011660Y1440789D03*
G01*
X37011660Y1847189D03*
G01*
X37011660Y2253589D03*
G01*
X36837137Y635000D03*
G01*
X36837137Y228600D03*
G01*
X36837137Y1041400D03*
G01*
X36837137Y1447800D03*
G01*
X36837137Y1854200D03*
G01*
X36837137Y2260600D03*
G01*
X36837137Y2667000D03*
G01*
X37011660Y2659989D03*
G01*
X36837137Y3073400D03*
G01*
X37011660Y3066389D03*
G01*
X36837137Y3479800D03*
G01*
X37011660Y3472789D03*
G01*
X36837137Y3886200D03*
G01*
X37011660Y3879189D03*
G01*
X37494260Y4171289D03*
G01*
X37418060Y627989D03*
G01*
X37418060Y221589D03*
G01*
X37418060Y1034389D03*
G01*
X37418060Y1440789D03*
G01*
X37418060Y1847189D03*
G01*
X37418060Y2253589D03*
G01*
X37243537Y635000D03*
G01*
X37243537Y228600D03*
G01*
X37243537Y1041400D03*
G01*
X37243537Y1447800D03*
G01*
X37243537Y1854200D03*
G01*
X37243537Y2260600D03*
G01*
X37243537Y2667000D03*
G01*
X37418060Y2659989D03*
G01*
X37243537Y3073400D03*
G01*
X37418060Y3066389D03*
G01*
X37243537Y3479800D03*
G01*
X37418060Y3472789D03*
G01*
X37243537Y3886200D03*
G01*
X37418060Y3879189D03*
G01*
X37900660Y4171289D03*
G01*
X37824460Y627989D03*
G01*
X37824460Y221589D03*
G01*
X37824460Y1034389D03*
G01*
X37824460Y1440789D03*
G01*
X37824460Y1847189D03*
G01*
X37824460Y2253589D03*
G01*
X37649937Y635000D03*
G01*
X37649937Y228600D03*
G01*
X37649937Y1041400D03*
G01*
X37649937Y1447800D03*
G01*
X37649937Y1854200D03*
G01*
X37649937Y2260600D03*
G01*
X37649937Y2667000D03*
G01*
X37824460Y2659989D03*
G01*
X37649937Y3073400D03*
G01*
X37824460Y3066389D03*
G01*
X37649937Y3479800D03*
G01*
X37824460Y3472789D03*
G01*
X37649937Y3886200D03*
G01*
X37824460Y3879189D03*
G01*
X38307060Y4171289D03*
G01*
X38230860Y627989D03*
G01*
X38230860Y221589D03*
G01*
X38230860Y1034389D03*
G01*
X38230860Y1440789D03*
G01*
X38230860Y1847189D03*
G01*
X38230860Y2253589D03*
G01*
X38056337Y635000D03*
G01*
X38056337Y228600D03*
G01*
X38056337Y1041400D03*
G01*
X38056337Y1447800D03*
G01*
X38056337Y1854200D03*
G01*
X38056337Y2260600D03*
G01*
X38056337Y2667000D03*
G01*
X38230860Y2659989D03*
G01*
X38056337Y3073400D03*
G01*
X38230860Y3066389D03*
G01*
X38056337Y3479800D03*
G01*
X38230860Y3472789D03*
G01*
X38056337Y3886200D03*
G01*
X38230860Y3879189D03*
G01*
X38713460Y4171289D03*
G01*
X38637260Y627989D03*
G01*
X38637260Y221589D03*
G01*
X38637260Y1034389D03*
G01*
X38637260Y1440789D03*
G01*
X38637260Y1847189D03*
G01*
X38637260Y2253589D03*
G01*
X38462737Y635000D03*
G01*
X38462737Y228600D03*
G01*
X38462737Y1041400D03*
G01*
X38462737Y1447800D03*
G01*
X38462737Y1854200D03*
G01*
X38462737Y2260600D03*
G01*
X38462737Y2667000D03*
G01*
X38637260Y2659989D03*
G01*
X38462737Y3073400D03*
G01*
X38637260Y3066389D03*
G01*
X38462737Y3479800D03*
G01*
X38637260Y3472789D03*
G01*
X38462737Y3886200D03*
G01*
X38637260Y3879189D03*
G01*
X39119860Y4171289D03*
G01*
X39043660Y627989D03*
G01*
X39043660Y221589D03*
G01*
X39043660Y1034389D03*
G01*
X39043660Y1440789D03*
G01*
X39043660Y1847189D03*
G01*
X39043660Y2253589D03*
G01*
X38869137Y635000D03*
G01*
X38869137Y228600D03*
G01*
X38869137Y1041400D03*
G01*
X38869137Y1447800D03*
G01*
X38869137Y1854200D03*
G01*
X38869137Y2260600D03*
G01*
X38869137Y2667000D03*
G01*
X39043660Y2659989D03*
G01*
X38869137Y3073400D03*
G01*
X39043660Y3066389D03*
G01*
X38869137Y3479800D03*
G01*
X39043660Y3472789D03*
G01*
X38869137Y3886200D03*
G01*
X39043660Y3879189D03*
G01*
X39526260Y4171289D03*
G01*
X39450060Y627989D03*
G01*
X39450060Y221589D03*
G01*
X39450060Y1034389D03*
G01*
X39450060Y1440789D03*
G01*
X39450060Y1847189D03*
G01*
X39450060Y2253589D03*
G01*
X39275537Y635000D03*
G01*
X39275537Y228600D03*
G01*
X39275537Y1041400D03*
G01*
X39275537Y1447800D03*
G01*
X39275537Y1854200D03*
G01*
X39275537Y2260600D03*
G01*
X39275537Y2667000D03*
G01*
X39450060Y2659989D03*
G01*
X39275537Y3073400D03*
G01*
X39450060Y3066389D03*
G01*
X39275537Y3479800D03*
G01*
X39450060Y3472789D03*
G01*
X39275537Y3886200D03*
G01*
X39450060Y3879189D03*
G01*
X39932660Y4171289D03*
G01*
X39856460Y627989D03*
G01*
X39856460Y221589D03*
G01*
X39856460Y1034389D03*
G01*
X39856460Y1440789D03*
G01*
X39856460Y1847189D03*
G01*
X39856460Y2253589D03*
G01*
X39681937Y635000D03*
G01*
X39681937Y228600D03*
G01*
X39681937Y1041400D03*
G01*
X39681937Y1447800D03*
G01*
X39681937Y1854200D03*
G01*
X39681937Y2260600D03*
G01*
X39681937Y2667000D03*
G01*
X39856460Y2659989D03*
G01*
X39681937Y3073400D03*
G01*
X39856460Y3066389D03*
G01*
X39681937Y3479800D03*
G01*
X39856460Y3472789D03*
G01*
X39681937Y3886200D03*
G01*
X39856460Y3879189D03*
G01*
X40339060Y4171289D03*
G01*
X40262860Y627989D03*
G01*
X40262860Y221589D03*
G01*
X40262860Y1034389D03*
G01*
X40262860Y1440789D03*
G01*
X40262860Y1847189D03*
G01*
X40262860Y2253589D03*
G01*
X40088337Y635000D03*
G01*
X40088337Y228600D03*
G01*
X40088337Y1041400D03*
G01*
X40088337Y1447800D03*
G01*
X40088337Y1854200D03*
G01*
X40088337Y2260600D03*
G01*
X40088337Y2667000D03*
G01*
X40262860Y2659989D03*
G01*
X40088337Y3073400D03*
G01*
X40262860Y3066389D03*
G01*
X40088337Y3479800D03*
G01*
X40262860Y3472789D03*
G01*
X40088337Y3886200D03*
G01*
X40262860Y3879189D03*
G01*
X40745460Y4171289D03*
G01*
X40669260Y627989D03*
G01*
X40669260Y221589D03*
G01*
X40669260Y1034389D03*
G01*
X40669260Y1440789D03*
G01*
X40669260Y1847189D03*
G01*
X40669260Y2253589D03*
G01*
X40494737Y635000D03*
G01*
X40494737Y228600D03*
G01*
X40494737Y1041400D03*
G01*
X40494737Y1447800D03*
G01*
X40494737Y1854200D03*
G01*
X40494737Y2260600D03*
G01*
X40494737Y2667000D03*
G01*
X40669260Y2659989D03*
G01*
X40494737Y3073400D03*
G01*
X40669260Y3066389D03*
G01*
X40494737Y3479800D03*
G01*
X40669260Y3472789D03*
G01*
X40494737Y3886200D03*
G01*
X40669260Y3879189D03*
G01*
X41151860Y4171289D03*
G01*
X41075660Y627989D03*
G01*
X41075660Y221589D03*
G01*
X41075660Y1034389D03*
G01*
X41075660Y1440789D03*
G01*
X41075660Y1847189D03*
G01*
X41075660Y2253589D03*
G01*
X40901137Y635000D03*
G01*
X40901137Y228600D03*
G01*
X40901137Y1041400D03*
G01*
X40901137Y1447800D03*
G01*
X40901137Y1854200D03*
G01*
X40901137Y2260600D03*
G01*
X40901137Y2667000D03*
G01*
X41075660Y2659989D03*
G01*
X40901137Y3073400D03*
G01*
X41075660Y3066389D03*
G01*
X40901137Y3479800D03*
G01*
X41075660Y3472789D03*
G01*
X40901137Y3886200D03*
G01*
X41075660Y3879189D03*
G01*
X41558260Y4171289D03*
G01*
X41482060Y627989D03*
G01*
X41482060Y221589D03*
G01*
X41482060Y1034389D03*
G01*
X41482060Y1440789D03*
G01*
X41482060Y1847189D03*
G01*
X41482060Y2253589D03*
G01*
X41307537Y635000D03*
G01*
X41307537Y228600D03*
G01*
X41307537Y1041400D03*
G01*
X41307537Y1447800D03*
G01*
X41307537Y1854200D03*
G01*
X41307537Y2260600D03*
G01*
X41307537Y2667000D03*
G01*
X41482060Y2659989D03*
G01*
X41307537Y3073400D03*
G01*
X41482060Y3066389D03*
G01*
X41307537Y3479800D03*
G01*
X41482060Y3472789D03*
G01*
X41307537Y3886200D03*
G01*
X41482060Y3879189D03*
G01*
X41964660Y4171289D03*
G01*
X41888460Y627989D03*
G01*
X41888460Y221589D03*
G01*
X41888460Y1034389D03*
G01*
X41888460Y1440789D03*
G01*
X41888460Y1847189D03*
G01*
X41888460Y2253589D03*
G01*
X41713937Y635000D03*
G01*
X41713937Y228600D03*
G01*
X41713937Y1041400D03*
G01*
X41713937Y1447800D03*
G01*
X41713937Y1854200D03*
G01*
X41713937Y2260600D03*
G01*
X41713937Y2667000D03*
G01*
X41888460Y2659989D03*
G01*
X41713937Y3073400D03*
G01*
X41888460Y3066389D03*
G01*
X41713937Y3479800D03*
G01*
X41888460Y3472789D03*
G01*
X41713937Y3886200D03*
G01*
X41888460Y3879189D03*
G01*
X42371060Y4171289D03*
G01*
X42294860Y627989D03*
G01*
X42294860Y221589D03*
G01*
X42294860Y1034389D03*
G01*
X42294860Y1440789D03*
G01*
X42294860Y1847189D03*
G01*
X42294860Y2253589D03*
G01*
X42120337Y635000D03*
G01*
X42120337Y228600D03*
G01*
X42120337Y1041400D03*
G01*
X42120337Y1447800D03*
G01*
X42120337Y1854200D03*
G01*
X42120337Y2260600D03*
G01*
X42120337Y2667000D03*
G01*
X42294860Y2659989D03*
G01*
X42120337Y3073400D03*
G01*
X42294860Y3066389D03*
G01*
X42120337Y3479800D03*
G01*
X42294860Y3472789D03*
G01*
X42120337Y3886200D03*
G01*
X42294860Y3879189D03*
G01*
X42777460Y4171289D03*
G01*
X42701260Y627989D03*
G01*
X42701260Y221589D03*
G01*
X42701260Y1034389D03*
G01*
X42701260Y1440789D03*
G01*
X42701260Y1847189D03*
G01*
X42701260Y2253589D03*
G01*
X42526737Y635000D03*
G01*
X42526737Y228600D03*
G01*
X42526737Y1041400D03*
G01*
X42526737Y1447800D03*
G01*
X42526737Y1854200D03*
G01*
X42526737Y2260600D03*
G01*
X42526737Y2667000D03*
G01*
X42701260Y2659989D03*
G01*
X42526737Y3073400D03*
G01*
X42701260Y3066389D03*
G01*
X42526737Y3479800D03*
G01*
X42701260Y3472789D03*
G01*
X42526737Y3886200D03*
G01*
X42701260Y3879189D03*
G01*
X43183860Y4171289D03*
G01*
X43107660Y627989D03*
G01*
X43107660Y221589D03*
G01*
X43107660Y1034389D03*
G01*
X43107660Y1440789D03*
G01*
X43107660Y1847189D03*
G01*
X43107660Y2253589D03*
G01*
X42933137Y635000D03*
G01*
X42933137Y228600D03*
G01*
X42933137Y1041400D03*
G01*
X42933137Y1447800D03*
G01*
X42933137Y1854200D03*
G01*
X42933137Y2260600D03*
G01*
X42933137Y2667000D03*
G01*
X43107660Y2659989D03*
G01*
X42933137Y3073400D03*
G01*
X43107660Y3066389D03*
G01*
X42933137Y3479800D03*
G01*
X43107660Y3472789D03*
G01*
X42933137Y3886200D03*
G01*
X43107660Y3879189D03*
G01*
X43590260Y4171289D03*
G01*
X43514060Y627989D03*
G01*
X43514060Y221589D03*
G01*
X43514060Y1034389D03*
G01*
X43514060Y1440789D03*
G01*
X43514060Y1847189D03*
G01*
X43514060Y2253589D03*
G01*
X43339537Y635000D03*
G01*
X43339537Y228600D03*
G01*
X43339537Y1041400D03*
G01*
X43339537Y1447800D03*
G01*
X43339537Y1854200D03*
G01*
X43339537Y2260600D03*
G01*
X43339537Y2667000D03*
G01*
X43514060Y2659989D03*
G01*
X43339537Y3073400D03*
G01*
X43514060Y3066389D03*
G01*
X43339537Y3479800D03*
G01*
X43514060Y3472789D03*
G01*
X43339537Y3886200D03*
G01*
X43514060Y3879189D03*
G01*
X43996660Y4171289D03*
G01*
X43920460Y627989D03*
G01*
X43920460Y221589D03*
G01*
X43920460Y1034389D03*
G01*
X43920460Y1440789D03*
G01*
X43920460Y1847189D03*
G01*
X43920460Y2253589D03*
G01*
X43745937Y635000D03*
G01*
X43745937Y228600D03*
G01*
X43745937Y1041400D03*
G01*
X43745937Y1447800D03*
G01*
X43745937Y1854200D03*
G01*
X43745937Y2260600D03*
G01*
X43745937Y2667000D03*
G01*
X43920460Y2659989D03*
G01*
X43745937Y3073400D03*
G01*
X43920460Y3066389D03*
G01*
X43745937Y3479800D03*
G01*
X43920460Y3472789D03*
G01*
X43745937Y3886200D03*
G01*
X43920460Y3879189D03*
G01*
X44326860Y3879189D03*
G01*
X44152337Y3886200D03*
G01*
X44326860Y3472789D03*
G01*
X44152337Y3479800D03*
G01*
X44326860Y3066389D03*
G01*
X44152337Y3073400D03*
G01*
X44326860Y2659989D03*
G01*
X44152337Y2667000D03*
G01*
X44152337Y2260600D03*
G01*
X44152337Y1854200D03*
G01*
X44152337Y1447800D03*
G01*
X44152337Y1041400D03*
G01*
X44152337Y228600D03*
G01*
X44152337Y635000D03*
G01*
X44326860Y2253589D03*
G01*
X44326860Y1847189D03*
G01*
X44326860Y1440789D03*
G01*
X44326860Y1034389D03*
G01*
X44326860Y221589D03*
G01*
X44326860Y627989D03*
G01*
X44403060Y4171289D03*
G01*
X23939500Y114300D03*
G01*
X24650700Y4356100D03*
M02*
