G04 Layer: TopSolderMaskLayer*
G04 EasyEDA v6.5.29, 2023-07-18 16:12:35*
G04 d5bba3988b1a441daab3a782034997f9,5a6b42c53f6a479593ecc07194224c93,10*
G04 Gerber Generator version 0.2*
G04 Scale: 100 percent, Rotated: No, Reflected: No *
G04 Dimensions in millimeters *
G04 leading zeros omitted , absolute positions ,4 integer and 5 decimal *
%FSLAX45Y45*%
%MOMM*%

%AMMACRO1*1,1,$1,$2,$3*1,1,$1,$4,$5*1,1,$1,0-$2,0-$3*1,1,$1,0-$4,0-$5*20,1,$1,$2,$3,$4,$5,0*20,1,$1,$4,$5,0-$2,0-$3,0*20,1,$1,0-$2,0-$3,0-$4,0-$5,0*20,1,$1,0-$4,0-$5,$2,$3,0*4,1,4,$2,$3,$4,$5,0-$2,0-$3,0-$4,0-$5,$2,$3,0*%
%ADD10MACRO1,0.1016X0.27X-0.395X-0.27X-0.395*%
%ADD11MACRO1,0.1016X0.27X0.395X-0.27X0.395*%
%ADD12MACRO1,0.1016X-0.275X-0.275X-0.275X0.275*%
%ADD13MACRO1,0.1016X0.9X-0.9X0.9X0.9*%
%ADD14C,1.9016*%
%ADD15C,3.1016*%
%ADD16C,0.0115*%

%LPD*%
D10*
G01*
X4102100Y435505D03*
D11*
G01*
X4102100Y326494D03*
D12*
G01*
X3927576Y4086119D03*
G01*
X3927576Y3991098D03*
G01*
X4022592Y3991098D03*
G01*
X4022597Y4086120D03*
D10*
G01*
X4102100Y841905D03*
D11*
G01*
X4102100Y732894D03*
D10*
G01*
X4102100Y1248305D03*
D11*
G01*
X4102100Y1139294D03*
D10*
G01*
X4102100Y1654705D03*
D11*
G01*
X4102100Y1545694D03*
D10*
G01*
X4102100Y2061105D03*
D11*
G01*
X4102100Y1952094D03*
D10*
G01*
X4102100Y2467505D03*
D11*
G01*
X4102100Y2358494D03*
D10*
G01*
X4102100Y2873905D03*
D11*
G01*
X4102100Y2764894D03*
D10*
G01*
X4102100Y3280305D03*
D11*
G01*
X4102100Y3171294D03*
D10*
G01*
X4102100Y3686705D03*
D11*
G01*
X4102100Y3577694D03*
D10*
G01*
X4102100Y4093105D03*
D11*
G01*
X4102100Y3984094D03*
D12*
G01*
X3927576Y3679719D03*
G01*
X3927576Y3584698D03*
G01*
X4022592Y3584698D03*
G01*
X4022597Y3679720D03*
G01*
X3927576Y3273319D03*
G01*
X3927576Y3178298D03*
G01*
X4022592Y3178298D03*
G01*
X4022597Y3273320D03*
G01*
X3927576Y2866919D03*
G01*
X3927576Y2771898D03*
G01*
X4022592Y2771898D03*
G01*
X4022597Y2866920D03*
G01*
X3927576Y2460519D03*
G01*
X3927576Y2365498D03*
G01*
X4022592Y2365498D03*
G01*
X4022597Y2460520D03*
G01*
X3927576Y2054119D03*
G01*
X3927576Y1959098D03*
G01*
X4022592Y1959098D03*
G01*
X4022597Y2054120D03*
G01*
X3927576Y1647719D03*
G01*
X3927576Y1552698D03*
G01*
X4022592Y1552698D03*
G01*
X4022597Y1647720D03*
G01*
X3927576Y1241319D03*
G01*
X3927576Y1146298D03*
G01*
X4022592Y1146298D03*
G01*
X4022597Y1241320D03*
G01*
X3927576Y834919D03*
G01*
X3927576Y739898D03*
G01*
X4022592Y739898D03*
G01*
X4022597Y834920D03*
G01*
X3927576Y428519D03*
G01*
X3927576Y333498D03*
G01*
X4022592Y333498D03*
G01*
X4022597Y428520D03*
D10*
G01*
X4508500Y435505D03*
D11*
G01*
X4508500Y326494D03*
D12*
G01*
X4333976Y4086119D03*
G01*
X4333976Y3991098D03*
G01*
X4428992Y3991098D03*
G01*
X4428997Y4086120D03*
D10*
G01*
X4508500Y841905D03*
D11*
G01*
X4508500Y732894D03*
D10*
G01*
X4508500Y1248305D03*
D11*
G01*
X4508500Y1139294D03*
D10*
G01*
X4508500Y1654705D03*
D11*
G01*
X4508500Y1545694D03*
D10*
G01*
X4508500Y2061105D03*
D11*
G01*
X4508500Y1952094D03*
D10*
G01*
X4508500Y2467505D03*
D11*
G01*
X4508500Y2358494D03*
D10*
G01*
X4508500Y2873905D03*
D11*
G01*
X4508500Y2764894D03*
D10*
G01*
X4508500Y3280305D03*
D11*
G01*
X4508500Y3171294D03*
D10*
G01*
X4508500Y3686705D03*
D11*
G01*
X4508500Y3577694D03*
D10*
G01*
X4508500Y4093105D03*
D11*
G01*
X4508500Y3984094D03*
D12*
G01*
X4333976Y3679719D03*
G01*
X4333976Y3584698D03*
G01*
X4428992Y3584698D03*
G01*
X4428997Y3679720D03*
G01*
X4333976Y3273319D03*
G01*
X4333976Y3178298D03*
G01*
X4428992Y3178298D03*
G01*
X4428997Y3273320D03*
G01*
X4333976Y2866919D03*
G01*
X4333976Y2771898D03*
G01*
X4428992Y2771898D03*
G01*
X4428997Y2866920D03*
G01*
X4333976Y2460519D03*
G01*
X4333976Y2365498D03*
G01*
X4428992Y2365498D03*
G01*
X4428997Y2460520D03*
G01*
X4333976Y2054119D03*
G01*
X4333976Y1959098D03*
G01*
X4428992Y1959098D03*
G01*
X4428997Y2054120D03*
G01*
X4333976Y1647719D03*
G01*
X4333976Y1552698D03*
G01*
X4428992Y1552698D03*
G01*
X4428997Y1647720D03*
G01*
X4333976Y1241319D03*
G01*
X4333976Y1146298D03*
G01*
X4428992Y1146298D03*
G01*
X4428997Y1241320D03*
G01*
X4333976Y834919D03*
G01*
X4333976Y739898D03*
G01*
X4428992Y739898D03*
G01*
X4428997Y834920D03*
G01*
X4333976Y428519D03*
G01*
X4333976Y333498D03*
G01*
X4428992Y333498D03*
G01*
X4428997Y428520D03*
D10*
G01*
X4914900Y435505D03*
D11*
G01*
X4914900Y326494D03*
D12*
G01*
X4740376Y4086119D03*
G01*
X4740376Y3991098D03*
G01*
X4835392Y3991098D03*
G01*
X4835397Y4086120D03*
D10*
G01*
X4914900Y841905D03*
D11*
G01*
X4914900Y732894D03*
D10*
G01*
X4914900Y1248305D03*
D11*
G01*
X4914900Y1139294D03*
D10*
G01*
X4914900Y1654705D03*
D11*
G01*
X4914900Y1545694D03*
D10*
G01*
X4914900Y2061105D03*
D11*
G01*
X4914900Y1952094D03*
D10*
G01*
X4914900Y2467505D03*
D11*
G01*
X4914900Y2358494D03*
D10*
G01*
X4914900Y2873905D03*
D11*
G01*
X4914900Y2764894D03*
D10*
G01*
X4914900Y3280305D03*
D11*
G01*
X4914900Y3171294D03*
D10*
G01*
X4914900Y3686705D03*
D11*
G01*
X4914900Y3577694D03*
D10*
G01*
X4914900Y4093105D03*
D11*
G01*
X4914900Y3984094D03*
D12*
G01*
X4740376Y3679719D03*
G01*
X4740376Y3584698D03*
G01*
X4835392Y3584698D03*
G01*
X4835397Y3679720D03*
G01*
X4740376Y3273319D03*
G01*
X4740376Y3178298D03*
G01*
X4835392Y3178298D03*
G01*
X4835397Y3273320D03*
G01*
X4740376Y2866919D03*
G01*
X4740376Y2771898D03*
G01*
X4835392Y2771898D03*
G01*
X4835397Y2866920D03*
G01*
X4740376Y2460519D03*
G01*
X4740376Y2365498D03*
G01*
X4835392Y2365498D03*
G01*
X4835397Y2460520D03*
G01*
X4740376Y2054119D03*
G01*
X4740376Y1959098D03*
G01*
X4835392Y1959098D03*
G01*
X4835397Y2054120D03*
G01*
X4740376Y1647719D03*
G01*
X4740376Y1552698D03*
G01*
X4835392Y1552698D03*
G01*
X4835397Y1647720D03*
G01*
X4740376Y1241319D03*
G01*
X4740376Y1146298D03*
G01*
X4835392Y1146298D03*
G01*
X4835397Y1241320D03*
G01*
X4740376Y834919D03*
G01*
X4740376Y739898D03*
G01*
X4835392Y739898D03*
G01*
X4835397Y834920D03*
G01*
X4740376Y428519D03*
G01*
X4740376Y333498D03*
G01*
X4835392Y333498D03*
G01*
X4835397Y428520D03*
D10*
G01*
X5321300Y435505D03*
D11*
G01*
X5321300Y326494D03*
D12*
G01*
X5146776Y4086119D03*
G01*
X5146776Y3991098D03*
G01*
X5241792Y3991098D03*
G01*
X5241797Y4086120D03*
D10*
G01*
X5321300Y841905D03*
D11*
G01*
X5321300Y732894D03*
D10*
G01*
X5321300Y1248305D03*
D11*
G01*
X5321300Y1139294D03*
D10*
G01*
X5321300Y1654705D03*
D11*
G01*
X5321300Y1545694D03*
D10*
G01*
X5321300Y2061105D03*
D11*
G01*
X5321300Y1952094D03*
D10*
G01*
X5321300Y2467505D03*
D11*
G01*
X5321300Y2358494D03*
D10*
G01*
X5321300Y2873905D03*
D11*
G01*
X5321300Y2764894D03*
D10*
G01*
X5321300Y3280305D03*
D11*
G01*
X5321300Y3171294D03*
D10*
G01*
X5321300Y3686705D03*
D11*
G01*
X5321300Y3577694D03*
D10*
G01*
X5321300Y4093105D03*
D11*
G01*
X5321300Y3984094D03*
D12*
G01*
X5146776Y3679719D03*
G01*
X5146776Y3584698D03*
G01*
X5241792Y3584698D03*
G01*
X5241797Y3679720D03*
G01*
X5146776Y3273319D03*
G01*
X5146776Y3178298D03*
G01*
X5241792Y3178298D03*
G01*
X5241797Y3273320D03*
G01*
X5146776Y2866919D03*
G01*
X5146776Y2771898D03*
G01*
X5241792Y2771898D03*
G01*
X5241797Y2866920D03*
G01*
X5146776Y2460519D03*
G01*
X5146776Y2365498D03*
G01*
X5241792Y2365498D03*
G01*
X5241797Y2460520D03*
G01*
X5146776Y2054119D03*
G01*
X5146776Y1959098D03*
G01*
X5241792Y1959098D03*
G01*
X5241797Y2054120D03*
G01*
X5146776Y1647719D03*
G01*
X5146776Y1552698D03*
G01*
X5241792Y1552698D03*
G01*
X5241797Y1647720D03*
G01*
X5146776Y1241319D03*
G01*
X5146776Y1146298D03*
G01*
X5241792Y1146298D03*
G01*
X5241797Y1241320D03*
G01*
X5146776Y834919D03*
G01*
X5146776Y739898D03*
G01*
X5241792Y739898D03*
G01*
X5241797Y834920D03*
G01*
X5146776Y428519D03*
G01*
X5146776Y333498D03*
G01*
X5241792Y333498D03*
G01*
X5241797Y428520D03*
D10*
G01*
X5727700Y435505D03*
D11*
G01*
X5727700Y326494D03*
D12*
G01*
X5553176Y4086119D03*
G01*
X5553176Y3991098D03*
G01*
X5648192Y3991098D03*
G01*
X5648197Y4086120D03*
D10*
G01*
X5727700Y841905D03*
D11*
G01*
X5727700Y732894D03*
D10*
G01*
X5727700Y1248305D03*
D11*
G01*
X5727700Y1139294D03*
D10*
G01*
X5727700Y1654705D03*
D11*
G01*
X5727700Y1545694D03*
D10*
G01*
X5727700Y2061105D03*
D11*
G01*
X5727700Y1952094D03*
D10*
G01*
X5727700Y2467505D03*
D11*
G01*
X5727700Y2358494D03*
D10*
G01*
X5727700Y2873905D03*
D11*
G01*
X5727700Y2764894D03*
D10*
G01*
X5727700Y3280305D03*
D11*
G01*
X5727700Y3171294D03*
D10*
G01*
X5727700Y3686705D03*
D11*
G01*
X5727700Y3577694D03*
D10*
G01*
X5727700Y4093105D03*
D11*
G01*
X5727700Y3984094D03*
D12*
G01*
X5553176Y3679719D03*
G01*
X5553176Y3584698D03*
G01*
X5648192Y3584698D03*
G01*
X5648197Y3679720D03*
G01*
X5553176Y3273319D03*
G01*
X5553176Y3178298D03*
G01*
X5648192Y3178298D03*
G01*
X5648197Y3273320D03*
G01*
X5553176Y2866919D03*
G01*
X5553176Y2771898D03*
G01*
X5648192Y2771898D03*
G01*
X5648197Y2866920D03*
G01*
X5553176Y2460519D03*
G01*
X5553176Y2365498D03*
G01*
X5648192Y2365498D03*
G01*
X5648197Y2460520D03*
G01*
X5553176Y2054119D03*
G01*
X5553176Y1959098D03*
G01*
X5648192Y1959098D03*
G01*
X5648197Y2054120D03*
G01*
X5553176Y1647719D03*
G01*
X5553176Y1552698D03*
G01*
X5648192Y1552698D03*
G01*
X5648197Y1647720D03*
G01*
X5553176Y1241319D03*
G01*
X5553176Y1146298D03*
G01*
X5648192Y1146298D03*
G01*
X5648197Y1241320D03*
G01*
X5553176Y834919D03*
G01*
X5553176Y739898D03*
G01*
X5648192Y739898D03*
G01*
X5648197Y834920D03*
G01*
X5553176Y428519D03*
G01*
X5553176Y333498D03*
G01*
X5648192Y333498D03*
G01*
X5648197Y428520D03*
D10*
G01*
X6134100Y435505D03*
D11*
G01*
X6134100Y326494D03*
D12*
G01*
X5959576Y4086119D03*
G01*
X5959576Y3991098D03*
G01*
X6054592Y3991098D03*
G01*
X6054597Y4086120D03*
D10*
G01*
X6134100Y841905D03*
D11*
G01*
X6134100Y732894D03*
D10*
G01*
X6134100Y1248305D03*
D11*
G01*
X6134100Y1139294D03*
D10*
G01*
X6134100Y1654705D03*
D11*
G01*
X6134100Y1545694D03*
D10*
G01*
X6134100Y2061105D03*
D11*
G01*
X6134100Y1952094D03*
D10*
G01*
X6134100Y2467505D03*
D11*
G01*
X6134100Y2358494D03*
D10*
G01*
X6134100Y2873905D03*
D11*
G01*
X6134100Y2764894D03*
D10*
G01*
X6134100Y3280305D03*
D11*
G01*
X6134100Y3171294D03*
D10*
G01*
X6134100Y3686705D03*
D11*
G01*
X6134100Y3577694D03*
D10*
G01*
X6134100Y4093105D03*
D11*
G01*
X6134100Y3984094D03*
D12*
G01*
X5959576Y3679719D03*
G01*
X5959576Y3584698D03*
G01*
X6054592Y3584698D03*
G01*
X6054597Y3679720D03*
G01*
X5959576Y3273319D03*
G01*
X5959576Y3178298D03*
G01*
X6054592Y3178298D03*
G01*
X6054597Y3273320D03*
G01*
X5959576Y2866919D03*
G01*
X5959576Y2771898D03*
G01*
X6054592Y2771898D03*
G01*
X6054597Y2866920D03*
G01*
X5959576Y2460519D03*
G01*
X5959576Y2365498D03*
G01*
X6054592Y2365498D03*
G01*
X6054597Y2460520D03*
G01*
X5959576Y2054119D03*
G01*
X5959576Y1959098D03*
G01*
X6054592Y1959098D03*
G01*
X6054597Y2054120D03*
G01*
X5959576Y1647719D03*
G01*
X5959576Y1552698D03*
G01*
X6054592Y1552698D03*
G01*
X6054597Y1647720D03*
G01*
X5959576Y1241319D03*
G01*
X5959576Y1146298D03*
G01*
X6054592Y1146298D03*
G01*
X6054597Y1241320D03*
G01*
X5959576Y834919D03*
G01*
X5959576Y739898D03*
G01*
X6054592Y739898D03*
G01*
X6054597Y834920D03*
G01*
X5959576Y428519D03*
G01*
X5959576Y333498D03*
G01*
X6054592Y333498D03*
G01*
X6054597Y428520D03*
D10*
G01*
X6540500Y435505D03*
D11*
G01*
X6540500Y326494D03*
D12*
G01*
X6365976Y4086119D03*
G01*
X6365976Y3991098D03*
G01*
X6460992Y3991098D03*
G01*
X6460997Y4086120D03*
D10*
G01*
X6540500Y841905D03*
D11*
G01*
X6540500Y732894D03*
D10*
G01*
X6540500Y1248305D03*
D11*
G01*
X6540500Y1139294D03*
D10*
G01*
X6540500Y1654705D03*
D11*
G01*
X6540500Y1545694D03*
D10*
G01*
X6540500Y2061105D03*
D11*
G01*
X6540500Y1952094D03*
D10*
G01*
X6540500Y2467505D03*
D11*
G01*
X6540500Y2358494D03*
D10*
G01*
X6540500Y2873905D03*
D11*
G01*
X6540500Y2764894D03*
D10*
G01*
X6540500Y3280305D03*
D11*
G01*
X6540500Y3171294D03*
D10*
G01*
X6540500Y3686705D03*
D11*
G01*
X6540500Y3577694D03*
D10*
G01*
X6540500Y4093105D03*
D11*
G01*
X6540500Y3984094D03*
D12*
G01*
X6365976Y3679719D03*
G01*
X6365976Y3584698D03*
G01*
X6460992Y3584698D03*
G01*
X6460997Y3679720D03*
G01*
X6365976Y3273319D03*
G01*
X6365976Y3178298D03*
G01*
X6460992Y3178298D03*
G01*
X6460997Y3273320D03*
G01*
X6365976Y2866919D03*
G01*
X6365976Y2771898D03*
G01*
X6460992Y2771898D03*
G01*
X6460997Y2866920D03*
G01*
X6365976Y2460519D03*
G01*
X6365976Y2365498D03*
G01*
X6460992Y2365498D03*
G01*
X6460997Y2460520D03*
G01*
X6365976Y2054119D03*
G01*
X6365976Y1959098D03*
G01*
X6460992Y1959098D03*
G01*
X6460997Y2054120D03*
G01*
X6365976Y1647719D03*
G01*
X6365976Y1552698D03*
G01*
X6460992Y1552698D03*
G01*
X6460997Y1647720D03*
G01*
X6365976Y1241319D03*
G01*
X6365976Y1146298D03*
G01*
X6460992Y1146298D03*
G01*
X6460997Y1241320D03*
G01*
X6365976Y834919D03*
G01*
X6365976Y739898D03*
G01*
X6460992Y739898D03*
G01*
X6460997Y834920D03*
G01*
X6365976Y428519D03*
G01*
X6365976Y333498D03*
G01*
X6460992Y333498D03*
G01*
X6460997Y428520D03*
D10*
G01*
X6946900Y435505D03*
D11*
G01*
X6946900Y326494D03*
D12*
G01*
X6772376Y4086119D03*
G01*
X6772376Y3991098D03*
G01*
X6867392Y3991098D03*
G01*
X6867397Y4086120D03*
D10*
G01*
X6946900Y841905D03*
D11*
G01*
X6946900Y732894D03*
D10*
G01*
X6946900Y1248305D03*
D11*
G01*
X6946900Y1139294D03*
D10*
G01*
X6946900Y1654705D03*
D11*
G01*
X6946900Y1545694D03*
D10*
G01*
X6946900Y2061105D03*
D11*
G01*
X6946900Y1952094D03*
D10*
G01*
X6946900Y2467505D03*
D11*
G01*
X6946900Y2358494D03*
D10*
G01*
X6946900Y2873905D03*
D11*
G01*
X6946900Y2764894D03*
D10*
G01*
X6946900Y3280305D03*
D11*
G01*
X6946900Y3171294D03*
D10*
G01*
X6946900Y3686705D03*
D11*
G01*
X6946900Y3577694D03*
D10*
G01*
X6946900Y4093105D03*
D11*
G01*
X6946900Y3984094D03*
D12*
G01*
X6772376Y3679719D03*
G01*
X6772376Y3584698D03*
G01*
X6867392Y3584698D03*
G01*
X6867397Y3679720D03*
G01*
X6772376Y3273319D03*
G01*
X6772376Y3178298D03*
G01*
X6867392Y3178298D03*
G01*
X6867397Y3273320D03*
G01*
X6772376Y2866919D03*
G01*
X6772376Y2771898D03*
G01*
X6867392Y2771898D03*
G01*
X6867397Y2866920D03*
G01*
X6772376Y2460519D03*
G01*
X6772376Y2365498D03*
G01*
X6867392Y2365498D03*
G01*
X6867397Y2460520D03*
G01*
X6772376Y2054119D03*
G01*
X6772376Y1959098D03*
G01*
X6867392Y1959098D03*
G01*
X6867397Y2054120D03*
G01*
X6772376Y1647719D03*
G01*
X6772376Y1552698D03*
G01*
X6867392Y1552698D03*
G01*
X6867397Y1647720D03*
G01*
X6772376Y1241319D03*
G01*
X6772376Y1146298D03*
G01*
X6867392Y1146298D03*
G01*
X6867397Y1241320D03*
G01*
X6772376Y834919D03*
G01*
X6772376Y739898D03*
G01*
X6867392Y739898D03*
G01*
X6867397Y834920D03*
G01*
X6772376Y428519D03*
G01*
X6772376Y333498D03*
G01*
X6867392Y333498D03*
G01*
X6867397Y428520D03*
D10*
G01*
X7353300Y435505D03*
D11*
G01*
X7353300Y326494D03*
D12*
G01*
X7178776Y4086119D03*
G01*
X7178776Y3991098D03*
G01*
X7273792Y3991098D03*
G01*
X7273797Y4086120D03*
D10*
G01*
X7353300Y841905D03*
D11*
G01*
X7353300Y732894D03*
D10*
G01*
X7353300Y1248305D03*
D11*
G01*
X7353300Y1139294D03*
D10*
G01*
X7353300Y1654705D03*
D11*
G01*
X7353300Y1545694D03*
D10*
G01*
X7353300Y2061105D03*
D11*
G01*
X7353300Y1952094D03*
D10*
G01*
X7353300Y2467505D03*
D11*
G01*
X7353300Y2358494D03*
D10*
G01*
X7353300Y2873905D03*
D11*
G01*
X7353300Y2764894D03*
D10*
G01*
X7353300Y3280305D03*
D11*
G01*
X7353300Y3171294D03*
D10*
G01*
X7353300Y3686705D03*
D11*
G01*
X7353300Y3577694D03*
D10*
G01*
X7353300Y4093105D03*
D11*
G01*
X7353300Y3984094D03*
D12*
G01*
X7178776Y3679719D03*
G01*
X7178776Y3584698D03*
G01*
X7273792Y3584698D03*
G01*
X7273797Y3679720D03*
G01*
X7178776Y3273319D03*
G01*
X7178776Y3178298D03*
G01*
X7273792Y3178298D03*
G01*
X7273797Y3273320D03*
G01*
X7178776Y2866919D03*
G01*
X7178776Y2771898D03*
G01*
X7273792Y2771898D03*
G01*
X7273797Y2866920D03*
G01*
X7178776Y2460519D03*
G01*
X7178776Y2365498D03*
G01*
X7273792Y2365498D03*
G01*
X7273797Y2460520D03*
G01*
X7178776Y2054119D03*
G01*
X7178776Y1959098D03*
G01*
X7273792Y1959098D03*
G01*
X7273797Y2054120D03*
G01*
X7178776Y1647719D03*
G01*
X7178776Y1552698D03*
G01*
X7273792Y1552698D03*
G01*
X7273797Y1647720D03*
G01*
X7178776Y1241319D03*
G01*
X7178776Y1146298D03*
G01*
X7273792Y1146298D03*
G01*
X7273797Y1241320D03*
G01*
X7178776Y834919D03*
G01*
X7178776Y739898D03*
G01*
X7273792Y739898D03*
G01*
X7273797Y834920D03*
G01*
X7178776Y428519D03*
G01*
X7178776Y333498D03*
G01*
X7273792Y333498D03*
G01*
X7273797Y428520D03*
D10*
G01*
X7759700Y435505D03*
D11*
G01*
X7759700Y326494D03*
D12*
G01*
X7585176Y4086119D03*
G01*
X7585176Y3991098D03*
G01*
X7680192Y3991098D03*
G01*
X7680197Y4086120D03*
D10*
G01*
X7759700Y841905D03*
D11*
G01*
X7759700Y732894D03*
D10*
G01*
X7759700Y1248305D03*
D11*
G01*
X7759700Y1139294D03*
D10*
G01*
X7759700Y1654705D03*
D11*
G01*
X7759700Y1545694D03*
D10*
G01*
X7759700Y2061105D03*
D11*
G01*
X7759700Y1952094D03*
D10*
G01*
X7759700Y2467505D03*
D11*
G01*
X7759700Y2358494D03*
D10*
G01*
X7759700Y2873905D03*
D11*
G01*
X7759700Y2764894D03*
D10*
G01*
X7759700Y3280305D03*
D11*
G01*
X7759700Y3171294D03*
D10*
G01*
X7759700Y3686705D03*
D11*
G01*
X7759700Y3577694D03*
D10*
G01*
X7759700Y4093105D03*
D11*
G01*
X7759700Y3984094D03*
D12*
G01*
X7585176Y3679719D03*
G01*
X7585176Y3584698D03*
G01*
X7680192Y3584698D03*
G01*
X7680197Y3679720D03*
G01*
X7585176Y3273319D03*
G01*
X7585176Y3178298D03*
G01*
X7680192Y3178298D03*
G01*
X7680197Y3273320D03*
G01*
X7585176Y2866919D03*
G01*
X7585176Y2771898D03*
G01*
X7680192Y2771898D03*
G01*
X7680197Y2866920D03*
G01*
X7585176Y2460519D03*
G01*
X7585176Y2365498D03*
G01*
X7680192Y2365498D03*
G01*
X7680197Y2460520D03*
G01*
X7585176Y2054119D03*
G01*
X7585176Y1959098D03*
G01*
X7680192Y1959098D03*
G01*
X7680197Y2054120D03*
G01*
X7585176Y1647719D03*
G01*
X7585176Y1552698D03*
G01*
X7680192Y1552698D03*
G01*
X7680197Y1647720D03*
G01*
X7585176Y1241319D03*
G01*
X7585176Y1146298D03*
G01*
X7680192Y1146298D03*
G01*
X7680197Y1241320D03*
G01*
X7585176Y834919D03*
G01*
X7585176Y739898D03*
G01*
X7680192Y739898D03*
G01*
X7680197Y834920D03*
G01*
X7585176Y428519D03*
G01*
X7585176Y333498D03*
G01*
X7680192Y333498D03*
G01*
X7680197Y428520D03*
D10*
G01*
X8166100Y435505D03*
D11*
G01*
X8166100Y326494D03*
D12*
G01*
X7991576Y4086119D03*
G01*
X7991576Y3991098D03*
G01*
X8086592Y3991098D03*
G01*
X8086597Y4086120D03*
D10*
G01*
X8166100Y841905D03*
D11*
G01*
X8166100Y732894D03*
D10*
G01*
X8166100Y1248305D03*
D11*
G01*
X8166100Y1139294D03*
D10*
G01*
X8166100Y1654705D03*
D11*
G01*
X8166100Y1545694D03*
D10*
G01*
X8166100Y2061105D03*
D11*
G01*
X8166100Y1952094D03*
D10*
G01*
X8166100Y2467505D03*
D11*
G01*
X8166100Y2358494D03*
D10*
G01*
X8166100Y2873905D03*
D11*
G01*
X8166100Y2764894D03*
D10*
G01*
X8166100Y3280305D03*
D11*
G01*
X8166100Y3171294D03*
D10*
G01*
X8166100Y3686705D03*
D11*
G01*
X8166100Y3577694D03*
D10*
G01*
X8166100Y4093105D03*
D11*
G01*
X8166100Y3984094D03*
D12*
G01*
X7991576Y3679719D03*
G01*
X7991576Y3584698D03*
G01*
X8086592Y3584698D03*
G01*
X8086597Y3679720D03*
G01*
X7991576Y3273319D03*
G01*
X7991576Y3178298D03*
G01*
X8086592Y3178298D03*
G01*
X8086597Y3273320D03*
G01*
X7991576Y2866919D03*
G01*
X7991576Y2771898D03*
G01*
X8086592Y2771898D03*
G01*
X8086597Y2866920D03*
G01*
X7991576Y2460519D03*
G01*
X7991576Y2365498D03*
G01*
X8086592Y2365498D03*
G01*
X8086597Y2460520D03*
G01*
X7991576Y2054119D03*
G01*
X7991576Y1959098D03*
G01*
X8086592Y1959098D03*
G01*
X8086597Y2054120D03*
G01*
X7991576Y1647719D03*
G01*
X7991576Y1552698D03*
G01*
X8086592Y1552698D03*
G01*
X8086597Y1647720D03*
G01*
X7991576Y1241319D03*
G01*
X7991576Y1146298D03*
G01*
X8086592Y1146298D03*
G01*
X8086597Y1241320D03*
G01*
X7991576Y834919D03*
G01*
X7991576Y739898D03*
G01*
X8086592Y739898D03*
G01*
X8086597Y834920D03*
G01*
X7991576Y428519D03*
G01*
X7991576Y333498D03*
G01*
X8086592Y333498D03*
G01*
X8086597Y428520D03*
D10*
G01*
X8572500Y435505D03*
D11*
G01*
X8572500Y326494D03*
D12*
G01*
X8397976Y4086119D03*
G01*
X8397976Y3991098D03*
G01*
X8492992Y3991098D03*
G01*
X8492997Y4086120D03*
D10*
G01*
X8572500Y841905D03*
D11*
G01*
X8572500Y732894D03*
D10*
G01*
X8572500Y1248305D03*
D11*
G01*
X8572500Y1139294D03*
D10*
G01*
X8572500Y1654705D03*
D11*
G01*
X8572500Y1545694D03*
D10*
G01*
X8572500Y2061105D03*
D11*
G01*
X8572500Y1952094D03*
D10*
G01*
X8572500Y2467505D03*
D11*
G01*
X8572500Y2358494D03*
D10*
G01*
X8572500Y2873905D03*
D11*
G01*
X8572500Y2764894D03*
D10*
G01*
X8572500Y3280305D03*
D11*
G01*
X8572500Y3171294D03*
D10*
G01*
X8572500Y3686705D03*
D11*
G01*
X8572500Y3577694D03*
D10*
G01*
X8572500Y4093105D03*
D11*
G01*
X8572500Y3984094D03*
D12*
G01*
X8397976Y3679719D03*
G01*
X8397976Y3584698D03*
G01*
X8492992Y3584698D03*
G01*
X8492997Y3679720D03*
G01*
X8397976Y3273319D03*
G01*
X8397976Y3178298D03*
G01*
X8492992Y3178298D03*
G01*
X8492997Y3273320D03*
G01*
X8397976Y2866919D03*
G01*
X8397976Y2771898D03*
G01*
X8492992Y2771898D03*
G01*
X8492997Y2866920D03*
G01*
X8397976Y2460519D03*
G01*
X8397976Y2365498D03*
G01*
X8492992Y2365498D03*
G01*
X8492997Y2460520D03*
G01*
X8397976Y2054119D03*
G01*
X8397976Y1959098D03*
G01*
X8492992Y1959098D03*
G01*
X8492997Y2054120D03*
G01*
X8397976Y1647719D03*
G01*
X8397976Y1552698D03*
G01*
X8492992Y1552698D03*
G01*
X8492997Y1647720D03*
G01*
X8397976Y1241319D03*
G01*
X8397976Y1146298D03*
G01*
X8492992Y1146298D03*
G01*
X8492997Y1241320D03*
G01*
X8397976Y834919D03*
G01*
X8397976Y739898D03*
G01*
X8492992Y739898D03*
G01*
X8492997Y834920D03*
G01*
X8397976Y428519D03*
G01*
X8397976Y333498D03*
G01*
X8492992Y333498D03*
G01*
X8492997Y428520D03*
D10*
G01*
X8978900Y435505D03*
D11*
G01*
X8978900Y326494D03*
D12*
G01*
X8804376Y4086119D03*
G01*
X8804376Y3991098D03*
G01*
X8899392Y3991098D03*
G01*
X8899397Y4086120D03*
D10*
G01*
X8978900Y841905D03*
D11*
G01*
X8978900Y732894D03*
D10*
G01*
X8978900Y1248305D03*
D11*
G01*
X8978900Y1139294D03*
D10*
G01*
X8978900Y1654705D03*
D11*
G01*
X8978900Y1545694D03*
D10*
G01*
X8978900Y2061105D03*
D11*
G01*
X8978900Y1952094D03*
D10*
G01*
X8978900Y2467505D03*
D11*
G01*
X8978900Y2358494D03*
D10*
G01*
X8978900Y2873905D03*
D11*
G01*
X8978900Y2764894D03*
D10*
G01*
X8978900Y3280305D03*
D11*
G01*
X8978900Y3171294D03*
D10*
G01*
X8978900Y3686705D03*
D11*
G01*
X8978900Y3577694D03*
D10*
G01*
X8978900Y4093105D03*
D11*
G01*
X8978900Y3984094D03*
D12*
G01*
X8804376Y3679719D03*
G01*
X8804376Y3584698D03*
G01*
X8899392Y3584698D03*
G01*
X8899397Y3679720D03*
G01*
X8804376Y3273319D03*
G01*
X8804376Y3178298D03*
G01*
X8899392Y3178298D03*
G01*
X8899397Y3273320D03*
G01*
X8804376Y2866919D03*
G01*
X8804376Y2771898D03*
G01*
X8899392Y2771898D03*
G01*
X8899397Y2866920D03*
G01*
X8804376Y2460519D03*
G01*
X8804376Y2365498D03*
G01*
X8899392Y2365498D03*
G01*
X8899397Y2460520D03*
G01*
X8804376Y2054119D03*
G01*
X8804376Y1959098D03*
G01*
X8899392Y1959098D03*
G01*
X8899397Y2054120D03*
G01*
X8804376Y1647719D03*
G01*
X8804376Y1552698D03*
G01*
X8899392Y1552698D03*
G01*
X8899397Y1647720D03*
G01*
X8804376Y1241319D03*
G01*
X8804376Y1146298D03*
G01*
X8899392Y1146298D03*
G01*
X8899397Y1241320D03*
G01*
X8804376Y834919D03*
G01*
X8804376Y739898D03*
G01*
X8899392Y739898D03*
G01*
X8899397Y834920D03*
G01*
X8804376Y428519D03*
G01*
X8804376Y333498D03*
G01*
X8899392Y333498D03*
G01*
X8899397Y428520D03*
D10*
G01*
X9385300Y435505D03*
D11*
G01*
X9385300Y326494D03*
D12*
G01*
X9210776Y4086119D03*
G01*
X9210776Y3991098D03*
G01*
X9305792Y3991098D03*
G01*
X9305797Y4086120D03*
D10*
G01*
X9385300Y841905D03*
D11*
G01*
X9385300Y732894D03*
D10*
G01*
X9385300Y1248305D03*
D11*
G01*
X9385300Y1139294D03*
D10*
G01*
X9385300Y1654705D03*
D11*
G01*
X9385300Y1545694D03*
D10*
G01*
X9385300Y2061105D03*
D11*
G01*
X9385300Y1952094D03*
D10*
G01*
X9385300Y2467505D03*
D11*
G01*
X9385300Y2358494D03*
D10*
G01*
X9385300Y2873905D03*
D11*
G01*
X9385300Y2764894D03*
D10*
G01*
X9385300Y3280305D03*
D11*
G01*
X9385300Y3171294D03*
D10*
G01*
X9385300Y3686705D03*
D11*
G01*
X9385300Y3577694D03*
D10*
G01*
X9385300Y4093105D03*
D11*
G01*
X9385300Y3984094D03*
D12*
G01*
X9210776Y3679719D03*
G01*
X9210776Y3584698D03*
G01*
X9305792Y3584698D03*
G01*
X9305797Y3679720D03*
G01*
X9210776Y3273319D03*
G01*
X9210776Y3178298D03*
G01*
X9305792Y3178298D03*
G01*
X9305797Y3273320D03*
G01*
X9210776Y2866919D03*
G01*
X9210776Y2771898D03*
G01*
X9305792Y2771898D03*
G01*
X9305797Y2866920D03*
G01*
X9210776Y2460519D03*
G01*
X9210776Y2365498D03*
G01*
X9305792Y2365498D03*
G01*
X9305797Y2460520D03*
G01*
X9210776Y2054119D03*
G01*
X9210776Y1959098D03*
G01*
X9305792Y1959098D03*
G01*
X9305797Y2054120D03*
G01*
X9210776Y1647719D03*
G01*
X9210776Y1552698D03*
G01*
X9305792Y1552698D03*
G01*
X9305797Y1647720D03*
G01*
X9210776Y1241319D03*
G01*
X9210776Y1146298D03*
G01*
X9305792Y1146298D03*
G01*
X9305797Y1241320D03*
G01*
X9210776Y834919D03*
G01*
X9210776Y739898D03*
G01*
X9305792Y739898D03*
G01*
X9305797Y834920D03*
G01*
X9210776Y428519D03*
G01*
X9210776Y333498D03*
G01*
X9305792Y333498D03*
G01*
X9305797Y428520D03*
D10*
G01*
X9791700Y435505D03*
D11*
G01*
X9791700Y326494D03*
D12*
G01*
X9617176Y4086119D03*
G01*
X9617176Y3991098D03*
G01*
X9712192Y3991098D03*
G01*
X9712197Y4086120D03*
D10*
G01*
X9791700Y841905D03*
D11*
G01*
X9791700Y732894D03*
D10*
G01*
X9791700Y1248305D03*
D11*
G01*
X9791700Y1139294D03*
D10*
G01*
X9791700Y1654705D03*
D11*
G01*
X9791700Y1545694D03*
D10*
G01*
X9791700Y2061105D03*
D11*
G01*
X9791700Y1952094D03*
D10*
G01*
X9791700Y2467505D03*
D11*
G01*
X9791700Y2358494D03*
D10*
G01*
X9791700Y2873905D03*
D11*
G01*
X9791700Y2764894D03*
D10*
G01*
X9791700Y3280305D03*
D11*
G01*
X9791700Y3171294D03*
D10*
G01*
X9791700Y3686705D03*
D11*
G01*
X9791700Y3577694D03*
D10*
G01*
X9791700Y4093105D03*
D11*
G01*
X9791700Y3984094D03*
D12*
G01*
X9617176Y3679719D03*
G01*
X9617176Y3584698D03*
G01*
X9712192Y3584698D03*
G01*
X9712197Y3679720D03*
G01*
X9617176Y3273319D03*
G01*
X9617176Y3178298D03*
G01*
X9712192Y3178298D03*
G01*
X9712197Y3273320D03*
G01*
X9617176Y2866919D03*
G01*
X9617176Y2771898D03*
G01*
X9712192Y2771898D03*
G01*
X9712197Y2866920D03*
G01*
X9617176Y2460519D03*
G01*
X9617176Y2365498D03*
G01*
X9712192Y2365498D03*
G01*
X9712197Y2460520D03*
G01*
X9617176Y2054119D03*
G01*
X9617176Y1959098D03*
G01*
X9712192Y1959098D03*
G01*
X9712197Y2054120D03*
G01*
X9617176Y1647719D03*
G01*
X9617176Y1552698D03*
G01*
X9712192Y1552698D03*
G01*
X9712197Y1647720D03*
G01*
X9617176Y1241319D03*
G01*
X9617176Y1146298D03*
G01*
X9712192Y1146298D03*
G01*
X9712197Y1241320D03*
G01*
X9617176Y834919D03*
G01*
X9617176Y739898D03*
G01*
X9712192Y739898D03*
G01*
X9712197Y834920D03*
G01*
X9617176Y428519D03*
G01*
X9617176Y333498D03*
G01*
X9712192Y333498D03*
G01*
X9712197Y428520D03*
D10*
G01*
X10198100Y435505D03*
D11*
G01*
X10198100Y326494D03*
D12*
G01*
X10023576Y4086119D03*
G01*
X10023576Y3991098D03*
G01*
X10118592Y3991098D03*
G01*
X10118597Y4086120D03*
D10*
G01*
X10198100Y841905D03*
D11*
G01*
X10198100Y732894D03*
D10*
G01*
X10198100Y1248305D03*
D11*
G01*
X10198100Y1139294D03*
D10*
G01*
X10198100Y1654705D03*
D11*
G01*
X10198100Y1545694D03*
D10*
G01*
X10198100Y2061105D03*
D11*
G01*
X10198100Y1952094D03*
D10*
G01*
X10198100Y2467505D03*
D11*
G01*
X10198100Y2358494D03*
D10*
G01*
X10198100Y2873905D03*
D11*
G01*
X10198100Y2764894D03*
D10*
G01*
X10198100Y3280305D03*
D11*
G01*
X10198100Y3171294D03*
D10*
G01*
X10198100Y3686705D03*
D11*
G01*
X10198100Y3577694D03*
D10*
G01*
X10198100Y4093105D03*
D11*
G01*
X10198100Y3984094D03*
D12*
G01*
X10023576Y3679719D03*
G01*
X10023576Y3584698D03*
G01*
X10118592Y3584698D03*
G01*
X10118597Y3679720D03*
G01*
X10023576Y3273319D03*
G01*
X10023576Y3178298D03*
G01*
X10118592Y3178298D03*
G01*
X10118597Y3273320D03*
G01*
X10023576Y2866919D03*
G01*
X10023576Y2771898D03*
G01*
X10118592Y2771898D03*
G01*
X10118597Y2866920D03*
G01*
X10023576Y2460519D03*
G01*
X10023576Y2365498D03*
G01*
X10118592Y2365498D03*
G01*
X10118597Y2460520D03*
G01*
X10023576Y2054119D03*
G01*
X10023576Y1959098D03*
G01*
X10118592Y1959098D03*
G01*
X10118597Y2054120D03*
G01*
X10023576Y1647719D03*
G01*
X10023576Y1552698D03*
G01*
X10118592Y1552698D03*
G01*
X10118597Y1647720D03*
G01*
X10023576Y1241319D03*
G01*
X10023576Y1146298D03*
G01*
X10118592Y1146298D03*
G01*
X10118597Y1241320D03*
G01*
X10023576Y834919D03*
G01*
X10023576Y739898D03*
G01*
X10118592Y739898D03*
G01*
X10118597Y834920D03*
G01*
X10023576Y428519D03*
G01*
X10023576Y333498D03*
G01*
X10118592Y333498D03*
G01*
X10118597Y428520D03*
D10*
G01*
X10604500Y435505D03*
D11*
G01*
X10604500Y326494D03*
D12*
G01*
X10429976Y4086119D03*
G01*
X10429976Y3991098D03*
G01*
X10524992Y3991098D03*
G01*
X10524997Y4086120D03*
D10*
G01*
X10604500Y841905D03*
D11*
G01*
X10604500Y732894D03*
D10*
G01*
X10604500Y1248305D03*
D11*
G01*
X10604500Y1139294D03*
D10*
G01*
X10604500Y1654705D03*
D11*
G01*
X10604500Y1545694D03*
D10*
G01*
X10604500Y2061105D03*
D11*
G01*
X10604500Y1952094D03*
D10*
G01*
X10604500Y2467505D03*
D11*
G01*
X10604500Y2358494D03*
D10*
G01*
X10604500Y2873905D03*
D11*
G01*
X10604500Y2764894D03*
D10*
G01*
X10604500Y3280305D03*
D11*
G01*
X10604500Y3171294D03*
D10*
G01*
X10604500Y3686705D03*
D11*
G01*
X10604500Y3577694D03*
D10*
G01*
X10604500Y4093105D03*
D11*
G01*
X10604500Y3984094D03*
D12*
G01*
X10429976Y3679719D03*
G01*
X10429976Y3584698D03*
G01*
X10524992Y3584698D03*
G01*
X10524997Y3679720D03*
G01*
X10429976Y3273319D03*
G01*
X10429976Y3178298D03*
G01*
X10524992Y3178298D03*
G01*
X10524997Y3273320D03*
G01*
X10429976Y2866919D03*
G01*
X10429976Y2771898D03*
G01*
X10524992Y2771898D03*
G01*
X10524997Y2866920D03*
G01*
X10429976Y2460519D03*
G01*
X10429976Y2365498D03*
G01*
X10524992Y2365498D03*
G01*
X10524997Y2460520D03*
G01*
X10429976Y2054119D03*
G01*
X10429976Y1959098D03*
G01*
X10524992Y1959098D03*
G01*
X10524997Y2054120D03*
G01*
X10429976Y1647719D03*
G01*
X10429976Y1552698D03*
G01*
X10524992Y1552698D03*
G01*
X10524997Y1647720D03*
G01*
X10429976Y1241319D03*
G01*
X10429976Y1146298D03*
G01*
X10524992Y1146298D03*
G01*
X10524997Y1241320D03*
G01*
X10429976Y834919D03*
G01*
X10429976Y739898D03*
G01*
X10524992Y739898D03*
G01*
X10524997Y834920D03*
G01*
X10429976Y428519D03*
G01*
X10429976Y333498D03*
G01*
X10524992Y333498D03*
G01*
X10524997Y428520D03*
D10*
G01*
X11010900Y435505D03*
D11*
G01*
X11010900Y326494D03*
D12*
G01*
X10836376Y4086119D03*
G01*
X10836376Y3991098D03*
G01*
X10931392Y3991098D03*
G01*
X10931397Y4086120D03*
D10*
G01*
X11010900Y841905D03*
D11*
G01*
X11010900Y732894D03*
D10*
G01*
X11010900Y1248305D03*
D11*
G01*
X11010900Y1139294D03*
D10*
G01*
X11010900Y1654705D03*
D11*
G01*
X11010900Y1545694D03*
D10*
G01*
X11010900Y2061105D03*
D11*
G01*
X11010900Y1952094D03*
D10*
G01*
X11010900Y2467505D03*
D11*
G01*
X11010900Y2358494D03*
D10*
G01*
X11010900Y2873905D03*
D11*
G01*
X11010900Y2764894D03*
D10*
G01*
X11010900Y3280305D03*
D11*
G01*
X11010900Y3171294D03*
D10*
G01*
X11010900Y3686705D03*
D11*
G01*
X11010900Y3577694D03*
D10*
G01*
X11010900Y4093105D03*
D11*
G01*
X11010900Y3984094D03*
D12*
G01*
X10836376Y3679719D03*
G01*
X10836376Y3584698D03*
G01*
X10931392Y3584698D03*
G01*
X10931397Y3679720D03*
G01*
X10836376Y3273319D03*
G01*
X10836376Y3178298D03*
G01*
X10931392Y3178298D03*
G01*
X10931397Y3273320D03*
G01*
X10836376Y2866919D03*
G01*
X10836376Y2771898D03*
G01*
X10931392Y2771898D03*
G01*
X10931397Y2866920D03*
G01*
X10836376Y2460519D03*
G01*
X10836376Y2365498D03*
G01*
X10931392Y2365498D03*
G01*
X10931397Y2460520D03*
G01*
X10836376Y2054119D03*
G01*
X10836376Y1959098D03*
G01*
X10931392Y1959098D03*
G01*
X10931397Y2054120D03*
G01*
X10836376Y1647719D03*
G01*
X10836376Y1552698D03*
G01*
X10931392Y1552698D03*
G01*
X10931397Y1647720D03*
G01*
X10836376Y1241319D03*
G01*
X10836376Y1146298D03*
G01*
X10931392Y1146298D03*
G01*
X10931397Y1241320D03*
G01*
X10836376Y834919D03*
G01*
X10836376Y739898D03*
G01*
X10931392Y739898D03*
G01*
X10931397Y834920D03*
G01*
X10836376Y428519D03*
G01*
X10836376Y333498D03*
G01*
X10931392Y333498D03*
G01*
X10931397Y428520D03*
D10*
G01*
X11417300Y435505D03*
D11*
G01*
X11417300Y326494D03*
D12*
G01*
X11242776Y4086119D03*
G01*
X11242776Y3991098D03*
G01*
X11337792Y3991098D03*
G01*
X11337797Y4086120D03*
D10*
G01*
X11417300Y841905D03*
D11*
G01*
X11417300Y732894D03*
D10*
G01*
X11417300Y1248305D03*
D11*
G01*
X11417300Y1139294D03*
D10*
G01*
X11417300Y1654705D03*
D11*
G01*
X11417300Y1545694D03*
D10*
G01*
X11417300Y2061105D03*
D11*
G01*
X11417300Y1952094D03*
D10*
G01*
X11417300Y2467505D03*
D11*
G01*
X11417300Y2358494D03*
D10*
G01*
X11417300Y2873905D03*
D11*
G01*
X11417300Y2764894D03*
D10*
G01*
X11417300Y3280305D03*
D11*
G01*
X11417300Y3171294D03*
D10*
G01*
X11417300Y3686705D03*
D11*
G01*
X11417300Y3577694D03*
D10*
G01*
X11417300Y4093105D03*
D11*
G01*
X11417300Y3984094D03*
D12*
G01*
X11242776Y3679719D03*
G01*
X11242776Y3584698D03*
G01*
X11337792Y3584698D03*
G01*
X11337797Y3679720D03*
G01*
X11242776Y3273319D03*
G01*
X11242776Y3178298D03*
G01*
X11337792Y3178298D03*
G01*
X11337797Y3273320D03*
G01*
X11242776Y2866919D03*
G01*
X11242776Y2771898D03*
G01*
X11337792Y2771898D03*
G01*
X11337797Y2866920D03*
G01*
X11242776Y2460519D03*
G01*
X11242776Y2365498D03*
G01*
X11337792Y2365498D03*
G01*
X11337797Y2460520D03*
G01*
X11242776Y2054119D03*
G01*
X11242776Y1959098D03*
G01*
X11337792Y1959098D03*
G01*
X11337797Y2054120D03*
G01*
X11242776Y1647719D03*
G01*
X11242776Y1552698D03*
G01*
X11337792Y1552698D03*
G01*
X11337797Y1647720D03*
G01*
X11242776Y1241319D03*
G01*
X11242776Y1146298D03*
G01*
X11337792Y1146298D03*
G01*
X11337797Y1241320D03*
G01*
X11242776Y834919D03*
G01*
X11242776Y739898D03*
G01*
X11337792Y739898D03*
G01*
X11337797Y834920D03*
G01*
X11242776Y428519D03*
G01*
X11242776Y333498D03*
G01*
X11337792Y333498D03*
G01*
X11337797Y428520D03*
D10*
G01*
X11823700Y435505D03*
D11*
G01*
X11823700Y326494D03*
D12*
G01*
X11649176Y4086119D03*
G01*
X11649176Y3991098D03*
G01*
X11744192Y3991098D03*
G01*
X11744197Y4086120D03*
D10*
G01*
X11823700Y841905D03*
D11*
G01*
X11823700Y732894D03*
D10*
G01*
X11823700Y1248305D03*
D11*
G01*
X11823700Y1139294D03*
D10*
G01*
X11823700Y1654705D03*
D11*
G01*
X11823700Y1545694D03*
D10*
G01*
X11823700Y2061105D03*
D11*
G01*
X11823700Y1952094D03*
D10*
G01*
X11823700Y2467505D03*
D11*
G01*
X11823700Y2358494D03*
D10*
G01*
X11823700Y2873905D03*
D11*
G01*
X11823700Y2764894D03*
D10*
G01*
X11823700Y3280305D03*
D11*
G01*
X11823700Y3171294D03*
D10*
G01*
X11823700Y3686705D03*
D11*
G01*
X11823700Y3577694D03*
D10*
G01*
X11823700Y4093105D03*
D11*
G01*
X11823700Y3984094D03*
D12*
G01*
X11649176Y3679719D03*
G01*
X11649176Y3584698D03*
G01*
X11744192Y3584698D03*
G01*
X11744197Y3679720D03*
G01*
X11649176Y3273319D03*
G01*
X11649176Y3178298D03*
G01*
X11744192Y3178298D03*
G01*
X11744197Y3273320D03*
G01*
X11649176Y2866919D03*
G01*
X11649176Y2771898D03*
G01*
X11744192Y2771898D03*
G01*
X11744197Y2866920D03*
G01*
X11649176Y2460519D03*
G01*
X11649176Y2365498D03*
G01*
X11744192Y2365498D03*
G01*
X11744197Y2460520D03*
G01*
X11649176Y2054119D03*
G01*
X11649176Y1959098D03*
G01*
X11744192Y1959098D03*
G01*
X11744197Y2054120D03*
G01*
X11649176Y1647719D03*
G01*
X11649176Y1552698D03*
G01*
X11744192Y1552698D03*
G01*
X11744197Y1647720D03*
G01*
X11649176Y1241319D03*
G01*
X11649176Y1146298D03*
G01*
X11744192Y1146298D03*
G01*
X11744197Y1241320D03*
G01*
X11649176Y834919D03*
G01*
X11649176Y739898D03*
G01*
X11744192Y739898D03*
G01*
X11744197Y834920D03*
G01*
X11649176Y428519D03*
G01*
X11649176Y333498D03*
G01*
X11744192Y333498D03*
G01*
X11744197Y428520D03*
D10*
G01*
X12230100Y435505D03*
D11*
G01*
X12230100Y326494D03*
D12*
G01*
X12055576Y4086119D03*
G01*
X12055576Y3991098D03*
G01*
X12150592Y3991098D03*
G01*
X12150597Y4086120D03*
D10*
G01*
X12230100Y841905D03*
D11*
G01*
X12230100Y732894D03*
D10*
G01*
X12230100Y1248305D03*
D11*
G01*
X12230100Y1139294D03*
D10*
G01*
X12230100Y1654705D03*
D11*
G01*
X12230100Y1545694D03*
D10*
G01*
X12230100Y2061105D03*
D11*
G01*
X12230100Y1952094D03*
D10*
G01*
X12230100Y2467505D03*
D11*
G01*
X12230100Y2358494D03*
D10*
G01*
X12230100Y2873905D03*
D11*
G01*
X12230100Y2764894D03*
D10*
G01*
X12230100Y3280305D03*
D11*
G01*
X12230100Y3171294D03*
D10*
G01*
X12230100Y3686705D03*
D11*
G01*
X12230100Y3577694D03*
D10*
G01*
X12230100Y4093105D03*
D11*
G01*
X12230100Y3984094D03*
D12*
G01*
X12055576Y3679719D03*
G01*
X12055576Y3584698D03*
G01*
X12150592Y3584698D03*
G01*
X12150597Y3679720D03*
G01*
X12055576Y3273319D03*
G01*
X12055576Y3178298D03*
G01*
X12150592Y3178298D03*
G01*
X12150597Y3273320D03*
G01*
X12055576Y2866919D03*
G01*
X12055576Y2771898D03*
G01*
X12150592Y2771898D03*
G01*
X12150597Y2866920D03*
G01*
X12055576Y2460519D03*
G01*
X12055576Y2365498D03*
G01*
X12150592Y2365498D03*
G01*
X12150597Y2460520D03*
G01*
X12055576Y2054119D03*
G01*
X12055576Y1959098D03*
G01*
X12150592Y1959098D03*
G01*
X12150597Y2054120D03*
G01*
X12055576Y1647719D03*
G01*
X12055576Y1552698D03*
G01*
X12150592Y1552698D03*
G01*
X12150597Y1647720D03*
G01*
X12055576Y1241319D03*
G01*
X12055576Y1146298D03*
G01*
X12150592Y1146298D03*
G01*
X12150597Y1241320D03*
G01*
X12055576Y834919D03*
G01*
X12055576Y739898D03*
G01*
X12150592Y739898D03*
G01*
X12150597Y834920D03*
G01*
X12055576Y428519D03*
G01*
X12055576Y333498D03*
G01*
X12150592Y333498D03*
G01*
X12150597Y428520D03*
D10*
G01*
X12636500Y435505D03*
D11*
G01*
X12636500Y326494D03*
D12*
G01*
X12461976Y4086119D03*
G01*
X12461976Y3991098D03*
G01*
X12556992Y3991098D03*
G01*
X12556997Y4086120D03*
D10*
G01*
X12636500Y841905D03*
D11*
G01*
X12636500Y732894D03*
D10*
G01*
X12636500Y1248305D03*
D11*
G01*
X12636500Y1139294D03*
D10*
G01*
X12636500Y1654705D03*
D11*
G01*
X12636500Y1545694D03*
D10*
G01*
X12636500Y2061105D03*
D11*
G01*
X12636500Y1952094D03*
D10*
G01*
X12636500Y2467505D03*
D11*
G01*
X12636500Y2358494D03*
D10*
G01*
X12636500Y2873905D03*
D11*
G01*
X12636500Y2764894D03*
D10*
G01*
X12636500Y3280305D03*
D11*
G01*
X12636500Y3171294D03*
D10*
G01*
X12636500Y3686705D03*
D11*
G01*
X12636500Y3577694D03*
D10*
G01*
X12636500Y4093105D03*
D11*
G01*
X12636500Y3984094D03*
D12*
G01*
X12461976Y3679719D03*
G01*
X12461976Y3584698D03*
G01*
X12556992Y3584698D03*
G01*
X12556997Y3679720D03*
G01*
X12461976Y3273319D03*
G01*
X12461976Y3178298D03*
G01*
X12556992Y3178298D03*
G01*
X12556997Y3273320D03*
G01*
X12461976Y2866919D03*
G01*
X12461976Y2771898D03*
G01*
X12556992Y2771898D03*
G01*
X12556997Y2866920D03*
G01*
X12461976Y2460519D03*
G01*
X12461976Y2365498D03*
G01*
X12556992Y2365498D03*
G01*
X12556997Y2460520D03*
G01*
X12461976Y2054119D03*
G01*
X12461976Y1959098D03*
G01*
X12556992Y1959098D03*
G01*
X12556997Y2054120D03*
G01*
X12461976Y1647719D03*
G01*
X12461976Y1552698D03*
G01*
X12556992Y1552698D03*
G01*
X12556997Y1647720D03*
G01*
X12461976Y1241319D03*
G01*
X12461976Y1146298D03*
G01*
X12556992Y1146298D03*
G01*
X12556997Y1241320D03*
G01*
X12461976Y834919D03*
G01*
X12461976Y739898D03*
G01*
X12556992Y739898D03*
G01*
X12556997Y834920D03*
G01*
X12461976Y428519D03*
G01*
X12461976Y333498D03*
G01*
X12556992Y333498D03*
G01*
X12556997Y428520D03*
D10*
G01*
X13042900Y435505D03*
D11*
G01*
X13042900Y326494D03*
D12*
G01*
X12868376Y4086119D03*
G01*
X12868376Y3991098D03*
G01*
X12963392Y3991098D03*
G01*
X12963397Y4086120D03*
D10*
G01*
X13042900Y841905D03*
D11*
G01*
X13042900Y732894D03*
D10*
G01*
X13042900Y1248305D03*
D11*
G01*
X13042900Y1139294D03*
D10*
G01*
X13042900Y1654705D03*
D11*
G01*
X13042900Y1545694D03*
D10*
G01*
X13042900Y2061105D03*
D11*
G01*
X13042900Y1952094D03*
D10*
G01*
X13042900Y2467505D03*
D11*
G01*
X13042900Y2358494D03*
D10*
G01*
X13042900Y2873905D03*
D11*
G01*
X13042900Y2764894D03*
D10*
G01*
X13042900Y3280305D03*
D11*
G01*
X13042900Y3171294D03*
D10*
G01*
X13042900Y3686705D03*
D11*
G01*
X13042900Y3577694D03*
D10*
G01*
X13042900Y4093105D03*
D11*
G01*
X13042900Y3984094D03*
D12*
G01*
X12868376Y3679719D03*
G01*
X12868376Y3584698D03*
G01*
X12963392Y3584698D03*
G01*
X12963397Y3679720D03*
G01*
X12868376Y3273319D03*
G01*
X12868376Y3178298D03*
G01*
X12963392Y3178298D03*
G01*
X12963397Y3273320D03*
G01*
X12868376Y2866919D03*
G01*
X12868376Y2771898D03*
G01*
X12963392Y2771898D03*
G01*
X12963397Y2866920D03*
G01*
X12868376Y2460519D03*
G01*
X12868376Y2365498D03*
G01*
X12963392Y2365498D03*
G01*
X12963397Y2460520D03*
G01*
X12868376Y2054119D03*
G01*
X12868376Y1959098D03*
G01*
X12963392Y1959098D03*
G01*
X12963397Y2054120D03*
G01*
X12868376Y1647719D03*
G01*
X12868376Y1552698D03*
G01*
X12963392Y1552698D03*
G01*
X12963397Y1647720D03*
G01*
X12868376Y1241319D03*
G01*
X12868376Y1146298D03*
G01*
X12963392Y1146298D03*
G01*
X12963397Y1241320D03*
G01*
X12868376Y834919D03*
G01*
X12868376Y739898D03*
G01*
X12963392Y739898D03*
G01*
X12963397Y834920D03*
G01*
X12868376Y428519D03*
G01*
X12868376Y333498D03*
G01*
X12963392Y333498D03*
G01*
X12963397Y428520D03*
D10*
G01*
X13449300Y435505D03*
D11*
G01*
X13449300Y326494D03*
D12*
G01*
X13274776Y4086119D03*
G01*
X13274776Y3991098D03*
G01*
X13369792Y3991098D03*
G01*
X13369797Y4086120D03*
D10*
G01*
X13449300Y841905D03*
D11*
G01*
X13449300Y732894D03*
D10*
G01*
X13449300Y1248305D03*
D11*
G01*
X13449300Y1139294D03*
D10*
G01*
X13449300Y1654705D03*
D11*
G01*
X13449300Y1545694D03*
D10*
G01*
X13449300Y2061105D03*
D11*
G01*
X13449300Y1952094D03*
D10*
G01*
X13449300Y2467505D03*
D11*
G01*
X13449300Y2358494D03*
D10*
G01*
X13449300Y2873905D03*
D11*
G01*
X13449300Y2764894D03*
D10*
G01*
X13449300Y3280305D03*
D11*
G01*
X13449300Y3171294D03*
D10*
G01*
X13449300Y3686705D03*
D11*
G01*
X13449300Y3577694D03*
D10*
G01*
X13449300Y4093105D03*
D11*
G01*
X13449300Y3984094D03*
D12*
G01*
X13274776Y3679719D03*
G01*
X13274776Y3584698D03*
G01*
X13369792Y3584698D03*
G01*
X13369797Y3679720D03*
G01*
X13274776Y3273319D03*
G01*
X13274776Y3178298D03*
G01*
X13369792Y3178298D03*
G01*
X13369797Y3273320D03*
G01*
X13274776Y2866919D03*
G01*
X13274776Y2771898D03*
G01*
X13369792Y2771898D03*
G01*
X13369797Y2866920D03*
G01*
X13274776Y2460519D03*
G01*
X13274776Y2365498D03*
G01*
X13369792Y2365498D03*
G01*
X13369797Y2460520D03*
G01*
X13274776Y2054119D03*
G01*
X13274776Y1959098D03*
G01*
X13369792Y1959098D03*
G01*
X13369797Y2054120D03*
G01*
X13274776Y1647719D03*
G01*
X13274776Y1552698D03*
G01*
X13369792Y1552698D03*
G01*
X13369797Y1647720D03*
G01*
X13274776Y1241319D03*
G01*
X13274776Y1146298D03*
G01*
X13369792Y1146298D03*
G01*
X13369797Y1241320D03*
G01*
X13274776Y834919D03*
G01*
X13274776Y739898D03*
G01*
X13369792Y739898D03*
G01*
X13369797Y834920D03*
G01*
X13274776Y428519D03*
G01*
X13274776Y333498D03*
G01*
X13369792Y333498D03*
G01*
X13369797Y428520D03*
D10*
G01*
X13855700Y435505D03*
D11*
G01*
X13855700Y326494D03*
D12*
G01*
X13681176Y4086119D03*
G01*
X13681176Y3991098D03*
G01*
X13776192Y3991098D03*
G01*
X13776197Y4086120D03*
D10*
G01*
X13855700Y841905D03*
D11*
G01*
X13855700Y732894D03*
D10*
G01*
X13855700Y1248305D03*
D11*
G01*
X13855700Y1139294D03*
D10*
G01*
X13855700Y1654705D03*
D11*
G01*
X13855700Y1545694D03*
D10*
G01*
X13855700Y2061105D03*
D11*
G01*
X13855700Y1952094D03*
D10*
G01*
X13855700Y2467505D03*
D11*
G01*
X13855700Y2358494D03*
D10*
G01*
X13855700Y2873905D03*
D11*
G01*
X13855700Y2764894D03*
D10*
G01*
X13855700Y3280305D03*
D11*
G01*
X13855700Y3171294D03*
D10*
G01*
X13855700Y3686705D03*
D11*
G01*
X13855700Y3577694D03*
D10*
G01*
X13855700Y4093105D03*
D11*
G01*
X13855700Y3984094D03*
D12*
G01*
X13681176Y3679719D03*
G01*
X13681176Y3584698D03*
G01*
X13776192Y3584698D03*
G01*
X13776197Y3679720D03*
G01*
X13681176Y3273319D03*
G01*
X13681176Y3178298D03*
G01*
X13776192Y3178298D03*
G01*
X13776197Y3273320D03*
G01*
X13681176Y2866919D03*
G01*
X13681176Y2771898D03*
G01*
X13776192Y2771898D03*
G01*
X13776197Y2866920D03*
G01*
X13681176Y2460519D03*
G01*
X13681176Y2365498D03*
G01*
X13776192Y2365498D03*
G01*
X13776197Y2460520D03*
G01*
X13681176Y2054119D03*
G01*
X13681176Y1959098D03*
G01*
X13776192Y1959098D03*
G01*
X13776197Y2054120D03*
G01*
X13681176Y1647719D03*
G01*
X13681176Y1552698D03*
G01*
X13776192Y1552698D03*
G01*
X13776197Y1647720D03*
G01*
X13681176Y1241319D03*
G01*
X13681176Y1146298D03*
G01*
X13776192Y1146298D03*
G01*
X13776197Y1241320D03*
G01*
X13681176Y834919D03*
G01*
X13681176Y739898D03*
G01*
X13776192Y739898D03*
G01*
X13776197Y834920D03*
G01*
X13681176Y428519D03*
G01*
X13681176Y333498D03*
G01*
X13776192Y333498D03*
G01*
X13776197Y428520D03*
D10*
G01*
X14262100Y435505D03*
D11*
G01*
X14262100Y326494D03*
D12*
G01*
X14087576Y4086119D03*
G01*
X14087576Y3991098D03*
G01*
X14182592Y3991098D03*
G01*
X14182597Y4086120D03*
D10*
G01*
X14262100Y841905D03*
D11*
G01*
X14262100Y732894D03*
D10*
G01*
X14262100Y1248305D03*
D11*
G01*
X14262100Y1139294D03*
D10*
G01*
X14262100Y1654705D03*
D11*
G01*
X14262100Y1545694D03*
D10*
G01*
X14262100Y2061105D03*
D11*
G01*
X14262100Y1952094D03*
D10*
G01*
X14262100Y2467505D03*
D11*
G01*
X14262100Y2358494D03*
D10*
G01*
X14262100Y2873905D03*
D11*
G01*
X14262100Y2764894D03*
D10*
G01*
X14262100Y3280305D03*
D11*
G01*
X14262100Y3171294D03*
D10*
G01*
X14262100Y3686705D03*
D11*
G01*
X14262100Y3577694D03*
D10*
G01*
X14262100Y4093105D03*
D11*
G01*
X14262100Y3984094D03*
D12*
G01*
X14087576Y3679719D03*
G01*
X14087576Y3584698D03*
G01*
X14182592Y3584698D03*
G01*
X14182597Y3679720D03*
G01*
X14087576Y3273319D03*
G01*
X14087576Y3178298D03*
G01*
X14182592Y3178298D03*
G01*
X14182597Y3273320D03*
G01*
X14087576Y2866919D03*
G01*
X14087576Y2771898D03*
G01*
X14182592Y2771898D03*
G01*
X14182597Y2866920D03*
G01*
X14087576Y2460519D03*
G01*
X14087576Y2365498D03*
G01*
X14182592Y2365498D03*
G01*
X14182597Y2460520D03*
G01*
X14087576Y2054119D03*
G01*
X14087576Y1959098D03*
G01*
X14182592Y1959098D03*
G01*
X14182597Y2054120D03*
G01*
X14087576Y1647719D03*
G01*
X14087576Y1552698D03*
G01*
X14182592Y1552698D03*
G01*
X14182597Y1647720D03*
G01*
X14087576Y1241319D03*
G01*
X14087576Y1146298D03*
G01*
X14182592Y1146298D03*
G01*
X14182597Y1241320D03*
G01*
X14087576Y834919D03*
G01*
X14087576Y739898D03*
G01*
X14182592Y739898D03*
G01*
X14182597Y834920D03*
G01*
X14087576Y428519D03*
G01*
X14087576Y333498D03*
G01*
X14182592Y333498D03*
G01*
X14182597Y428520D03*
D10*
G01*
X14668500Y435505D03*
D11*
G01*
X14668500Y326494D03*
D12*
G01*
X14493976Y4086119D03*
G01*
X14493976Y3991098D03*
G01*
X14588992Y3991098D03*
G01*
X14588997Y4086120D03*
D10*
G01*
X14668500Y841905D03*
D11*
G01*
X14668500Y732894D03*
D10*
G01*
X14668500Y1248305D03*
D11*
G01*
X14668500Y1139294D03*
D10*
G01*
X14668500Y1654705D03*
D11*
G01*
X14668500Y1545694D03*
D10*
G01*
X14668500Y2061105D03*
D11*
G01*
X14668500Y1952094D03*
D10*
G01*
X14668500Y2467505D03*
D11*
G01*
X14668500Y2358494D03*
D10*
G01*
X14668500Y2873905D03*
D11*
G01*
X14668500Y2764894D03*
D10*
G01*
X14668500Y3280305D03*
D11*
G01*
X14668500Y3171294D03*
D10*
G01*
X14668500Y3686705D03*
D11*
G01*
X14668500Y3577694D03*
D10*
G01*
X14668500Y4093105D03*
D11*
G01*
X14668500Y3984094D03*
D12*
G01*
X14493976Y3679719D03*
G01*
X14493976Y3584698D03*
G01*
X14588992Y3584698D03*
G01*
X14588997Y3679720D03*
G01*
X14493976Y3273319D03*
G01*
X14493976Y3178298D03*
G01*
X14588992Y3178298D03*
G01*
X14588997Y3273320D03*
G01*
X14493976Y2866919D03*
G01*
X14493976Y2771898D03*
G01*
X14588992Y2771898D03*
G01*
X14588997Y2866920D03*
G01*
X14493976Y2460519D03*
G01*
X14493976Y2365498D03*
G01*
X14588992Y2365498D03*
G01*
X14588997Y2460520D03*
G01*
X14493976Y2054119D03*
G01*
X14493976Y1959098D03*
G01*
X14588992Y1959098D03*
G01*
X14588997Y2054120D03*
G01*
X14493976Y1647719D03*
G01*
X14493976Y1552698D03*
G01*
X14588992Y1552698D03*
G01*
X14588997Y1647720D03*
G01*
X14493976Y1241319D03*
G01*
X14493976Y1146298D03*
G01*
X14588992Y1146298D03*
G01*
X14588997Y1241320D03*
G01*
X14493976Y834919D03*
G01*
X14493976Y739898D03*
G01*
X14588992Y739898D03*
G01*
X14588997Y834920D03*
G01*
X14493976Y428519D03*
G01*
X14493976Y333498D03*
G01*
X14588992Y333498D03*
G01*
X14588997Y428520D03*
D10*
G01*
X15074900Y435505D03*
D11*
G01*
X15074900Y326494D03*
D12*
G01*
X14900376Y4086119D03*
G01*
X14900376Y3991098D03*
G01*
X14995392Y3991098D03*
G01*
X14995397Y4086120D03*
D10*
G01*
X15074900Y841905D03*
D11*
G01*
X15074900Y732894D03*
D10*
G01*
X15074900Y1248305D03*
D11*
G01*
X15074900Y1139294D03*
D10*
G01*
X15074900Y1654705D03*
D11*
G01*
X15074900Y1545694D03*
D10*
G01*
X15074900Y2061105D03*
D11*
G01*
X15074900Y1952094D03*
D10*
G01*
X15074900Y2467505D03*
D11*
G01*
X15074900Y2358494D03*
D10*
G01*
X15074900Y2873905D03*
D11*
G01*
X15074900Y2764894D03*
D10*
G01*
X15074900Y3280305D03*
D11*
G01*
X15074900Y3171294D03*
D10*
G01*
X15074900Y3686705D03*
D11*
G01*
X15074900Y3577694D03*
D10*
G01*
X15074900Y4093105D03*
D11*
G01*
X15074900Y3984094D03*
D12*
G01*
X14900376Y3679719D03*
G01*
X14900376Y3584698D03*
G01*
X14995392Y3584698D03*
G01*
X14995397Y3679720D03*
G01*
X14900376Y3273319D03*
G01*
X14900376Y3178298D03*
G01*
X14995392Y3178298D03*
G01*
X14995397Y3273320D03*
G01*
X14900376Y2866919D03*
G01*
X14900376Y2771898D03*
G01*
X14995392Y2771898D03*
G01*
X14995397Y2866920D03*
G01*
X14900376Y2460519D03*
G01*
X14900376Y2365498D03*
G01*
X14995392Y2365498D03*
G01*
X14995397Y2460520D03*
G01*
X14900376Y2054119D03*
G01*
X14900376Y1959098D03*
G01*
X14995392Y1959098D03*
G01*
X14995397Y2054120D03*
G01*
X14900376Y1647719D03*
G01*
X14900376Y1552698D03*
G01*
X14995392Y1552698D03*
G01*
X14995397Y1647720D03*
G01*
X14900376Y1241319D03*
G01*
X14900376Y1146298D03*
G01*
X14995392Y1146298D03*
G01*
X14995397Y1241320D03*
G01*
X14900376Y834919D03*
G01*
X14900376Y739898D03*
G01*
X14995392Y739898D03*
G01*
X14995397Y834920D03*
G01*
X14900376Y428519D03*
G01*
X14900376Y333498D03*
G01*
X14995392Y333498D03*
G01*
X14995397Y428520D03*
D10*
G01*
X15481300Y435505D03*
D11*
G01*
X15481300Y326494D03*
D12*
G01*
X15306776Y4086119D03*
G01*
X15306776Y3991098D03*
G01*
X15401792Y3991098D03*
G01*
X15401797Y4086120D03*
D10*
G01*
X15481300Y841905D03*
D11*
G01*
X15481300Y732894D03*
D10*
G01*
X15481300Y1248305D03*
D11*
G01*
X15481300Y1139294D03*
D10*
G01*
X15481300Y1654705D03*
D11*
G01*
X15481300Y1545694D03*
D10*
G01*
X15481300Y2061105D03*
D11*
G01*
X15481300Y1952094D03*
D10*
G01*
X15481300Y2467505D03*
D11*
G01*
X15481300Y2358494D03*
D10*
G01*
X15481300Y2873905D03*
D11*
G01*
X15481300Y2764894D03*
D10*
G01*
X15481300Y3280305D03*
D11*
G01*
X15481300Y3171294D03*
D10*
G01*
X15481300Y3686705D03*
D11*
G01*
X15481300Y3577694D03*
D10*
G01*
X15481300Y4093105D03*
D11*
G01*
X15481300Y3984094D03*
D12*
G01*
X15306776Y3679719D03*
G01*
X15306776Y3584698D03*
G01*
X15401792Y3584698D03*
G01*
X15401797Y3679720D03*
G01*
X15306776Y3273319D03*
G01*
X15306776Y3178298D03*
G01*
X15401792Y3178298D03*
G01*
X15401797Y3273320D03*
G01*
X15306776Y2866919D03*
G01*
X15306776Y2771898D03*
G01*
X15401792Y2771898D03*
G01*
X15401797Y2866920D03*
G01*
X15306776Y2460519D03*
G01*
X15306776Y2365498D03*
G01*
X15401792Y2365498D03*
G01*
X15401797Y2460520D03*
G01*
X15306776Y2054119D03*
G01*
X15306776Y1959098D03*
G01*
X15401792Y1959098D03*
G01*
X15401797Y2054120D03*
G01*
X15306776Y1647719D03*
G01*
X15306776Y1552698D03*
G01*
X15401792Y1552698D03*
G01*
X15401797Y1647720D03*
G01*
X15306776Y1241319D03*
G01*
X15306776Y1146298D03*
G01*
X15401792Y1146298D03*
G01*
X15401797Y1241320D03*
G01*
X15306776Y834919D03*
G01*
X15306776Y739898D03*
G01*
X15401792Y739898D03*
G01*
X15401797Y834920D03*
G01*
X15306776Y428519D03*
G01*
X15306776Y333498D03*
G01*
X15401792Y333498D03*
G01*
X15401797Y428520D03*
D10*
G01*
X15887700Y435505D03*
D11*
G01*
X15887700Y326494D03*
D12*
G01*
X15713176Y4086119D03*
G01*
X15713176Y3991098D03*
G01*
X15808192Y3991098D03*
G01*
X15808197Y4086120D03*
D10*
G01*
X15887700Y841905D03*
D11*
G01*
X15887700Y732894D03*
D10*
G01*
X15887700Y1248305D03*
D11*
G01*
X15887700Y1139294D03*
D10*
G01*
X15887700Y1654705D03*
D11*
G01*
X15887700Y1545694D03*
D10*
G01*
X15887700Y2061105D03*
D11*
G01*
X15887700Y1952094D03*
D10*
G01*
X15887700Y2467505D03*
D11*
G01*
X15887700Y2358494D03*
D10*
G01*
X15887700Y2873905D03*
D11*
G01*
X15887700Y2764894D03*
D10*
G01*
X15887700Y3280305D03*
D11*
G01*
X15887700Y3171294D03*
D10*
G01*
X15887700Y3686705D03*
D11*
G01*
X15887700Y3577694D03*
D10*
G01*
X15887700Y4093105D03*
D11*
G01*
X15887700Y3984094D03*
D12*
G01*
X15713176Y3679719D03*
G01*
X15713176Y3584698D03*
G01*
X15808192Y3584698D03*
G01*
X15808197Y3679720D03*
G01*
X15713176Y3273319D03*
G01*
X15713176Y3178298D03*
G01*
X15808192Y3178298D03*
G01*
X15808197Y3273320D03*
G01*
X15713176Y2866919D03*
G01*
X15713176Y2771898D03*
G01*
X15808192Y2771898D03*
G01*
X15808197Y2866920D03*
G01*
X15713176Y2460519D03*
G01*
X15713176Y2365498D03*
G01*
X15808192Y2365498D03*
G01*
X15808197Y2460520D03*
G01*
X15713176Y2054119D03*
G01*
X15713176Y1959098D03*
G01*
X15808192Y1959098D03*
G01*
X15808197Y2054120D03*
G01*
X15713176Y1647719D03*
G01*
X15713176Y1552698D03*
G01*
X15808192Y1552698D03*
G01*
X15808197Y1647720D03*
G01*
X15713176Y1241319D03*
G01*
X15713176Y1146298D03*
G01*
X15808192Y1146298D03*
G01*
X15808197Y1241320D03*
G01*
X15713176Y834919D03*
G01*
X15713176Y739898D03*
G01*
X15808192Y739898D03*
G01*
X15808197Y834920D03*
G01*
X15713176Y428519D03*
G01*
X15713176Y333498D03*
G01*
X15808192Y333498D03*
G01*
X15808197Y428520D03*
D10*
G01*
X16294100Y435505D03*
D11*
G01*
X16294100Y326494D03*
D12*
G01*
X16119576Y4086119D03*
G01*
X16119576Y3991098D03*
G01*
X16214592Y3991098D03*
G01*
X16214597Y4086120D03*
D10*
G01*
X16294100Y841905D03*
D11*
G01*
X16294100Y732894D03*
D10*
G01*
X16294100Y1248305D03*
D11*
G01*
X16294100Y1139294D03*
D10*
G01*
X16294100Y1654705D03*
D11*
G01*
X16294100Y1545694D03*
D10*
G01*
X16294100Y2061105D03*
D11*
G01*
X16294100Y1952094D03*
D10*
G01*
X16294100Y2467505D03*
D11*
G01*
X16294100Y2358494D03*
D10*
G01*
X16294100Y2873905D03*
D11*
G01*
X16294100Y2764894D03*
D10*
G01*
X16294100Y3280305D03*
D11*
G01*
X16294100Y3171294D03*
D10*
G01*
X16294100Y3686705D03*
D11*
G01*
X16294100Y3577694D03*
D10*
G01*
X16294100Y4093105D03*
D11*
G01*
X16294100Y3984094D03*
D12*
G01*
X16119576Y3679719D03*
G01*
X16119576Y3584698D03*
G01*
X16214592Y3584698D03*
G01*
X16214597Y3679720D03*
G01*
X16119576Y3273319D03*
G01*
X16119576Y3178298D03*
G01*
X16214592Y3178298D03*
G01*
X16214597Y3273320D03*
G01*
X16119576Y2866919D03*
G01*
X16119576Y2771898D03*
G01*
X16214592Y2771898D03*
G01*
X16214597Y2866920D03*
G01*
X16119576Y2460519D03*
G01*
X16119576Y2365498D03*
G01*
X16214592Y2365498D03*
G01*
X16214597Y2460520D03*
G01*
X16119576Y2054119D03*
G01*
X16119576Y1959098D03*
G01*
X16214592Y1959098D03*
G01*
X16214597Y2054120D03*
G01*
X16119576Y1647719D03*
G01*
X16119576Y1552698D03*
G01*
X16214592Y1552698D03*
G01*
X16214597Y1647720D03*
G01*
X16119576Y1241319D03*
G01*
X16119576Y1146298D03*
G01*
X16214592Y1146298D03*
G01*
X16214597Y1241320D03*
G01*
X16119576Y834919D03*
G01*
X16119576Y739898D03*
G01*
X16214592Y739898D03*
G01*
X16214597Y834920D03*
G01*
X16119576Y428519D03*
G01*
X16119576Y333498D03*
G01*
X16214592Y333498D03*
G01*
X16214597Y428520D03*
D10*
G01*
X16700500Y435505D03*
D11*
G01*
X16700500Y326494D03*
D12*
G01*
X16525976Y4086119D03*
G01*
X16525976Y3991098D03*
G01*
X16620992Y3991098D03*
G01*
X16620997Y4086120D03*
D10*
G01*
X16700500Y841905D03*
D11*
G01*
X16700500Y732894D03*
D10*
G01*
X16700500Y1248305D03*
D11*
G01*
X16700500Y1139294D03*
D10*
G01*
X16700500Y1654705D03*
D11*
G01*
X16700500Y1545694D03*
D10*
G01*
X16700500Y2061105D03*
D11*
G01*
X16700500Y1952094D03*
D10*
G01*
X16700500Y2467505D03*
D11*
G01*
X16700500Y2358494D03*
D10*
G01*
X16700500Y2873905D03*
D11*
G01*
X16700500Y2764894D03*
D10*
G01*
X16700500Y3280305D03*
D11*
G01*
X16700500Y3171294D03*
D10*
G01*
X16700500Y3686705D03*
D11*
G01*
X16700500Y3577694D03*
D10*
G01*
X16700500Y4093105D03*
D11*
G01*
X16700500Y3984094D03*
D12*
G01*
X16525976Y3679719D03*
G01*
X16525976Y3584698D03*
G01*
X16620992Y3584698D03*
G01*
X16620997Y3679720D03*
G01*
X16525976Y3273319D03*
G01*
X16525976Y3178298D03*
G01*
X16620992Y3178298D03*
G01*
X16620997Y3273320D03*
G01*
X16525976Y2866919D03*
G01*
X16525976Y2771898D03*
G01*
X16620992Y2771898D03*
G01*
X16620997Y2866920D03*
G01*
X16525976Y2460519D03*
G01*
X16525976Y2365498D03*
G01*
X16620992Y2365498D03*
G01*
X16620997Y2460520D03*
G01*
X16525976Y2054119D03*
G01*
X16525976Y1959098D03*
G01*
X16620992Y1959098D03*
G01*
X16620997Y2054120D03*
G01*
X16525976Y1647719D03*
G01*
X16525976Y1552698D03*
G01*
X16620992Y1552698D03*
G01*
X16620997Y1647720D03*
G01*
X16525976Y1241319D03*
G01*
X16525976Y1146298D03*
G01*
X16620992Y1146298D03*
G01*
X16620997Y1241320D03*
G01*
X16525976Y834919D03*
G01*
X16525976Y739898D03*
G01*
X16620992Y739898D03*
G01*
X16620997Y834920D03*
G01*
X16525976Y428519D03*
G01*
X16525976Y333498D03*
G01*
X16620992Y333498D03*
G01*
X16620997Y428520D03*
D10*
G01*
X17106900Y435505D03*
D11*
G01*
X17106900Y326494D03*
D12*
G01*
X16932376Y4086119D03*
G01*
X16932376Y3991098D03*
G01*
X17027392Y3991098D03*
G01*
X17027398Y4086120D03*
D10*
G01*
X17106900Y841905D03*
D11*
G01*
X17106900Y732894D03*
D10*
G01*
X17106900Y1248305D03*
D11*
G01*
X17106900Y1139294D03*
D10*
G01*
X17106900Y1654705D03*
D11*
G01*
X17106900Y1545694D03*
D10*
G01*
X17106900Y2061105D03*
D11*
G01*
X17106900Y1952094D03*
D10*
G01*
X17106900Y2467505D03*
D11*
G01*
X17106900Y2358494D03*
D10*
G01*
X17106900Y2873905D03*
D11*
G01*
X17106900Y2764894D03*
D10*
G01*
X17106900Y3280305D03*
D11*
G01*
X17106900Y3171294D03*
D10*
G01*
X17106900Y3686705D03*
D11*
G01*
X17106900Y3577694D03*
D10*
G01*
X17106900Y4093105D03*
D11*
G01*
X17106900Y3984094D03*
D12*
G01*
X16932376Y3679719D03*
G01*
X16932376Y3584698D03*
G01*
X17027392Y3584698D03*
G01*
X17027398Y3679720D03*
G01*
X16932376Y3273319D03*
G01*
X16932376Y3178298D03*
G01*
X17027392Y3178298D03*
G01*
X17027398Y3273320D03*
G01*
X16932376Y2866919D03*
G01*
X16932376Y2771898D03*
G01*
X17027392Y2771898D03*
G01*
X17027398Y2866920D03*
G01*
X16932376Y2460519D03*
G01*
X16932376Y2365498D03*
G01*
X17027392Y2365498D03*
G01*
X17027398Y2460520D03*
G01*
X16932376Y2054119D03*
G01*
X16932376Y1959098D03*
G01*
X17027392Y1959098D03*
G01*
X17027398Y2054120D03*
G01*
X16932376Y1647719D03*
G01*
X16932376Y1552698D03*
G01*
X17027392Y1552698D03*
G01*
X17027398Y1647720D03*
G01*
X16932376Y1241319D03*
G01*
X16932376Y1146298D03*
G01*
X17027392Y1146298D03*
G01*
X17027398Y1241320D03*
G01*
X16932376Y834919D03*
G01*
X16932376Y739898D03*
G01*
X17027392Y739898D03*
G01*
X17027398Y834920D03*
G01*
X16932376Y428519D03*
G01*
X16932376Y333498D03*
G01*
X17027392Y333498D03*
G01*
X17027398Y428520D03*
D10*
G01*
X17513300Y435505D03*
D11*
G01*
X17513300Y326494D03*
D12*
G01*
X17338776Y4086119D03*
G01*
X17338776Y3991098D03*
G01*
X17433792Y3991098D03*
G01*
X17433798Y4086120D03*
D10*
G01*
X17513300Y841905D03*
D11*
G01*
X17513300Y732894D03*
D10*
G01*
X17513300Y1248305D03*
D11*
G01*
X17513300Y1139294D03*
D10*
G01*
X17513300Y1654705D03*
D11*
G01*
X17513300Y1545694D03*
D10*
G01*
X17513300Y2061105D03*
D11*
G01*
X17513300Y1952094D03*
D10*
G01*
X17513300Y2467505D03*
D11*
G01*
X17513300Y2358494D03*
D10*
G01*
X17513300Y2873905D03*
D11*
G01*
X17513300Y2764894D03*
D10*
G01*
X17513300Y3280305D03*
D11*
G01*
X17513300Y3171294D03*
D10*
G01*
X17513300Y3686705D03*
D11*
G01*
X17513300Y3577694D03*
D10*
G01*
X17513300Y4093105D03*
D11*
G01*
X17513300Y3984094D03*
D12*
G01*
X17338776Y3679719D03*
G01*
X17338776Y3584698D03*
G01*
X17433792Y3584698D03*
G01*
X17433798Y3679720D03*
G01*
X17338776Y3273319D03*
G01*
X17338776Y3178298D03*
G01*
X17433792Y3178298D03*
G01*
X17433798Y3273320D03*
G01*
X17338776Y2866919D03*
G01*
X17338776Y2771898D03*
G01*
X17433792Y2771898D03*
G01*
X17433798Y2866920D03*
G01*
X17338776Y2460519D03*
G01*
X17338776Y2365498D03*
G01*
X17433792Y2365498D03*
G01*
X17433798Y2460520D03*
G01*
X17338776Y2054119D03*
G01*
X17338776Y1959098D03*
G01*
X17433792Y1959098D03*
G01*
X17433798Y2054120D03*
G01*
X17338776Y1647719D03*
G01*
X17338776Y1552698D03*
G01*
X17433792Y1552698D03*
G01*
X17433798Y1647720D03*
G01*
X17338776Y1241319D03*
G01*
X17338776Y1146298D03*
G01*
X17433792Y1146298D03*
G01*
X17433798Y1241320D03*
G01*
X17338776Y834919D03*
G01*
X17338776Y739898D03*
G01*
X17433792Y739898D03*
G01*
X17433798Y834920D03*
G01*
X17338776Y428519D03*
G01*
X17338776Y333498D03*
G01*
X17433792Y333498D03*
G01*
X17433798Y428520D03*
D10*
G01*
X17919700Y435505D03*
D11*
G01*
X17919700Y326494D03*
D12*
G01*
X17745176Y4086119D03*
G01*
X17745176Y3991098D03*
G01*
X17840192Y3991098D03*
G01*
X17840198Y4086120D03*
D10*
G01*
X17919700Y841905D03*
D11*
G01*
X17919700Y732894D03*
D10*
G01*
X17919700Y1248305D03*
D11*
G01*
X17919700Y1139294D03*
D10*
G01*
X17919700Y1654705D03*
D11*
G01*
X17919700Y1545694D03*
D10*
G01*
X17919700Y2061105D03*
D11*
G01*
X17919700Y1952094D03*
D10*
G01*
X17919700Y2467505D03*
D11*
G01*
X17919700Y2358494D03*
D10*
G01*
X17919700Y2873905D03*
D11*
G01*
X17919700Y2764894D03*
D10*
G01*
X17919700Y3280305D03*
D11*
G01*
X17919700Y3171294D03*
D10*
G01*
X17919700Y3686705D03*
D11*
G01*
X17919700Y3577694D03*
D10*
G01*
X17919700Y4093105D03*
D11*
G01*
X17919700Y3984094D03*
D12*
G01*
X17745176Y3679719D03*
G01*
X17745176Y3584698D03*
G01*
X17840192Y3584698D03*
G01*
X17840198Y3679720D03*
G01*
X17745176Y3273319D03*
G01*
X17745176Y3178298D03*
G01*
X17840192Y3178298D03*
G01*
X17840198Y3273320D03*
G01*
X17745176Y2866919D03*
G01*
X17745176Y2771898D03*
G01*
X17840192Y2771898D03*
G01*
X17840198Y2866920D03*
G01*
X17745176Y2460519D03*
G01*
X17745176Y2365498D03*
G01*
X17840192Y2365498D03*
G01*
X17840198Y2460520D03*
G01*
X17745176Y2054119D03*
G01*
X17745176Y1959098D03*
G01*
X17840192Y1959098D03*
G01*
X17840198Y2054120D03*
G01*
X17745176Y1647719D03*
G01*
X17745176Y1552698D03*
G01*
X17840192Y1552698D03*
G01*
X17840198Y1647720D03*
G01*
X17745176Y1241319D03*
G01*
X17745176Y1146298D03*
G01*
X17840192Y1146298D03*
G01*
X17840198Y1241320D03*
G01*
X17745176Y834919D03*
G01*
X17745176Y739898D03*
G01*
X17840192Y739898D03*
G01*
X17840198Y834920D03*
G01*
X17745176Y428519D03*
G01*
X17745176Y333498D03*
G01*
X17840192Y333498D03*
G01*
X17840198Y428520D03*
D10*
G01*
X18326100Y435505D03*
D11*
G01*
X18326100Y326494D03*
D12*
G01*
X18151576Y4086119D03*
G01*
X18151576Y3991098D03*
G01*
X18246592Y3991098D03*
G01*
X18246598Y4086120D03*
D10*
G01*
X18326100Y841905D03*
D11*
G01*
X18326100Y732894D03*
D10*
G01*
X18326100Y1248305D03*
D11*
G01*
X18326100Y1139294D03*
D10*
G01*
X18326100Y1654705D03*
D11*
G01*
X18326100Y1545694D03*
D10*
G01*
X18326100Y2061105D03*
D11*
G01*
X18326100Y1952094D03*
D10*
G01*
X18326100Y2467505D03*
D11*
G01*
X18326100Y2358494D03*
D10*
G01*
X18326100Y2873905D03*
D11*
G01*
X18326100Y2764894D03*
D10*
G01*
X18326100Y3280305D03*
D11*
G01*
X18326100Y3171294D03*
D10*
G01*
X18326100Y3686705D03*
D11*
G01*
X18326100Y3577694D03*
D10*
G01*
X18326100Y4093105D03*
D11*
G01*
X18326100Y3984094D03*
D12*
G01*
X18151576Y3679719D03*
G01*
X18151576Y3584698D03*
G01*
X18246592Y3584698D03*
G01*
X18246598Y3679720D03*
G01*
X18151576Y3273319D03*
G01*
X18151576Y3178298D03*
G01*
X18246592Y3178298D03*
G01*
X18246598Y3273320D03*
G01*
X18151576Y2866919D03*
G01*
X18151576Y2771898D03*
G01*
X18246592Y2771898D03*
G01*
X18246598Y2866920D03*
G01*
X18151576Y2460519D03*
G01*
X18151576Y2365498D03*
G01*
X18246592Y2365498D03*
G01*
X18246598Y2460520D03*
G01*
X18151576Y2054119D03*
G01*
X18151576Y1959098D03*
G01*
X18246592Y1959098D03*
G01*
X18246598Y2054120D03*
G01*
X18151576Y1647719D03*
G01*
X18151576Y1552698D03*
G01*
X18246592Y1552698D03*
G01*
X18246598Y1647720D03*
G01*
X18151576Y1241319D03*
G01*
X18151576Y1146298D03*
G01*
X18246592Y1146298D03*
G01*
X18246598Y1241320D03*
G01*
X18151576Y834919D03*
G01*
X18151576Y739898D03*
G01*
X18246592Y739898D03*
G01*
X18246598Y834920D03*
G01*
X18151576Y428519D03*
G01*
X18151576Y333498D03*
G01*
X18246592Y333498D03*
G01*
X18246598Y428520D03*
D10*
G01*
X18732500Y435505D03*
D11*
G01*
X18732500Y326494D03*
D12*
G01*
X18557976Y4086119D03*
G01*
X18557976Y3991098D03*
G01*
X18652992Y3991098D03*
G01*
X18652998Y4086120D03*
D10*
G01*
X18732500Y841905D03*
D11*
G01*
X18732500Y732894D03*
D10*
G01*
X18732500Y1248305D03*
D11*
G01*
X18732500Y1139294D03*
D10*
G01*
X18732500Y1654705D03*
D11*
G01*
X18732500Y1545694D03*
D10*
G01*
X18732500Y2061105D03*
D11*
G01*
X18732500Y1952094D03*
D10*
G01*
X18732500Y2467505D03*
D11*
G01*
X18732500Y2358494D03*
D10*
G01*
X18732500Y2873905D03*
D11*
G01*
X18732500Y2764894D03*
D10*
G01*
X18732500Y3280305D03*
D11*
G01*
X18732500Y3171294D03*
D10*
G01*
X18732500Y3686705D03*
D11*
G01*
X18732500Y3577694D03*
D10*
G01*
X18732500Y4093105D03*
D11*
G01*
X18732500Y3984094D03*
D12*
G01*
X18557976Y3679719D03*
G01*
X18557976Y3584698D03*
G01*
X18652992Y3584698D03*
G01*
X18652998Y3679720D03*
G01*
X18557976Y3273319D03*
G01*
X18557976Y3178298D03*
G01*
X18652992Y3178298D03*
G01*
X18652998Y3273320D03*
G01*
X18557976Y2866919D03*
G01*
X18557976Y2771898D03*
G01*
X18652992Y2771898D03*
G01*
X18652998Y2866920D03*
G01*
X18557976Y2460519D03*
G01*
X18557976Y2365498D03*
G01*
X18652992Y2365498D03*
G01*
X18652998Y2460520D03*
G01*
X18557976Y2054119D03*
G01*
X18557976Y1959098D03*
G01*
X18652992Y1959098D03*
G01*
X18652998Y2054120D03*
G01*
X18557976Y1647719D03*
G01*
X18557976Y1552698D03*
G01*
X18652992Y1552698D03*
G01*
X18652998Y1647720D03*
G01*
X18557976Y1241319D03*
G01*
X18557976Y1146298D03*
G01*
X18652992Y1146298D03*
G01*
X18652998Y1241320D03*
G01*
X18557976Y834919D03*
G01*
X18557976Y739898D03*
G01*
X18652992Y739898D03*
G01*
X18652998Y834920D03*
G01*
X18557976Y428519D03*
G01*
X18557976Y333498D03*
G01*
X18652992Y333498D03*
G01*
X18652998Y428520D03*
D10*
G01*
X19138900Y435505D03*
D11*
G01*
X19138900Y326494D03*
D12*
G01*
X18964376Y4086119D03*
G01*
X18964376Y3991098D03*
G01*
X19059392Y3991098D03*
G01*
X19059398Y4086120D03*
D10*
G01*
X19138900Y841905D03*
D11*
G01*
X19138900Y732894D03*
D10*
G01*
X19138900Y1248305D03*
D11*
G01*
X19138900Y1139294D03*
D10*
G01*
X19138900Y1654705D03*
D11*
G01*
X19138900Y1545694D03*
D10*
G01*
X19138900Y2061105D03*
D11*
G01*
X19138900Y1952094D03*
D10*
G01*
X19138900Y2467505D03*
D11*
G01*
X19138900Y2358494D03*
D10*
G01*
X19138900Y2873905D03*
D11*
G01*
X19138900Y2764894D03*
D10*
G01*
X19138900Y3280305D03*
D11*
G01*
X19138900Y3171294D03*
D10*
G01*
X19138900Y3686705D03*
D11*
G01*
X19138900Y3577694D03*
D10*
G01*
X19138900Y4093105D03*
D11*
G01*
X19138900Y3984094D03*
D12*
G01*
X18964376Y3679719D03*
G01*
X18964376Y3584698D03*
G01*
X19059392Y3584698D03*
G01*
X19059398Y3679720D03*
G01*
X18964376Y3273319D03*
G01*
X18964376Y3178298D03*
G01*
X19059392Y3178298D03*
G01*
X19059398Y3273320D03*
G01*
X18964376Y2866919D03*
G01*
X18964376Y2771898D03*
G01*
X19059392Y2771898D03*
G01*
X19059398Y2866920D03*
G01*
X18964376Y2460519D03*
G01*
X18964376Y2365498D03*
G01*
X19059392Y2365498D03*
G01*
X19059398Y2460520D03*
G01*
X18964376Y2054119D03*
G01*
X18964376Y1959098D03*
G01*
X19059392Y1959098D03*
G01*
X19059398Y2054120D03*
G01*
X18964376Y1647719D03*
G01*
X18964376Y1552698D03*
G01*
X19059392Y1552698D03*
G01*
X19059398Y1647720D03*
G01*
X18964376Y1241319D03*
G01*
X18964376Y1146298D03*
G01*
X19059392Y1146298D03*
G01*
X19059398Y1241320D03*
G01*
X18964376Y834919D03*
G01*
X18964376Y739898D03*
G01*
X19059392Y739898D03*
G01*
X19059398Y834920D03*
G01*
X18964376Y428519D03*
G01*
X18964376Y333498D03*
G01*
X19059392Y333498D03*
G01*
X19059398Y428520D03*
D10*
G01*
X19545300Y435505D03*
D11*
G01*
X19545300Y326494D03*
D12*
G01*
X19370776Y4086119D03*
G01*
X19370776Y3991098D03*
G01*
X19465792Y3991098D03*
G01*
X19465798Y4086120D03*
D10*
G01*
X19545300Y841905D03*
D11*
G01*
X19545300Y732894D03*
D10*
G01*
X19545300Y1248305D03*
D11*
G01*
X19545300Y1139294D03*
D10*
G01*
X19545300Y1654705D03*
D11*
G01*
X19545300Y1545694D03*
D10*
G01*
X19545300Y2061105D03*
D11*
G01*
X19545300Y1952094D03*
D10*
G01*
X19545300Y2467505D03*
D11*
G01*
X19545300Y2358494D03*
D10*
G01*
X19545300Y2873905D03*
D11*
G01*
X19545300Y2764894D03*
D10*
G01*
X19545300Y3280305D03*
D11*
G01*
X19545300Y3171294D03*
D10*
G01*
X19545300Y3686705D03*
D11*
G01*
X19545300Y3577694D03*
D10*
G01*
X19545300Y4093105D03*
D11*
G01*
X19545300Y3984094D03*
D12*
G01*
X19370776Y3679719D03*
G01*
X19370776Y3584698D03*
G01*
X19465792Y3584698D03*
G01*
X19465798Y3679720D03*
G01*
X19370776Y3273319D03*
G01*
X19370776Y3178298D03*
G01*
X19465792Y3178298D03*
G01*
X19465798Y3273320D03*
G01*
X19370776Y2866919D03*
G01*
X19370776Y2771898D03*
G01*
X19465792Y2771898D03*
G01*
X19465798Y2866920D03*
G01*
X19370776Y2460519D03*
G01*
X19370776Y2365498D03*
G01*
X19465792Y2365498D03*
G01*
X19465798Y2460520D03*
G01*
X19370776Y2054119D03*
G01*
X19370776Y1959098D03*
G01*
X19465792Y1959098D03*
G01*
X19465798Y2054120D03*
G01*
X19370776Y1647719D03*
G01*
X19370776Y1552698D03*
G01*
X19465792Y1552698D03*
G01*
X19465798Y1647720D03*
G01*
X19370776Y1241319D03*
G01*
X19370776Y1146298D03*
G01*
X19465792Y1146298D03*
G01*
X19465798Y1241320D03*
G01*
X19370776Y834919D03*
G01*
X19370776Y739898D03*
G01*
X19465792Y739898D03*
G01*
X19465798Y834920D03*
G01*
X19370776Y428519D03*
G01*
X19370776Y333498D03*
G01*
X19465792Y333498D03*
G01*
X19465798Y428520D03*
D10*
G01*
X19951700Y435505D03*
D11*
G01*
X19951700Y326494D03*
D12*
G01*
X19777176Y4086119D03*
G01*
X19777176Y3991098D03*
G01*
X19872192Y3991098D03*
G01*
X19872198Y4086120D03*
D10*
G01*
X19951700Y841905D03*
D11*
G01*
X19951700Y732894D03*
D10*
G01*
X19951700Y1248305D03*
D11*
G01*
X19951700Y1139294D03*
D10*
G01*
X19951700Y1654705D03*
D11*
G01*
X19951700Y1545694D03*
D10*
G01*
X19951700Y2061105D03*
D11*
G01*
X19951700Y1952094D03*
D10*
G01*
X19951700Y2467505D03*
D11*
G01*
X19951700Y2358494D03*
D10*
G01*
X19951700Y2873905D03*
D11*
G01*
X19951700Y2764894D03*
D10*
G01*
X19951700Y3280305D03*
D11*
G01*
X19951700Y3171294D03*
D10*
G01*
X19951700Y3686705D03*
D11*
G01*
X19951700Y3577694D03*
D10*
G01*
X19951700Y4093105D03*
D11*
G01*
X19951700Y3984094D03*
D12*
G01*
X19777176Y3679719D03*
G01*
X19777176Y3584698D03*
G01*
X19872192Y3584698D03*
G01*
X19872198Y3679720D03*
G01*
X19777176Y3273319D03*
G01*
X19777176Y3178298D03*
G01*
X19872192Y3178298D03*
G01*
X19872198Y3273320D03*
G01*
X19777176Y2866919D03*
G01*
X19777176Y2771898D03*
G01*
X19872192Y2771898D03*
G01*
X19872198Y2866920D03*
G01*
X19777176Y2460519D03*
G01*
X19777176Y2365498D03*
G01*
X19872192Y2365498D03*
G01*
X19872198Y2460520D03*
G01*
X19777176Y2054119D03*
G01*
X19777176Y1959098D03*
G01*
X19872192Y1959098D03*
G01*
X19872198Y2054120D03*
G01*
X19777176Y1647719D03*
G01*
X19777176Y1552698D03*
G01*
X19872192Y1552698D03*
G01*
X19872198Y1647720D03*
G01*
X19777176Y1241319D03*
G01*
X19777176Y1146298D03*
G01*
X19872192Y1146298D03*
G01*
X19872198Y1241320D03*
G01*
X19777176Y834919D03*
G01*
X19777176Y739898D03*
G01*
X19872192Y739898D03*
G01*
X19872198Y834920D03*
G01*
X19777176Y428519D03*
G01*
X19777176Y333498D03*
G01*
X19872192Y333498D03*
G01*
X19872198Y428520D03*
D10*
G01*
X20358100Y435505D03*
D11*
G01*
X20358100Y326494D03*
D12*
G01*
X20183576Y4086119D03*
G01*
X20183576Y3991098D03*
G01*
X20278592Y3991098D03*
G01*
X20278598Y4086120D03*
D10*
G01*
X20358100Y841905D03*
D11*
G01*
X20358100Y732894D03*
D10*
G01*
X20358100Y1248305D03*
D11*
G01*
X20358100Y1139294D03*
D10*
G01*
X20358100Y1654705D03*
D11*
G01*
X20358100Y1545694D03*
D10*
G01*
X20358100Y2061105D03*
D11*
G01*
X20358100Y1952094D03*
D10*
G01*
X20358100Y2467505D03*
D11*
G01*
X20358100Y2358494D03*
D10*
G01*
X20358100Y2873905D03*
D11*
G01*
X20358100Y2764894D03*
D10*
G01*
X20358100Y3280305D03*
D11*
G01*
X20358100Y3171294D03*
D10*
G01*
X20358100Y3686705D03*
D11*
G01*
X20358100Y3577694D03*
D10*
G01*
X20358100Y4093105D03*
D11*
G01*
X20358100Y3984094D03*
D12*
G01*
X20183576Y3679719D03*
G01*
X20183576Y3584698D03*
G01*
X20278592Y3584698D03*
G01*
X20278598Y3679720D03*
G01*
X20183576Y3273319D03*
G01*
X20183576Y3178298D03*
G01*
X20278592Y3178298D03*
G01*
X20278598Y3273320D03*
G01*
X20183576Y2866919D03*
G01*
X20183576Y2771898D03*
G01*
X20278592Y2771898D03*
G01*
X20278598Y2866920D03*
G01*
X20183576Y2460519D03*
G01*
X20183576Y2365498D03*
G01*
X20278592Y2365498D03*
G01*
X20278598Y2460520D03*
G01*
X20183576Y2054119D03*
G01*
X20183576Y1959098D03*
G01*
X20278592Y1959098D03*
G01*
X20278598Y2054120D03*
G01*
X20183576Y1647719D03*
G01*
X20183576Y1552698D03*
G01*
X20278592Y1552698D03*
G01*
X20278598Y1647720D03*
G01*
X20183576Y1241319D03*
G01*
X20183576Y1146298D03*
G01*
X20278592Y1146298D03*
G01*
X20278598Y1241320D03*
G01*
X20183576Y834919D03*
G01*
X20183576Y739898D03*
G01*
X20278592Y739898D03*
G01*
X20278598Y834920D03*
G01*
X20183576Y428519D03*
G01*
X20183576Y333498D03*
G01*
X20278592Y333498D03*
G01*
X20278598Y428520D03*
D10*
G01*
X20764500Y435505D03*
D11*
G01*
X20764500Y326494D03*
D12*
G01*
X20589976Y4086119D03*
G01*
X20589976Y3991098D03*
G01*
X20684992Y3991098D03*
G01*
X20684998Y4086120D03*
D10*
G01*
X20764500Y841905D03*
D11*
G01*
X20764500Y732894D03*
D10*
G01*
X20764500Y1248305D03*
D11*
G01*
X20764500Y1139294D03*
D10*
G01*
X20764500Y1654705D03*
D11*
G01*
X20764500Y1545694D03*
D10*
G01*
X20764500Y2061105D03*
D11*
G01*
X20764500Y1952094D03*
D10*
G01*
X20764500Y2467505D03*
D11*
G01*
X20764500Y2358494D03*
D10*
G01*
X20764500Y2873905D03*
D11*
G01*
X20764500Y2764894D03*
D10*
G01*
X20764500Y3280305D03*
D11*
G01*
X20764500Y3171294D03*
D10*
G01*
X20764500Y3686705D03*
D11*
G01*
X20764500Y3577694D03*
D10*
G01*
X20764500Y4093105D03*
D11*
G01*
X20764500Y3984094D03*
D12*
G01*
X20589976Y3679719D03*
G01*
X20589976Y3584698D03*
G01*
X20684992Y3584698D03*
G01*
X20684998Y3679720D03*
G01*
X20589976Y3273319D03*
G01*
X20589976Y3178298D03*
G01*
X20684992Y3178298D03*
G01*
X20684998Y3273320D03*
G01*
X20589976Y2866919D03*
G01*
X20589976Y2771898D03*
G01*
X20684992Y2771898D03*
G01*
X20684998Y2866920D03*
G01*
X20589976Y2460519D03*
G01*
X20589976Y2365498D03*
G01*
X20684992Y2365498D03*
G01*
X20684998Y2460520D03*
G01*
X20589976Y2054119D03*
G01*
X20589976Y1959098D03*
G01*
X20684992Y1959098D03*
G01*
X20684998Y2054120D03*
G01*
X20589976Y1647719D03*
G01*
X20589976Y1552698D03*
G01*
X20684992Y1552698D03*
G01*
X20684998Y1647720D03*
G01*
X20589976Y1241319D03*
G01*
X20589976Y1146298D03*
G01*
X20684992Y1146298D03*
G01*
X20684998Y1241320D03*
G01*
X20589976Y834919D03*
G01*
X20589976Y739898D03*
G01*
X20684992Y739898D03*
G01*
X20684998Y834920D03*
G01*
X20589976Y428519D03*
G01*
X20589976Y333498D03*
G01*
X20684992Y333498D03*
G01*
X20684998Y428520D03*
D10*
G01*
X21170900Y435505D03*
D11*
G01*
X21170900Y326494D03*
D12*
G01*
X20996376Y4086119D03*
G01*
X20996376Y3991098D03*
G01*
X21091392Y3991098D03*
G01*
X21091398Y4086120D03*
D10*
G01*
X21170900Y841905D03*
D11*
G01*
X21170900Y732894D03*
D10*
G01*
X21170900Y1248305D03*
D11*
G01*
X21170900Y1139294D03*
D10*
G01*
X21170900Y1654705D03*
D11*
G01*
X21170900Y1545694D03*
D10*
G01*
X21170900Y2061105D03*
D11*
G01*
X21170900Y1952094D03*
D10*
G01*
X21170900Y2467505D03*
D11*
G01*
X21170900Y2358494D03*
D10*
G01*
X21170900Y2873905D03*
D11*
G01*
X21170900Y2764894D03*
D10*
G01*
X21170900Y3280305D03*
D11*
G01*
X21170900Y3171294D03*
D10*
G01*
X21170900Y3686705D03*
D11*
G01*
X21170900Y3577694D03*
D10*
G01*
X21170900Y4093105D03*
D11*
G01*
X21170900Y3984094D03*
D12*
G01*
X20996376Y3679719D03*
G01*
X20996376Y3584698D03*
G01*
X21091392Y3584698D03*
G01*
X21091398Y3679720D03*
G01*
X20996376Y3273319D03*
G01*
X20996376Y3178298D03*
G01*
X21091392Y3178298D03*
G01*
X21091398Y3273320D03*
G01*
X20996376Y2866919D03*
G01*
X20996376Y2771898D03*
G01*
X21091392Y2771898D03*
G01*
X21091398Y2866920D03*
G01*
X20996376Y2460519D03*
G01*
X20996376Y2365498D03*
G01*
X21091392Y2365498D03*
G01*
X21091398Y2460520D03*
G01*
X20996376Y2054119D03*
G01*
X20996376Y1959098D03*
G01*
X21091392Y1959098D03*
G01*
X21091398Y2054120D03*
G01*
X20996376Y1647719D03*
G01*
X20996376Y1552698D03*
G01*
X21091392Y1552698D03*
G01*
X21091398Y1647720D03*
G01*
X20996376Y1241319D03*
G01*
X20996376Y1146298D03*
G01*
X21091392Y1146298D03*
G01*
X21091398Y1241320D03*
G01*
X20996376Y834919D03*
G01*
X20996376Y739898D03*
G01*
X21091392Y739898D03*
G01*
X21091398Y834920D03*
G01*
X20996376Y428519D03*
G01*
X20996376Y333498D03*
G01*
X21091392Y333498D03*
G01*
X21091398Y428520D03*
D10*
G01*
X21577300Y435505D03*
D11*
G01*
X21577300Y326494D03*
D12*
G01*
X21402776Y4086119D03*
G01*
X21402776Y3991098D03*
G01*
X21497792Y3991098D03*
G01*
X21497798Y4086120D03*
D10*
G01*
X21577300Y841905D03*
D11*
G01*
X21577300Y732894D03*
D10*
G01*
X21577300Y1248305D03*
D11*
G01*
X21577300Y1139294D03*
D10*
G01*
X21577300Y1654705D03*
D11*
G01*
X21577300Y1545694D03*
D10*
G01*
X21577300Y2061105D03*
D11*
G01*
X21577300Y1952094D03*
D10*
G01*
X21577300Y2467505D03*
D11*
G01*
X21577300Y2358494D03*
D10*
G01*
X21577300Y2873905D03*
D11*
G01*
X21577300Y2764894D03*
D10*
G01*
X21577300Y3280305D03*
D11*
G01*
X21577300Y3171294D03*
D10*
G01*
X21577300Y3686705D03*
D11*
G01*
X21577300Y3577694D03*
D10*
G01*
X21577300Y4093105D03*
D11*
G01*
X21577300Y3984094D03*
D12*
G01*
X21402776Y3679719D03*
G01*
X21402776Y3584698D03*
G01*
X21497792Y3584698D03*
G01*
X21497798Y3679720D03*
G01*
X21402776Y3273319D03*
G01*
X21402776Y3178298D03*
G01*
X21497792Y3178298D03*
G01*
X21497798Y3273320D03*
G01*
X21402776Y2866919D03*
G01*
X21402776Y2771898D03*
G01*
X21497792Y2771898D03*
G01*
X21497798Y2866920D03*
G01*
X21402776Y2460519D03*
G01*
X21402776Y2365498D03*
G01*
X21497792Y2365498D03*
G01*
X21497798Y2460520D03*
G01*
X21402776Y2054119D03*
G01*
X21402776Y1959098D03*
G01*
X21497792Y1959098D03*
G01*
X21497798Y2054120D03*
G01*
X21402776Y1647719D03*
G01*
X21402776Y1552698D03*
G01*
X21497792Y1552698D03*
G01*
X21497798Y1647720D03*
G01*
X21402776Y1241319D03*
G01*
X21402776Y1146298D03*
G01*
X21497792Y1146298D03*
G01*
X21497798Y1241320D03*
G01*
X21402776Y834919D03*
G01*
X21402776Y739898D03*
G01*
X21497792Y739898D03*
G01*
X21497798Y834920D03*
G01*
X21402776Y428519D03*
G01*
X21402776Y333498D03*
G01*
X21497792Y333498D03*
G01*
X21497798Y428520D03*
D10*
G01*
X21983700Y435505D03*
D11*
G01*
X21983700Y326494D03*
D12*
G01*
X21809176Y4086119D03*
G01*
X21809176Y3991098D03*
G01*
X21904192Y3991098D03*
G01*
X21904198Y4086120D03*
D10*
G01*
X21983700Y841905D03*
D11*
G01*
X21983700Y732894D03*
D10*
G01*
X21983700Y1248305D03*
D11*
G01*
X21983700Y1139294D03*
D10*
G01*
X21983700Y1654705D03*
D11*
G01*
X21983700Y1545694D03*
D10*
G01*
X21983700Y2061105D03*
D11*
G01*
X21983700Y1952094D03*
D10*
G01*
X21983700Y2467505D03*
D11*
G01*
X21983700Y2358494D03*
D10*
G01*
X21983700Y2873905D03*
D11*
G01*
X21983700Y2764894D03*
D10*
G01*
X21983700Y3280305D03*
D11*
G01*
X21983700Y3171294D03*
D10*
G01*
X21983700Y3686705D03*
D11*
G01*
X21983700Y3577694D03*
D10*
G01*
X21983700Y4093105D03*
D11*
G01*
X21983700Y3984094D03*
D12*
G01*
X21809176Y3679719D03*
G01*
X21809176Y3584698D03*
G01*
X21904192Y3584698D03*
G01*
X21904198Y3679720D03*
G01*
X21809176Y3273319D03*
G01*
X21809176Y3178298D03*
G01*
X21904192Y3178298D03*
G01*
X21904198Y3273320D03*
G01*
X21809176Y2866919D03*
G01*
X21809176Y2771898D03*
G01*
X21904192Y2771898D03*
G01*
X21904198Y2866920D03*
G01*
X21809176Y2460519D03*
G01*
X21809176Y2365498D03*
G01*
X21904192Y2365498D03*
G01*
X21904198Y2460520D03*
G01*
X21809176Y2054119D03*
G01*
X21809176Y1959098D03*
G01*
X21904192Y1959098D03*
G01*
X21904198Y2054120D03*
G01*
X21809176Y1647719D03*
G01*
X21809176Y1552698D03*
G01*
X21904192Y1552698D03*
G01*
X21904198Y1647720D03*
G01*
X21809176Y1241319D03*
G01*
X21809176Y1146298D03*
G01*
X21904192Y1146298D03*
G01*
X21904198Y1241320D03*
G01*
X21809176Y834919D03*
G01*
X21809176Y739898D03*
G01*
X21904192Y739898D03*
G01*
X21904198Y834920D03*
G01*
X21809176Y428519D03*
G01*
X21809176Y333498D03*
G01*
X21904192Y333498D03*
G01*
X21904198Y428520D03*
D10*
G01*
X22390100Y435505D03*
D11*
G01*
X22390100Y326494D03*
D12*
G01*
X22215576Y4086119D03*
G01*
X22215576Y3991098D03*
G01*
X22310592Y3991098D03*
G01*
X22310598Y4086120D03*
D10*
G01*
X22390100Y841905D03*
D11*
G01*
X22390100Y732894D03*
D10*
G01*
X22390100Y1248305D03*
D11*
G01*
X22390100Y1139294D03*
D10*
G01*
X22390100Y1654705D03*
D11*
G01*
X22390100Y1545694D03*
D10*
G01*
X22390100Y2061105D03*
D11*
G01*
X22390100Y1952094D03*
D10*
G01*
X22390100Y2467505D03*
D11*
G01*
X22390100Y2358494D03*
D10*
G01*
X22390100Y2873905D03*
D11*
G01*
X22390100Y2764894D03*
D10*
G01*
X22390100Y3280305D03*
D11*
G01*
X22390100Y3171294D03*
D10*
G01*
X22390100Y3686705D03*
D11*
G01*
X22390100Y3577694D03*
D10*
G01*
X22390100Y4093105D03*
D11*
G01*
X22390100Y3984094D03*
D12*
G01*
X22215576Y3679719D03*
G01*
X22215576Y3584698D03*
G01*
X22310592Y3584698D03*
G01*
X22310598Y3679720D03*
G01*
X22215576Y3273319D03*
G01*
X22215576Y3178298D03*
G01*
X22310592Y3178298D03*
G01*
X22310598Y3273320D03*
G01*
X22215576Y2866919D03*
G01*
X22215576Y2771898D03*
G01*
X22310592Y2771898D03*
G01*
X22310598Y2866920D03*
G01*
X22215576Y2460519D03*
G01*
X22215576Y2365498D03*
G01*
X22310592Y2365498D03*
G01*
X22310598Y2460520D03*
G01*
X22215576Y2054119D03*
G01*
X22215576Y1959098D03*
G01*
X22310592Y1959098D03*
G01*
X22310598Y2054120D03*
G01*
X22215576Y1647719D03*
G01*
X22215576Y1552698D03*
G01*
X22310592Y1552698D03*
G01*
X22310598Y1647720D03*
G01*
X22215576Y1241319D03*
G01*
X22215576Y1146298D03*
G01*
X22310592Y1146298D03*
G01*
X22310598Y1241320D03*
G01*
X22215576Y834919D03*
G01*
X22215576Y739898D03*
G01*
X22310592Y739898D03*
G01*
X22310598Y834920D03*
G01*
X22215576Y428519D03*
G01*
X22215576Y333498D03*
G01*
X22310592Y333498D03*
G01*
X22310598Y428520D03*
D10*
G01*
X22796500Y435505D03*
D11*
G01*
X22796500Y326494D03*
D12*
G01*
X22621976Y4086119D03*
G01*
X22621976Y3991098D03*
G01*
X22716992Y3991098D03*
G01*
X22716998Y4086120D03*
D10*
G01*
X22796500Y841905D03*
D11*
G01*
X22796500Y732894D03*
D10*
G01*
X22796500Y1248305D03*
D11*
G01*
X22796500Y1139294D03*
D10*
G01*
X22796500Y1654705D03*
D11*
G01*
X22796500Y1545694D03*
D10*
G01*
X22796500Y2061105D03*
D11*
G01*
X22796500Y1952094D03*
D10*
G01*
X22796500Y2467505D03*
D11*
G01*
X22796500Y2358494D03*
D10*
G01*
X22796500Y2873905D03*
D11*
G01*
X22796500Y2764894D03*
D10*
G01*
X22796500Y3280305D03*
D11*
G01*
X22796500Y3171294D03*
D10*
G01*
X22796500Y3686705D03*
D11*
G01*
X22796500Y3577694D03*
D10*
G01*
X22796500Y4093105D03*
D11*
G01*
X22796500Y3984094D03*
D12*
G01*
X22621976Y3679719D03*
G01*
X22621976Y3584698D03*
G01*
X22716992Y3584698D03*
G01*
X22716998Y3679720D03*
G01*
X22621976Y3273319D03*
G01*
X22621976Y3178298D03*
G01*
X22716992Y3178298D03*
G01*
X22716998Y3273320D03*
G01*
X22621976Y2866919D03*
G01*
X22621976Y2771898D03*
G01*
X22716992Y2771898D03*
G01*
X22716998Y2866920D03*
G01*
X22621976Y2460519D03*
G01*
X22621976Y2365498D03*
G01*
X22716992Y2365498D03*
G01*
X22716998Y2460520D03*
G01*
X22621976Y2054119D03*
G01*
X22621976Y1959098D03*
G01*
X22716992Y1959098D03*
G01*
X22716998Y2054120D03*
G01*
X22621976Y1647719D03*
G01*
X22621976Y1552698D03*
G01*
X22716992Y1552698D03*
G01*
X22716998Y1647720D03*
G01*
X22621976Y1241319D03*
G01*
X22621976Y1146298D03*
G01*
X22716992Y1146298D03*
G01*
X22716998Y1241320D03*
G01*
X22621976Y834919D03*
G01*
X22621976Y739898D03*
G01*
X22716992Y739898D03*
G01*
X22716998Y834920D03*
G01*
X22621976Y428519D03*
G01*
X22621976Y333498D03*
G01*
X22716992Y333498D03*
G01*
X22716998Y428520D03*
D10*
G01*
X23202900Y435505D03*
D11*
G01*
X23202900Y326494D03*
D12*
G01*
X23028376Y4086119D03*
G01*
X23028376Y3991098D03*
G01*
X23123392Y3991098D03*
G01*
X23123398Y4086120D03*
D10*
G01*
X23202900Y841905D03*
D11*
G01*
X23202900Y732894D03*
D10*
G01*
X23202900Y1248305D03*
D11*
G01*
X23202900Y1139294D03*
D10*
G01*
X23202900Y1654705D03*
D11*
G01*
X23202900Y1545694D03*
D10*
G01*
X23202900Y2061105D03*
D11*
G01*
X23202900Y1952094D03*
D10*
G01*
X23202900Y2467505D03*
D11*
G01*
X23202900Y2358494D03*
D10*
G01*
X23202900Y2873905D03*
D11*
G01*
X23202900Y2764894D03*
D10*
G01*
X23202900Y3280305D03*
D11*
G01*
X23202900Y3171294D03*
D10*
G01*
X23202900Y3686705D03*
D11*
G01*
X23202900Y3577694D03*
D10*
G01*
X23202900Y4093105D03*
D11*
G01*
X23202900Y3984094D03*
D12*
G01*
X23028376Y3679719D03*
G01*
X23028376Y3584698D03*
G01*
X23123392Y3584698D03*
G01*
X23123398Y3679720D03*
G01*
X23028376Y3273319D03*
G01*
X23028376Y3178298D03*
G01*
X23123392Y3178298D03*
G01*
X23123398Y3273320D03*
G01*
X23028376Y2866919D03*
G01*
X23028376Y2771898D03*
G01*
X23123392Y2771898D03*
G01*
X23123398Y2866920D03*
G01*
X23028376Y2460519D03*
G01*
X23028376Y2365498D03*
G01*
X23123392Y2365498D03*
G01*
X23123398Y2460520D03*
G01*
X23028376Y2054119D03*
G01*
X23028376Y1959098D03*
G01*
X23123392Y1959098D03*
G01*
X23123398Y2054120D03*
G01*
X23028376Y1647719D03*
G01*
X23028376Y1552698D03*
G01*
X23123392Y1552698D03*
G01*
X23123398Y1647720D03*
G01*
X23028376Y1241319D03*
G01*
X23028376Y1146298D03*
G01*
X23123392Y1146298D03*
G01*
X23123398Y1241320D03*
G01*
X23028376Y834919D03*
G01*
X23028376Y739898D03*
G01*
X23123392Y739898D03*
G01*
X23123398Y834920D03*
G01*
X23028376Y428519D03*
G01*
X23028376Y333498D03*
G01*
X23123392Y333498D03*
G01*
X23123398Y428520D03*
D10*
G01*
X23609300Y435505D03*
D11*
G01*
X23609300Y326494D03*
D12*
G01*
X23434776Y4086119D03*
G01*
X23434776Y3991098D03*
G01*
X23529792Y3991098D03*
G01*
X23529798Y4086120D03*
D10*
G01*
X23609300Y841905D03*
D11*
G01*
X23609300Y732894D03*
D10*
G01*
X23609300Y1248305D03*
D11*
G01*
X23609300Y1139294D03*
D10*
G01*
X23609300Y1654705D03*
D11*
G01*
X23609300Y1545694D03*
D10*
G01*
X23609300Y2061105D03*
D11*
G01*
X23609300Y1952094D03*
D10*
G01*
X23609300Y2467505D03*
D11*
G01*
X23609300Y2358494D03*
D10*
G01*
X23609300Y2873905D03*
D11*
G01*
X23609300Y2764894D03*
D10*
G01*
X23609300Y3280305D03*
D11*
G01*
X23609300Y3171294D03*
D10*
G01*
X23609300Y3686705D03*
D11*
G01*
X23609300Y3577694D03*
D10*
G01*
X23609300Y4093105D03*
D11*
G01*
X23609300Y3984094D03*
D12*
G01*
X23434776Y3679719D03*
G01*
X23434776Y3584698D03*
G01*
X23529792Y3584698D03*
G01*
X23529798Y3679720D03*
G01*
X23434776Y3273319D03*
G01*
X23434776Y3178298D03*
G01*
X23529792Y3178298D03*
G01*
X23529798Y3273320D03*
G01*
X23434776Y2866919D03*
G01*
X23434776Y2771898D03*
G01*
X23529792Y2771898D03*
G01*
X23529798Y2866920D03*
G01*
X23434776Y2460519D03*
G01*
X23434776Y2365498D03*
G01*
X23529792Y2365498D03*
G01*
X23529798Y2460520D03*
G01*
X23434776Y2054119D03*
G01*
X23434776Y1959098D03*
G01*
X23529792Y1959098D03*
G01*
X23529798Y2054120D03*
G01*
X23434776Y1647719D03*
G01*
X23434776Y1552698D03*
G01*
X23529792Y1552698D03*
G01*
X23529798Y1647720D03*
G01*
X23434776Y1241319D03*
G01*
X23434776Y1146298D03*
G01*
X23529792Y1146298D03*
G01*
X23529798Y1241320D03*
G01*
X23434776Y834919D03*
G01*
X23434776Y739898D03*
G01*
X23529792Y739898D03*
G01*
X23529798Y834920D03*
G01*
X23434776Y428519D03*
G01*
X23434776Y333498D03*
G01*
X23529792Y333498D03*
G01*
X23529798Y428520D03*
D10*
G01*
X24015700Y435505D03*
D11*
G01*
X24015700Y326494D03*
D12*
G01*
X23841176Y4086119D03*
G01*
X23841176Y3991098D03*
G01*
X23936192Y3991098D03*
G01*
X23936198Y4086120D03*
D10*
G01*
X24015700Y841905D03*
D11*
G01*
X24015700Y732894D03*
D10*
G01*
X24015700Y1248305D03*
D11*
G01*
X24015700Y1139294D03*
D10*
G01*
X24015700Y1654705D03*
D11*
G01*
X24015700Y1545694D03*
D10*
G01*
X24015700Y2061105D03*
D11*
G01*
X24015700Y1952094D03*
D10*
G01*
X24015700Y2467505D03*
D11*
G01*
X24015700Y2358494D03*
D10*
G01*
X24015700Y2873905D03*
D11*
G01*
X24015700Y2764894D03*
D10*
G01*
X24015700Y3280305D03*
D11*
G01*
X24015700Y3171294D03*
D10*
G01*
X24015700Y3686705D03*
D11*
G01*
X24015700Y3577694D03*
D10*
G01*
X24015700Y4093105D03*
D11*
G01*
X24015700Y3984094D03*
D12*
G01*
X23841176Y3679719D03*
G01*
X23841176Y3584698D03*
G01*
X23936192Y3584698D03*
G01*
X23936198Y3679720D03*
G01*
X23841176Y3273319D03*
G01*
X23841176Y3178298D03*
G01*
X23936192Y3178298D03*
G01*
X23936198Y3273320D03*
G01*
X23841176Y2866919D03*
G01*
X23841176Y2771898D03*
G01*
X23936192Y2771898D03*
G01*
X23936198Y2866920D03*
G01*
X23841176Y2460519D03*
G01*
X23841176Y2365498D03*
G01*
X23936192Y2365498D03*
G01*
X23936198Y2460520D03*
G01*
X23841176Y2054119D03*
G01*
X23841176Y1959098D03*
G01*
X23936192Y1959098D03*
G01*
X23936198Y2054120D03*
G01*
X23841176Y1647719D03*
G01*
X23841176Y1552698D03*
G01*
X23936192Y1552698D03*
G01*
X23936198Y1647720D03*
G01*
X23841176Y1241319D03*
G01*
X23841176Y1146298D03*
G01*
X23936192Y1146298D03*
G01*
X23936198Y1241320D03*
G01*
X23841176Y834919D03*
G01*
X23841176Y739898D03*
G01*
X23936192Y739898D03*
G01*
X23936198Y834920D03*
G01*
X23841176Y428519D03*
G01*
X23841176Y333498D03*
G01*
X23936192Y333498D03*
G01*
X23936198Y428520D03*
D10*
G01*
X24422100Y435505D03*
D11*
G01*
X24422100Y326494D03*
D12*
G01*
X24247576Y4086119D03*
G01*
X24247576Y3991098D03*
G01*
X24342592Y3991098D03*
G01*
X24342598Y4086120D03*
D10*
G01*
X24422100Y841905D03*
D11*
G01*
X24422100Y732894D03*
D10*
G01*
X24422100Y1248305D03*
D11*
G01*
X24422100Y1139294D03*
D10*
G01*
X24422100Y1654705D03*
D11*
G01*
X24422100Y1545694D03*
D10*
G01*
X24422100Y2061105D03*
D11*
G01*
X24422100Y1952094D03*
D10*
G01*
X24422100Y2467505D03*
D11*
G01*
X24422100Y2358494D03*
D10*
G01*
X24422100Y2873905D03*
D11*
G01*
X24422100Y2764894D03*
D10*
G01*
X24422100Y3280305D03*
D11*
G01*
X24422100Y3171294D03*
D10*
G01*
X24422100Y3686705D03*
D11*
G01*
X24422100Y3577694D03*
D10*
G01*
X24422100Y4093105D03*
D11*
G01*
X24422100Y3984094D03*
D12*
G01*
X24247576Y3679719D03*
G01*
X24247576Y3584698D03*
G01*
X24342592Y3584698D03*
G01*
X24342598Y3679720D03*
G01*
X24247576Y3273319D03*
G01*
X24247576Y3178298D03*
G01*
X24342592Y3178298D03*
G01*
X24342598Y3273320D03*
G01*
X24247576Y2866919D03*
G01*
X24247576Y2771898D03*
G01*
X24342592Y2771898D03*
G01*
X24342598Y2866920D03*
G01*
X24247576Y2460519D03*
G01*
X24247576Y2365498D03*
G01*
X24342592Y2365498D03*
G01*
X24342598Y2460520D03*
G01*
X24247576Y2054119D03*
G01*
X24247576Y1959098D03*
G01*
X24342592Y1959098D03*
G01*
X24342598Y2054120D03*
G01*
X24247576Y1647719D03*
G01*
X24247576Y1552698D03*
G01*
X24342592Y1552698D03*
G01*
X24342598Y1647720D03*
G01*
X24247576Y1241319D03*
G01*
X24247576Y1146298D03*
G01*
X24342592Y1146298D03*
G01*
X24342598Y1241320D03*
G01*
X24247576Y834919D03*
G01*
X24247576Y739898D03*
G01*
X24342592Y739898D03*
G01*
X24342598Y834920D03*
G01*
X24247576Y428519D03*
G01*
X24247576Y333498D03*
G01*
X24342592Y333498D03*
G01*
X24342598Y428520D03*
D10*
G01*
X24828500Y435505D03*
D11*
G01*
X24828500Y326494D03*
D12*
G01*
X24653976Y4086119D03*
G01*
X24653976Y3991098D03*
G01*
X24748992Y3991098D03*
G01*
X24748998Y4086120D03*
D10*
G01*
X24828500Y841905D03*
D11*
G01*
X24828500Y732894D03*
D10*
G01*
X24828500Y1248305D03*
D11*
G01*
X24828500Y1139294D03*
D10*
G01*
X24828500Y1654705D03*
D11*
G01*
X24828500Y1545694D03*
D10*
G01*
X24828500Y2061105D03*
D11*
G01*
X24828500Y1952094D03*
D10*
G01*
X24828500Y2467505D03*
D11*
G01*
X24828500Y2358494D03*
D10*
G01*
X24828500Y2873905D03*
D11*
G01*
X24828500Y2764894D03*
D10*
G01*
X24828500Y3280305D03*
D11*
G01*
X24828500Y3171294D03*
D10*
G01*
X24828500Y3686705D03*
D11*
G01*
X24828500Y3577694D03*
D10*
G01*
X24828500Y4093105D03*
D11*
G01*
X24828500Y3984094D03*
D12*
G01*
X24653976Y3679719D03*
G01*
X24653976Y3584698D03*
G01*
X24748992Y3584698D03*
G01*
X24748998Y3679720D03*
G01*
X24653976Y3273319D03*
G01*
X24653976Y3178298D03*
G01*
X24748992Y3178298D03*
G01*
X24748998Y3273320D03*
G01*
X24653976Y2866919D03*
G01*
X24653976Y2771898D03*
G01*
X24748992Y2771898D03*
G01*
X24748998Y2866920D03*
G01*
X24653976Y2460519D03*
G01*
X24653976Y2365498D03*
G01*
X24748992Y2365498D03*
G01*
X24748998Y2460520D03*
G01*
X24653976Y2054119D03*
G01*
X24653976Y1959098D03*
G01*
X24748992Y1959098D03*
G01*
X24748998Y2054120D03*
G01*
X24653976Y1647719D03*
G01*
X24653976Y1552698D03*
G01*
X24748992Y1552698D03*
G01*
X24748998Y1647720D03*
G01*
X24653976Y1241319D03*
G01*
X24653976Y1146298D03*
G01*
X24748992Y1146298D03*
G01*
X24748998Y1241320D03*
G01*
X24653976Y834919D03*
G01*
X24653976Y739898D03*
G01*
X24748992Y739898D03*
G01*
X24748998Y834920D03*
G01*
X24653976Y428519D03*
G01*
X24653976Y333498D03*
G01*
X24748992Y333498D03*
G01*
X24748998Y428520D03*
D10*
G01*
X25234900Y435505D03*
D11*
G01*
X25234900Y326494D03*
D12*
G01*
X25060376Y4086119D03*
G01*
X25060376Y3991098D03*
G01*
X25155392Y3991098D03*
G01*
X25155398Y4086120D03*
D10*
G01*
X25234900Y841905D03*
D11*
G01*
X25234900Y732894D03*
D10*
G01*
X25234900Y1248305D03*
D11*
G01*
X25234900Y1139294D03*
D10*
G01*
X25234900Y1654705D03*
D11*
G01*
X25234900Y1545694D03*
D10*
G01*
X25234900Y2061105D03*
D11*
G01*
X25234900Y1952094D03*
D10*
G01*
X25234900Y2467505D03*
D11*
G01*
X25234900Y2358494D03*
D10*
G01*
X25234900Y2873905D03*
D11*
G01*
X25234900Y2764894D03*
D10*
G01*
X25234900Y3280305D03*
D11*
G01*
X25234900Y3171294D03*
D10*
G01*
X25234900Y3686705D03*
D11*
G01*
X25234900Y3577694D03*
D10*
G01*
X25234900Y4093105D03*
D11*
G01*
X25234900Y3984094D03*
D12*
G01*
X25060376Y3679719D03*
G01*
X25060376Y3584698D03*
G01*
X25155392Y3584698D03*
G01*
X25155398Y3679720D03*
G01*
X25060376Y3273319D03*
G01*
X25060376Y3178298D03*
G01*
X25155392Y3178298D03*
G01*
X25155398Y3273320D03*
G01*
X25060376Y2866919D03*
G01*
X25060376Y2771898D03*
G01*
X25155392Y2771898D03*
G01*
X25155398Y2866920D03*
G01*
X25060376Y2460519D03*
G01*
X25060376Y2365498D03*
G01*
X25155392Y2365498D03*
G01*
X25155398Y2460520D03*
G01*
X25060376Y2054119D03*
G01*
X25060376Y1959098D03*
G01*
X25155392Y1959098D03*
G01*
X25155398Y2054120D03*
G01*
X25060376Y1647719D03*
G01*
X25060376Y1552698D03*
G01*
X25155392Y1552698D03*
G01*
X25155398Y1647720D03*
G01*
X25060376Y1241319D03*
G01*
X25060376Y1146298D03*
G01*
X25155392Y1146298D03*
G01*
X25155398Y1241320D03*
G01*
X25060376Y834919D03*
G01*
X25060376Y739898D03*
G01*
X25155392Y739898D03*
G01*
X25155398Y834920D03*
G01*
X25060376Y428519D03*
G01*
X25060376Y333498D03*
G01*
X25155392Y333498D03*
G01*
X25155398Y428520D03*
D10*
G01*
X25641300Y435505D03*
D11*
G01*
X25641300Y326494D03*
D12*
G01*
X25466776Y4086119D03*
G01*
X25466776Y3991098D03*
G01*
X25561792Y3991098D03*
G01*
X25561798Y4086120D03*
D10*
G01*
X25641300Y841905D03*
D11*
G01*
X25641300Y732894D03*
D10*
G01*
X25641300Y1248305D03*
D11*
G01*
X25641300Y1139294D03*
D10*
G01*
X25641300Y1654705D03*
D11*
G01*
X25641300Y1545694D03*
D10*
G01*
X25641300Y2061105D03*
D11*
G01*
X25641300Y1952094D03*
D10*
G01*
X25641300Y2467505D03*
D11*
G01*
X25641300Y2358494D03*
D10*
G01*
X25641300Y2873905D03*
D11*
G01*
X25641300Y2764894D03*
D10*
G01*
X25641300Y3280305D03*
D11*
G01*
X25641300Y3171294D03*
D10*
G01*
X25641300Y3686705D03*
D11*
G01*
X25641300Y3577694D03*
D10*
G01*
X25641300Y4093105D03*
D11*
G01*
X25641300Y3984094D03*
D12*
G01*
X25466776Y3679719D03*
G01*
X25466776Y3584698D03*
G01*
X25561792Y3584698D03*
G01*
X25561798Y3679720D03*
G01*
X25466776Y3273319D03*
G01*
X25466776Y3178298D03*
G01*
X25561792Y3178298D03*
G01*
X25561798Y3273320D03*
G01*
X25466776Y2866919D03*
G01*
X25466776Y2771898D03*
G01*
X25561792Y2771898D03*
G01*
X25561798Y2866920D03*
G01*
X25466776Y2460519D03*
G01*
X25466776Y2365498D03*
G01*
X25561792Y2365498D03*
G01*
X25561798Y2460520D03*
G01*
X25466776Y2054119D03*
G01*
X25466776Y1959098D03*
G01*
X25561792Y1959098D03*
G01*
X25561798Y2054120D03*
G01*
X25466776Y1647719D03*
G01*
X25466776Y1552698D03*
G01*
X25561792Y1552698D03*
G01*
X25561798Y1647720D03*
G01*
X25466776Y1241319D03*
G01*
X25466776Y1146298D03*
G01*
X25561792Y1146298D03*
G01*
X25561798Y1241320D03*
G01*
X25466776Y834919D03*
G01*
X25466776Y739898D03*
G01*
X25561792Y739898D03*
G01*
X25561798Y834920D03*
G01*
X25466776Y428519D03*
G01*
X25466776Y333498D03*
G01*
X25561792Y333498D03*
G01*
X25561798Y428520D03*
D10*
G01*
X26047700Y435505D03*
D11*
G01*
X26047700Y326494D03*
D12*
G01*
X25873176Y4086119D03*
G01*
X25873176Y3991098D03*
G01*
X25968192Y3991098D03*
G01*
X25968198Y4086120D03*
D10*
G01*
X26047700Y841905D03*
D11*
G01*
X26047700Y732894D03*
D10*
G01*
X26047700Y1248305D03*
D11*
G01*
X26047700Y1139294D03*
D10*
G01*
X26047700Y1654705D03*
D11*
G01*
X26047700Y1545694D03*
D10*
G01*
X26047700Y2061105D03*
D11*
G01*
X26047700Y1952094D03*
D10*
G01*
X26047700Y2467505D03*
D11*
G01*
X26047700Y2358494D03*
D10*
G01*
X26047700Y2873905D03*
D11*
G01*
X26047700Y2764894D03*
D10*
G01*
X26047700Y3280305D03*
D11*
G01*
X26047700Y3171294D03*
D10*
G01*
X26047700Y3686705D03*
D11*
G01*
X26047700Y3577694D03*
D10*
G01*
X26047700Y4093105D03*
D11*
G01*
X26047700Y3984094D03*
D12*
G01*
X25873176Y3679719D03*
G01*
X25873176Y3584698D03*
G01*
X25968192Y3584698D03*
G01*
X25968198Y3679720D03*
G01*
X25873176Y3273319D03*
G01*
X25873176Y3178298D03*
G01*
X25968192Y3178298D03*
G01*
X25968198Y3273320D03*
G01*
X25873176Y2866919D03*
G01*
X25873176Y2771898D03*
G01*
X25968192Y2771898D03*
G01*
X25968198Y2866920D03*
G01*
X25873176Y2460519D03*
G01*
X25873176Y2365498D03*
G01*
X25968192Y2365498D03*
G01*
X25968198Y2460520D03*
G01*
X25873176Y2054119D03*
G01*
X25873176Y1959098D03*
G01*
X25968192Y1959098D03*
G01*
X25968198Y2054120D03*
G01*
X25873176Y1647719D03*
G01*
X25873176Y1552698D03*
G01*
X25968192Y1552698D03*
G01*
X25968198Y1647720D03*
G01*
X25873176Y1241319D03*
G01*
X25873176Y1146298D03*
G01*
X25968192Y1146298D03*
G01*
X25968198Y1241320D03*
G01*
X25873176Y834919D03*
G01*
X25873176Y739898D03*
G01*
X25968192Y739898D03*
G01*
X25968198Y834920D03*
G01*
X25873176Y428519D03*
G01*
X25873176Y333498D03*
G01*
X25968192Y333498D03*
G01*
X25968198Y428520D03*
D10*
G01*
X26454100Y435505D03*
D11*
G01*
X26454100Y326494D03*
D12*
G01*
X26279576Y4086119D03*
G01*
X26279576Y3991098D03*
G01*
X26374592Y3991098D03*
G01*
X26374598Y4086120D03*
D10*
G01*
X26454100Y841905D03*
D11*
G01*
X26454100Y732894D03*
D10*
G01*
X26454100Y1248305D03*
D11*
G01*
X26454100Y1139294D03*
D10*
G01*
X26454100Y1654705D03*
D11*
G01*
X26454100Y1545694D03*
D10*
G01*
X26454100Y2061105D03*
D11*
G01*
X26454100Y1952094D03*
D10*
G01*
X26454100Y2467505D03*
D11*
G01*
X26454100Y2358494D03*
D10*
G01*
X26454100Y2873905D03*
D11*
G01*
X26454100Y2764894D03*
D10*
G01*
X26454100Y3280305D03*
D11*
G01*
X26454100Y3171294D03*
D10*
G01*
X26454100Y3686705D03*
D11*
G01*
X26454100Y3577694D03*
D10*
G01*
X26454100Y4093105D03*
D11*
G01*
X26454100Y3984094D03*
D12*
G01*
X26279576Y3679719D03*
G01*
X26279576Y3584698D03*
G01*
X26374592Y3584698D03*
G01*
X26374598Y3679720D03*
G01*
X26279576Y3273319D03*
G01*
X26279576Y3178298D03*
G01*
X26374592Y3178298D03*
G01*
X26374598Y3273320D03*
G01*
X26279576Y2866919D03*
G01*
X26279576Y2771898D03*
G01*
X26374592Y2771898D03*
G01*
X26374598Y2866920D03*
G01*
X26279576Y2460519D03*
G01*
X26279576Y2365498D03*
G01*
X26374592Y2365498D03*
G01*
X26374598Y2460520D03*
G01*
X26279576Y2054119D03*
G01*
X26279576Y1959098D03*
G01*
X26374592Y1959098D03*
G01*
X26374598Y2054120D03*
G01*
X26279576Y1647719D03*
G01*
X26279576Y1552698D03*
G01*
X26374592Y1552698D03*
G01*
X26374598Y1647720D03*
G01*
X26279576Y1241319D03*
G01*
X26279576Y1146298D03*
G01*
X26374592Y1146298D03*
G01*
X26374598Y1241320D03*
G01*
X26279576Y834919D03*
G01*
X26279576Y739898D03*
G01*
X26374592Y739898D03*
G01*
X26374598Y834920D03*
G01*
X26279576Y428519D03*
G01*
X26279576Y333498D03*
G01*
X26374592Y333498D03*
G01*
X26374598Y428520D03*
D10*
G01*
X26860500Y435505D03*
D11*
G01*
X26860500Y326494D03*
D12*
G01*
X26685976Y4086119D03*
G01*
X26685976Y3991098D03*
G01*
X26780992Y3991098D03*
G01*
X26780998Y4086120D03*
D10*
G01*
X26860500Y841905D03*
D11*
G01*
X26860500Y732894D03*
D10*
G01*
X26860500Y1248305D03*
D11*
G01*
X26860500Y1139294D03*
D10*
G01*
X26860500Y1654705D03*
D11*
G01*
X26860500Y1545694D03*
D10*
G01*
X26860500Y2061105D03*
D11*
G01*
X26860500Y1952094D03*
D10*
G01*
X26860500Y2467505D03*
D11*
G01*
X26860500Y2358494D03*
D10*
G01*
X26860500Y2873905D03*
D11*
G01*
X26860500Y2764894D03*
D10*
G01*
X26860500Y3280305D03*
D11*
G01*
X26860500Y3171294D03*
D10*
G01*
X26860500Y3686705D03*
D11*
G01*
X26860500Y3577694D03*
D10*
G01*
X26860500Y4093105D03*
D11*
G01*
X26860500Y3984094D03*
D12*
G01*
X26685976Y3679719D03*
G01*
X26685976Y3584698D03*
G01*
X26780992Y3584698D03*
G01*
X26780998Y3679720D03*
G01*
X26685976Y3273319D03*
G01*
X26685976Y3178298D03*
G01*
X26780992Y3178298D03*
G01*
X26780998Y3273320D03*
G01*
X26685976Y2866919D03*
G01*
X26685976Y2771898D03*
G01*
X26780992Y2771898D03*
G01*
X26780998Y2866920D03*
G01*
X26685976Y2460519D03*
G01*
X26685976Y2365498D03*
G01*
X26780992Y2365498D03*
G01*
X26780998Y2460520D03*
G01*
X26685976Y2054119D03*
G01*
X26685976Y1959098D03*
G01*
X26780992Y1959098D03*
G01*
X26780998Y2054120D03*
G01*
X26685976Y1647719D03*
G01*
X26685976Y1552698D03*
G01*
X26780992Y1552698D03*
G01*
X26780998Y1647720D03*
G01*
X26685976Y1241319D03*
G01*
X26685976Y1146298D03*
G01*
X26780992Y1146298D03*
G01*
X26780998Y1241320D03*
G01*
X26685976Y834919D03*
G01*
X26685976Y739898D03*
G01*
X26780992Y739898D03*
G01*
X26780998Y834920D03*
G01*
X26685976Y428519D03*
G01*
X26685976Y333498D03*
G01*
X26780992Y333498D03*
G01*
X26780998Y428520D03*
D10*
G01*
X27266900Y435505D03*
D11*
G01*
X27266900Y326494D03*
D12*
G01*
X27092376Y4086119D03*
G01*
X27092376Y3991098D03*
G01*
X27187392Y3991098D03*
G01*
X27187398Y4086120D03*
D10*
G01*
X27266900Y841905D03*
D11*
G01*
X27266900Y732894D03*
D10*
G01*
X27266900Y1248305D03*
D11*
G01*
X27266900Y1139294D03*
D10*
G01*
X27266900Y1654705D03*
D11*
G01*
X27266900Y1545694D03*
D10*
G01*
X27266900Y2061105D03*
D11*
G01*
X27266900Y1952094D03*
D10*
G01*
X27266900Y2467505D03*
D11*
G01*
X27266900Y2358494D03*
D10*
G01*
X27266900Y2873905D03*
D11*
G01*
X27266900Y2764894D03*
D10*
G01*
X27266900Y3280305D03*
D11*
G01*
X27266900Y3171294D03*
D10*
G01*
X27266900Y3686705D03*
D11*
G01*
X27266900Y3577694D03*
D10*
G01*
X27266900Y4093105D03*
D11*
G01*
X27266900Y3984094D03*
D12*
G01*
X27092376Y3679719D03*
G01*
X27092376Y3584698D03*
G01*
X27187392Y3584698D03*
G01*
X27187398Y3679720D03*
G01*
X27092376Y3273319D03*
G01*
X27092376Y3178298D03*
G01*
X27187392Y3178298D03*
G01*
X27187398Y3273320D03*
G01*
X27092376Y2866919D03*
G01*
X27092376Y2771898D03*
G01*
X27187392Y2771898D03*
G01*
X27187398Y2866920D03*
G01*
X27092376Y2460519D03*
G01*
X27092376Y2365498D03*
G01*
X27187392Y2365498D03*
G01*
X27187398Y2460520D03*
G01*
X27092376Y2054119D03*
G01*
X27092376Y1959098D03*
G01*
X27187392Y1959098D03*
G01*
X27187398Y2054120D03*
G01*
X27092376Y1647719D03*
G01*
X27092376Y1552698D03*
G01*
X27187392Y1552698D03*
G01*
X27187398Y1647720D03*
G01*
X27092376Y1241319D03*
G01*
X27092376Y1146298D03*
G01*
X27187392Y1146298D03*
G01*
X27187398Y1241320D03*
G01*
X27092376Y834919D03*
G01*
X27092376Y739898D03*
G01*
X27187392Y739898D03*
G01*
X27187398Y834920D03*
G01*
X27092376Y428519D03*
G01*
X27092376Y333498D03*
G01*
X27187392Y333498D03*
G01*
X27187398Y428520D03*
D10*
G01*
X27673300Y435505D03*
D11*
G01*
X27673300Y326494D03*
D12*
G01*
X27498776Y4086119D03*
G01*
X27498776Y3991098D03*
G01*
X27593792Y3991098D03*
G01*
X27593798Y4086120D03*
D10*
G01*
X27673300Y841905D03*
D11*
G01*
X27673300Y732894D03*
D10*
G01*
X27673300Y1248305D03*
D11*
G01*
X27673300Y1139294D03*
D10*
G01*
X27673300Y1654705D03*
D11*
G01*
X27673300Y1545694D03*
D10*
G01*
X27673300Y2061105D03*
D11*
G01*
X27673300Y1952094D03*
D10*
G01*
X27673300Y2467505D03*
D11*
G01*
X27673300Y2358494D03*
D10*
G01*
X27673300Y2873905D03*
D11*
G01*
X27673300Y2764894D03*
D10*
G01*
X27673300Y3280305D03*
D11*
G01*
X27673300Y3171294D03*
D10*
G01*
X27673300Y3686705D03*
D11*
G01*
X27673300Y3577694D03*
D10*
G01*
X27673300Y4093105D03*
D11*
G01*
X27673300Y3984094D03*
D12*
G01*
X27498776Y3679719D03*
G01*
X27498776Y3584698D03*
G01*
X27593792Y3584698D03*
G01*
X27593798Y3679720D03*
G01*
X27498776Y3273319D03*
G01*
X27498776Y3178298D03*
G01*
X27593792Y3178298D03*
G01*
X27593798Y3273320D03*
G01*
X27498776Y2866919D03*
G01*
X27498776Y2771898D03*
G01*
X27593792Y2771898D03*
G01*
X27593798Y2866920D03*
G01*
X27498776Y2460519D03*
G01*
X27498776Y2365498D03*
G01*
X27593792Y2365498D03*
G01*
X27593798Y2460520D03*
G01*
X27498776Y2054119D03*
G01*
X27498776Y1959098D03*
G01*
X27593792Y1959098D03*
G01*
X27593798Y2054120D03*
G01*
X27498776Y1647719D03*
G01*
X27498776Y1552698D03*
G01*
X27593792Y1552698D03*
G01*
X27593798Y1647720D03*
G01*
X27498776Y1241319D03*
G01*
X27498776Y1146298D03*
G01*
X27593792Y1146298D03*
G01*
X27593798Y1241320D03*
G01*
X27498776Y834919D03*
G01*
X27498776Y739898D03*
G01*
X27593792Y739898D03*
G01*
X27593798Y834920D03*
G01*
X27498776Y428519D03*
G01*
X27498776Y333498D03*
G01*
X27593792Y333498D03*
G01*
X27593798Y428520D03*
D10*
G01*
X28079700Y435505D03*
D11*
G01*
X28079700Y326494D03*
D12*
G01*
X27905176Y4086119D03*
G01*
X27905176Y3991098D03*
G01*
X28000192Y3991098D03*
G01*
X28000198Y4086120D03*
D10*
G01*
X28079700Y841905D03*
D11*
G01*
X28079700Y732894D03*
D10*
G01*
X28079700Y1248305D03*
D11*
G01*
X28079700Y1139294D03*
D10*
G01*
X28079700Y1654705D03*
D11*
G01*
X28079700Y1545694D03*
D10*
G01*
X28079700Y2061105D03*
D11*
G01*
X28079700Y1952094D03*
D10*
G01*
X28079700Y2467505D03*
D11*
G01*
X28079700Y2358494D03*
D10*
G01*
X28079700Y2873905D03*
D11*
G01*
X28079700Y2764894D03*
D10*
G01*
X28079700Y3280305D03*
D11*
G01*
X28079700Y3171294D03*
D10*
G01*
X28079700Y3686705D03*
D11*
G01*
X28079700Y3577694D03*
D10*
G01*
X28079700Y4093105D03*
D11*
G01*
X28079700Y3984094D03*
D12*
G01*
X27905176Y3679719D03*
G01*
X27905176Y3584698D03*
G01*
X28000192Y3584698D03*
G01*
X28000198Y3679720D03*
G01*
X27905176Y3273319D03*
G01*
X27905176Y3178298D03*
G01*
X28000192Y3178298D03*
G01*
X28000198Y3273320D03*
G01*
X27905176Y2866919D03*
G01*
X27905176Y2771898D03*
G01*
X28000192Y2771898D03*
G01*
X28000198Y2866920D03*
G01*
X27905176Y2460519D03*
G01*
X27905176Y2365498D03*
G01*
X28000192Y2365498D03*
G01*
X28000198Y2460520D03*
G01*
X27905176Y2054119D03*
G01*
X27905176Y1959098D03*
G01*
X28000192Y1959098D03*
G01*
X28000198Y2054120D03*
G01*
X27905176Y1647719D03*
G01*
X27905176Y1552698D03*
G01*
X28000192Y1552698D03*
G01*
X28000198Y1647720D03*
G01*
X27905176Y1241319D03*
G01*
X27905176Y1146298D03*
G01*
X28000192Y1146298D03*
G01*
X28000198Y1241320D03*
G01*
X27905176Y834919D03*
G01*
X27905176Y739898D03*
G01*
X28000192Y739898D03*
G01*
X28000198Y834920D03*
G01*
X27905176Y428519D03*
G01*
X27905176Y333498D03*
G01*
X28000192Y333498D03*
G01*
X28000198Y428520D03*
D10*
G01*
X28486100Y435505D03*
D11*
G01*
X28486100Y326494D03*
D12*
G01*
X28311576Y4086119D03*
G01*
X28311576Y3991098D03*
G01*
X28406592Y3991098D03*
G01*
X28406598Y4086120D03*
D10*
G01*
X28486100Y841905D03*
D11*
G01*
X28486100Y732894D03*
D10*
G01*
X28486100Y1248305D03*
D11*
G01*
X28486100Y1139294D03*
D10*
G01*
X28486100Y1654705D03*
D11*
G01*
X28486100Y1545694D03*
D10*
G01*
X28486100Y2061105D03*
D11*
G01*
X28486100Y1952094D03*
D10*
G01*
X28486100Y2467505D03*
D11*
G01*
X28486100Y2358494D03*
D10*
G01*
X28486100Y2873905D03*
D11*
G01*
X28486100Y2764894D03*
D10*
G01*
X28486100Y3280305D03*
D11*
G01*
X28486100Y3171294D03*
D10*
G01*
X28486100Y3686705D03*
D11*
G01*
X28486100Y3577694D03*
D10*
G01*
X28486100Y4093105D03*
D11*
G01*
X28486100Y3984094D03*
D12*
G01*
X28311576Y3679719D03*
G01*
X28311576Y3584698D03*
G01*
X28406592Y3584698D03*
G01*
X28406598Y3679720D03*
G01*
X28311576Y3273319D03*
G01*
X28311576Y3178298D03*
G01*
X28406592Y3178298D03*
G01*
X28406598Y3273320D03*
G01*
X28311576Y2866919D03*
G01*
X28311576Y2771898D03*
G01*
X28406592Y2771898D03*
G01*
X28406598Y2866920D03*
G01*
X28311576Y2460519D03*
G01*
X28311576Y2365498D03*
G01*
X28406592Y2365498D03*
G01*
X28406598Y2460520D03*
G01*
X28311576Y2054119D03*
G01*
X28311576Y1959098D03*
G01*
X28406592Y1959098D03*
G01*
X28406598Y2054120D03*
G01*
X28311576Y1647719D03*
G01*
X28311576Y1552698D03*
G01*
X28406592Y1552698D03*
G01*
X28406598Y1647720D03*
G01*
X28311576Y1241319D03*
G01*
X28311576Y1146298D03*
G01*
X28406592Y1146298D03*
G01*
X28406598Y1241320D03*
G01*
X28311576Y834919D03*
G01*
X28311576Y739898D03*
G01*
X28406592Y739898D03*
G01*
X28406598Y834920D03*
G01*
X28311576Y428519D03*
G01*
X28311576Y333498D03*
G01*
X28406592Y333498D03*
G01*
X28406598Y428520D03*
D10*
G01*
X28892500Y435505D03*
D11*
G01*
X28892500Y326494D03*
D12*
G01*
X28717976Y4086119D03*
G01*
X28717976Y3991098D03*
G01*
X28812992Y3991098D03*
G01*
X28812998Y4086120D03*
D10*
G01*
X28892500Y841905D03*
D11*
G01*
X28892500Y732894D03*
D10*
G01*
X28892500Y1248305D03*
D11*
G01*
X28892500Y1139294D03*
D10*
G01*
X28892500Y1654705D03*
D11*
G01*
X28892500Y1545694D03*
D10*
G01*
X28892500Y2061105D03*
D11*
G01*
X28892500Y1952094D03*
D10*
G01*
X28892500Y2467505D03*
D11*
G01*
X28892500Y2358494D03*
D10*
G01*
X28892500Y2873905D03*
D11*
G01*
X28892500Y2764894D03*
D10*
G01*
X28892500Y3280305D03*
D11*
G01*
X28892500Y3171294D03*
D10*
G01*
X28892500Y3686705D03*
D11*
G01*
X28892500Y3577694D03*
D10*
G01*
X28892500Y4093105D03*
D11*
G01*
X28892500Y3984094D03*
D12*
G01*
X28717976Y3679719D03*
G01*
X28717976Y3584698D03*
G01*
X28812992Y3584698D03*
G01*
X28812998Y3679720D03*
G01*
X28717976Y3273319D03*
G01*
X28717976Y3178298D03*
G01*
X28812992Y3178298D03*
G01*
X28812998Y3273320D03*
G01*
X28717976Y2866919D03*
G01*
X28717976Y2771898D03*
G01*
X28812992Y2771898D03*
G01*
X28812998Y2866920D03*
G01*
X28717976Y2460519D03*
G01*
X28717976Y2365498D03*
G01*
X28812992Y2365498D03*
G01*
X28812998Y2460520D03*
G01*
X28717976Y2054119D03*
G01*
X28717976Y1959098D03*
G01*
X28812992Y1959098D03*
G01*
X28812998Y2054120D03*
G01*
X28717976Y1647719D03*
G01*
X28717976Y1552698D03*
G01*
X28812992Y1552698D03*
G01*
X28812998Y1647720D03*
G01*
X28717976Y1241319D03*
G01*
X28717976Y1146298D03*
G01*
X28812992Y1146298D03*
G01*
X28812998Y1241320D03*
G01*
X28717976Y834919D03*
G01*
X28717976Y739898D03*
G01*
X28812992Y739898D03*
G01*
X28812998Y834920D03*
G01*
X28717976Y428519D03*
G01*
X28717976Y333498D03*
G01*
X28812992Y333498D03*
G01*
X28812998Y428520D03*
D10*
G01*
X29298900Y435505D03*
D11*
G01*
X29298900Y326494D03*
D12*
G01*
X29124376Y4086119D03*
G01*
X29124376Y3991098D03*
G01*
X29219392Y3991098D03*
G01*
X29219398Y4086120D03*
D10*
G01*
X29298900Y841905D03*
D11*
G01*
X29298900Y732894D03*
D10*
G01*
X29298900Y1248305D03*
D11*
G01*
X29298900Y1139294D03*
D10*
G01*
X29298900Y1654705D03*
D11*
G01*
X29298900Y1545694D03*
D10*
G01*
X29298900Y2061105D03*
D11*
G01*
X29298900Y1952094D03*
D10*
G01*
X29298900Y2467505D03*
D11*
G01*
X29298900Y2358494D03*
D10*
G01*
X29298900Y2873905D03*
D11*
G01*
X29298900Y2764894D03*
D10*
G01*
X29298900Y3280305D03*
D11*
G01*
X29298900Y3171294D03*
D10*
G01*
X29298900Y3686705D03*
D11*
G01*
X29298900Y3577694D03*
D10*
G01*
X29298900Y4093105D03*
D11*
G01*
X29298900Y3984094D03*
D12*
G01*
X29124376Y3679719D03*
G01*
X29124376Y3584698D03*
G01*
X29219392Y3584698D03*
G01*
X29219398Y3679720D03*
G01*
X29124376Y3273319D03*
G01*
X29124376Y3178298D03*
G01*
X29219392Y3178298D03*
G01*
X29219398Y3273320D03*
G01*
X29124376Y2866919D03*
G01*
X29124376Y2771898D03*
G01*
X29219392Y2771898D03*
G01*
X29219398Y2866920D03*
G01*
X29124376Y2460519D03*
G01*
X29124376Y2365498D03*
G01*
X29219392Y2365498D03*
G01*
X29219398Y2460520D03*
G01*
X29124376Y2054119D03*
G01*
X29124376Y1959098D03*
G01*
X29219392Y1959098D03*
G01*
X29219398Y2054120D03*
G01*
X29124376Y1647719D03*
G01*
X29124376Y1552698D03*
G01*
X29219392Y1552698D03*
G01*
X29219398Y1647720D03*
G01*
X29124376Y1241319D03*
G01*
X29124376Y1146298D03*
G01*
X29219392Y1146298D03*
G01*
X29219398Y1241320D03*
G01*
X29124376Y834919D03*
G01*
X29124376Y739898D03*
G01*
X29219392Y739898D03*
G01*
X29219398Y834920D03*
G01*
X29124376Y428519D03*
G01*
X29124376Y333498D03*
G01*
X29219392Y333498D03*
G01*
X29219398Y428520D03*
D10*
G01*
X29705300Y435505D03*
D11*
G01*
X29705300Y326494D03*
D12*
G01*
X29530776Y4086119D03*
G01*
X29530776Y3991098D03*
G01*
X29625792Y3991098D03*
G01*
X29625798Y4086120D03*
D10*
G01*
X29705300Y841905D03*
D11*
G01*
X29705300Y732894D03*
D10*
G01*
X29705300Y1248305D03*
D11*
G01*
X29705300Y1139294D03*
D10*
G01*
X29705300Y1654705D03*
D11*
G01*
X29705300Y1545694D03*
D10*
G01*
X29705300Y2061105D03*
D11*
G01*
X29705300Y1952094D03*
D10*
G01*
X29705300Y2467505D03*
D11*
G01*
X29705300Y2358494D03*
D10*
G01*
X29705300Y2873905D03*
D11*
G01*
X29705300Y2764894D03*
D10*
G01*
X29705300Y3280305D03*
D11*
G01*
X29705300Y3171294D03*
D10*
G01*
X29705300Y3686705D03*
D11*
G01*
X29705300Y3577694D03*
D10*
G01*
X29705300Y4093105D03*
D11*
G01*
X29705300Y3984094D03*
D12*
G01*
X29530776Y3679719D03*
G01*
X29530776Y3584698D03*
G01*
X29625792Y3584698D03*
G01*
X29625798Y3679720D03*
G01*
X29530776Y3273319D03*
G01*
X29530776Y3178298D03*
G01*
X29625792Y3178298D03*
G01*
X29625798Y3273320D03*
G01*
X29530776Y2866919D03*
G01*
X29530776Y2771898D03*
G01*
X29625792Y2771898D03*
G01*
X29625798Y2866920D03*
G01*
X29530776Y2460519D03*
G01*
X29530776Y2365498D03*
G01*
X29625792Y2365498D03*
G01*
X29625798Y2460520D03*
G01*
X29530776Y2054119D03*
G01*
X29530776Y1959098D03*
G01*
X29625792Y1959098D03*
G01*
X29625798Y2054120D03*
G01*
X29530776Y1647719D03*
G01*
X29530776Y1552698D03*
G01*
X29625792Y1552698D03*
G01*
X29625798Y1647720D03*
G01*
X29530776Y1241319D03*
G01*
X29530776Y1146298D03*
G01*
X29625792Y1146298D03*
G01*
X29625798Y1241320D03*
G01*
X29530776Y834919D03*
G01*
X29530776Y739898D03*
G01*
X29625792Y739898D03*
G01*
X29625798Y834920D03*
G01*
X29530776Y428519D03*
G01*
X29530776Y333498D03*
G01*
X29625792Y333498D03*
G01*
X29625798Y428520D03*
D10*
G01*
X30111700Y435505D03*
D11*
G01*
X30111700Y326494D03*
D12*
G01*
X29937176Y4086119D03*
G01*
X29937176Y3991098D03*
G01*
X30032192Y3991098D03*
G01*
X30032198Y4086120D03*
D10*
G01*
X30111700Y841905D03*
D11*
G01*
X30111700Y732894D03*
D10*
G01*
X30111700Y1248305D03*
D11*
G01*
X30111700Y1139294D03*
D10*
G01*
X30111700Y1654705D03*
D11*
G01*
X30111700Y1545694D03*
D10*
G01*
X30111700Y2061105D03*
D11*
G01*
X30111700Y1952094D03*
D10*
G01*
X30111700Y2467505D03*
D11*
G01*
X30111700Y2358494D03*
D10*
G01*
X30111700Y2873905D03*
D11*
G01*
X30111700Y2764894D03*
D10*
G01*
X30111700Y3280305D03*
D11*
G01*
X30111700Y3171294D03*
D10*
G01*
X30111700Y3686705D03*
D11*
G01*
X30111700Y3577694D03*
D10*
G01*
X30111700Y4093105D03*
D11*
G01*
X30111700Y3984094D03*
D12*
G01*
X29937176Y3679719D03*
G01*
X29937176Y3584698D03*
G01*
X30032192Y3584698D03*
G01*
X30032198Y3679720D03*
G01*
X29937176Y3273319D03*
G01*
X29937176Y3178298D03*
G01*
X30032192Y3178298D03*
G01*
X30032198Y3273320D03*
G01*
X29937176Y2866919D03*
G01*
X29937176Y2771898D03*
G01*
X30032192Y2771898D03*
G01*
X30032198Y2866920D03*
G01*
X29937176Y2460519D03*
G01*
X29937176Y2365498D03*
G01*
X30032192Y2365498D03*
G01*
X30032198Y2460520D03*
G01*
X29937176Y2054119D03*
G01*
X29937176Y1959098D03*
G01*
X30032192Y1959098D03*
G01*
X30032198Y2054120D03*
G01*
X29937176Y1647719D03*
G01*
X29937176Y1552698D03*
G01*
X30032192Y1552698D03*
G01*
X30032198Y1647720D03*
G01*
X29937176Y1241319D03*
G01*
X29937176Y1146298D03*
G01*
X30032192Y1146298D03*
G01*
X30032198Y1241320D03*
G01*
X29937176Y834919D03*
G01*
X29937176Y739898D03*
G01*
X30032192Y739898D03*
G01*
X30032198Y834920D03*
G01*
X29937176Y428519D03*
G01*
X29937176Y333498D03*
G01*
X30032192Y333498D03*
G01*
X30032198Y428520D03*
D10*
G01*
X30518100Y435505D03*
D11*
G01*
X30518100Y326494D03*
D12*
G01*
X30343576Y4086119D03*
G01*
X30343576Y3991098D03*
G01*
X30438592Y3991098D03*
G01*
X30438598Y4086120D03*
D10*
G01*
X30518100Y841905D03*
D11*
G01*
X30518100Y732894D03*
D10*
G01*
X30518100Y1248305D03*
D11*
G01*
X30518100Y1139294D03*
D10*
G01*
X30518100Y1654705D03*
D11*
G01*
X30518100Y1545694D03*
D10*
G01*
X30518100Y2061105D03*
D11*
G01*
X30518100Y1952094D03*
D10*
G01*
X30518100Y2467505D03*
D11*
G01*
X30518100Y2358494D03*
D10*
G01*
X30518100Y2873905D03*
D11*
G01*
X30518100Y2764894D03*
D10*
G01*
X30518100Y3280305D03*
D11*
G01*
X30518100Y3171294D03*
D10*
G01*
X30518100Y3686705D03*
D11*
G01*
X30518100Y3577694D03*
D10*
G01*
X30518100Y4093105D03*
D11*
G01*
X30518100Y3984094D03*
D12*
G01*
X30343576Y3679719D03*
G01*
X30343576Y3584698D03*
G01*
X30438592Y3584698D03*
G01*
X30438598Y3679720D03*
G01*
X30343576Y3273319D03*
G01*
X30343576Y3178298D03*
G01*
X30438592Y3178298D03*
G01*
X30438598Y3273320D03*
G01*
X30343576Y2866919D03*
G01*
X30343576Y2771898D03*
G01*
X30438592Y2771898D03*
G01*
X30438598Y2866920D03*
G01*
X30343576Y2460519D03*
G01*
X30343576Y2365498D03*
G01*
X30438592Y2365498D03*
G01*
X30438598Y2460520D03*
G01*
X30343576Y2054119D03*
G01*
X30343576Y1959098D03*
G01*
X30438592Y1959098D03*
G01*
X30438598Y2054120D03*
G01*
X30343576Y1647719D03*
G01*
X30343576Y1552698D03*
G01*
X30438592Y1552698D03*
G01*
X30438598Y1647720D03*
G01*
X30343576Y1241319D03*
G01*
X30343576Y1146298D03*
G01*
X30438592Y1146298D03*
G01*
X30438598Y1241320D03*
G01*
X30343576Y834919D03*
G01*
X30343576Y739898D03*
G01*
X30438592Y739898D03*
G01*
X30438598Y834920D03*
G01*
X30343576Y428519D03*
G01*
X30343576Y333498D03*
G01*
X30438592Y333498D03*
G01*
X30438598Y428520D03*
D10*
G01*
X30924500Y435505D03*
D11*
G01*
X30924500Y326494D03*
D12*
G01*
X30749976Y4086119D03*
G01*
X30749976Y3991098D03*
G01*
X30844992Y3991098D03*
G01*
X30844998Y4086120D03*
D10*
G01*
X30924500Y841905D03*
D11*
G01*
X30924500Y732894D03*
D10*
G01*
X30924500Y1248305D03*
D11*
G01*
X30924500Y1139294D03*
D10*
G01*
X30924500Y1654705D03*
D11*
G01*
X30924500Y1545694D03*
D10*
G01*
X30924500Y2061105D03*
D11*
G01*
X30924500Y1952094D03*
D10*
G01*
X30924500Y2467505D03*
D11*
G01*
X30924500Y2358494D03*
D10*
G01*
X30924500Y2873905D03*
D11*
G01*
X30924500Y2764894D03*
D10*
G01*
X30924500Y3280305D03*
D11*
G01*
X30924500Y3171294D03*
D10*
G01*
X30924500Y3686705D03*
D11*
G01*
X30924500Y3577694D03*
D10*
G01*
X30924500Y4093105D03*
D11*
G01*
X30924500Y3984094D03*
D12*
G01*
X30749976Y3679719D03*
G01*
X30749976Y3584698D03*
G01*
X30844992Y3584698D03*
G01*
X30844998Y3679720D03*
G01*
X30749976Y3273319D03*
G01*
X30749976Y3178298D03*
G01*
X30844992Y3178298D03*
G01*
X30844998Y3273320D03*
G01*
X30749976Y2866919D03*
G01*
X30749976Y2771898D03*
G01*
X30844992Y2771898D03*
G01*
X30844998Y2866920D03*
G01*
X30749976Y2460519D03*
G01*
X30749976Y2365498D03*
G01*
X30844992Y2365498D03*
G01*
X30844998Y2460520D03*
G01*
X30749976Y2054119D03*
G01*
X30749976Y1959098D03*
G01*
X30844992Y1959098D03*
G01*
X30844998Y2054120D03*
G01*
X30749976Y1647719D03*
G01*
X30749976Y1552698D03*
G01*
X30844992Y1552698D03*
G01*
X30844998Y1647720D03*
G01*
X30749976Y1241319D03*
G01*
X30749976Y1146298D03*
G01*
X30844992Y1146298D03*
G01*
X30844998Y1241320D03*
G01*
X30749976Y834919D03*
G01*
X30749976Y739898D03*
G01*
X30844992Y739898D03*
G01*
X30844998Y834920D03*
G01*
X30749976Y428519D03*
G01*
X30749976Y333498D03*
G01*
X30844992Y333498D03*
G01*
X30844998Y428520D03*
D10*
G01*
X31330900Y435505D03*
D11*
G01*
X31330900Y326494D03*
D12*
G01*
X31156376Y4086119D03*
G01*
X31156376Y3991098D03*
G01*
X31251392Y3991098D03*
G01*
X31251398Y4086120D03*
D10*
G01*
X31330900Y841905D03*
D11*
G01*
X31330900Y732894D03*
D10*
G01*
X31330900Y1248305D03*
D11*
G01*
X31330900Y1139294D03*
D10*
G01*
X31330900Y1654705D03*
D11*
G01*
X31330900Y1545694D03*
D10*
G01*
X31330900Y2061105D03*
D11*
G01*
X31330900Y1952094D03*
D10*
G01*
X31330900Y2467505D03*
D11*
G01*
X31330900Y2358494D03*
D10*
G01*
X31330900Y2873905D03*
D11*
G01*
X31330900Y2764894D03*
D10*
G01*
X31330900Y3280305D03*
D11*
G01*
X31330900Y3171294D03*
D10*
G01*
X31330900Y3686705D03*
D11*
G01*
X31330900Y3577694D03*
D10*
G01*
X31330900Y4093105D03*
D11*
G01*
X31330900Y3984094D03*
D12*
G01*
X31156376Y3679719D03*
G01*
X31156376Y3584698D03*
G01*
X31251392Y3584698D03*
G01*
X31251398Y3679720D03*
G01*
X31156376Y3273319D03*
G01*
X31156376Y3178298D03*
G01*
X31251392Y3178298D03*
G01*
X31251398Y3273320D03*
G01*
X31156376Y2866919D03*
G01*
X31156376Y2771898D03*
G01*
X31251392Y2771898D03*
G01*
X31251398Y2866920D03*
G01*
X31156376Y2460519D03*
G01*
X31156376Y2365498D03*
G01*
X31251392Y2365498D03*
G01*
X31251398Y2460520D03*
G01*
X31156376Y2054119D03*
G01*
X31156376Y1959098D03*
G01*
X31251392Y1959098D03*
G01*
X31251398Y2054120D03*
G01*
X31156376Y1647719D03*
G01*
X31156376Y1552698D03*
G01*
X31251392Y1552698D03*
G01*
X31251398Y1647720D03*
G01*
X31156376Y1241319D03*
G01*
X31156376Y1146298D03*
G01*
X31251392Y1146298D03*
G01*
X31251398Y1241320D03*
G01*
X31156376Y834919D03*
G01*
X31156376Y739898D03*
G01*
X31251392Y739898D03*
G01*
X31251398Y834920D03*
G01*
X31156376Y428519D03*
G01*
X31156376Y333498D03*
G01*
X31251392Y333498D03*
G01*
X31251398Y428520D03*
D10*
G01*
X31737300Y435505D03*
D11*
G01*
X31737300Y326494D03*
D12*
G01*
X31562776Y4086119D03*
G01*
X31562776Y3991098D03*
G01*
X31657792Y3991098D03*
G01*
X31657798Y4086120D03*
D10*
G01*
X31737300Y841905D03*
D11*
G01*
X31737300Y732894D03*
D10*
G01*
X31737300Y1248305D03*
D11*
G01*
X31737300Y1139294D03*
D10*
G01*
X31737300Y1654705D03*
D11*
G01*
X31737300Y1545694D03*
D10*
G01*
X31737300Y2061105D03*
D11*
G01*
X31737300Y1952094D03*
D10*
G01*
X31737300Y2467505D03*
D11*
G01*
X31737300Y2358494D03*
D10*
G01*
X31737300Y2873905D03*
D11*
G01*
X31737300Y2764894D03*
D10*
G01*
X31737300Y3280305D03*
D11*
G01*
X31737300Y3171294D03*
D10*
G01*
X31737300Y3686705D03*
D11*
G01*
X31737300Y3577694D03*
D10*
G01*
X31737300Y4093105D03*
D11*
G01*
X31737300Y3984094D03*
D12*
G01*
X31562776Y3679719D03*
G01*
X31562776Y3584698D03*
G01*
X31657792Y3584698D03*
G01*
X31657798Y3679720D03*
G01*
X31562776Y3273319D03*
G01*
X31562776Y3178298D03*
G01*
X31657792Y3178298D03*
G01*
X31657798Y3273320D03*
G01*
X31562776Y2866919D03*
G01*
X31562776Y2771898D03*
G01*
X31657792Y2771898D03*
G01*
X31657798Y2866920D03*
G01*
X31562776Y2460519D03*
G01*
X31562776Y2365498D03*
G01*
X31657792Y2365498D03*
G01*
X31657798Y2460520D03*
G01*
X31562776Y2054119D03*
G01*
X31562776Y1959098D03*
G01*
X31657792Y1959098D03*
G01*
X31657798Y2054120D03*
G01*
X31562776Y1647719D03*
G01*
X31562776Y1552698D03*
G01*
X31657792Y1552698D03*
G01*
X31657798Y1647720D03*
G01*
X31562776Y1241319D03*
G01*
X31562776Y1146298D03*
G01*
X31657792Y1146298D03*
G01*
X31657798Y1241320D03*
G01*
X31562776Y834919D03*
G01*
X31562776Y739898D03*
G01*
X31657792Y739898D03*
G01*
X31657798Y834920D03*
G01*
X31562776Y428519D03*
G01*
X31562776Y333498D03*
G01*
X31657792Y333498D03*
G01*
X31657798Y428520D03*
D10*
G01*
X32143700Y435505D03*
D11*
G01*
X32143700Y326494D03*
D12*
G01*
X31969176Y4086119D03*
G01*
X31969176Y3991098D03*
G01*
X32064192Y3991098D03*
G01*
X32064198Y4086120D03*
D10*
G01*
X32143700Y841905D03*
D11*
G01*
X32143700Y732894D03*
D10*
G01*
X32143700Y1248305D03*
D11*
G01*
X32143700Y1139294D03*
D10*
G01*
X32143700Y1654705D03*
D11*
G01*
X32143700Y1545694D03*
D10*
G01*
X32143700Y2061105D03*
D11*
G01*
X32143700Y1952094D03*
D10*
G01*
X32143700Y2467505D03*
D11*
G01*
X32143700Y2358494D03*
D10*
G01*
X32143700Y2873905D03*
D11*
G01*
X32143700Y2764894D03*
D10*
G01*
X32143700Y3280305D03*
D11*
G01*
X32143700Y3171294D03*
D10*
G01*
X32143700Y3686705D03*
D11*
G01*
X32143700Y3577694D03*
D10*
G01*
X32143700Y4093105D03*
D11*
G01*
X32143700Y3984094D03*
D12*
G01*
X31969176Y3679719D03*
G01*
X31969176Y3584698D03*
G01*
X32064192Y3584698D03*
G01*
X32064198Y3679720D03*
G01*
X31969176Y3273319D03*
G01*
X31969176Y3178298D03*
G01*
X32064192Y3178298D03*
G01*
X32064198Y3273320D03*
G01*
X31969176Y2866919D03*
G01*
X31969176Y2771898D03*
G01*
X32064192Y2771898D03*
G01*
X32064198Y2866920D03*
G01*
X31969176Y2460519D03*
G01*
X31969176Y2365498D03*
G01*
X32064192Y2365498D03*
G01*
X32064198Y2460520D03*
G01*
X31969176Y2054119D03*
G01*
X31969176Y1959098D03*
G01*
X32064192Y1959098D03*
G01*
X32064198Y2054120D03*
G01*
X31969176Y1647719D03*
G01*
X31969176Y1552698D03*
G01*
X32064192Y1552698D03*
G01*
X32064198Y1647720D03*
G01*
X31969176Y1241319D03*
G01*
X31969176Y1146298D03*
G01*
X32064192Y1146298D03*
G01*
X32064198Y1241320D03*
G01*
X31969176Y834919D03*
G01*
X31969176Y739898D03*
G01*
X32064192Y739898D03*
G01*
X32064198Y834920D03*
G01*
X31969176Y428519D03*
G01*
X31969176Y333498D03*
G01*
X32064192Y333498D03*
G01*
X32064198Y428520D03*
D10*
G01*
X32550100Y435505D03*
D11*
G01*
X32550100Y326494D03*
D12*
G01*
X32375576Y4086119D03*
G01*
X32375576Y3991098D03*
G01*
X32470592Y3991098D03*
G01*
X32470598Y4086120D03*
D10*
G01*
X32550100Y841905D03*
D11*
G01*
X32550100Y732894D03*
D10*
G01*
X32550100Y1248305D03*
D11*
G01*
X32550100Y1139294D03*
D10*
G01*
X32550100Y1654705D03*
D11*
G01*
X32550100Y1545694D03*
D10*
G01*
X32550100Y2061105D03*
D11*
G01*
X32550100Y1952094D03*
D10*
G01*
X32550100Y2467505D03*
D11*
G01*
X32550100Y2358494D03*
D10*
G01*
X32550100Y2873905D03*
D11*
G01*
X32550100Y2764894D03*
D10*
G01*
X32550100Y3280305D03*
D11*
G01*
X32550100Y3171294D03*
D10*
G01*
X32550100Y3686705D03*
D11*
G01*
X32550100Y3577694D03*
D10*
G01*
X32550100Y4093105D03*
D11*
G01*
X32550100Y3984094D03*
D12*
G01*
X32375576Y3679719D03*
G01*
X32375576Y3584698D03*
G01*
X32470592Y3584698D03*
G01*
X32470598Y3679720D03*
G01*
X32375576Y3273319D03*
G01*
X32375576Y3178298D03*
G01*
X32470592Y3178298D03*
G01*
X32470598Y3273320D03*
G01*
X32375576Y2866919D03*
G01*
X32375576Y2771898D03*
G01*
X32470592Y2771898D03*
G01*
X32470598Y2866920D03*
G01*
X32375576Y2460519D03*
G01*
X32375576Y2365498D03*
G01*
X32470592Y2365498D03*
G01*
X32470598Y2460520D03*
G01*
X32375576Y2054119D03*
G01*
X32375576Y1959098D03*
G01*
X32470592Y1959098D03*
G01*
X32470598Y2054120D03*
G01*
X32375576Y1647719D03*
G01*
X32375576Y1552698D03*
G01*
X32470592Y1552698D03*
G01*
X32470598Y1647720D03*
G01*
X32375576Y1241319D03*
G01*
X32375576Y1146298D03*
G01*
X32470592Y1146298D03*
G01*
X32470598Y1241320D03*
G01*
X32375576Y834919D03*
G01*
X32375576Y739898D03*
G01*
X32470592Y739898D03*
G01*
X32470598Y834920D03*
G01*
X32375576Y428519D03*
G01*
X32375576Y333498D03*
G01*
X32470592Y333498D03*
G01*
X32470598Y428520D03*
D10*
G01*
X32956500Y435505D03*
D11*
G01*
X32956500Y326494D03*
D12*
G01*
X32781976Y4086119D03*
G01*
X32781976Y3991098D03*
G01*
X32876992Y3991098D03*
G01*
X32876998Y4086120D03*
D10*
G01*
X32956500Y841905D03*
D11*
G01*
X32956500Y732894D03*
D10*
G01*
X32956500Y1248305D03*
D11*
G01*
X32956500Y1139294D03*
D10*
G01*
X32956500Y1654705D03*
D11*
G01*
X32956500Y1545694D03*
D10*
G01*
X32956500Y2061105D03*
D11*
G01*
X32956500Y1952094D03*
D10*
G01*
X32956500Y2467505D03*
D11*
G01*
X32956500Y2358494D03*
D10*
G01*
X32956500Y2873905D03*
D11*
G01*
X32956500Y2764894D03*
D10*
G01*
X32956500Y3280305D03*
D11*
G01*
X32956500Y3171294D03*
D10*
G01*
X32956500Y3686705D03*
D11*
G01*
X32956500Y3577694D03*
D10*
G01*
X32956500Y4093105D03*
D11*
G01*
X32956500Y3984094D03*
D12*
G01*
X32781976Y3679719D03*
G01*
X32781976Y3584698D03*
G01*
X32876992Y3584698D03*
G01*
X32876998Y3679720D03*
G01*
X32781976Y3273319D03*
G01*
X32781976Y3178298D03*
G01*
X32876992Y3178298D03*
G01*
X32876998Y3273320D03*
G01*
X32781976Y2866919D03*
G01*
X32781976Y2771898D03*
G01*
X32876992Y2771898D03*
G01*
X32876998Y2866920D03*
G01*
X32781976Y2460519D03*
G01*
X32781976Y2365498D03*
G01*
X32876992Y2365498D03*
G01*
X32876998Y2460520D03*
G01*
X32781976Y2054119D03*
G01*
X32781976Y1959098D03*
G01*
X32876992Y1959098D03*
G01*
X32876998Y2054120D03*
G01*
X32781976Y1647719D03*
G01*
X32781976Y1552698D03*
G01*
X32876992Y1552698D03*
G01*
X32876998Y1647720D03*
G01*
X32781976Y1241319D03*
G01*
X32781976Y1146298D03*
G01*
X32876992Y1146298D03*
G01*
X32876998Y1241320D03*
G01*
X32781976Y834919D03*
G01*
X32781976Y739898D03*
G01*
X32876992Y739898D03*
G01*
X32876998Y834920D03*
G01*
X32781976Y428519D03*
G01*
X32781976Y333498D03*
G01*
X32876992Y333498D03*
G01*
X32876998Y428520D03*
D10*
G01*
X33362900Y435505D03*
D11*
G01*
X33362900Y326494D03*
D12*
G01*
X33188376Y4086119D03*
G01*
X33188376Y3991098D03*
G01*
X33283392Y3991098D03*
G01*
X33283398Y4086120D03*
D10*
G01*
X33362900Y841905D03*
D11*
G01*
X33362900Y732894D03*
D10*
G01*
X33362900Y1248305D03*
D11*
G01*
X33362900Y1139294D03*
D10*
G01*
X33362900Y1654705D03*
D11*
G01*
X33362900Y1545694D03*
D10*
G01*
X33362900Y2061105D03*
D11*
G01*
X33362900Y1952094D03*
D10*
G01*
X33362900Y2467505D03*
D11*
G01*
X33362900Y2358494D03*
D10*
G01*
X33362900Y2873905D03*
D11*
G01*
X33362900Y2764894D03*
D10*
G01*
X33362900Y3280305D03*
D11*
G01*
X33362900Y3171294D03*
D10*
G01*
X33362900Y3686705D03*
D11*
G01*
X33362900Y3577694D03*
D10*
G01*
X33362900Y4093105D03*
D11*
G01*
X33362900Y3984094D03*
D12*
G01*
X33188376Y3679719D03*
G01*
X33188376Y3584698D03*
G01*
X33283392Y3584698D03*
G01*
X33283398Y3679720D03*
G01*
X33188376Y3273319D03*
G01*
X33188376Y3178298D03*
G01*
X33283392Y3178298D03*
G01*
X33283398Y3273320D03*
G01*
X33188376Y2866919D03*
G01*
X33188376Y2771898D03*
G01*
X33283392Y2771898D03*
G01*
X33283398Y2866920D03*
G01*
X33188376Y2460519D03*
G01*
X33188376Y2365498D03*
G01*
X33283392Y2365498D03*
G01*
X33283398Y2460520D03*
G01*
X33188376Y2054119D03*
G01*
X33188376Y1959098D03*
G01*
X33283392Y1959098D03*
G01*
X33283398Y2054120D03*
G01*
X33188376Y1647719D03*
G01*
X33188376Y1552698D03*
G01*
X33283392Y1552698D03*
G01*
X33283398Y1647720D03*
G01*
X33188376Y1241319D03*
G01*
X33188376Y1146298D03*
G01*
X33283392Y1146298D03*
G01*
X33283398Y1241320D03*
G01*
X33188376Y834919D03*
G01*
X33188376Y739898D03*
G01*
X33283392Y739898D03*
G01*
X33283398Y834920D03*
G01*
X33188376Y428519D03*
G01*
X33188376Y333498D03*
G01*
X33283392Y333498D03*
G01*
X33283398Y428520D03*
D10*
G01*
X33769300Y435505D03*
D11*
G01*
X33769300Y326494D03*
D12*
G01*
X33594776Y4086119D03*
G01*
X33594776Y3991098D03*
G01*
X33689792Y3991098D03*
G01*
X33689798Y4086120D03*
D10*
G01*
X33769300Y841905D03*
D11*
G01*
X33769300Y732894D03*
D10*
G01*
X33769300Y1248305D03*
D11*
G01*
X33769300Y1139294D03*
D10*
G01*
X33769300Y1654705D03*
D11*
G01*
X33769300Y1545694D03*
D10*
G01*
X33769300Y2061105D03*
D11*
G01*
X33769300Y1952094D03*
D10*
G01*
X33769300Y2467505D03*
D11*
G01*
X33769300Y2358494D03*
D10*
G01*
X33769300Y2873905D03*
D11*
G01*
X33769300Y2764894D03*
D10*
G01*
X33769300Y3280305D03*
D11*
G01*
X33769300Y3171294D03*
D10*
G01*
X33769300Y3686705D03*
D11*
G01*
X33769300Y3577694D03*
D10*
G01*
X33769300Y4093105D03*
D11*
G01*
X33769300Y3984094D03*
D12*
G01*
X33594776Y3679719D03*
G01*
X33594776Y3584698D03*
G01*
X33689792Y3584698D03*
G01*
X33689798Y3679720D03*
G01*
X33594776Y3273319D03*
G01*
X33594776Y3178298D03*
G01*
X33689792Y3178298D03*
G01*
X33689798Y3273320D03*
G01*
X33594776Y2866919D03*
G01*
X33594776Y2771898D03*
G01*
X33689792Y2771898D03*
G01*
X33689798Y2866920D03*
G01*
X33594776Y2460519D03*
G01*
X33594776Y2365498D03*
G01*
X33689792Y2365498D03*
G01*
X33689798Y2460520D03*
G01*
X33594776Y2054119D03*
G01*
X33594776Y1959098D03*
G01*
X33689792Y1959098D03*
G01*
X33689798Y2054120D03*
G01*
X33594776Y1647719D03*
G01*
X33594776Y1552698D03*
G01*
X33689792Y1552698D03*
G01*
X33689798Y1647720D03*
G01*
X33594776Y1241319D03*
G01*
X33594776Y1146298D03*
G01*
X33689792Y1146298D03*
G01*
X33689798Y1241320D03*
G01*
X33594776Y834919D03*
G01*
X33594776Y739898D03*
G01*
X33689792Y739898D03*
G01*
X33689798Y834920D03*
G01*
X33594776Y428519D03*
G01*
X33594776Y333498D03*
G01*
X33689792Y333498D03*
G01*
X33689798Y428520D03*
D10*
G01*
X34175700Y435505D03*
D11*
G01*
X34175700Y326494D03*
D12*
G01*
X34001176Y4086119D03*
G01*
X34001176Y3991098D03*
G01*
X34096192Y3991098D03*
G01*
X34096198Y4086120D03*
D10*
G01*
X34175700Y841905D03*
D11*
G01*
X34175700Y732894D03*
D10*
G01*
X34175700Y1248305D03*
D11*
G01*
X34175700Y1139294D03*
D10*
G01*
X34175700Y1654705D03*
D11*
G01*
X34175700Y1545694D03*
D10*
G01*
X34175700Y2061105D03*
D11*
G01*
X34175700Y1952094D03*
D10*
G01*
X34175700Y2467505D03*
D11*
G01*
X34175700Y2358494D03*
D10*
G01*
X34175700Y2873905D03*
D11*
G01*
X34175700Y2764894D03*
D10*
G01*
X34175700Y3280305D03*
D11*
G01*
X34175700Y3171294D03*
D10*
G01*
X34175700Y3686705D03*
D11*
G01*
X34175700Y3577694D03*
D10*
G01*
X34175700Y4093105D03*
D11*
G01*
X34175700Y3984094D03*
D12*
G01*
X34001176Y3679719D03*
G01*
X34001176Y3584698D03*
G01*
X34096192Y3584698D03*
G01*
X34096198Y3679720D03*
G01*
X34001176Y3273319D03*
G01*
X34001176Y3178298D03*
G01*
X34096192Y3178298D03*
G01*
X34096198Y3273320D03*
G01*
X34001176Y2866919D03*
G01*
X34001176Y2771898D03*
G01*
X34096192Y2771898D03*
G01*
X34096198Y2866920D03*
G01*
X34001176Y2460519D03*
G01*
X34001176Y2365498D03*
G01*
X34096192Y2365498D03*
G01*
X34096198Y2460520D03*
G01*
X34001176Y2054119D03*
G01*
X34001176Y1959098D03*
G01*
X34096192Y1959098D03*
G01*
X34096198Y2054120D03*
G01*
X34001176Y1647719D03*
G01*
X34001176Y1552698D03*
G01*
X34096192Y1552698D03*
G01*
X34096198Y1647720D03*
G01*
X34001176Y1241319D03*
G01*
X34001176Y1146298D03*
G01*
X34096192Y1146298D03*
G01*
X34096198Y1241320D03*
G01*
X34001176Y834919D03*
G01*
X34001176Y739898D03*
G01*
X34096192Y739898D03*
G01*
X34096198Y834920D03*
G01*
X34001176Y428519D03*
G01*
X34001176Y333498D03*
G01*
X34096192Y333498D03*
G01*
X34096198Y428520D03*
D10*
G01*
X34582100Y435505D03*
D11*
G01*
X34582100Y326494D03*
D12*
G01*
X34407576Y4086119D03*
G01*
X34407576Y3991098D03*
G01*
X34502592Y3991098D03*
G01*
X34502598Y4086120D03*
D10*
G01*
X34582100Y841905D03*
D11*
G01*
X34582100Y732894D03*
D10*
G01*
X34582100Y1248305D03*
D11*
G01*
X34582100Y1139294D03*
D10*
G01*
X34582100Y1654705D03*
D11*
G01*
X34582100Y1545694D03*
D10*
G01*
X34582100Y2061105D03*
D11*
G01*
X34582100Y1952094D03*
D10*
G01*
X34582100Y2467505D03*
D11*
G01*
X34582100Y2358494D03*
D10*
G01*
X34582100Y2873905D03*
D11*
G01*
X34582100Y2764894D03*
D10*
G01*
X34582100Y3280305D03*
D11*
G01*
X34582100Y3171294D03*
D10*
G01*
X34582100Y3686705D03*
D11*
G01*
X34582100Y3577694D03*
D10*
G01*
X34582100Y4093105D03*
D11*
G01*
X34582100Y3984094D03*
D12*
G01*
X34407576Y3679719D03*
G01*
X34407576Y3584698D03*
G01*
X34502592Y3584698D03*
G01*
X34502598Y3679720D03*
G01*
X34407576Y3273319D03*
G01*
X34407576Y3178298D03*
G01*
X34502592Y3178298D03*
G01*
X34502598Y3273320D03*
G01*
X34407576Y2866919D03*
G01*
X34407576Y2771898D03*
G01*
X34502592Y2771898D03*
G01*
X34502598Y2866920D03*
G01*
X34407576Y2460519D03*
G01*
X34407576Y2365498D03*
G01*
X34502592Y2365498D03*
G01*
X34502598Y2460520D03*
G01*
X34407576Y2054119D03*
G01*
X34407576Y1959098D03*
G01*
X34502592Y1959098D03*
G01*
X34502598Y2054120D03*
G01*
X34407576Y1647719D03*
G01*
X34407576Y1552698D03*
G01*
X34502592Y1552698D03*
G01*
X34502598Y1647720D03*
G01*
X34407576Y1241319D03*
G01*
X34407576Y1146298D03*
G01*
X34502592Y1146298D03*
G01*
X34502598Y1241320D03*
G01*
X34407576Y834919D03*
G01*
X34407576Y739898D03*
G01*
X34502592Y739898D03*
G01*
X34502598Y834920D03*
G01*
X34407576Y428519D03*
G01*
X34407576Y333498D03*
G01*
X34502592Y333498D03*
G01*
X34502598Y428520D03*
D10*
G01*
X34988500Y435505D03*
D11*
G01*
X34988500Y326494D03*
D12*
G01*
X34813976Y4086119D03*
G01*
X34813976Y3991098D03*
G01*
X34908992Y3991098D03*
G01*
X34908998Y4086120D03*
D10*
G01*
X34988500Y841905D03*
D11*
G01*
X34988500Y732894D03*
D10*
G01*
X34988500Y1248305D03*
D11*
G01*
X34988500Y1139294D03*
D10*
G01*
X34988500Y1654705D03*
D11*
G01*
X34988500Y1545694D03*
D10*
G01*
X34988500Y2061105D03*
D11*
G01*
X34988500Y1952094D03*
D10*
G01*
X34988500Y2467505D03*
D11*
G01*
X34988500Y2358494D03*
D10*
G01*
X34988500Y2873905D03*
D11*
G01*
X34988500Y2764894D03*
D10*
G01*
X34988500Y3280305D03*
D11*
G01*
X34988500Y3171294D03*
D10*
G01*
X34988500Y3686705D03*
D11*
G01*
X34988500Y3577694D03*
D10*
G01*
X34988500Y4093105D03*
D11*
G01*
X34988500Y3984094D03*
D12*
G01*
X34813976Y3679719D03*
G01*
X34813976Y3584698D03*
G01*
X34908992Y3584698D03*
G01*
X34908998Y3679720D03*
G01*
X34813976Y3273319D03*
G01*
X34813976Y3178298D03*
G01*
X34908992Y3178298D03*
G01*
X34908998Y3273320D03*
G01*
X34813976Y2866919D03*
G01*
X34813976Y2771898D03*
G01*
X34908992Y2771898D03*
G01*
X34908998Y2866920D03*
G01*
X34813976Y2460519D03*
G01*
X34813976Y2365498D03*
G01*
X34908992Y2365498D03*
G01*
X34908998Y2460520D03*
G01*
X34813976Y2054119D03*
G01*
X34813976Y1959098D03*
G01*
X34908992Y1959098D03*
G01*
X34908998Y2054120D03*
G01*
X34813976Y1647719D03*
G01*
X34813976Y1552698D03*
G01*
X34908992Y1552698D03*
G01*
X34908998Y1647720D03*
G01*
X34813976Y1241319D03*
G01*
X34813976Y1146298D03*
G01*
X34908992Y1146298D03*
G01*
X34908998Y1241320D03*
G01*
X34813976Y834919D03*
G01*
X34813976Y739898D03*
G01*
X34908992Y739898D03*
G01*
X34908998Y834920D03*
G01*
X34813976Y428519D03*
G01*
X34813976Y333498D03*
G01*
X34908992Y333498D03*
G01*
X34908998Y428520D03*
D10*
G01*
X35394900Y435505D03*
D11*
G01*
X35394900Y326494D03*
D12*
G01*
X35220376Y4086119D03*
G01*
X35220376Y3991098D03*
G01*
X35315392Y3991098D03*
G01*
X35315398Y4086120D03*
D10*
G01*
X35394900Y841905D03*
D11*
G01*
X35394900Y732894D03*
D10*
G01*
X35394900Y1248305D03*
D11*
G01*
X35394900Y1139294D03*
D10*
G01*
X35394900Y1654705D03*
D11*
G01*
X35394900Y1545694D03*
D10*
G01*
X35394900Y2061105D03*
D11*
G01*
X35394900Y1952094D03*
D10*
G01*
X35394900Y2467505D03*
D11*
G01*
X35394900Y2358494D03*
D10*
G01*
X35394900Y2873905D03*
D11*
G01*
X35394900Y2764894D03*
D10*
G01*
X35394900Y3280305D03*
D11*
G01*
X35394900Y3171294D03*
D10*
G01*
X35394900Y3686705D03*
D11*
G01*
X35394900Y3577694D03*
D10*
G01*
X35394900Y4093105D03*
D11*
G01*
X35394900Y3984094D03*
D12*
G01*
X35220376Y3679719D03*
G01*
X35220376Y3584698D03*
G01*
X35315392Y3584698D03*
G01*
X35315398Y3679720D03*
G01*
X35220376Y3273319D03*
G01*
X35220376Y3178298D03*
G01*
X35315392Y3178298D03*
G01*
X35315398Y3273320D03*
G01*
X35220376Y2866919D03*
G01*
X35220376Y2771898D03*
G01*
X35315392Y2771898D03*
G01*
X35315398Y2866920D03*
G01*
X35220376Y2460519D03*
G01*
X35220376Y2365498D03*
G01*
X35315392Y2365498D03*
G01*
X35315398Y2460520D03*
G01*
X35220376Y2054119D03*
G01*
X35220376Y1959098D03*
G01*
X35315392Y1959098D03*
G01*
X35315398Y2054120D03*
G01*
X35220376Y1647719D03*
G01*
X35220376Y1552698D03*
G01*
X35315392Y1552698D03*
G01*
X35315398Y1647720D03*
G01*
X35220376Y1241319D03*
G01*
X35220376Y1146298D03*
G01*
X35315392Y1146298D03*
G01*
X35315398Y1241320D03*
G01*
X35220376Y834919D03*
G01*
X35220376Y739898D03*
G01*
X35315392Y739898D03*
G01*
X35315398Y834920D03*
G01*
X35220376Y428519D03*
G01*
X35220376Y333498D03*
G01*
X35315392Y333498D03*
G01*
X35315398Y428520D03*
D10*
G01*
X35801300Y435505D03*
D11*
G01*
X35801300Y326494D03*
D12*
G01*
X35626776Y4086119D03*
G01*
X35626776Y3991098D03*
G01*
X35721792Y3991098D03*
G01*
X35721798Y4086120D03*
D10*
G01*
X35801300Y841905D03*
D11*
G01*
X35801300Y732894D03*
D10*
G01*
X35801300Y1248305D03*
D11*
G01*
X35801300Y1139294D03*
D10*
G01*
X35801300Y1654705D03*
D11*
G01*
X35801300Y1545694D03*
D10*
G01*
X35801300Y2061105D03*
D11*
G01*
X35801300Y1952094D03*
D10*
G01*
X35801300Y2467505D03*
D11*
G01*
X35801300Y2358494D03*
D10*
G01*
X35801300Y2873905D03*
D11*
G01*
X35801300Y2764894D03*
D10*
G01*
X35801300Y3280305D03*
D11*
G01*
X35801300Y3171294D03*
D10*
G01*
X35801300Y3686705D03*
D11*
G01*
X35801300Y3577694D03*
D10*
G01*
X35801300Y4093105D03*
D11*
G01*
X35801300Y3984094D03*
D12*
G01*
X35626776Y3679719D03*
G01*
X35626776Y3584698D03*
G01*
X35721792Y3584698D03*
G01*
X35721798Y3679720D03*
G01*
X35626776Y3273319D03*
G01*
X35626776Y3178298D03*
G01*
X35721792Y3178298D03*
G01*
X35721798Y3273320D03*
G01*
X35626776Y2866919D03*
G01*
X35626776Y2771898D03*
G01*
X35721792Y2771898D03*
G01*
X35721798Y2866920D03*
G01*
X35626776Y2460519D03*
G01*
X35626776Y2365498D03*
G01*
X35721792Y2365498D03*
G01*
X35721798Y2460520D03*
G01*
X35626776Y2054119D03*
G01*
X35626776Y1959098D03*
G01*
X35721792Y1959098D03*
G01*
X35721798Y2054120D03*
G01*
X35626776Y1647719D03*
G01*
X35626776Y1552698D03*
G01*
X35721792Y1552698D03*
G01*
X35721798Y1647720D03*
G01*
X35626776Y1241319D03*
G01*
X35626776Y1146298D03*
G01*
X35721792Y1146298D03*
G01*
X35721798Y1241320D03*
G01*
X35626776Y834919D03*
G01*
X35626776Y739898D03*
G01*
X35721792Y739898D03*
G01*
X35721798Y834920D03*
G01*
X35626776Y428519D03*
G01*
X35626776Y333498D03*
G01*
X35721792Y333498D03*
G01*
X35721798Y428520D03*
D10*
G01*
X36207700Y435505D03*
D11*
G01*
X36207700Y326494D03*
D12*
G01*
X36033176Y4086119D03*
G01*
X36033176Y3991098D03*
G01*
X36128192Y3991098D03*
G01*
X36128198Y4086120D03*
D10*
G01*
X36207700Y841905D03*
D11*
G01*
X36207700Y732894D03*
D10*
G01*
X36207700Y1248305D03*
D11*
G01*
X36207700Y1139294D03*
D10*
G01*
X36207700Y1654705D03*
D11*
G01*
X36207700Y1545694D03*
D10*
G01*
X36207700Y2061105D03*
D11*
G01*
X36207700Y1952094D03*
D10*
G01*
X36207700Y2467505D03*
D11*
G01*
X36207700Y2358494D03*
D10*
G01*
X36207700Y2873905D03*
D11*
G01*
X36207700Y2764894D03*
D10*
G01*
X36207700Y3280305D03*
D11*
G01*
X36207700Y3171294D03*
D10*
G01*
X36207700Y3686705D03*
D11*
G01*
X36207700Y3577694D03*
D10*
G01*
X36207700Y4093105D03*
D11*
G01*
X36207700Y3984094D03*
D12*
G01*
X36033176Y3679719D03*
G01*
X36033176Y3584698D03*
G01*
X36128192Y3584698D03*
G01*
X36128198Y3679720D03*
G01*
X36033176Y3273319D03*
G01*
X36033176Y3178298D03*
G01*
X36128192Y3178298D03*
G01*
X36128198Y3273320D03*
G01*
X36033176Y2866919D03*
G01*
X36033176Y2771898D03*
G01*
X36128192Y2771898D03*
G01*
X36128198Y2866920D03*
G01*
X36033176Y2460519D03*
G01*
X36033176Y2365498D03*
G01*
X36128192Y2365498D03*
G01*
X36128198Y2460520D03*
G01*
X36033176Y2054119D03*
G01*
X36033176Y1959098D03*
G01*
X36128192Y1959098D03*
G01*
X36128198Y2054120D03*
G01*
X36033176Y1647719D03*
G01*
X36033176Y1552698D03*
G01*
X36128192Y1552698D03*
G01*
X36128198Y1647720D03*
G01*
X36033176Y1241319D03*
G01*
X36033176Y1146298D03*
G01*
X36128192Y1146298D03*
G01*
X36128198Y1241320D03*
G01*
X36033176Y834919D03*
G01*
X36033176Y739898D03*
G01*
X36128192Y739898D03*
G01*
X36128198Y834920D03*
G01*
X36033176Y428519D03*
G01*
X36033176Y333498D03*
G01*
X36128192Y333498D03*
G01*
X36128198Y428520D03*
D10*
G01*
X36614100Y435505D03*
D11*
G01*
X36614100Y326494D03*
D12*
G01*
X36439576Y4086119D03*
G01*
X36439576Y3991098D03*
G01*
X36534592Y3991098D03*
G01*
X36534598Y4086120D03*
D10*
G01*
X36614100Y841905D03*
D11*
G01*
X36614100Y732894D03*
D10*
G01*
X36614100Y1248305D03*
D11*
G01*
X36614100Y1139294D03*
D10*
G01*
X36614100Y1654705D03*
D11*
G01*
X36614100Y1545694D03*
D10*
G01*
X36614100Y2061105D03*
D11*
G01*
X36614100Y1952094D03*
D10*
G01*
X36614100Y2467505D03*
D11*
G01*
X36614100Y2358494D03*
D10*
G01*
X36614100Y2873905D03*
D11*
G01*
X36614100Y2764894D03*
D10*
G01*
X36614100Y3280305D03*
D11*
G01*
X36614100Y3171294D03*
D10*
G01*
X36614100Y3686705D03*
D11*
G01*
X36614100Y3577694D03*
D10*
G01*
X36614100Y4093105D03*
D11*
G01*
X36614100Y3984094D03*
D12*
G01*
X36439576Y3679719D03*
G01*
X36439576Y3584698D03*
G01*
X36534592Y3584698D03*
G01*
X36534598Y3679720D03*
G01*
X36439576Y3273319D03*
G01*
X36439576Y3178298D03*
G01*
X36534592Y3178298D03*
G01*
X36534598Y3273320D03*
G01*
X36439576Y2866919D03*
G01*
X36439576Y2771898D03*
G01*
X36534592Y2771898D03*
G01*
X36534598Y2866920D03*
G01*
X36439576Y2460519D03*
G01*
X36439576Y2365498D03*
G01*
X36534592Y2365498D03*
G01*
X36534598Y2460520D03*
G01*
X36439576Y2054119D03*
G01*
X36439576Y1959098D03*
G01*
X36534592Y1959098D03*
G01*
X36534598Y2054120D03*
G01*
X36439576Y1647719D03*
G01*
X36439576Y1552698D03*
G01*
X36534592Y1552698D03*
G01*
X36534598Y1647720D03*
G01*
X36439576Y1241319D03*
G01*
X36439576Y1146298D03*
G01*
X36534592Y1146298D03*
G01*
X36534598Y1241320D03*
G01*
X36439576Y834919D03*
G01*
X36439576Y739898D03*
G01*
X36534592Y739898D03*
G01*
X36534598Y834920D03*
G01*
X36439576Y428519D03*
G01*
X36439576Y333498D03*
G01*
X36534592Y333498D03*
G01*
X36534598Y428520D03*
D10*
G01*
X37020500Y435505D03*
D11*
G01*
X37020500Y326494D03*
D12*
G01*
X36845976Y4086119D03*
G01*
X36845976Y3991098D03*
G01*
X36940992Y3991098D03*
G01*
X36940998Y4086120D03*
D10*
G01*
X37020500Y841905D03*
D11*
G01*
X37020500Y732894D03*
D10*
G01*
X37020500Y1248305D03*
D11*
G01*
X37020500Y1139294D03*
D10*
G01*
X37020500Y1654705D03*
D11*
G01*
X37020500Y1545694D03*
D10*
G01*
X37020500Y2061105D03*
D11*
G01*
X37020500Y1952094D03*
D10*
G01*
X37020500Y2467505D03*
D11*
G01*
X37020500Y2358494D03*
D10*
G01*
X37020500Y2873905D03*
D11*
G01*
X37020500Y2764894D03*
D10*
G01*
X37020500Y3280305D03*
D11*
G01*
X37020500Y3171294D03*
D10*
G01*
X37020500Y3686705D03*
D11*
G01*
X37020500Y3577694D03*
D10*
G01*
X37020500Y4093105D03*
D11*
G01*
X37020500Y3984094D03*
D12*
G01*
X36845976Y3679719D03*
G01*
X36845976Y3584698D03*
G01*
X36940992Y3584698D03*
G01*
X36940998Y3679720D03*
G01*
X36845976Y3273319D03*
G01*
X36845976Y3178298D03*
G01*
X36940992Y3178298D03*
G01*
X36940998Y3273320D03*
G01*
X36845976Y2866919D03*
G01*
X36845976Y2771898D03*
G01*
X36940992Y2771898D03*
G01*
X36940998Y2866920D03*
G01*
X36845976Y2460519D03*
G01*
X36845976Y2365498D03*
G01*
X36940992Y2365498D03*
G01*
X36940998Y2460520D03*
G01*
X36845976Y2054119D03*
G01*
X36845976Y1959098D03*
G01*
X36940992Y1959098D03*
G01*
X36940998Y2054120D03*
G01*
X36845976Y1647719D03*
G01*
X36845976Y1552698D03*
G01*
X36940992Y1552698D03*
G01*
X36940998Y1647720D03*
G01*
X36845976Y1241319D03*
G01*
X36845976Y1146298D03*
G01*
X36940992Y1146298D03*
G01*
X36940998Y1241320D03*
G01*
X36845976Y834919D03*
G01*
X36845976Y739898D03*
G01*
X36940992Y739898D03*
G01*
X36940998Y834920D03*
G01*
X36845976Y428519D03*
G01*
X36845976Y333498D03*
G01*
X36940992Y333498D03*
G01*
X36940998Y428520D03*
D10*
G01*
X37426900Y435505D03*
D11*
G01*
X37426900Y326494D03*
D12*
G01*
X37252376Y4086119D03*
G01*
X37252376Y3991098D03*
G01*
X37347392Y3991098D03*
G01*
X37347398Y4086120D03*
D10*
G01*
X37426900Y841905D03*
D11*
G01*
X37426900Y732894D03*
D10*
G01*
X37426900Y1248305D03*
D11*
G01*
X37426900Y1139294D03*
D10*
G01*
X37426900Y1654705D03*
D11*
G01*
X37426900Y1545694D03*
D10*
G01*
X37426900Y2061105D03*
D11*
G01*
X37426900Y1952094D03*
D10*
G01*
X37426900Y2467505D03*
D11*
G01*
X37426900Y2358494D03*
D10*
G01*
X37426900Y2873905D03*
D11*
G01*
X37426900Y2764894D03*
D10*
G01*
X37426900Y3280305D03*
D11*
G01*
X37426900Y3171294D03*
D10*
G01*
X37426900Y3686705D03*
D11*
G01*
X37426900Y3577694D03*
D10*
G01*
X37426900Y4093105D03*
D11*
G01*
X37426900Y3984094D03*
D12*
G01*
X37252376Y3679719D03*
G01*
X37252376Y3584698D03*
G01*
X37347392Y3584698D03*
G01*
X37347398Y3679720D03*
G01*
X37252376Y3273319D03*
G01*
X37252376Y3178298D03*
G01*
X37347392Y3178298D03*
G01*
X37347398Y3273320D03*
G01*
X37252376Y2866919D03*
G01*
X37252376Y2771898D03*
G01*
X37347392Y2771898D03*
G01*
X37347398Y2866920D03*
G01*
X37252376Y2460519D03*
G01*
X37252376Y2365498D03*
G01*
X37347392Y2365498D03*
G01*
X37347398Y2460520D03*
G01*
X37252376Y2054119D03*
G01*
X37252376Y1959098D03*
G01*
X37347392Y1959098D03*
G01*
X37347398Y2054120D03*
G01*
X37252376Y1647719D03*
G01*
X37252376Y1552698D03*
G01*
X37347392Y1552698D03*
G01*
X37347398Y1647720D03*
G01*
X37252376Y1241319D03*
G01*
X37252376Y1146298D03*
G01*
X37347392Y1146298D03*
G01*
X37347398Y1241320D03*
G01*
X37252376Y834919D03*
G01*
X37252376Y739898D03*
G01*
X37347392Y739898D03*
G01*
X37347398Y834920D03*
G01*
X37252376Y428519D03*
G01*
X37252376Y333498D03*
G01*
X37347392Y333498D03*
G01*
X37347398Y428520D03*
D10*
G01*
X37833300Y435505D03*
D11*
G01*
X37833300Y326494D03*
D12*
G01*
X37658776Y4086119D03*
G01*
X37658776Y3991098D03*
G01*
X37753792Y3991098D03*
G01*
X37753798Y4086120D03*
D10*
G01*
X37833300Y841905D03*
D11*
G01*
X37833300Y732894D03*
D10*
G01*
X37833300Y1248305D03*
D11*
G01*
X37833300Y1139294D03*
D10*
G01*
X37833300Y1654705D03*
D11*
G01*
X37833300Y1545694D03*
D10*
G01*
X37833300Y2061105D03*
D11*
G01*
X37833300Y1952094D03*
D10*
G01*
X37833300Y2467505D03*
D11*
G01*
X37833300Y2358494D03*
D10*
G01*
X37833300Y2873905D03*
D11*
G01*
X37833300Y2764894D03*
D10*
G01*
X37833300Y3280305D03*
D11*
G01*
X37833300Y3171294D03*
D10*
G01*
X37833300Y3686705D03*
D11*
G01*
X37833300Y3577694D03*
D10*
G01*
X37833300Y4093105D03*
D11*
G01*
X37833300Y3984094D03*
D12*
G01*
X37658776Y3679719D03*
G01*
X37658776Y3584698D03*
G01*
X37753792Y3584698D03*
G01*
X37753798Y3679720D03*
G01*
X37658776Y3273319D03*
G01*
X37658776Y3178298D03*
G01*
X37753792Y3178298D03*
G01*
X37753798Y3273320D03*
G01*
X37658776Y2866919D03*
G01*
X37658776Y2771898D03*
G01*
X37753792Y2771898D03*
G01*
X37753798Y2866920D03*
G01*
X37658776Y2460519D03*
G01*
X37658776Y2365498D03*
G01*
X37753792Y2365498D03*
G01*
X37753798Y2460520D03*
G01*
X37658776Y2054119D03*
G01*
X37658776Y1959098D03*
G01*
X37753792Y1959098D03*
G01*
X37753798Y2054120D03*
G01*
X37658776Y1647719D03*
G01*
X37658776Y1552698D03*
G01*
X37753792Y1552698D03*
G01*
X37753798Y1647720D03*
G01*
X37658776Y1241319D03*
G01*
X37658776Y1146298D03*
G01*
X37753792Y1146298D03*
G01*
X37753798Y1241320D03*
G01*
X37658776Y834919D03*
G01*
X37658776Y739898D03*
G01*
X37753792Y739898D03*
G01*
X37753798Y834920D03*
G01*
X37658776Y428519D03*
G01*
X37658776Y333498D03*
G01*
X37753792Y333498D03*
G01*
X37753798Y428520D03*
D10*
G01*
X38239700Y435505D03*
D11*
G01*
X38239700Y326494D03*
D12*
G01*
X38065176Y4086119D03*
G01*
X38065176Y3991098D03*
G01*
X38160192Y3991098D03*
G01*
X38160198Y4086120D03*
D10*
G01*
X38239700Y841905D03*
D11*
G01*
X38239700Y732894D03*
D10*
G01*
X38239700Y1248305D03*
D11*
G01*
X38239700Y1139294D03*
D10*
G01*
X38239700Y1654705D03*
D11*
G01*
X38239700Y1545694D03*
D10*
G01*
X38239700Y2061105D03*
D11*
G01*
X38239700Y1952094D03*
D10*
G01*
X38239700Y2467505D03*
D11*
G01*
X38239700Y2358494D03*
D10*
G01*
X38239700Y2873905D03*
D11*
G01*
X38239700Y2764894D03*
D10*
G01*
X38239700Y3280305D03*
D11*
G01*
X38239700Y3171294D03*
D10*
G01*
X38239700Y3686705D03*
D11*
G01*
X38239700Y3577694D03*
D10*
G01*
X38239700Y4093105D03*
D11*
G01*
X38239700Y3984094D03*
D12*
G01*
X38065176Y3679719D03*
G01*
X38065176Y3584698D03*
G01*
X38160192Y3584698D03*
G01*
X38160198Y3679720D03*
G01*
X38065176Y3273319D03*
G01*
X38065176Y3178298D03*
G01*
X38160192Y3178298D03*
G01*
X38160198Y3273320D03*
G01*
X38065176Y2866919D03*
G01*
X38065176Y2771898D03*
G01*
X38160192Y2771898D03*
G01*
X38160198Y2866920D03*
G01*
X38065176Y2460519D03*
G01*
X38065176Y2365498D03*
G01*
X38160192Y2365498D03*
G01*
X38160198Y2460520D03*
G01*
X38065176Y2054119D03*
G01*
X38065176Y1959098D03*
G01*
X38160192Y1959098D03*
G01*
X38160198Y2054120D03*
G01*
X38065176Y1647719D03*
G01*
X38065176Y1552698D03*
G01*
X38160192Y1552698D03*
G01*
X38160198Y1647720D03*
G01*
X38065176Y1241319D03*
G01*
X38065176Y1146298D03*
G01*
X38160192Y1146298D03*
G01*
X38160198Y1241320D03*
G01*
X38065176Y834919D03*
G01*
X38065176Y739898D03*
G01*
X38160192Y739898D03*
G01*
X38160198Y834920D03*
G01*
X38065176Y428519D03*
G01*
X38065176Y333498D03*
G01*
X38160192Y333498D03*
G01*
X38160198Y428520D03*
D10*
G01*
X38646100Y435505D03*
D11*
G01*
X38646100Y326494D03*
D12*
G01*
X38471576Y4086119D03*
G01*
X38471576Y3991098D03*
G01*
X38566592Y3991098D03*
G01*
X38566598Y4086120D03*
D10*
G01*
X38646100Y841905D03*
D11*
G01*
X38646100Y732894D03*
D10*
G01*
X38646100Y1248305D03*
D11*
G01*
X38646100Y1139294D03*
D10*
G01*
X38646100Y1654705D03*
D11*
G01*
X38646100Y1545694D03*
D10*
G01*
X38646100Y2061105D03*
D11*
G01*
X38646100Y1952094D03*
D10*
G01*
X38646100Y2467505D03*
D11*
G01*
X38646100Y2358494D03*
D10*
G01*
X38646100Y2873905D03*
D11*
G01*
X38646100Y2764894D03*
D10*
G01*
X38646100Y3280305D03*
D11*
G01*
X38646100Y3171294D03*
D10*
G01*
X38646100Y3686705D03*
D11*
G01*
X38646100Y3577694D03*
D10*
G01*
X38646100Y4093105D03*
D11*
G01*
X38646100Y3984094D03*
D12*
G01*
X38471576Y3679719D03*
G01*
X38471576Y3584698D03*
G01*
X38566592Y3584698D03*
G01*
X38566598Y3679720D03*
G01*
X38471576Y3273319D03*
G01*
X38471576Y3178298D03*
G01*
X38566592Y3178298D03*
G01*
X38566598Y3273320D03*
G01*
X38471576Y2866919D03*
G01*
X38471576Y2771898D03*
G01*
X38566592Y2771898D03*
G01*
X38566598Y2866920D03*
G01*
X38471576Y2460519D03*
G01*
X38471576Y2365498D03*
G01*
X38566592Y2365498D03*
G01*
X38566598Y2460520D03*
G01*
X38471576Y2054119D03*
G01*
X38471576Y1959098D03*
G01*
X38566592Y1959098D03*
G01*
X38566598Y2054120D03*
G01*
X38471576Y1647719D03*
G01*
X38471576Y1552698D03*
G01*
X38566592Y1552698D03*
G01*
X38566598Y1647720D03*
G01*
X38471576Y1241319D03*
G01*
X38471576Y1146298D03*
G01*
X38566592Y1146298D03*
G01*
X38566598Y1241320D03*
G01*
X38471576Y834919D03*
G01*
X38471576Y739898D03*
G01*
X38566592Y739898D03*
G01*
X38566598Y834920D03*
G01*
X38471576Y428519D03*
G01*
X38471576Y333498D03*
G01*
X38566592Y333498D03*
G01*
X38566598Y428520D03*
D10*
G01*
X39052500Y435505D03*
D11*
G01*
X39052500Y326494D03*
D12*
G01*
X38877976Y4086119D03*
G01*
X38877976Y3991098D03*
G01*
X38972992Y3991098D03*
G01*
X38972998Y4086120D03*
D10*
G01*
X39052500Y841905D03*
D11*
G01*
X39052500Y732894D03*
D10*
G01*
X39052500Y1248305D03*
D11*
G01*
X39052500Y1139294D03*
D10*
G01*
X39052500Y1654705D03*
D11*
G01*
X39052500Y1545694D03*
D10*
G01*
X39052500Y2061105D03*
D11*
G01*
X39052500Y1952094D03*
D10*
G01*
X39052500Y2467505D03*
D11*
G01*
X39052500Y2358494D03*
D10*
G01*
X39052500Y2873905D03*
D11*
G01*
X39052500Y2764894D03*
D10*
G01*
X39052500Y3280305D03*
D11*
G01*
X39052500Y3171294D03*
D10*
G01*
X39052500Y3686705D03*
D11*
G01*
X39052500Y3577694D03*
D10*
G01*
X39052500Y4093105D03*
D11*
G01*
X39052500Y3984094D03*
D12*
G01*
X38877976Y3679719D03*
G01*
X38877976Y3584698D03*
G01*
X38972992Y3584698D03*
G01*
X38972998Y3679720D03*
G01*
X38877976Y3273319D03*
G01*
X38877976Y3178298D03*
G01*
X38972992Y3178298D03*
G01*
X38972998Y3273320D03*
G01*
X38877976Y2866919D03*
G01*
X38877976Y2771898D03*
G01*
X38972992Y2771898D03*
G01*
X38972998Y2866920D03*
G01*
X38877976Y2460519D03*
G01*
X38877976Y2365498D03*
G01*
X38972992Y2365498D03*
G01*
X38972998Y2460520D03*
G01*
X38877976Y2054119D03*
G01*
X38877976Y1959098D03*
G01*
X38972992Y1959098D03*
G01*
X38972998Y2054120D03*
G01*
X38877976Y1647719D03*
G01*
X38877976Y1552698D03*
G01*
X38972992Y1552698D03*
G01*
X38972998Y1647720D03*
G01*
X38877976Y1241319D03*
G01*
X38877976Y1146298D03*
G01*
X38972992Y1146298D03*
G01*
X38972998Y1241320D03*
G01*
X38877976Y834919D03*
G01*
X38877976Y739898D03*
G01*
X38972992Y739898D03*
G01*
X38972998Y834920D03*
G01*
X38877976Y428519D03*
G01*
X38877976Y333498D03*
G01*
X38972992Y333498D03*
G01*
X38972998Y428520D03*
D10*
G01*
X39458900Y435505D03*
D11*
G01*
X39458900Y326494D03*
D12*
G01*
X39284376Y4086119D03*
G01*
X39284376Y3991098D03*
G01*
X39379392Y3991098D03*
G01*
X39379398Y4086120D03*
D10*
G01*
X39458900Y841905D03*
D11*
G01*
X39458900Y732894D03*
D10*
G01*
X39458900Y1248305D03*
D11*
G01*
X39458900Y1139294D03*
D10*
G01*
X39458900Y1654705D03*
D11*
G01*
X39458900Y1545694D03*
D10*
G01*
X39458900Y2061105D03*
D11*
G01*
X39458900Y1952094D03*
D10*
G01*
X39458900Y2467505D03*
D11*
G01*
X39458900Y2358494D03*
D10*
G01*
X39458900Y2873905D03*
D11*
G01*
X39458900Y2764894D03*
D10*
G01*
X39458900Y3280305D03*
D11*
G01*
X39458900Y3171294D03*
D10*
G01*
X39458900Y3686705D03*
D11*
G01*
X39458900Y3577694D03*
D10*
G01*
X39458900Y4093105D03*
D11*
G01*
X39458900Y3984094D03*
D12*
G01*
X39284376Y3679719D03*
G01*
X39284376Y3584698D03*
G01*
X39379392Y3584698D03*
G01*
X39379398Y3679720D03*
G01*
X39284376Y3273319D03*
G01*
X39284376Y3178298D03*
G01*
X39379392Y3178298D03*
G01*
X39379398Y3273320D03*
G01*
X39284376Y2866919D03*
G01*
X39284376Y2771898D03*
G01*
X39379392Y2771898D03*
G01*
X39379398Y2866920D03*
G01*
X39284376Y2460519D03*
G01*
X39284376Y2365498D03*
G01*
X39379392Y2365498D03*
G01*
X39379398Y2460520D03*
G01*
X39284376Y2054119D03*
G01*
X39284376Y1959098D03*
G01*
X39379392Y1959098D03*
G01*
X39379398Y2054120D03*
G01*
X39284376Y1647719D03*
G01*
X39284376Y1552698D03*
G01*
X39379392Y1552698D03*
G01*
X39379398Y1647720D03*
G01*
X39284376Y1241319D03*
G01*
X39284376Y1146298D03*
G01*
X39379392Y1146298D03*
G01*
X39379398Y1241320D03*
G01*
X39284376Y834919D03*
G01*
X39284376Y739898D03*
G01*
X39379392Y739898D03*
G01*
X39379398Y834920D03*
G01*
X39284376Y428519D03*
G01*
X39284376Y333498D03*
G01*
X39379392Y333498D03*
G01*
X39379398Y428520D03*
D10*
G01*
X39865300Y435505D03*
D11*
G01*
X39865300Y326494D03*
D12*
G01*
X39690776Y4086119D03*
G01*
X39690776Y3991098D03*
G01*
X39785792Y3991098D03*
G01*
X39785798Y4086120D03*
D10*
G01*
X39865300Y841905D03*
D11*
G01*
X39865300Y732894D03*
D10*
G01*
X39865300Y1248305D03*
D11*
G01*
X39865300Y1139294D03*
D10*
G01*
X39865300Y1654705D03*
D11*
G01*
X39865300Y1545694D03*
D10*
G01*
X39865300Y2061105D03*
D11*
G01*
X39865300Y1952094D03*
D10*
G01*
X39865300Y2467505D03*
D11*
G01*
X39865300Y2358494D03*
D10*
G01*
X39865300Y2873905D03*
D11*
G01*
X39865300Y2764894D03*
D10*
G01*
X39865300Y3280305D03*
D11*
G01*
X39865300Y3171294D03*
D10*
G01*
X39865300Y3686705D03*
D11*
G01*
X39865300Y3577694D03*
D10*
G01*
X39865300Y4093105D03*
D11*
G01*
X39865300Y3984094D03*
D12*
G01*
X39690776Y3679719D03*
G01*
X39690776Y3584698D03*
G01*
X39785792Y3584698D03*
G01*
X39785798Y3679720D03*
G01*
X39690776Y3273319D03*
G01*
X39690776Y3178298D03*
G01*
X39785792Y3178298D03*
G01*
X39785798Y3273320D03*
G01*
X39690776Y2866919D03*
G01*
X39690776Y2771898D03*
G01*
X39785792Y2771898D03*
G01*
X39785798Y2866920D03*
G01*
X39690776Y2460519D03*
G01*
X39690776Y2365498D03*
G01*
X39785792Y2365498D03*
G01*
X39785798Y2460520D03*
G01*
X39690776Y2054119D03*
G01*
X39690776Y1959098D03*
G01*
X39785792Y1959098D03*
G01*
X39785798Y2054120D03*
G01*
X39690776Y1647719D03*
G01*
X39690776Y1552698D03*
G01*
X39785792Y1552698D03*
G01*
X39785798Y1647720D03*
G01*
X39690776Y1241319D03*
G01*
X39690776Y1146298D03*
G01*
X39785792Y1146298D03*
G01*
X39785798Y1241320D03*
G01*
X39690776Y834919D03*
G01*
X39690776Y739898D03*
G01*
X39785792Y739898D03*
G01*
X39785798Y834920D03*
G01*
X39690776Y428519D03*
G01*
X39690776Y333498D03*
G01*
X39785792Y333498D03*
G01*
X39785798Y428520D03*
D10*
G01*
X40271700Y435505D03*
D11*
G01*
X40271700Y326494D03*
D12*
G01*
X40097176Y4086119D03*
G01*
X40097176Y3991098D03*
G01*
X40192192Y3991098D03*
G01*
X40192198Y4086120D03*
D10*
G01*
X40271700Y841905D03*
D11*
G01*
X40271700Y732894D03*
D10*
G01*
X40271700Y1248305D03*
D11*
G01*
X40271700Y1139294D03*
D10*
G01*
X40271700Y1654705D03*
D11*
G01*
X40271700Y1545694D03*
D10*
G01*
X40271700Y2061105D03*
D11*
G01*
X40271700Y1952094D03*
D10*
G01*
X40271700Y2467505D03*
D11*
G01*
X40271700Y2358494D03*
D10*
G01*
X40271700Y2873905D03*
D11*
G01*
X40271700Y2764894D03*
D10*
G01*
X40271700Y3280305D03*
D11*
G01*
X40271700Y3171294D03*
D10*
G01*
X40271700Y3686705D03*
D11*
G01*
X40271700Y3577694D03*
D10*
G01*
X40271700Y4093105D03*
D11*
G01*
X40271700Y3984094D03*
D12*
G01*
X40097176Y3679719D03*
G01*
X40097176Y3584698D03*
G01*
X40192192Y3584698D03*
G01*
X40192198Y3679720D03*
G01*
X40097176Y3273319D03*
G01*
X40097176Y3178298D03*
G01*
X40192192Y3178298D03*
G01*
X40192198Y3273320D03*
G01*
X40097176Y2866919D03*
G01*
X40097176Y2771898D03*
G01*
X40192192Y2771898D03*
G01*
X40192198Y2866920D03*
G01*
X40097176Y2460519D03*
G01*
X40097176Y2365498D03*
G01*
X40192192Y2365498D03*
G01*
X40192198Y2460520D03*
G01*
X40097176Y2054119D03*
G01*
X40097176Y1959098D03*
G01*
X40192192Y1959098D03*
G01*
X40192198Y2054120D03*
G01*
X40097176Y1647719D03*
G01*
X40097176Y1552698D03*
G01*
X40192192Y1552698D03*
G01*
X40192198Y1647720D03*
G01*
X40097176Y1241319D03*
G01*
X40097176Y1146298D03*
G01*
X40192192Y1146298D03*
G01*
X40192198Y1241320D03*
G01*
X40097176Y834919D03*
G01*
X40097176Y739898D03*
G01*
X40192192Y739898D03*
G01*
X40192198Y834920D03*
G01*
X40097176Y428519D03*
G01*
X40097176Y333498D03*
G01*
X40192192Y333498D03*
G01*
X40192198Y428520D03*
D10*
G01*
X40678100Y435505D03*
D11*
G01*
X40678100Y326494D03*
D12*
G01*
X40503576Y4086119D03*
G01*
X40503576Y3991098D03*
G01*
X40598592Y3991098D03*
G01*
X40598598Y4086120D03*
D10*
G01*
X40678100Y841905D03*
D11*
G01*
X40678100Y732894D03*
D10*
G01*
X40678100Y1248305D03*
D11*
G01*
X40678100Y1139294D03*
D10*
G01*
X40678100Y1654705D03*
D11*
G01*
X40678100Y1545694D03*
D10*
G01*
X40678100Y2061105D03*
D11*
G01*
X40678100Y1952094D03*
D10*
G01*
X40678100Y2467505D03*
D11*
G01*
X40678100Y2358494D03*
D10*
G01*
X40678100Y2873905D03*
D11*
G01*
X40678100Y2764894D03*
D10*
G01*
X40678100Y3280305D03*
D11*
G01*
X40678100Y3171294D03*
D10*
G01*
X40678100Y3686705D03*
D11*
G01*
X40678100Y3577694D03*
D10*
G01*
X40678100Y4093105D03*
D11*
G01*
X40678100Y3984094D03*
D12*
G01*
X40503576Y3679719D03*
G01*
X40503576Y3584698D03*
G01*
X40598592Y3584698D03*
G01*
X40598598Y3679720D03*
G01*
X40503576Y3273319D03*
G01*
X40503576Y3178298D03*
G01*
X40598592Y3178298D03*
G01*
X40598598Y3273320D03*
G01*
X40503576Y2866919D03*
G01*
X40503576Y2771898D03*
G01*
X40598592Y2771898D03*
G01*
X40598598Y2866920D03*
G01*
X40503576Y2460519D03*
G01*
X40503576Y2365498D03*
G01*
X40598592Y2365498D03*
G01*
X40598598Y2460520D03*
G01*
X40503576Y2054119D03*
G01*
X40503576Y1959098D03*
G01*
X40598592Y1959098D03*
G01*
X40598598Y2054120D03*
G01*
X40503576Y1647719D03*
G01*
X40503576Y1552698D03*
G01*
X40598592Y1552698D03*
G01*
X40598598Y1647720D03*
G01*
X40503576Y1241319D03*
G01*
X40503576Y1146298D03*
G01*
X40598592Y1146298D03*
G01*
X40598598Y1241320D03*
G01*
X40503576Y834919D03*
G01*
X40503576Y739898D03*
G01*
X40598592Y739898D03*
G01*
X40598598Y834920D03*
G01*
X40503576Y428519D03*
G01*
X40503576Y333498D03*
G01*
X40598592Y333498D03*
G01*
X40598598Y428520D03*
D10*
G01*
X41084500Y435505D03*
D11*
G01*
X41084500Y326494D03*
D12*
G01*
X40909976Y4086119D03*
G01*
X40909976Y3991098D03*
G01*
X41004992Y3991098D03*
G01*
X41004998Y4086120D03*
D10*
G01*
X41084500Y841905D03*
D11*
G01*
X41084500Y732894D03*
D10*
G01*
X41084500Y1248305D03*
D11*
G01*
X41084500Y1139294D03*
D10*
G01*
X41084500Y1654705D03*
D11*
G01*
X41084500Y1545694D03*
D10*
G01*
X41084500Y2061105D03*
D11*
G01*
X41084500Y1952094D03*
D10*
G01*
X41084500Y2467505D03*
D11*
G01*
X41084500Y2358494D03*
D10*
G01*
X41084500Y2873905D03*
D11*
G01*
X41084500Y2764894D03*
D10*
G01*
X41084500Y3280305D03*
D11*
G01*
X41084500Y3171294D03*
D10*
G01*
X41084500Y3686705D03*
D11*
G01*
X41084500Y3577694D03*
D10*
G01*
X41084500Y4093105D03*
D11*
G01*
X41084500Y3984094D03*
D12*
G01*
X40909976Y3679719D03*
G01*
X40909976Y3584698D03*
G01*
X41004992Y3584698D03*
G01*
X41004998Y3679720D03*
G01*
X40909976Y3273319D03*
G01*
X40909976Y3178298D03*
G01*
X41004992Y3178298D03*
G01*
X41004998Y3273320D03*
G01*
X40909976Y2866919D03*
G01*
X40909976Y2771898D03*
G01*
X41004992Y2771898D03*
G01*
X41004998Y2866920D03*
G01*
X40909976Y2460519D03*
G01*
X40909976Y2365498D03*
G01*
X41004992Y2365498D03*
G01*
X41004998Y2460520D03*
G01*
X40909976Y2054119D03*
G01*
X40909976Y1959098D03*
G01*
X41004992Y1959098D03*
G01*
X41004998Y2054120D03*
G01*
X40909976Y1647719D03*
G01*
X40909976Y1552698D03*
G01*
X41004992Y1552698D03*
G01*
X41004998Y1647720D03*
G01*
X40909976Y1241319D03*
G01*
X40909976Y1146298D03*
G01*
X41004992Y1146298D03*
G01*
X41004998Y1241320D03*
G01*
X40909976Y834919D03*
G01*
X40909976Y739898D03*
G01*
X41004992Y739898D03*
G01*
X41004998Y834920D03*
G01*
X40909976Y428519D03*
G01*
X40909976Y333498D03*
G01*
X41004992Y333498D03*
G01*
X41004998Y428520D03*
D10*
G01*
X41490900Y435505D03*
D11*
G01*
X41490900Y326494D03*
D12*
G01*
X41316376Y4086119D03*
G01*
X41316376Y3991098D03*
G01*
X41411392Y3991098D03*
G01*
X41411398Y4086120D03*
D10*
G01*
X41490900Y841905D03*
D11*
G01*
X41490900Y732894D03*
D10*
G01*
X41490900Y1248305D03*
D11*
G01*
X41490900Y1139294D03*
D10*
G01*
X41490900Y1654705D03*
D11*
G01*
X41490900Y1545694D03*
D10*
G01*
X41490900Y2061105D03*
D11*
G01*
X41490900Y1952094D03*
D10*
G01*
X41490900Y2467505D03*
D11*
G01*
X41490900Y2358494D03*
D10*
G01*
X41490900Y2873905D03*
D11*
G01*
X41490900Y2764894D03*
D10*
G01*
X41490900Y3280305D03*
D11*
G01*
X41490900Y3171294D03*
D10*
G01*
X41490900Y3686705D03*
D11*
G01*
X41490900Y3577694D03*
D10*
G01*
X41490900Y4093105D03*
D11*
G01*
X41490900Y3984094D03*
D12*
G01*
X41316376Y3679719D03*
G01*
X41316376Y3584698D03*
G01*
X41411392Y3584698D03*
G01*
X41411398Y3679720D03*
G01*
X41316376Y3273319D03*
G01*
X41316376Y3178298D03*
G01*
X41411392Y3178298D03*
G01*
X41411398Y3273320D03*
G01*
X41316376Y2866919D03*
G01*
X41316376Y2771898D03*
G01*
X41411392Y2771898D03*
G01*
X41411398Y2866920D03*
G01*
X41316376Y2460519D03*
G01*
X41316376Y2365498D03*
G01*
X41411392Y2365498D03*
G01*
X41411398Y2460520D03*
G01*
X41316376Y2054119D03*
G01*
X41316376Y1959098D03*
G01*
X41411392Y1959098D03*
G01*
X41411398Y2054120D03*
G01*
X41316376Y1647719D03*
G01*
X41316376Y1552698D03*
G01*
X41411392Y1552698D03*
G01*
X41411398Y1647720D03*
G01*
X41316376Y1241319D03*
G01*
X41316376Y1146298D03*
G01*
X41411392Y1146298D03*
G01*
X41411398Y1241320D03*
G01*
X41316376Y834919D03*
G01*
X41316376Y739898D03*
G01*
X41411392Y739898D03*
G01*
X41411398Y834920D03*
G01*
X41316376Y428519D03*
G01*
X41316376Y333498D03*
G01*
X41411392Y333498D03*
G01*
X41411398Y428520D03*
D10*
G01*
X41897300Y435505D03*
D11*
G01*
X41897300Y326494D03*
D12*
G01*
X41722776Y4086119D03*
G01*
X41722776Y3991098D03*
G01*
X41817792Y3991098D03*
G01*
X41817798Y4086120D03*
D10*
G01*
X41897300Y841905D03*
D11*
G01*
X41897300Y732894D03*
D10*
G01*
X41897300Y1248305D03*
D11*
G01*
X41897300Y1139294D03*
D10*
G01*
X41897300Y1654705D03*
D11*
G01*
X41897300Y1545694D03*
D10*
G01*
X41897300Y2061105D03*
D11*
G01*
X41897300Y1952094D03*
D10*
G01*
X41897300Y2467505D03*
D11*
G01*
X41897300Y2358494D03*
D10*
G01*
X41897300Y2873905D03*
D11*
G01*
X41897300Y2764894D03*
D10*
G01*
X41897300Y3280305D03*
D11*
G01*
X41897300Y3171294D03*
D10*
G01*
X41897300Y3686705D03*
D11*
G01*
X41897300Y3577694D03*
D10*
G01*
X41897300Y4093105D03*
D11*
G01*
X41897300Y3984094D03*
D12*
G01*
X41722776Y3679719D03*
G01*
X41722776Y3584698D03*
G01*
X41817792Y3584698D03*
G01*
X41817798Y3679720D03*
G01*
X41722776Y3273319D03*
G01*
X41722776Y3178298D03*
G01*
X41817792Y3178298D03*
G01*
X41817798Y3273320D03*
G01*
X41722776Y2866919D03*
G01*
X41722776Y2771898D03*
G01*
X41817792Y2771898D03*
G01*
X41817798Y2866920D03*
G01*
X41722776Y2460519D03*
G01*
X41722776Y2365498D03*
G01*
X41817792Y2365498D03*
G01*
X41817798Y2460520D03*
G01*
X41722776Y2054119D03*
G01*
X41722776Y1959098D03*
G01*
X41817792Y1959098D03*
G01*
X41817798Y2054120D03*
G01*
X41722776Y1647719D03*
G01*
X41722776Y1552698D03*
G01*
X41817792Y1552698D03*
G01*
X41817798Y1647720D03*
G01*
X41722776Y1241319D03*
G01*
X41722776Y1146298D03*
G01*
X41817792Y1146298D03*
G01*
X41817798Y1241320D03*
G01*
X41722776Y834919D03*
G01*
X41722776Y739898D03*
G01*
X41817792Y739898D03*
G01*
X41817798Y834920D03*
G01*
X41722776Y428519D03*
G01*
X41722776Y333498D03*
G01*
X41817792Y333498D03*
G01*
X41817798Y428520D03*
D10*
G01*
X42303700Y435505D03*
D11*
G01*
X42303700Y326494D03*
D12*
G01*
X42129176Y4086119D03*
G01*
X42129176Y3991098D03*
G01*
X42224192Y3991098D03*
G01*
X42224198Y4086120D03*
D10*
G01*
X42303700Y841905D03*
D11*
G01*
X42303700Y732894D03*
D10*
G01*
X42303700Y1248305D03*
D11*
G01*
X42303700Y1139294D03*
D10*
G01*
X42303700Y1654705D03*
D11*
G01*
X42303700Y1545694D03*
D10*
G01*
X42303700Y2061105D03*
D11*
G01*
X42303700Y1952094D03*
D10*
G01*
X42303700Y2467505D03*
D11*
G01*
X42303700Y2358494D03*
D10*
G01*
X42303700Y2873905D03*
D11*
G01*
X42303700Y2764894D03*
D10*
G01*
X42303700Y3280305D03*
D11*
G01*
X42303700Y3171294D03*
D10*
G01*
X42303700Y3686705D03*
D11*
G01*
X42303700Y3577694D03*
D10*
G01*
X42303700Y4093105D03*
D11*
G01*
X42303700Y3984094D03*
D12*
G01*
X42129176Y3679719D03*
G01*
X42129176Y3584698D03*
G01*
X42224192Y3584698D03*
G01*
X42224198Y3679720D03*
G01*
X42129176Y3273319D03*
G01*
X42129176Y3178298D03*
G01*
X42224192Y3178298D03*
G01*
X42224198Y3273320D03*
G01*
X42129176Y2866919D03*
G01*
X42129176Y2771898D03*
G01*
X42224192Y2771898D03*
G01*
X42224198Y2866920D03*
G01*
X42129176Y2460519D03*
G01*
X42129176Y2365498D03*
G01*
X42224192Y2365498D03*
G01*
X42224198Y2460520D03*
G01*
X42129176Y2054119D03*
G01*
X42129176Y1959098D03*
G01*
X42224192Y1959098D03*
G01*
X42224198Y2054120D03*
G01*
X42129176Y1647719D03*
G01*
X42129176Y1552698D03*
G01*
X42224192Y1552698D03*
G01*
X42224198Y1647720D03*
G01*
X42129176Y1241319D03*
G01*
X42129176Y1146298D03*
G01*
X42224192Y1146298D03*
G01*
X42224198Y1241320D03*
G01*
X42129176Y834919D03*
G01*
X42129176Y739898D03*
G01*
X42224192Y739898D03*
G01*
X42224198Y834920D03*
G01*
X42129176Y428519D03*
G01*
X42129176Y333498D03*
G01*
X42224192Y333498D03*
G01*
X42224198Y428520D03*
D10*
G01*
X42710100Y435505D03*
D11*
G01*
X42710100Y326494D03*
D12*
G01*
X42535576Y4086119D03*
G01*
X42535576Y3991098D03*
G01*
X42630592Y3991098D03*
G01*
X42630598Y4086120D03*
D10*
G01*
X42710100Y841905D03*
D11*
G01*
X42710100Y732894D03*
D10*
G01*
X42710100Y1248305D03*
D11*
G01*
X42710100Y1139294D03*
D10*
G01*
X42710100Y1654705D03*
D11*
G01*
X42710100Y1545694D03*
D10*
G01*
X42710100Y2061105D03*
D11*
G01*
X42710100Y1952094D03*
D10*
G01*
X42710100Y2467505D03*
D11*
G01*
X42710100Y2358494D03*
D10*
G01*
X42710100Y2873905D03*
D11*
G01*
X42710100Y2764894D03*
D10*
G01*
X42710100Y3280305D03*
D11*
G01*
X42710100Y3171294D03*
D10*
G01*
X42710100Y3686705D03*
D11*
G01*
X42710100Y3577694D03*
D10*
G01*
X42710100Y4093105D03*
D11*
G01*
X42710100Y3984094D03*
D12*
G01*
X42535576Y3679719D03*
G01*
X42535576Y3584698D03*
G01*
X42630592Y3584698D03*
G01*
X42630598Y3679720D03*
G01*
X42535576Y3273319D03*
G01*
X42535576Y3178298D03*
G01*
X42630592Y3178298D03*
G01*
X42630598Y3273320D03*
G01*
X42535576Y2866919D03*
G01*
X42535576Y2771898D03*
G01*
X42630592Y2771898D03*
G01*
X42630598Y2866920D03*
G01*
X42535576Y2460519D03*
G01*
X42535576Y2365498D03*
G01*
X42630592Y2365498D03*
G01*
X42630598Y2460520D03*
G01*
X42535576Y2054119D03*
G01*
X42535576Y1959098D03*
G01*
X42630592Y1959098D03*
G01*
X42630598Y2054120D03*
G01*
X42535576Y1647719D03*
G01*
X42535576Y1552698D03*
G01*
X42630592Y1552698D03*
G01*
X42630598Y1647720D03*
G01*
X42535576Y1241319D03*
G01*
X42535576Y1146298D03*
G01*
X42630592Y1146298D03*
G01*
X42630598Y1241320D03*
G01*
X42535576Y834919D03*
G01*
X42535576Y739898D03*
G01*
X42630592Y739898D03*
G01*
X42630598Y834920D03*
G01*
X42535576Y428519D03*
G01*
X42535576Y333498D03*
G01*
X42630592Y333498D03*
G01*
X42630598Y428520D03*
D10*
G01*
X43116500Y435505D03*
D11*
G01*
X43116500Y326494D03*
D12*
G01*
X42941976Y4086119D03*
G01*
X42941976Y3991098D03*
G01*
X43036992Y3991098D03*
G01*
X43036998Y4086120D03*
D10*
G01*
X43116500Y841905D03*
D11*
G01*
X43116500Y732894D03*
D10*
G01*
X43116500Y1248305D03*
D11*
G01*
X43116500Y1139294D03*
D10*
G01*
X43116500Y1654705D03*
D11*
G01*
X43116500Y1545694D03*
D10*
G01*
X43116500Y2061105D03*
D11*
G01*
X43116500Y1952094D03*
D10*
G01*
X43116500Y2467505D03*
D11*
G01*
X43116500Y2358494D03*
D10*
G01*
X43116500Y2873905D03*
D11*
G01*
X43116500Y2764894D03*
D10*
G01*
X43116500Y3280305D03*
D11*
G01*
X43116500Y3171294D03*
D10*
G01*
X43116500Y3686705D03*
D11*
G01*
X43116500Y3577694D03*
D10*
G01*
X43116500Y4093105D03*
D11*
G01*
X43116500Y3984094D03*
D12*
G01*
X42941976Y3679719D03*
G01*
X42941976Y3584698D03*
G01*
X43036992Y3584698D03*
G01*
X43036998Y3679720D03*
G01*
X42941976Y3273319D03*
G01*
X42941976Y3178298D03*
G01*
X43036992Y3178298D03*
G01*
X43036998Y3273320D03*
G01*
X42941976Y2866919D03*
G01*
X42941976Y2771898D03*
G01*
X43036992Y2771898D03*
G01*
X43036998Y2866920D03*
G01*
X42941976Y2460519D03*
G01*
X42941976Y2365498D03*
G01*
X43036992Y2365498D03*
G01*
X43036998Y2460520D03*
G01*
X42941976Y2054119D03*
G01*
X42941976Y1959098D03*
G01*
X43036992Y1959098D03*
G01*
X43036998Y2054120D03*
G01*
X42941976Y1647719D03*
G01*
X42941976Y1552698D03*
G01*
X43036992Y1552698D03*
G01*
X43036998Y1647720D03*
G01*
X42941976Y1241319D03*
G01*
X42941976Y1146298D03*
G01*
X43036992Y1146298D03*
G01*
X43036998Y1241320D03*
G01*
X42941976Y834919D03*
G01*
X42941976Y739898D03*
G01*
X43036992Y739898D03*
G01*
X43036998Y834920D03*
G01*
X42941976Y428519D03*
G01*
X42941976Y333498D03*
G01*
X43036992Y333498D03*
G01*
X43036998Y428520D03*
D10*
G01*
X43522900Y435505D03*
D11*
G01*
X43522900Y326494D03*
D12*
G01*
X43348376Y4086119D03*
G01*
X43348376Y3991098D03*
G01*
X43443392Y3991098D03*
G01*
X43443398Y4086120D03*
D10*
G01*
X43522900Y841905D03*
D11*
G01*
X43522900Y732894D03*
D10*
G01*
X43522900Y1248305D03*
D11*
G01*
X43522900Y1139294D03*
D10*
G01*
X43522900Y1654705D03*
D11*
G01*
X43522900Y1545694D03*
D10*
G01*
X43522900Y2061105D03*
D11*
G01*
X43522900Y1952094D03*
D10*
G01*
X43522900Y2467505D03*
D11*
G01*
X43522900Y2358494D03*
D10*
G01*
X43522900Y2873905D03*
D11*
G01*
X43522900Y2764894D03*
D10*
G01*
X43522900Y3280305D03*
D11*
G01*
X43522900Y3171294D03*
D10*
G01*
X43522900Y3686705D03*
D11*
G01*
X43522900Y3577694D03*
D10*
G01*
X43522900Y4093105D03*
D11*
G01*
X43522900Y3984094D03*
D12*
G01*
X43348376Y3679719D03*
G01*
X43348376Y3584698D03*
G01*
X43443392Y3584698D03*
G01*
X43443398Y3679720D03*
G01*
X43348376Y3273319D03*
G01*
X43348376Y3178298D03*
G01*
X43443392Y3178298D03*
G01*
X43443398Y3273320D03*
G01*
X43348376Y2866919D03*
G01*
X43348376Y2771898D03*
G01*
X43443392Y2771898D03*
G01*
X43443398Y2866920D03*
G01*
X43348376Y2460519D03*
G01*
X43348376Y2365498D03*
G01*
X43443392Y2365498D03*
G01*
X43443398Y2460520D03*
G01*
X43348376Y2054119D03*
G01*
X43348376Y1959098D03*
G01*
X43443392Y1959098D03*
G01*
X43443398Y2054120D03*
G01*
X43348376Y1647719D03*
G01*
X43348376Y1552698D03*
G01*
X43443392Y1552698D03*
G01*
X43443398Y1647720D03*
G01*
X43348376Y1241319D03*
G01*
X43348376Y1146298D03*
G01*
X43443392Y1146298D03*
G01*
X43443398Y1241320D03*
G01*
X43348376Y834919D03*
G01*
X43348376Y739898D03*
G01*
X43443392Y739898D03*
G01*
X43443398Y834920D03*
G01*
X43348376Y428519D03*
G01*
X43348376Y333498D03*
G01*
X43443392Y333498D03*
G01*
X43443398Y428520D03*
D10*
G01*
X43929300Y435505D03*
D11*
G01*
X43929300Y326494D03*
D12*
G01*
X43754776Y4086119D03*
G01*
X43754776Y3991098D03*
G01*
X43849792Y3991098D03*
G01*
X43849798Y4086120D03*
D10*
G01*
X43929300Y841905D03*
D11*
G01*
X43929300Y732894D03*
D10*
G01*
X43929300Y1248305D03*
D11*
G01*
X43929300Y1139294D03*
D10*
G01*
X43929300Y1654705D03*
D11*
G01*
X43929300Y1545694D03*
D10*
G01*
X43929300Y2061105D03*
D11*
G01*
X43929300Y1952094D03*
D10*
G01*
X43929300Y2467505D03*
D11*
G01*
X43929300Y2358494D03*
D10*
G01*
X43929300Y2873905D03*
D11*
G01*
X43929300Y2764894D03*
D10*
G01*
X43929300Y3280305D03*
D11*
G01*
X43929300Y3171294D03*
D10*
G01*
X43929300Y3686705D03*
D11*
G01*
X43929300Y3577694D03*
D10*
G01*
X43929300Y4093105D03*
D11*
G01*
X43929300Y3984094D03*
D12*
G01*
X43754776Y3679719D03*
G01*
X43754776Y3584698D03*
G01*
X43849792Y3584698D03*
G01*
X43849798Y3679720D03*
G01*
X43754776Y3273319D03*
G01*
X43754776Y3178298D03*
G01*
X43849792Y3178298D03*
G01*
X43849798Y3273320D03*
G01*
X43754776Y2866919D03*
G01*
X43754776Y2771898D03*
G01*
X43849792Y2771898D03*
G01*
X43849798Y2866920D03*
G01*
X43754776Y2460519D03*
G01*
X43754776Y2365498D03*
G01*
X43849792Y2365498D03*
G01*
X43849798Y2460520D03*
G01*
X43754776Y2054119D03*
G01*
X43754776Y1959098D03*
G01*
X43849792Y1959098D03*
G01*
X43849798Y2054120D03*
G01*
X43754776Y1647719D03*
G01*
X43754776Y1552698D03*
G01*
X43849792Y1552698D03*
G01*
X43849798Y1647720D03*
G01*
X43754776Y1241319D03*
G01*
X43754776Y1146298D03*
G01*
X43849792Y1146298D03*
G01*
X43849798Y1241320D03*
G01*
X43754776Y834919D03*
G01*
X43754776Y739898D03*
G01*
X43849792Y739898D03*
G01*
X43849798Y834920D03*
G01*
X43754776Y428519D03*
G01*
X43754776Y333498D03*
G01*
X43849792Y333498D03*
G01*
X43849798Y428520D03*
G01*
X44161176Y428519D03*
G01*
X44161176Y333498D03*
G01*
X44256192Y333498D03*
G01*
X44256198Y428520D03*
G01*
X44161176Y834919D03*
G01*
X44161176Y739898D03*
G01*
X44256192Y739898D03*
G01*
X44256198Y834920D03*
G01*
X44161176Y1241319D03*
G01*
X44161176Y1146298D03*
G01*
X44256192Y1146298D03*
G01*
X44256198Y1241320D03*
G01*
X44161176Y1647719D03*
G01*
X44161176Y1552698D03*
G01*
X44256192Y1552698D03*
G01*
X44256198Y1647720D03*
G01*
X44161176Y2054119D03*
G01*
X44161176Y1959098D03*
G01*
X44256192Y1959098D03*
G01*
X44256198Y2054120D03*
G01*
X44161176Y2460519D03*
G01*
X44161176Y2365498D03*
G01*
X44256192Y2365498D03*
G01*
X44256198Y2460520D03*
G01*
X44161176Y2866919D03*
G01*
X44161176Y2771898D03*
G01*
X44256192Y2771898D03*
G01*
X44256198Y2866920D03*
G01*
X44161176Y3273319D03*
G01*
X44161176Y3178298D03*
G01*
X44256192Y3178298D03*
G01*
X44256198Y3273320D03*
G01*
X44161176Y3679719D03*
G01*
X44161176Y3584698D03*
G01*
X44256192Y3584698D03*
G01*
X44256198Y3679720D03*
D10*
G01*
X44335700Y4093105D03*
D11*
G01*
X44335700Y3984094D03*
D10*
G01*
X44335700Y3686705D03*
D11*
G01*
X44335700Y3577694D03*
D10*
G01*
X44335700Y3280305D03*
D11*
G01*
X44335700Y3171294D03*
D10*
G01*
X44335700Y2873905D03*
D11*
G01*
X44335700Y2764894D03*
D10*
G01*
X44335700Y2467505D03*
D11*
G01*
X44335700Y2358494D03*
D10*
G01*
X44335700Y2061105D03*
D11*
G01*
X44335700Y1952094D03*
D10*
G01*
X44335700Y1654705D03*
D11*
G01*
X44335700Y1545694D03*
D10*
G01*
X44335700Y1248305D03*
D11*
G01*
X44335700Y1139294D03*
D10*
G01*
X44335700Y841905D03*
D11*
G01*
X44335700Y732894D03*
D12*
G01*
X44161176Y4086119D03*
G01*
X44161176Y3991098D03*
G01*
X44256192Y3991098D03*
G01*
X44256198Y4086120D03*
D10*
G01*
X44335700Y435505D03*
D11*
G01*
X44335700Y326494D03*
D13*
G01*
X45466010Y1333494D03*
D14*
G01*
X45466000Y1587500D03*
G01*
X45466000Y1841500D03*
G01*
X45466000Y2095500D03*
G01*
X45466000Y2349500D03*
G01*
X45466000Y2603500D03*
G01*
X45466000Y2857500D03*
G01*
X45466000Y3111500D03*
D15*
G01*
X2794000Y3810000D03*
G01*
X2794000Y635000D03*
G01*
X45466000Y635000D03*
G01*
X45466000Y3810000D03*
M02*
